<svg width="160" height="35" viewBox="0 0 160 35" fill="none" xmlns="http://www.w3.org/2000/svg">
<g clip-path="url(#clip0_148_6572)">
<path d="M145.496 30.9888L147.439 23.3395C147.997 21.8778 148.991 21.1469 150.423 21.1469H160L159.235 24.1781H150.971C150.885 24.1813 150.802 24.2111 150.735 24.2631C150.646 24.321 150.581 24.4047 150.547 24.5015L150.091 26.2501H155.722L154.998 29.284H149.338L148.937 30.8901C148.926 30.9476 148.928 31.0066 148.944 31.063C148.96 31.1194 148.989 31.1717 149.029 31.2162C149.066 31.2607 149.113 31.2962 149.168 31.32C149.222 31.3438 149.281 31.3552 149.341 31.3533H157.405C157.18 32.2668 156.927 33.2718 156.646 34.368H148.44C147.99 34.3826 147.543 34.297 147.134 34.1181C146.725 33.9392 146.366 33.6718 146.085 33.3375C145.796 33.0166 145.593 32.6344 145.492 32.2232C145.392 31.812 145.397 31.3839 145.508 30.9751L145.496 30.9888ZM132.337 30.9751L134.277 23.3258C134.831 21.8641 135.823 21.1332 137.253 21.1332H146.838L146.05 24.1836H137.787C137.701 24.1877 137.619 24.2175 137.553 24.2686C137.47 24.3294 137.409 24.4125 137.377 24.507L135.763 30.8901C135.752 30.9478 135.755 31.0071 135.771 31.0636C135.788 31.1201 135.818 31.1723 135.858 31.2162C135.897 31.2604 135.946 31.2958 136.001 31.3195C136.056 31.3432 136.116 31.3548 136.176 31.3533H144.258C144.025 32.2668 143.767 33.2718 143.484 34.368H135.281C134.213 34.3297 133.414 33.9588 132.883 33.2553C132.628 32.9353 132.448 32.5683 132.352 32.178C132.256 31.7876 132.247 31.3826 132.326 30.9888L132.337 30.9751ZM115.622 34.368L118.442 23.3258C119.019 21.8641 119.994 21.1332 121.366 21.1332H122.255L128.368 27.985L130.022 21.1332H133.33L129.962 34.3626H126.686L127.306 31.8959L121.262 25.0853L118.918 34.3817L115.622 34.368ZM101.603 34.368L104.446 23.3258C104.989 21.8641 105.945 21.1332 107.315 21.1332H117.449L114.072 34.3626H110.767L111.702 30.7339L113.376 24.1836H107.777C107.694 24.1855 107.614 24.2157 107.552 24.2686C107.47 24.3284 107.411 24.4122 107.384 24.507L106.568 27.7054H111.518L110.733 30.7448H105.797L104.865 34.3817L101.603 34.368ZM99.4642 34.368H96.116C96.2084 34.0337 96.3556 33.4855 96.5605 32.7236C96.7655 31.9617 96.9877 31.1395 97.2157 30.2762C97.4438 29.4129 97.6458 28.6646 97.8103 28.037C97.9748 27.4094 98.0586 27.0887 98.0586 27.0887C97.4813 27.9 96.8357 28.7916 96.1218 29.7637C95.4002 30.7339 94.7681 31.5862 94.2255 32.3125L93.4115 33.4088C92.9272 33.4141 92.4563 33.2579 92.0808 32.9674C91.7053 32.6769 91.4489 32.2706 91.3564 31.8192C91.3275 31.7096 91.264 31.3999 91.163 30.8928C91.062 30.3858 90.9494 29.8212 90.8282 29.1909C90.707 28.5605 90.5944 28.0124 90.502 27.5464C90.4097 27.0805 90.3606 26.8311 90.3606 26.8311C90.274 27.1792 90.1239 27.752 89.9161 28.5495C89.7083 29.3471 89.4947 30.194 89.2609 31.0902C89.0271 31.9864 88.8308 32.7592 88.6605 33.4143C88.4902 34.0693 88.4123 34.3927 88.4123 34.3927H85.0959C85.1652 34.1332 85.3528 33.4024 85.6587 32.2001L86.6805 28.2015C87.0557 26.7398 87.3867 25.4471 87.6734 24.3234C87.9601 23.1997 88.1035 22.6406 88.1035 22.6461C88.4883 21.6503 89.1733 21.1533 90.1586 21.1551H92.13C92.1559 21.2922 92.2454 21.728 92.3926 22.4652C92.5398 23.2024 92.7072 24.0274 92.8948 24.9455C93.0825 25.8637 93.2441 26.6722 93.3855 27.371C93.527 28.0699 93.5962 28.4235 93.5962 28.4235L99.0601 21.1524H102.841C102.766 21.4265 102.553 22.2487 102.212 23.5889C101.871 24.9291 101.482 26.4365 101.057 28.0946C100.633 29.7527 100.261 31.219 99.9347 32.4797L99.4642 34.368ZM82.4924 26.7544C82.4924 26.7544 82.6915 26.0473 83.0696 24.6331C83.0777 24.5774 83.0735 24.5208 83.0573 24.4667C83.0411 24.4127 83.0133 24.3624 82.9756 24.3192C82.9379 24.2759 82.8911 24.2405 82.8382 24.2153C82.7853 24.1901 82.7275 24.1755 82.6684 24.1726H77.3546C77.2673 24.1767 77.1839 24.2086 77.118 24.2631C77.0388 24.3225 76.9812 24.404 76.9534 24.4961C76.9534 24.4961 76.7514 25.3402 76.3531 27.0285H82.0767C82.1684 27.034 82.2594 27.01 82.3349 26.9602C82.4103 26.9105 82.4658 26.8379 82.4924 26.7544V26.7544ZM80.241 34.3817L77.5451 30.098H75.4035C75.4035 30.1172 75.3544 30.2981 75.2707 30.6462C75.1745 31.039 75.0581 31.5077 74.9214 32.0521C74.7829 32.6003 74.6617 33.0964 74.5462 33.5458C74.4307 33.9953 74.3701 34.2666 74.3442 34.368H70.8805L73.7005 23.334C74.2431 21.8833 75.2245 21.1579 76.6446 21.1579H83.416C83.8579 21.1475 84.2963 21.2344 84.6969 21.4117C85.0975 21.5891 85.4494 21.8521 85.7251 22.1802C86.0127 22.5029 86.215 22.886 86.3154 23.2978C86.4158 23.7097 86.4114 24.1383 86.3024 24.5481L86.1552 25.1237C86.0541 25.5101 85.9416 25.9459 85.8088 26.4776C85.676 27.0093 85.5548 27.4752 85.448 27.9192C85.2833 28.5419 84.9044 29.0945 84.3714 29.4896C83.8332 29.892 83.1658 30.1068 82.4808 30.098H81.2224L83.9067 34.3817H80.241ZM42.2593 34.3817L45.0793 23.3395C45.6412 21.8778 46.6398 21.1469 48.0753 21.1469H57.6119L56.8268 24.1617H48.5804C48.4949 24.1654 48.4129 24.1952 48.3466 24.2466C48.2675 24.3106 48.2069 24.3926 48.1706 24.4851L47.7261 26.2282H53.3227L52.5809 29.2621H46.9496L45.6479 34.3598L42.2593 34.3817ZM39.6616 26.7544C39.6616 26.7544 39.8607 26.0473 40.2388 24.6331C40.2493 24.5778 40.2463 24.5209 40.2303 24.4668C40.2144 24.4127 40.1857 24.3627 40.1465 24.3206C40.1104 24.2738 40.063 24.2359 40.0082 24.2102C39.9534 24.1844 39.893 24.1716 39.8319 24.1726H34.5036C34.4163 24.1767 34.3329 24.2086 34.267 24.2631C34.1878 24.3225 34.1302 24.404 34.1024 24.4961C34.1024 24.4961 33.9004 25.3402 33.5021 27.0285H39.2257C39.3184 27.0353 39.4107 27.0119 39.4874 26.962C39.564 26.9122 39.6204 26.8389 39.6471 26.7544H39.6616ZM37.4015 34.3817L34.7057 30.098H32.564C32.564 30.1172 32.5149 30.2981 32.4312 30.6462C32.335 31.039 32.2186 31.5077 32.082 32.0521C31.9453 32.5966 31.8203 33.0945 31.7067 33.5458C31.5971 33.9926 31.5307 34.2666 31.5047 34.368H28.0411L30.861 23.334C31.4037 21.8833 32.385 21.1579 33.8051 21.1579H40.5592C41.004 21.146 41.4456 21.2327 41.8489 21.4111C42.2522 21.5895 42.6062 21.8547 42.8828 22.1856C43.1703 22.5083 43.3727 22.8915 43.4731 23.3033C43.5735 23.7151 43.569 24.1438 43.46 24.5536L43.3128 25.1292C43.2089 25.5156 43.0963 25.9514 42.9665 26.4831C42.8366 27.0147 42.7125 27.4807 42.6028 27.9247C42.4386 28.5514 42.0568 29.1073 41.5189 29.5027C40.9811 29.898 40.3186 30.1097 39.6385 30.1035H38.3887L41.073 34.3872L37.4015 34.3817ZM15.4652 30.9888L17.4077 23.3395C17.9638 21.8778 18.9586 21.1469 20.3922 21.1469H29.9692L29.2043 24.1781H20.9406C20.8541 24.1813 20.771 24.2111 20.7039 24.2631C20.6156 24.321 20.5497 24.4047 20.5163 24.5015L20.0718 26.2446H25.7031L24.97 29.2786H19.3069L18.8942 30.8846C18.8832 30.9421 18.8858 31.0011 18.9017 31.0575C18.9177 31.1139 18.9467 31.1663 18.9865 31.2108C19.0231 31.255 19.0701 31.2904 19.1238 31.3142C19.1774 31.338 19.2362 31.3495 19.2954 31.3478H27.3772C27.1521 32.2614 26.8981 33.2663 26.6152 34.3626H18.4092C17.9592 34.3771 17.5118 34.2915 17.1029 34.1126C16.6939 33.9337 16.3347 33.6664 16.054 33.3321C15.7664 33.0142 15.5629 32.6357 15.4605 32.2282C15.3581 31.8206 15.3597 31.3956 15.4652 30.9888V30.9888ZM5.51873 27.0367C5.6948 26.2967 5.83623 25.7184 5.93148 25.2991C6.06137 24.7701 6.12776 24.507 6.12776 24.507C6.15213 24.4126 6.20903 24.3287 6.28939 24.2686C6.36151 24.2157 6.44944 24.186 6.54051 24.1836H11.9322C11.9931 24.1827 12.0534 24.1946 12.1088 24.2184C12.1643 24.2423 12.2135 24.2775 12.2529 24.3215C12.2924 24.3655 12.3211 24.4172 12.337 24.473C12.3529 24.5287 12.3556 24.5872 12.345 24.644L11.7677 26.7626C11.741 26.8471 11.6846 26.9204 11.6079 26.9702C11.5313 27.0201 11.4389 27.0435 11.3463 27.0367H5.51873ZM5.80737 21.1524C4.36419 21.1524 3.36839 21.8833 2.81998 23.345C2.75648 23.5916 2.5833 24.2768 2.29466 25.4032C2.00603 26.5296 1.67987 27.7821 1.32773 29.1662C0.975592 30.5502 0.660978 31.7644 0.38966 32.8141C0.118341 33.8637 0 34.3817 0 34.3817H3.48962C3.51848 34.2849 3.59064 34.0108 3.7061 33.5595C3.81866 33.1073 3.94278 32.6058 4.07844 32.0494C4.2141 31.493 4.32666 31.071 4.42191 30.6791C4.51716 30.2871 4.56912 30.0898 4.57778 30.0706L11.7937 30.1008C12.4766 30.1043 13.141 29.8901 13.6805 29.4926C14.22 29.0951 14.6035 28.5372 14.7695 27.9082C14.8792 27.4642 15.0033 26.9846 15.1361 26.4694C15.2689 25.9541 15.3872 25.4991 15.4854 25.099C15.5835 24.6989 15.6383 24.518 15.6383 24.518C15.7474 24.1066 15.7497 23.6762 15.6452 23.2638C15.5406 22.8514 15.3323 22.4692 15.038 22.15C14.7537 21.817 14.3921 21.5509 13.9815 21.3726C13.5709 21.1943 13.1224 21.1086 12.6712 21.1223L5.80737 21.1524Z" fill="black"/>
<path fill-rule="evenodd" clip-rule="evenodd" d="M65.9367 27.3322H64.5079C64.5018 27.3094 64.4931 27.2874 64.4819 27.2664L65.5008 26.3099C65.7449 26.6058 65.896 26.9611 65.9367 27.3349V27.3322ZM61.7688 27.7378L63.1946 27.7515C63.203 27.773 63.2127 27.7941 63.2235 27.8146L62.1988 28.7765C61.9539 28.4764 61.8047 28.116 61.7688 27.7378V27.7378ZM64.1587 26.943L64.0952 26.9184L64.1096 25.548C64.5027 25.5927 64.8741 25.7429 65.1804 25.981L64.1587 26.943ZM64.0807 28.1626L64.1471 28.1352L65.1487 29.1027C64.8363 29.3349 64.461 29.4784 64.0663 29.5165L64.0807 28.1626ZM63.5496 28.1297L63.616 28.1571V29.511C63.2227 29.4674 62.8509 29.3171 62.5452 29.078L63.5496 28.1297ZM63.6276 26.9129L63.5641 26.9375L62.5625 25.9673C62.8736 25.7347 63.248 25.5911 63.642 25.5535L63.6276 26.9129ZM63.6882 27.6885C63.6667 27.668 63.6497 27.6436 63.6383 27.6168C63.6269 27.5899 63.6213 27.5612 63.6218 27.5323C63.6224 27.503 63.6291 27.4741 63.6415 27.4473C63.6538 27.4205 63.6717 27.3963 63.694 27.376C63.7156 27.3556 63.7412 27.3395 63.7695 27.3287C63.7978 27.3179 63.828 27.3125 63.8585 27.313C63.8896 27.3134 63.9203 27.32 63.9486 27.3323C63.9769 27.3445 64.0023 27.3622 64.023 27.3843C64.0447 27.4041 64.0618 27.4279 64.0732 27.4544C64.0847 27.4808 64.0902 27.5092 64.0894 27.5377C64.0871 27.5972 64.0602 27.6534 64.0144 27.694C63.9921 27.7146 63.9656 27.7307 63.9365 27.7412C63.9074 27.7518 63.8764 27.7565 63.8453 27.7553C63.8142 27.754 63.7837 27.7467 63.7557 27.7338C63.7277 27.7209 63.7027 27.7027 63.6824 27.6803L63.6882 27.6885ZM61.7688 27.2938C61.8146 26.9203 61.9729 26.5672 62.2248 26.277L63.2119 27.2445C63.2011 27.265 63.1915 27.286 63.1831 27.3075L61.7688 27.2938ZM65.9309 27.7762C65.8843 28.1495 65.726 28.5024 65.4749 28.793L64.4762 27.8255C64.4762 27.8063 64.4964 27.7844 64.505 27.7625L65.9309 27.7762ZM62.0574 25.7974C61.6341 26.1916 61.3678 26.713 61.304 27.2727C61.2401 27.8324 61.3826 28.3959 61.7071 28.867C62.0317 29.3382 62.5182 29.6879 63.0838 29.8567C63.6495 30.0255 64.2593 30.0028 64.8093 29.7926C65.3593 29.5823 65.8155 29.1975 66.1003 28.7037C66.3851 28.2099 66.4807 27.6377 66.371 27.0844C66.2612 26.5311 65.9529 26.0311 65.4984 25.6695C65.044 25.3079 64.4716 25.1071 63.8787 25.1013C63.5417 25.0972 63.2072 25.1566 62.8946 25.2761C62.582 25.3956 62.2974 25.5728 62.0574 25.7974V25.7974Z" fill="black"/>
<path fill-rule="evenodd" clip-rule="evenodd" d="M71.095 25.6116L71.1412 21.1854L72.6392 21.2539L71.095 25.6116ZM68.7715 24.9401L68.8032 22.0487V21.8103L70.662 21.6486L70.6274 25.1402L68.7715 24.9401ZM66.8809 27.563C66.8753 28.1796 66.6614 28.7782 66.2708 29.2708C65.8802 29.7634 65.3334 30.1239 64.7109 30.2994C64.0884 30.4749 63.4229 30.4561 62.8125 30.2458C62.2021 30.0354 61.6789 29.6446 61.3198 29.1308C60.9607 28.617 60.7848 28.0074 60.8178 27.3916C60.8508 26.7758 61.0911 26.1863 61.5033 25.7098C61.9155 25.2333 62.4778 24.895 63.1076 24.7446C63.7374 24.5942 64.4013 24.6397 65.0019 24.8744C65.5617 25.0935 66.0397 25.4666 66.3746 25.9457C66.7094 26.4248 66.8857 26.988 66.8809 27.563V27.563ZM69.672 27.7494C69.6337 28.7235 69.3207 29.67 68.7657 30.4901C68.2823 31.2111 67.6316 31.8176 66.8636 32.2633C66.3298 32.578 65.7445 32.8058 65.1317 32.9375C64.815 33.0066 64.4923 33.0488 64.1677 33.0636C62.9596 33.1249 61.7613 32.828 60.7387 32.214C59.8973 31.7111 59.2055 31.0122 58.7291 30.1837C58.2526 29.3552 58.0074 28.4247 58.0169 27.4808C58.0197 27.205 58.0468 26.93 58.0977 26.6586C58.2311 25.9343 58.5263 25.2455 58.9636 24.6387C59.4708 23.9325 60.1449 23.3487 60.9321 22.934C61.8298 22.4615 62.8412 22.2179 63.8675 22.2269L67.4004 22.2598V23.145H67.868V22.2598H68.3327L68.3096 24.4742H67.8449V23.589H67.3773V24.4742L65.1317 24.4523C64.7353 24.3007 64.3122 24.2217 63.8848 24.2193C63.0549 24.2118 62.2491 24.4849 61.6118 24.9898C60.9745 25.4947 60.5472 26.1985 60.4065 26.9752C60.2657 27.7519 60.4206 28.5509 60.8434 29.2291C61.2663 29.9072 61.9295 30.4204 62.7144 30.6767C63.4993 30.933 64.3547 30.9158 65.1274 30.628C65.9001 30.3403 66.5398 29.8008 66.9319 29.1062C67.324 28.4116 67.4431 27.6071 67.2677 26.8368C67.0923 26.0665 66.6339 25.3805 65.9746 24.9018L68.3067 24.9237V24.9401C68.3055 25.0509 68.3482 25.158 68.4262 25.2402C68.5043 25.3225 68.6121 25.3738 68.7282 25.3841L69.239 25.439C69.559 26.1699 69.7068 26.9585 69.672 27.7494V27.7494ZM64.566 33.9625L62.9987 33.9461C62.9449 33.9456 62.8929 33.9272 62.8518 33.8942C62.8107 33.8612 62.783 33.8155 62.7736 33.7652L62.7014 33.4116C63.0604 33.4747 63.4245 33.5077 63.7896 33.5103C63.9224 33.5103 64.0522 33.5103 64.185 33.5103C64.4163 33.4969 64.6466 33.4713 64.8749 33.4336L64.7969 33.7899C64.7846 33.8391 64.755 33.883 64.7131 33.9143C64.6712 33.9457 64.6194 33.9627 64.566 33.9625V33.9625ZM59.867 32.5922C59.8225 32.6193 59.7696 32.6311 59.7171 32.6256C59.6646 32.6201 59.6156 32.5976 59.5784 32.562L58.4845 31.5041C58.4478 31.4682 58.4251 31.4216 58.4198 31.3718C58.4146 31.3221 58.4272 31.2721 58.4556 31.23L58.6692 30.9313C59.0838 31.5026 59.5994 32.0015 60.1932 32.4058L59.867 32.5922ZM71.0517 20.8072C70.7948 20.8072 70.6793 20.9387 70.6765 21.1827V21.2046L68.7743 21.3718C68.6571 21.38 68.5474 21.4295 68.4668 21.5107C68.3861 21.5918 68.3403 21.6987 68.3385 21.8103V21.8267L63.8733 21.7829C62.8314 21.7793 61.8042 22.0164 60.8801 22.4735L60.2336 22.0542C60.1001 21.9676 59.9391 21.9276 59.778 21.9411C59.617 21.9546 59.4658 22.0207 59.3504 22.1282L58.2305 23.1724C58.1202 23.2797 58.0509 23.4189 58.0337 23.5679C58.0164 23.7169 58.0521 23.8671 58.1352 23.9946L58.4931 24.5153C57.8961 25.3997 57.5712 26.4249 57.555 27.4753C57.5431 28.5395 57.8322 29.5873 58.3921 30.5092L58.063 30.9697C57.9718 31.0964 57.9297 31.2493 57.9439 31.4022C57.9581 31.5552 58.0278 31.6987 58.141 31.8083L59.2378 32.8717C59.3508 32.9822 59.5009 33.0517 59.6622 33.0682C59.8235 33.0848 59.9858 33.0472 60.121 32.9622L60.6117 32.6579C61.1085 32.9416 61.6448 33.1575 62.205 33.2993L62.3147 33.8474C62.344 33.9994 62.4279 34.1371 62.5521 34.2371C62.6763 34.337 62.8331 34.393 62.9958 34.3955H64.5602C64.7218 34.3966 64.8787 34.3448 65.0048 34.249C65.131 34.1532 65.2186 34.0192 65.253 33.8693L65.3742 33.3212C68.174 32.7073 70.9045 29.6541 69.7644 25.4855L70.6303 25.5787V25.5979C70.5004 26.1214 70.6649 26.0858 71.2075 25.8473C71.5828 25.6774 72.8441 21.7144 73.0404 21.1361C73.026 20.8099 71.424 20.8099 71.0517 20.8044V20.8072Z" fill="black"/>
<path fill-rule="evenodd" clip-rule="evenodd" d="M68.7448 27.5826C68.7442 27.6265 68.73 27.6693 68.7038 27.7055C68.6776 27.7417 68.6408 27.7697 68.5978 27.786C68.5549 27.8023 68.5078 27.8061 68.4626 27.797C68.4174 27.7879 68.376 27.7663 68.3437 27.7349C68.3114 27.7035 68.2897 27.6637 68.2812 27.6205C68.2727 27.5773 68.2779 27.5327 68.2962 27.4924C68.3144 27.452 68.3448 27.4177 68.3835 27.3938C68.4223 27.3698 68.4677 27.3573 68.5139 27.3579C68.5757 27.3593 68.6344 27.3836 68.6775 27.4256C68.7207 27.4676 68.7448 27.524 68.7448 27.5826V27.5826ZM67.8125 27.5826C67.8114 27.7138 67.8512 27.8423 67.927 27.952C68.0028 28.0617 68.1112 28.1475 68.2384 28.1987C68.3656 28.2499 68.5059 28.2642 68.6416 28.2396C68.7773 28.2151 68.9023 28.1529 69.0008 28.0609C69.0993 27.9689 69.1669 27.8513 69.1949 27.7229C69.223 27.5944 69.2103 27.461 69.1585 27.3394C69.1067 27.2178 69.0181 27.1135 68.9039 27.0397C68.7896 26.9659 68.6549 26.9259 68.5168 26.9249C68.3328 26.9227 68.1554 26.9898 68.0234 27.1115C67.8914 27.2333 67.8156 27.3997 67.8125 27.5744V27.5826Z" fill="black"/>
<path fill-rule="evenodd" clip-rule="evenodd" d="M58.9554 27.4894C58.9609 26.8657 59.0993 26.2494 59.3624 25.6778L58.9323 25.5024C58.5818 26.2724 58.4371 27.1126 58.511 27.9484C58.5848 28.7843 58.875 29.5898 59.3556 30.2936C59.8363 30.9973 60.4926 31.5774 61.2662 31.9823C62.0398 32.3872 62.9068 32.6044 63.7901 32.6145V32.1733C62.4927 32.1581 61.2545 31.6556 60.3463 30.7758C59.4381 29.896 58.9338 28.7104 58.9439 27.4785" fill="black"/>
<path d="M106.217 7.91472C106.217 7.91472 106.506 6.91436 107.048 4.91914C107.065 4.84085 107.062 4.75999 107.04 4.68293C107.018 4.60588 106.977 4.53475 106.921 4.47514C106.87 4.41078 106.804 4.35852 106.727 4.3224C106.651 4.28628 106.568 4.26727 106.483 4.26685H98.9491C98.8259 4.27251 98.7081 4.31685 98.6143 4.39292C98.5026 4.47829 98.421 4.59399 98.3805 4.72455C98.3805 4.72455 98.0918 5.91675 97.5348 8.30115H105.617C105.748 8.31161 105.879 8.27896 105.989 8.20864C106.098 8.13833 106.178 8.03459 106.217 7.91472V7.91472ZM103.022 18.6939L99.2118 12.6397H96.1868C96.1868 12.6671 96.1176 12.9137 95.9963 13.4153C95.8636 13.9634 95.699 14.6258 95.5028 15.4023C95.3094 16.1724 95.1362 16.8768 94.9775 17.5126C94.8187 18.1485 94.7263 18.5294 94.6888 18.6665H89.8109L93.8056 3.07465C94.5618 1.02461 95.953 -0.000410334 97.9562 -0.000410334H107.501C108.13 -0.0173328 108.754 0.105155 109.323 0.357317C109.893 0.609478 110.393 0.984359 110.783 1.45216C111.191 1.90682 111.48 2.44721 111.624 3.02865C111.769 3.61008 111.765 4.21583 111.614 4.79581L111.407 5.61801C111.262 6.16615 111.104 6.80199 110.919 7.5365C110.734 8.27101 110.558 8.94522 110.405 9.5701C110.174 10.45 109.639 11.2314 108.887 11.7901C108.126 12.3562 107.183 12.6562 106.217 12.6397H104.439L108.237 18.6939H103.022ZM86.7859 18.6939H82.0869C82.2168 18.2225 82.4275 17.4469 82.7162 16.3588C83.0048 15.2707 83.3194 14.1196 83.6427 12.9C83.966 11.6804 84.2488 10.6253 84.4855 9.73454C84.7222 8.84381 84.8319 8.39708 84.8319 8.39708C84.0266 9.53995 83.1 10.8034 82.0985 12.1765C81.0969 13.5496 80.1848 14.75 79.417 15.775C78.6493 16.8 78.2625 17.3235 78.2625 17.3235C77.5789 17.327 76.9155 17.1042 76.3861 16.6936C75.8567 16.283 75.4945 15.7101 75.3617 15.0734C75.3242 14.9172 75.2318 14.4814 75.0731 13.7634C74.9143 13.0453 74.7844 12.2478 74.5997 11.3598C74.415 10.4718 74.2707 9.69343 74.1436 9.01648C74.0166 8.33952 73.9445 8.00516 73.9445 8.00516C73.8175 8.49848 73.6097 9.30699 73.3153 10.4334C73.0208 11.5598 72.7178 12.7548 72.3887 14.021C72.0597 15.2872 71.7797 16.3835 71.543 17.3098C71.3063 18.2362 71.188 18.6966 71.188 18.6966H66.5005C66.5987 18.3312 66.8642 17.3016 67.2972 15.6078C67.7301 13.9141 68.2112 12.0312 68.7404 9.95927C69.2695 7.88183 69.7362 6.0547 70.1403 4.47788C70.5443 2.8965 70.7493 2.10718 70.7493 2.10718C71.2919 0.698467 72.2675 -0.000410334 73.653 -0.000410334H76.4383C76.4787 0.194179 76.6028 0.821798 76.8107 1.84956C77.0185 2.87732 77.2551 4.05856 77.5207 5.35491C77.7862 6.65126 78.0114 7.79413 78.2134 8.78352C78.4155 9.77291 78.5021 10.269 78.5021 10.269L86.2318 -0.000410334H91.5744C91.4667 0.396077 91.1713 1.54443 90.6883 3.44464C90.2053 5.34486 89.6617 7.46707 89.0575 9.81128C88.461 12.1573 87.9328 14.2247 87.4729 16.0135C87.013 17.8022 86.784 18.6957 86.7859 18.6939ZM46.6914 18.6939L50.7063 3.08835C51.4741 1.03009 52.8192 -0.000410334 54.7617 -0.000410334H69.081L64.3069 18.6939H59.6541L60.9789 13.5386L63.3457 4.28055H55.4342C55.3167 4.28635 55.2048 4.32983 55.1167 4.40389C55.0005 4.48641 54.9179 4.60453 54.8829 4.73825L53.7284 9.25766H60.7249L59.6137 13.5523H52.6344L51.3211 18.6939H46.6914Z" fill="black"/>
</g>
<defs>
<clipPath id="clip0_148_6572">
<rect width="160" height="34.4039" fill="white"/>
</clipPath>
</defs>
</svg>
