<svg width="141" height="208" viewBox="0 0 141 208" fill="none" xmlns="http://www.w3.org/2000/svg">
<mask id="mask0_157_8513" style="mask-type:alpha" maskUnits="userSpaceOnUse" x="0" y="0" width="141" height="208">
<rect width="141" height="208" fill="black"/>
</mask>
<g mask="url(#mask0_157_8513)">
<path d="M-1.46545 131.762L-1.46545 129.003L1.31947 129.003L1.31947 110.034L-5.12064 111.413L0.797322 110.034L0.797322 107.275L-9.64618 109.689L-10.8646 112.103L-17.3047 113.655L-17.3047 135.211L-1.46545 131.762ZM-6.51313 116.069L-5.64286 114.862L-2.68384 115.725L-1.11732 114.517L0.449199 114.517L-0.7692 114.517L-2.33572 116.069L-5.46876 115.035L-6.51313 116.069ZM-1.11732 118.656L0.449199 118.656L-0.943295 118.656L-2.68384 120.381L-4.77252 120.381L-3.90224 120.381L-1.46545 120.381L-1.11732 118.656ZM-12.4311 121.243L-10.3424 121.243L-8.77583 120.036L-7.20931 120.036L-8.42778 120.036L-10.3424 121.415L-12.083 121.415L-13.9976 122.795L-12.4311 121.243ZM-12.4311 125.382L-10.8646 125.382L-9.29805 124.002L-7.38341 124.002L-5.64286 122.622L-3.90224 122.622L-1.63947 121.588L-2.85787 124.519L-4.77252 124.519L-6.33904 126.071L-8.42778 126.071L-9.64618 127.278L-10.6905 127.278L-11.9089 127.278L-13.4754 128.313L-12.4311 125.382ZM-16.2603 131.762L-15.216 130.555L-13.3014 130.555L-11.5608 129.175L-9.64618 129.175L-6.51313 126.934L-9.64618 129.865L-11.5608 129.865L-13.3014 131.417L-15.0419 131.417L-16.2603 131.762Z" fill="#FBD927"/>
<path d="M18.0793 110.936L3.80078 106.654L3.80078 130.459L10.682 132.685L10.682 134.569L17.2192 136.453L17.2192 132.343L14.2947 132.343L17.2192 132.343L18.0793 110.936ZM8.78962 113.847L11.8862 112.306L13.2625 114.019L15.3268 114.019L15.3268 115.046L13.9506 115.046L12.4023 115.902L10.854 114.361L8.78962 113.847ZM4.83292 116.587L4.83292 115.56L6.2092 116.587L9.13369 115.56L5.69313 116.93L4.48885 115.902L4.83292 116.587ZM12.4023 118.642C13.2848 118.256 14.2081 117.968 15.1548 117.786L16.531 118.642L17.2192 118.642L15.3268 117.615L12.4023 118.642ZM9.47776 122.41L6.89734 120.869L5.34906 120.869L7.06934 119.841L9.47776 121.383L12.0583 121.383L13.0904 122.753L15.4989 122.753L12.7464 122.753L12.7464 121.554L9.47776 122.41ZM5.52106 126.006L6.55327 126.006L10.3379 125.15L6.55327 126.863L5.52106 126.006ZM11.8862 128.404L15.1548 126.52L16.8751 128.404L14.6387 127.376L11.8862 128.404Z" fill="#FBD927"/>
<path d="M29.3491 115.953L24.0123 118.872L24.0123 137.76L24.0123 141.882L30.7264 141.882L30.7264 144.457L24.8731 147.891L23.668 169.355L36.924 167.467L38.1291 165.921L43.2938 163.346L44.1545 141.366L37.6126 141.366L37.6126 138.619L43.2938 135.528L43.2938 112.862L30.3821 115.094L29.3491 115.953ZM32.4479 163.861L31.415 163.861L32.2758 163.861L32.4479 163.861ZM30.5542 163.861L28.6605 165.234L27.2832 165.234L25.906 165.234L27.2832 165.234L28.4883 165.234L29.8656 164.204L30.5542 163.861ZM27.7997 160.255L28.8326 160.255L30.5542 160.255L29.0048 160.255L27.7997 160.255ZM36.7518 159.396L37.9569 159.396L40.0228 159.396L38.1291 160.598L37.0961 159.74C36.7525 159.771 36.4068 159.771 36.0632 159.74L37.0961 159.74L36.7518 159.396ZM31.0707 159.396L32.4479 159.396L31.0707 159.396ZM31.0707 156.305L29.6934 156.305L28.3162 156.305L26.7668 156.305L28.3162 156.305L29.6934 155.447L31.0707 156.305L33.3087 155.447L34.686 156.305L36.2354 155.447L34.5138 156.305L32.9644 155.275L31.0707 156.305ZM41.2279 154.76L39.8506 154.76L38.6456 154.76L40.7114 154.76L41.2279 154.76ZM41.2279 150.639L39.6785 150.639L38.6456 150.639C38.3596 150.606 38.0708 150.606 37.7848 150.639L38.9899 150.639L40.5393 149.609L41.2279 150.639ZM29.177 152.184L27.7997 152.184L25.906 152.184L25.906 151.154L26.9389 151.154L27.9719 151.154L31.0707 149.78L29.177 152.184ZM32.6201 146.003L35.2024 147.033L36.5797 146.003L37.7848 146.003L36.7518 146.003L35.8911 146.003L32.6201 146.003ZM41.5722 146.003L40.195 146.003L38.8177 146.861L40.7114 145.831L41.5722 146.003ZM29.6934 137.074L31.0707 136.043L32.4479 137.76L31.5871 137.76L30.2099 136.558L28.3162 137.76L27.1111 137.76L25.0452 138.962L26.9389 137.074L28.144 137.932L29.6934 137.074ZM41.5722 131.922L39.162 133.296L37.6126 133.296C36.825 133.875 36.0774 134.506 35.3746 135.185L33.653 134.154C33.653 134.154 34.6859 134.154 34.8581 134.154L35.8911 134.154L37.2683 132.781L38.1291 132.781L39.5063 132.781L41.5722 131.922ZM30.3821 131.922L29.3491 132.952L28.3162 132.952L26.5946 132.952L27.6276 133.811L29.5213 132.952L30.3821 131.922ZM25.2174 127.629L26.0781 127.629L27.4554 127.629L26.5946 127.629L25.2174 127.629ZM33.3087 127.629L35.2024 127.629L34.1695 127.629L33.3087 127.629ZM32.4479 127.629L30.5542 127.629L31.5871 127.629L32.4479 127.629ZM39.162 127.629L40.5393 128.488L39.3342 128.488L38.3012 129.518L39.3342 128.66L40.5393 128.66L39.162 127.629ZM40.7114 123.337L39.3342 124.195L41.2279 124.195L40.7114 123.337ZM37.7848 123.337L35.2024 124.367L36.924 124.367L37.7848 123.337ZM29.3491 123.337C30.2081 123.414 31.0724 123.414 31.9315 123.337L29.5213 124.71L27.6276 123.68L26.0781 124.71C25.7921 124.678 25.5034 124.678 25.2174 124.71L26.0781 124.71L27.4554 123.68C28.1327 123.466 28.8227 123.294 29.5213 123.165L29.3491 123.337ZM41.5722 118.185L40.195 118.185L38.9899 118.185L40.195 118.185L41.5722 118.185ZM33.8252 118.185L34.686 118.185L36.924 118.185L35.8911 118.185L34.5138 117.155L33.8252 118.185Z" fill="#FBD927"/>
<path d="M-16.08 100.027L-17.3047 100.027L-17.3047 104.171L-1.55876 100.2L-1.55876 97.4376L1.94028 97.4376L1.94028 74.993L-7.85713 77.4101L-8.90688 79.6546L-12.231 80.6905L-15.7301 81.7264L-15.7301 98.9914L-14.5054 98.9914L-13.4557 98.9914C-12.9315 99.0279 -12.4053 99.0279 -11.8811 98.9914C-11.1382 98.6662 -10.4342 98.2609 -9.78164 97.7829C-9.20064 97.8533 -8.61312 97.8533 -8.03212 97.7829L-5.75769 96.229L-7.6822 98.4735L-9.78164 98.4735L-11.5312 99.682L-13.1058 99.682L-16.08 100.027ZM-16.08 86.0426L-14.6803 86.0426L-12.5809 84.6614L-10.4815 84.6614L-8.55696 82.5896L-7.33229 82.5896L-9.43172 84.8341L-11.5312 84.8341L-13.4557 85.87L-14.6803 85.87L-15.7301 85.87L-16.08 86.0426ZM-16.9548 91.3948L-15.7301 91.3948L-14.1555 91.3948L-12.9308 90.1862C-12.1167 90.1005 -11.2956 90.1005 -10.4815 90.1862L-8.90688 88.805L-6.80744 88.805C-6.43802 88.4174 -6.02744 88.0701 -5.58277 87.7691C-4.82673 87.6905 -4.06438 87.6905 -3.30834 87.7691C-2.63582 87.3524 -1.99282 86.8909 -1.38383 86.388L-0.159154 86.388C-0.562377 86.2987 -0.980607 86.2987 -1.38383 86.388C-1.92779 86.9252 -2.58481 87.3378 -3.30834 87.5965C-3.99583 87.7798 -4.72029 87.7798 -5.40778 87.5965L-6.28254 90.0136L-8.03212 90.0136L-9.43172 90.0136L-11.7061 90.0136L-12.9308 91.2221L-13.9806 91.2221L-16.9548 91.3948ZM-6.80744 92.9486C-6.19353 92.6566 -5.60788 92.3099 -5.05786 91.9128L-3.30834 91.9128L-1.38383 90.3589C-1.38383 90.3589 -0.159154 91.2222 -0.159154 91.3948L-1.2089 91.3948L-3.13335 92.9486L-5.05786 92.9486L-6.45753 92.9486L-8.20705 92.9486L-10.3065 93.9845L-8.90688 93.9845L-7.15729 92.9486C-6.86585 92.9615 -6.57398 92.9615 -6.28254 92.9486L-6.80744 92.9486ZM-16.7798 95.7111L-15.5552 95.7111L-13.2807 94.1572L-15.5552 96.229L-16.7798 95.7111Z" fill="#FBD927"/>
<path d="M17.5425 99.9382L14.3113 99.9382L17.5425 99.9382L17.5425 81.5309L17.5425 78.9504L3.18164 74.9937L3.18164 78.7784L6.0538 78.7784L7.13082 78.7784L4.07918 78.7784L4.07918 98.3899L10.9006 100.626L11.9776 102.519L18.081 103.551L17.5425 99.9382ZM4.07918 84.4554L5.51529 83.4233L6.77186 83.4233L10.721 82.391L6.77186 84.1114L4.07918 84.4554ZM11.7981 85.6597L15.5678 84.4554L16.8244 85.4876L15.3884 85.4876L11.9776 86.5198L11.7981 85.6597ZM9.285 90.1324L7.48985 88.4122L9.46448 89.7884L11.4391 89.7884L13.0547 90.9926L15.5678 90.9926L13.2342 90.1324L11.2596 88.9282L9.285 90.1324ZM5.69478 93.7451L4.61769 93.7451L5.69478 93.7451L9.82351 93.7451L5.69478 95.8095L5.69478 93.7451ZM15.0293 93.7451L16.1063 94.9493L14.8498 94.9493L11.6186 94.9493L15.0293 93.7451Z" fill="#FBD927"/>
<path d="M-16.08 161.034L-17.3047 161.034L-17.3047 165.178L-1.55876 161.207L-1.55876 158.444L1.94028 158.444L1.94028 136L-7.85713 138.417L-8.90688 140.661L-12.231 141.697L-15.7301 142.733L-15.7301 159.998L-14.5054 159.998L-13.4557 159.998C-12.9315 160.035 -12.4053 160.035 -11.8811 159.998C-11.1382 159.673 -10.4342 159.268 -9.78164 158.79C-9.20064 158.86 -8.61312 158.86 -8.03212 158.79L-5.75769 157.236L-7.6822 159.48L-9.78164 159.48L-11.5312 160.689L-13.1058 160.689L-16.08 161.034ZM-16.08 147.049L-14.6803 147.049L-12.5809 145.668L-10.4815 145.668L-8.55696 143.596L-7.33229 143.596L-9.43172 145.841L-11.5312 145.841L-13.4557 146.877L-14.6803 146.877L-15.7301 146.877L-16.08 147.049ZM-16.9548 152.402L-15.7301 152.402L-14.1555 152.402L-12.9308 151.193C-12.1167 151.107 -11.2956 151.107 -10.4815 151.193L-8.90688 149.812L-6.80744 149.812C-6.43802 149.424 -6.02744 149.077 -5.58277 148.776C-4.82673 148.697 -4.06438 148.697 -3.30834 148.776C-2.63582 148.359 -1.99282 147.898 -1.38383 147.395L-0.159154 147.395C-0.562377 147.306 -0.980607 147.306 -1.38383 147.395C-1.92779 147.932 -2.58481 148.345 -3.30834 148.603C-3.99583 148.787 -4.72029 148.787 -5.40778 148.603L-6.28254 151.02L-8.03212 151.02L-9.43172 151.02L-11.7061 151.02L-12.9308 152.229L-13.9806 152.229L-16.9548 152.402ZM-6.80744 153.955C-6.19353 153.663 -5.60788 153.317 -5.05786 152.92L-3.30834 152.92L-1.38383 151.366C-1.38383 151.366 -0.159154 152.229 -0.159154 152.402L-1.2089 152.402L-3.13335 153.955L-5.05786 153.955L-6.45753 153.955L-8.20705 153.955L-10.3065 154.991L-8.90688 154.991L-7.15729 153.955C-6.86585 153.968 -6.57398 153.968 -6.28254 153.955L-6.80744 153.955ZM-16.7798 156.718L-15.5552 156.718L-13.2807 155.164L-15.5552 157.236L-16.7798 156.718Z" fill="#FBD927"/>
<path d="M-16.08 190.034L-17.3047 190.034L-17.3047 194.178L-1.55876 190.207L-1.55876 187.444L1.94028 187.444L1.94028 165L-7.85713 167.417L-8.90688 169.661L-12.231 170.697L-15.7301 171.733L-15.7301 188.998L-14.5054 188.998L-13.4557 188.998C-12.9315 189.035 -12.4053 189.035 -11.8811 188.998C-11.1382 188.673 -10.4342 188.268 -9.78164 187.79C-9.20064 187.86 -8.61312 187.86 -8.03212 187.79L-5.75769 186.236L-7.6822 188.48L-9.78164 188.48L-11.5312 189.689L-13.1058 189.689L-16.08 190.034ZM-16.08 176.049L-14.6803 176.049L-12.5809 174.668L-10.4815 174.668L-8.55696 172.596L-7.33229 172.596L-9.43172 174.841L-11.5312 174.841L-13.4557 175.877L-14.6803 175.877L-15.7301 175.877L-16.08 176.049ZM-16.9548 181.402L-15.7301 181.402L-14.1555 181.402L-12.9308 180.193C-12.1167 180.107 -11.2956 180.107 -10.4815 180.193L-8.90688 178.812L-6.80744 178.812C-6.43802 178.424 -6.02744 178.077 -5.58277 177.776C-4.82673 177.697 -4.06438 177.697 -3.30834 177.776C-2.63582 177.359 -1.99282 176.898 -1.38383 176.395L-0.159154 176.395C-0.562377 176.306 -0.980607 176.306 -1.38383 176.395C-1.92779 176.932 -2.58481 177.345 -3.30834 177.603C-3.99583 177.787 -4.72029 177.787 -5.40778 177.603L-6.28254 180.02L-8.03212 180.02L-9.43172 180.02L-11.7061 180.02L-12.9308 181.229L-13.9806 181.229L-16.9548 181.402ZM-6.80744 182.955C-6.19353 182.663 -5.60788 182.317 -5.05786 181.92L-3.30834 181.92L-1.38383 180.366C-1.38383 180.366 -0.159154 181.229 -0.159154 181.402L-1.2089 181.402L-3.13335 182.955L-5.05786 182.955L-6.45753 182.955L-8.20705 182.955L-10.3065 183.991L-8.90688 183.991L-7.15729 182.955C-6.86585 182.968 -6.57398 182.968 -6.28254 182.955L-6.80744 182.955ZM-16.7798 185.718L-15.5552 185.718L-13.2807 184.164L-15.5552 186.236L-16.7798 185.718Z" fill="#FBD927"/>
<path d="M17.5425 160.944L14.3113 160.944L17.5425 160.944L17.5425 142.537L17.5425 139.956L3.18164 136L3.18164 139.784L6.0538 139.784L7.13082 139.784L4.07918 139.784L4.07918 159.396L10.9006 161.632L11.9776 163.524L18.081 164.557L17.5425 160.944ZM4.07918 145.461L5.51529 144.429L6.77186 144.429L10.721 143.397L6.77186 145.117L4.07918 145.461ZM11.7981 146.666L15.5678 145.461L16.8244 146.493L15.3884 146.493L11.9776 147.526L11.7981 146.666ZM9.285 151.138L7.48985 149.418L9.46448 150.794L11.4391 150.794L13.0547 151.998L15.5678 151.998L13.2342 151.138L11.2596 149.934L9.285 151.138ZM5.69478 154.751L4.61769 154.751L5.69478 154.751L9.82351 154.751L5.69478 156.815L5.69478 154.751ZM15.0293 154.751L16.1063 155.955L14.8498 155.955L11.6186 155.955L15.0293 154.751Z" fill="#FBD927"/>
<path d="M17.5425 189.944L14.3113 189.944L17.5425 189.944L17.5425 171.537L17.5425 168.956L3.18164 165L3.18164 168.784L6.0538 168.784L7.13082 168.784L4.07918 168.784L4.07918 188.396L10.9006 190.632L11.9776 192.524L18.081 193.557L17.5425 189.944ZM4.07918 174.461L5.51529 173.429L6.77186 173.429L10.721 172.397L6.77186 174.117L4.07918 174.461ZM11.7981 175.666L15.5678 174.461L16.8244 175.493L15.3884 175.493L11.9776 176.526L11.7981 175.666ZM9.285 180.138L7.48985 178.418L9.46448 179.794L11.4391 179.794L13.0547 180.998L15.5678 180.998L13.2342 180.138L11.2596 178.934L9.285 180.138ZM5.69478 183.751L4.61769 183.751L5.69478 183.751L9.82351 183.751L5.69478 185.815L5.69478 183.751ZM15.0293 183.751L16.1063 184.955L14.8498 184.955L11.6186 184.955L15.0293 183.751Z" fill="#FBD927"/>
<path d="M59.3374 109.561C58.8122 109.598 58.285 109.598 57.7598 109.561L60.2139 109.561L60.2139 94.8846L58.9868 94.8846L56.8834 94.8846L55.4811 94.8846L55.4811 93.3121L57.7598 93.3121L58.9868 93.3121L58.9868 89.9925C57.0928 89.6295 55.2202 89.1628 53.3776 88.5947L52.326 86.1487L46.0156 84.9257L46.0156 88.0706C46.5402 88.0192 47.0686 88.0192 47.5932 88.0706L51.6248 89.9925L50.2225 89.9925L48.6449 89.9925L48.645 110.959L60.915 114.104L60.915 111.133L59.3374 109.561ZM53.2024 92.0891L51.6248 92.0891L53.2024 92.0891ZM50.573 93.1374L51.6248 93.1374L50.3978 93.1374L50.573 93.1374ZM56.7081 99.2525L55.4811 97.8548L53.9035 97.8548L53.0271 97.8548L51.2742 97.8548L50.2225 96.8065L51.2742 96.8065L52.8518 96.8065L54.0788 98.0295L55.8317 98.0295L55.8317 99.0778L57.7598 99.0778L55.8317 99.9514L56.7081 99.2525ZM49.872 102.572L51.4495 102.572L54.2541 101.524L53.0271 101.524L50.573 102.572L49.872 102.572ZM57.0587 102.572L58.461 102.572L56.8834 102.572C56.1062 102.882 55.3456 103.232 54.6046 103.62C55.4264 103.598 56.2485 103.656 57.0587 103.795L57.0587 102.572ZM50.3978 106.066C50.3978 106.066 50.3978 105.018 49.346 105.018L50.7484 105.018L52.5012 105.018L53.9035 106.241L55.4811 106.241L56.8834 106.241L53.9035 107.464C53.4753 107.014 53.0058 106.604 52.5012 106.241L50.3978 107.464L50.3978 106.066Z" fill="#FBD927"/>
<path d="M117.693 109.561C117.168 109.598 116.64 109.598 116.115 109.561L118.569 109.561L118.569 94.8846L117.342 94.8846L115.239 94.8846L113.837 94.8846L113.837 93.3121L116.115 93.3121L117.342 93.3121L117.342 89.9925C115.448 89.6295 113.576 89.1628 111.733 88.5947L110.681 86.1487L104.371 84.9257L104.371 88.0706C104.896 88.0192 105.424 88.0192 105.949 88.0706L109.98 89.9925L108.578 89.9925L107 89.9925L107 110.959L119.27 114.104L119.27 111.133L117.693 109.561ZM111.558 92.0891L109.98 92.0891L111.558 92.0891ZM108.929 93.1374L109.98 93.1374L108.753 93.1374L108.929 93.1374ZM115.064 99.2525L113.837 97.8548L112.259 97.8548L111.383 97.8548L109.63 97.8548L108.578 96.8065L109.63 96.8065L111.207 96.8065L112.434 98.0295L114.187 98.0295L114.187 99.0778L116.115 99.0778L114.187 99.9514L115.064 99.2525ZM108.227 102.572L109.805 102.572L112.61 101.524L111.383 101.524L108.929 102.572L108.227 102.572ZM115.414 102.572L116.816 102.572L115.239 102.572C114.462 102.882 113.701 103.232 112.96 103.62C113.782 103.598 114.604 103.656 115.414 103.795L115.414 102.572ZM108.753 106.066C108.753 106.066 108.753 105.018 107.702 105.018L109.104 105.018L110.857 105.018L112.259 106.241L113.837 106.241L115.239 106.241L112.259 107.464C111.831 107.014 111.361 106.604 110.857 106.241L108.753 107.464L108.753 106.066Z" fill="#FBD927"/>
<path d="M78.9202 93.4133L77.7049 93.4133L76.6632 93.4133L75.6215 94.8025C75.1589 94.7756 74.6951 94.7756 74.2326 94.8025C74.2326 94.8025 74.2326 94.8025 73.1909 94.8025C72.1492 94.8025 73.1909 95.8444 73.1909 95.8444L72.3228 95.8444L70.7602 95.8444L71.802 95.8444L71.802 94.9762L73.8853 94.9762L75.1006 93.9343L76.8368 93.9343L76.8368 90.2876L75.9687 90.2876L74.5798 90.2876L74.5798 91.3295L73.0173 91.3295C72.4546 91.7432 71.9315 92.2083 71.4547 92.7187L71.4547 91.6768L71.4547 90.6349L72.3228 90.6349L73.1909 90.6349L75.1006 90.6349L75.1006 88.0301L62.0795 90.4612L62.0795 92.7187L61.0378 93.5869L58.4336 92.3714L58.4336 101.749L60.8642 101.749L61.9059 101.749L63.642 101.749L64.6837 101.749L65.7255 101.749L67.288 100.707L68.8505 100.707L70.2394 99.6648L71.4547 99.6648L70.0658 99.6648L68.6769 100.88L67.1143 100.88L65.7255 102.096L64.1629 102.096L69.0241 100.88L67.4616 100.88L66.2463 101.922L64.5102 100.88L64.5102 109.737L68.6769 108.521L69.0241 108.521L65.5518 109.563L62.4267 110.605L62.4267 112.862L71.1075 110.605L73.0173 107.826L77.8785 106.09L77.8785 102.27C77.4739 102.241 77.0677 102.241 76.6632 102.27L75.4479 102.27L74.4062 103.311L73.3645 103.311L71.9755 103.311L70.0658 102.096L71.802 102.096L73.1909 102.096L74.2326 102.096L75.2743 101.054L76.3159 101.054L77.7049 101.054L78.9202 93.4133ZM66.0727 97.4073L63.642 97.4073L63.642 96.0181L65.899 96.0181L66.7671 96.0181L65.3782 96.0181L66.0727 97.4073ZM69.7186 104.874L66.9408 104.874L65.2046 105.916L66.4199 105.916L67.8088 105.048L69.7186 104.874Z" fill="#FBD927"/>
<path d="M137.276 93.4133L136.06 93.4133L135.019 93.4133L133.977 94.8025C133.514 94.7756 133.051 94.7756 132.588 94.8025C132.588 94.8025 132.588 94.8025 131.546 94.8025C130.505 94.8025 131.546 95.8444 131.546 95.8444L130.678 95.8444L129.116 95.8444L130.157 95.8444L130.157 94.9762L132.241 94.9762L133.456 93.9343L135.192 93.9343L135.192 90.2876L134.324 90.2876L132.935 90.2876L132.935 91.3295L131.373 91.3295C130.81 91.7432 130.287 92.2083 129.81 92.7187L129.81 91.6768L129.81 90.6349L130.678 90.6349L131.546 90.6349L133.456 90.6349L133.456 88.0301L120.435 90.4612L120.435 92.7187L119.393 93.5869L116.789 92.3714L116.789 101.749L119.22 101.749L120.261 101.749L121.997 101.749L123.039 101.749L124.081 101.749L125.643 100.707L127.206 100.707L128.595 99.6648L129.81 99.6648L128.421 99.6648L127.032 100.88L125.47 100.88L124.081 102.096L122.518 102.096L127.38 100.88L125.817 100.88L124.602 101.922L122.866 100.88L122.866 109.737L127.032 108.521L127.38 108.521L123.907 109.563L120.782 110.605L120.782 112.862L129.463 110.605L131.373 107.826L136.234 106.09L136.234 102.27C135.829 102.241 135.423 102.241 135.019 102.27L133.803 102.27L132.762 103.311L131.72 103.311L130.331 103.311L128.421 102.096L130.157 102.096L131.546 102.096L132.588 102.096L133.63 101.054L134.671 101.054L136.06 101.054L137.276 93.4133ZM124.428 97.4073L121.997 97.4073L121.997 96.0181L124.255 96.0181L125.123 96.0181L123.734 96.0181L124.428 97.4073ZM128.074 104.874L125.296 104.874L123.56 105.916L124.775 105.916L126.164 105.048L128.074 104.874Z" fill="#FBD927"/>
<path d="M0.0775484 5.64021C0.0775483 3.33413 -2.71608 6.62853 0.0775485 7.94629C0.0775484 5.6402 -1.66847 5.96965 0.0775484 5.64021Z" fill="#FBD927"/>
<path d="M18.0793 -9.52511L3.80078 -13.7821L3.80078 9.88658L10.682 12.1002L10.682 13.9732L17.3912 16.0166L17.3912 11.9299L14.4667 11.9299C14.4667 11.9299 16.359 11.9299 17.3912 11.9299L18.0793 -9.52511ZM8.78962 -6.63041L11.8862 -8.16285L13.2625 -6.4601L15.3268 -7.31154L15.3268 -6.28978L13.9506 -6.28978L12.4023 -5.43847L10.854 -6.97091L8.78962 -6.63041ZM4.83292 -3.73572L4.83292 -4.92766L6.2092 -3.73572L9.13369 -4.92766L5.69313 -3.5654L4.48885 -4.58703L4.83292 -3.73572ZM12.4023 -1.86265L15.1548 -1.86265L16.531 -1.86265L17.2192 -1.86265L15.3268 -2.88427L12.4023 -1.86265ZM9.47776 1.88349L6.89734 0.351052L5.34906 0.351052L7.06934 -0.840889L9.47776 0.691551L12.0583 0.691551L13.0904 2.05381L15.4989 2.05381L12.7464 2.05381L12.7464 0.861865L9.47776 1.88349ZM5.52106 5.45932L6.55327 5.45932L10.3379 5.45932L6.55327 7.16214L5.52106 5.45932ZM11.8862 7.84326L15.1548 6.14044L16.8751 7.84326L14.6387 6.99182L11.8862 7.84326Z" fill="#FBD927"/>
<path d="M-16.1678 39.9964L-17.3984 39.9964L-17.3984 43.9531L-1.57603 40.1684L-1.57603 37.416L1.93999 37.416L1.93999 18.6646C1.93999 18.6646 0.885226 18.6647 0.00620724 16.9444L0.00620717 15.3961C-1.77947 15.6712 -3.54225 16.0737 -5.26796 16.6003C-5.26796 18.1486 -5.26792 17.6325 -6.32274 16.6003L-8.78398 16.6003L-9.83883 18.8367L-12.4759 18.8367L-13.8823 24.1696L-11.7727 22.7934L-9.66305 22.7934L-7.7292 20.729L-9.83883 22.9654L-11.9485 22.9654L-13.8823 23.9976L-15.1129 23.9976C-16.3436 27.6102 -17.3984 29.3305 -17.9258 26.7501L-17.9258 37.416L-16.6952 37.416L-15.6404 37.416C-15.1136 37.4523 -14.5849 37.4523 -14.0581 37.416C-13.3117 37.0919 -12.6041 36.688 -11.9485 36.2117C-11.3646 36.2819 -10.7743 36.2819 -10.1904 36.2117L-7.90497 34.6635L-9.31144 38.1041L-11.4211 38.1041L-13.1791 39.3083L-14.7613 39.3083L-16.1678 39.9964ZM-16.1678 31.3949L-14.9372 31.3949L-13.3549 31.3949L-12.1243 30.1907C-12.1243 30.1907 -9.83886 30.1907 -9.66305 30.1907C-9.48725 30.1907 -8.08082 28.9865 -8.08082 28.9865L-5.97112 28.9865L-4.7405 27.9543C-3.98079 27.8759 -3.21481 27.8759 -2.4551 27.9543C-1.78562 27.5925 -1.13975 27.1903 -0.521249 26.7501L0.709371 26.7501C0.709371 26.7501 0.709377 26.7501 -0.521249 26.7501L-2.4551 27.9543C-3.15516 28.0465 -3.86467 28.0465 -4.56473 27.9543L-5.97112 27.9543L-7.7292 27.9543L-9.1356 28.9865L-11.4211 28.9865L-12.6517 30.1907L-13.7065 30.1907L-16.1678 31.3949ZM-5.97112 32.9432C-5.35423 32.6522 -4.7658 32.3067 -4.21311 31.911L-2.4551 31.911L-0.521248 30.3627L0.709371 30.3627L-0.345408 30.3627L-2.27926 31.911L-4.21311 31.911L-5.61957 31.911L-7.37758 31.911L-9.48721 32.9432L-8.08082 32.9432L-6.32274 31.911C-6.34159 32.2548 -6.34159 32.5994 -6.32274 32.9432L-5.97112 32.9432ZM-15.9919 35.8677L-14.7613 35.8677L-12.4759 34.3194L-14.7613 36.2117L-15.9919 35.8677Z" fill="#FBD927"/>
<path d="M17.5425 18.2978L3.18164 14.1542L3.18164 18.1252L6.0538 18.1252L7.13082 18.1252L4.07918 18.1252L4.07918 38.3252L10.9006 40.397L11.9776 42.2961L18.081 43.332L18.081 39.7064L14.8498 39.7064L17.5425 38.3252L17.5425 18.2978ZM3.72015 24.6858L5.15627 23.4773L6.41283 23.4773L10.362 22.2687L6.41283 24.1679C5.61568 24.2471 4.83181 24.4211 4.07918 24.6858L3.72015 24.6858ZM11.4391 25.8944L15.2088 24.6858L16.4654 24.6858L15.0293 24.6858L11.6186 25.8944L11.4391 25.8944ZM8.92597 30.5559L7.13082 29.0021L5.69477 29.0021L7.31037 29.0021L9.285 30.3833L11.2596 30.3833L12.8752 31.5918L15.3884 31.5918L12.8752 32.8004L10.9006 31.4192L8.92597 30.5559ZM5.33575 34.1815L4.25866 34.1815L5.33575 34.1815L9.46448 33.1457L5.33575 35.2175L5.33575 34.1815ZM14.6703 34.1815L15.7474 35.2175L14.4908 35.2175L11.2596 35.2175C12.5023 34.9617 13.7619 34.7887 15.0293 34.6995L14.6703 34.1815Z" fill="#FBD927"/>
<path d="M29.3491 -4.88569L24.0123 -2.0997L24.0123 17.2286L24.0123 21.0594L30.7264 21.0594L30.7264 23.8455L24.8731 27.1539L23.668 48.9199L36.924 47.0046L38.1291 45.4374L43.2938 42.8255L44.1545 20.7111L37.6126 20.7111L37.6126 18.0993L43.2938 14.7908L43.2938 -8.19417L30.3821 -5.93055L29.3491 -4.88569ZM32.4479 43.522L31.415 43.522L32.2758 43.522L32.4479 43.522ZM30.5542 43.522L28.6605 44.915L27.2832 44.915L25.906 44.915L27.2832 44.0443L28.4883 44.0443L29.8656 44.0443L30.5542 43.522ZM27.7997 39.8653L28.8326 39.8653L30.5542 39.8653L29.0048 40.91L27.7997 39.8653ZM36.7518 39.8653L37.9569 39.8653L40.0228 39.8653L38.1291 41.0842L37.0961 41.0842L36.0632 41.0842L37.0961 40.2135L36.7518 39.8653ZM31.0707 39.8653L32.4479 39.8653L31.0707 39.8653ZM31.0707 36.9051L29.6934 36.9051L28.3162 36.9051L26.7668 36.9051L28.3162 36.9051L29.6934 36.9051L31.0707 37.9499L33.3087 36.9051L34.686 36.9051L36.2354 36.9051L34.5138 37.9499L32.9644 36.731L31.0707 36.9051ZM41.2279 35.1638L39.8506 35.1638L38.6456 35.1638L40.7114 35.1638L41.2279 35.1638ZM41.2279 30.9847L39.6785 30.9847L38.6456 31.8553C38.3596 31.8223 38.0708 31.8223 37.7848 31.8553L38.9899 31.8553L40.5393 30.9847L41.2279 30.9847ZM29.177 32.726L27.7997 31.8553L25.906 32.726L25.906 31.5071L26.9389 31.5071L27.9719 31.5071L31.0707 30.1141L29.177 32.726ZM32.6201 26.4574L35.2024 27.328L36.5797 26.4574L37.7848 26.4574L36.7518 26.4574L35.8911 26.4574L32.6201 26.4574ZM41.5722 26.4574L40.195 26.4574L38.8177 27.5021L40.7114 26.4574L41.5722 26.4574ZM29.6934 17.4027L31.0707 16.1838L32.4479 17.751L31.5871 17.751L30.2099 16.7062L28.3162 17.751L27.1111 17.751L25.0452 18.7957L26.9389 16.8803L28.144 17.9251L29.6934 17.4027ZM41.5722 12.0047L39.162 13.3978L37.6126 13.3978C36.8259 13.9226 36.0779 14.5045 35.3746 15.139L33.653 14.0942C33.653 14.0942 34.6859 14.0942 34.8581 14.0942C35.0302 14.0942 35.8911 14.0942 35.8911 14.0942L37.2683 12.7012L38.1291 12.7012L39.5063 12.7012L41.5722 12.0047ZM30.3821 12.8753L29.3491 13.9201L28.3162 13.9201L26.5946 13.9201L27.6276 13.9201L29.5213 12.8753L30.3821 12.8753ZM25.2174 8.52214L26.0781 8.52214L26.0781 7.65151L26.9389 7.65151L26.0781 8.52214L25.2174 8.52214ZM33.3087 8.52214L35.2024 8.52214L34.1695 8.52214L33.3087 8.52214ZM32.4479 8.52214L30.5542 8.52214L32.6201 8.52214L32.4479 8.52214ZM39.162 8.52214L40.5393 9.56693L39.3342 9.56693L38.3012 9.56693L39.3342 8.52214L40.5393 8.52214L39.162 8.52214ZM40.7114 4.16893L39.5063 3.64656L41.4 3.64656L40.7114 4.16893ZM37.7848 4.16893C37.7848 4.16893 35.3746 5.2137 35.2024 5.38782L36.924 5.38782L37.7848 4.16893ZM29.3491 4.16893C30.2081 4.24776 31.0724 4.24776 31.9315 4.16893L29.6934 3.64656L27.7997 2.42767L26.2503 3.64656C25.9643 3.61348 25.6755 3.61348 25.3895 3.64656L26.2503 3.64656L27.6276 2.42767C28.2551 2.33438 28.8874 2.27621 29.5213 2.25351L29.3491 4.16893ZM41.5722 -1.05484L40.195 -1.05484L38.9899 -0.0101172L40.195 -0.0101173L41.5722 -1.05484ZM33.8252 -1.05484L34.686 -1.05484L36.924 -1.05484L35.8911 -0.0101171L34.5138 -1.05484L33.8252 -1.05484Z" fill="#FBD927"/>
<path d="M89.5678 -4.88569L84.231 -2.0997L84.231 17.2286L84.231 21.0594L90.9451 21.0594L90.9451 23.8455L85.0918 27.1539L83.8867 48.9199L97.1428 47.0046L98.3479 45.4374L103.513 42.8255L104.373 20.7111L97.8313 20.7111L97.8313 18.0993L103.513 14.7908L103.513 -8.19417L90.6008 -5.93055L89.5678 -4.88569ZM92.6667 43.522L91.6338 43.522L92.4945 43.522L92.6667 43.522ZM90.7729 43.522L88.8792 44.915L87.502 44.915L86.1247 44.915L87.502 44.0443L88.7071 44.0443L90.0844 44.0443L90.7729 43.522ZM88.0184 39.8653L89.0514 39.8653L90.7729 39.8653L89.2235 40.91L88.0184 39.8653ZM96.9706 39.8653L98.1757 39.8653L100.242 39.8653L98.3479 41.0842L97.3149 41.0842L96.2819 41.0842L97.3149 40.2135L96.9706 39.8653ZM91.2894 39.8653L92.6667 39.8653L91.2894 39.8653ZM91.2894 36.9051L89.9122 36.9051L88.5349 36.9051L86.9855 36.9051L88.5349 36.9051L89.9122 36.9051L91.2894 37.9499L93.5274 36.9051L94.9047 36.9051L96.4541 36.9051L94.7325 37.9499L93.1831 36.731L91.2894 36.9051ZM101.447 35.1638L100.069 35.1638L98.8643 35.1638L100.93 35.1638L101.447 35.1638ZM101.447 30.9847L99.8973 30.9847L98.8643 31.8553C98.5783 31.8223 98.2895 31.8223 98.0035 31.8553L99.2086 31.8553L100.758 30.9847L101.447 30.9847ZM89.3957 32.726L88.0184 31.8553L86.1247 32.726L86.1247 31.5071L87.1577 31.5071L88.1906 31.5071L91.2894 30.1141L89.3957 32.726ZM92.8389 26.4574L95.4212 27.328L96.7984 26.4574L98.0035 26.4574L96.9706 26.4574L96.1098 26.4574L92.8389 26.4574ZM101.791 26.4574L100.414 26.4574L99.0364 27.5021L100.93 26.4574L101.791 26.4574ZM89.9122 17.4027L91.2894 16.1838L92.6667 17.751L91.8059 17.751L90.4286 16.7062L88.5349 17.751L87.3299 17.751L85.2639 18.7957L87.1577 16.8803L88.3628 17.9251L89.9122 17.4027ZM101.791 12.0047L99.3807 13.3978L97.8313 13.3978C97.0446 13.9226 96.2967 14.5045 95.5934 15.139L93.8718 14.0942C93.8718 14.0942 94.9047 14.0942 95.0768 14.0942C95.249 14.0942 96.1098 14.0942 96.1098 14.0942L97.487 12.7012L98.3479 12.7012L99.7251 12.7012L101.791 12.0047ZM90.6008 12.8753L89.5678 13.9201L88.5349 13.9201L86.8133 13.9201L87.8463 13.9201L89.74 12.8753L90.6008 12.8753ZM85.4361 8.52214L86.2969 8.52214L86.2969 7.65151L87.1577 7.65151L86.2969 8.52214L85.4361 8.52214ZM93.5274 8.52214L95.4212 8.52214L94.3883 8.52214L93.5274 8.52214ZM92.6667 8.52214L90.7729 8.52214L92.8389 8.52214L92.6667 8.52214ZM99.3807 8.52214L100.758 9.56693L99.5529 9.56693L98.52 9.56693L99.5529 8.52214L100.758 8.52214L99.3807 8.52214ZM100.93 4.16893L99.7251 3.64656L101.619 3.64656L100.93 4.16893ZM98.0035 4.16893C98.0035 4.16893 95.5933 5.2137 95.4212 5.38782L97.1428 5.38782L98.0035 4.16893ZM89.5678 4.16893C90.4269 4.24776 91.2912 4.24776 92.1502 4.16893L89.9122 3.64656L88.0184 2.42767L86.469 3.64656C86.183 3.61348 85.8942 3.61348 85.6083 3.64656L86.469 3.64656L87.8463 2.42767C88.4739 2.33438 89.1061 2.27621 89.74 2.25351L89.5678 4.16893ZM101.791 -1.05484L100.414 -1.05484L99.2086 -0.0101172L100.414 -0.0101173L101.791 -1.05484ZM94.0439 -1.05484L94.9047 -1.05484L97.1428 -1.05484L96.1098 -0.0101171L94.7325 -1.05484L94.0439 -1.05484Z" fill="#FBD927"/>
<path d="M49.7712 2.50249L49.7712 22.7025L62.1574 27.1914L62.1574 23.3931L61.1252 23.3931L59.577 23.3931L62.1574 23.3931L62.1574 8.71789L60.7812 8.71789L58.7168 8.71789L57.5126 8.71789L57.5126 7.33666L59.749 7.33666L60.7812 7.33666L60.7812 3.71103L54.072 1.46663L54.072 0.0853974L47.8789 -1.98645L47.8789 2.15724L49.4272 2.15724C50.2405 2.74985 51.1039 3.26972 52.0077 3.71103L50.6314 3.71103L49.7712 2.50249ZM60.2651 17.3504L58.7168 17.3504C57.9215 17.6524 57.1695 18.0588 56.4804 18.5589L57.8567 17.1777C58.3716 17.128 58.8901 17.128 59.405 17.1777L60.2651 17.3504ZM55.1042 15.7965L53.7279 15.7965L52.0077 17.1777L52.0077 16.1418L53.3839 17.1777L56.1364 15.9691L55.1042 15.7965ZM53.3839 10.9623L54.7601 12.1709L56.3084 12.1709L56.3084 13.2068L58.2007 13.2068L56.3084 14.07L55.1042 12.8614L53.5559 12.8614L52.6958 12.8614L51.1475 12.8614L49.9433 12.8614L51.1475 12.8614L53.3839 10.9623ZM54.9321 5.95549L53.3839 5.95549L55.2762 5.95549L54.9321 5.95549ZM51.8357 5.95549L50.6314 5.95549L51.8357 5.95549Z" fill="#FBD927"/>
<path d="M109.99 2.50249L109.99 22.7025L122.376 27.1914L122.376 23.3931L121.344 23.3931L119.796 23.3931L122.376 23.3931L122.376 8.71789L121 8.71789L118.936 8.71789L117.731 8.71789L117.731 7.33666L119.968 7.33666L121 7.33666L121 3.71103L114.291 1.46663L114.291 0.0853974L108.098 -1.98645L108.098 2.15724L109.646 2.15724C110.459 2.74985 111.323 3.26972 112.226 3.71103L110.85 3.71103L109.99 2.50249ZM120.484 17.3504L118.936 17.3504C118.14 17.6524 117.388 18.0588 116.699 18.5589L118.075 17.1777C118.59 17.128 119.109 17.128 119.624 17.1777L120.484 17.3504ZM115.323 15.7965L113.947 15.7965L112.226 17.1777L112.226 16.1418L113.603 17.1777L116.355 15.9691L115.323 15.7965ZM113.603 10.9623L114.979 12.1709L116.527 12.1709L116.527 13.2068L118.419 13.2068L116.527 14.07L115.323 12.8614L113.775 12.8614L112.915 12.8614L111.366 12.8614L110.162 12.8614L111.366 12.8614L113.603 10.9623ZM115.151 5.95549L113.603 5.95549L115.495 5.95549L115.151 5.95549ZM112.054 5.95549L110.85 5.95549L112.054 5.95549Z" fill="#FBD927"/>
<path d="M79.2093 15.2374C79.2093 15.2374 77.9861 15.2374 77.8113 15.2374C77.6366 15.2374 76.4134 15.2374 76.4134 15.2374L75.3649 16.2705L74.3164 16.2705L73.0932 16.2705L71.171 17.9925L72.9185 15.7539L74.3164 15.7539L75.3649 14.7208L76.5881 14.7208L77.9861 14.7208L79.0346 14.7208L79.0346 6.4555L77.4619 6.4555L76.2386 6.4555L75.1902 7.83302L73.967 7.83302L72.9185 7.83302L72.9185 8.8662L71.87 8.8662L70.2973 8.8662L71.5205 8.8662L73.7922 8.8662L75.0154 7.83302L77.1124 7.83302L77.1124 4.04473L76.0639 4.04473L74.4912 4.04473L74.4912 4.90575L72.9185 4.90575L72.0447 4.90575L70.2973 6.28327L70.2973 5.25015L70.2973 4.21696L71.171 4.21696L71.171 5.07792L72.2195 5.07792L74.1417 5.07792L74.1417 1.1174L57.8903 4.73352L59.2883 7.48862L59.2883 11.9657L60.6863 11.9657L61.7348 11.9657L60.162 11.9657L59.1135 13.1711L57.1914 13.1711L57.1914 16.2705L58.4146 16.2705L59.2883 15.4095L61.2105 15.4095L63.3075 15.4095L64.7054 14.3764L66.2781 14.3764L67.6761 13.3432L69.074 13.3432L67.5013 13.3432L66.2781 14.5486L64.5307 14.5486L63.1327 15.5818L61.2105 15.5818L68.8993 14.3764L67.3266 14.3764L65.9287 15.5818L65.9287 22.8139L66.9771 21.7807L69.074 21.7807L67.1519 21.7807L65.5792 21.7807L65.5792 24.708L73.4427 22.6417L75.3649 20.231L79.9083 18.1647L80.782 14.032L79.2093 15.2374Z" fill="#FBD927"/>
<path d="M139.428 15.2374C139.428 15.2374 138.205 15.2374 138.03 15.2374C137.855 15.2374 136.632 15.2374 136.632 15.2374L135.584 16.2705L134.535 16.2705L133.312 16.2705L131.39 17.9925L133.137 15.7539L134.535 15.7539L135.584 14.7208L136.807 14.7208L138.205 14.7208L139.253 14.7208L139.253 6.4555L137.681 6.4555L136.457 6.4555L135.409 7.83302L134.186 7.83302L133.137 7.83302L133.137 8.8662L132.089 8.8662L130.516 8.8662L131.739 8.8662L134.011 8.8662L135.234 7.83302L137.331 7.83302L137.331 4.04473L136.283 4.04473L134.71 4.04473L134.71 4.90575L133.137 4.90575L132.263 4.90575L130.516 6.28327L130.516 5.25015L130.516 4.21696L131.39 4.21696L131.39 5.07792L132.438 5.07792L134.36 5.07792L134.36 1.1174L118.109 4.73352L119.507 7.48862L119.507 11.9657L120.905 11.9657L121.954 11.9657L120.381 11.9657L119.332 13.1711L117.41 13.1711L117.41 16.2705L118.633 16.2705L119.507 15.4095L121.429 15.4095L123.526 15.4095L124.924 14.3764L126.497 14.3764L127.895 13.3432L129.293 13.3432L127.72 13.3432L126.497 14.5486L124.749 14.5486L123.351 15.5818L121.429 15.5818L129.118 14.3764L127.545 14.3764L126.147 15.5818L126.147 22.8139L127.196 21.7807L129.293 21.7807L127.371 21.7807L125.798 21.7807L125.798 24.708L133.661 22.6417L135.584 20.231L140.127 18.1647L141.001 14.032L139.428 15.2374Z" fill="#FBD927"/>
<path d="M59.4127 49.7846L57.8262 49.7846L60.2941 49.7846L60.2941 35.49L59.0601 35.49L56.9448 35.49L55.5346 35.49L55.5346 34.1122L57.8262 34.1122L59.0601 34.1122L59.0601 30.4955L53.4193 29.1177L52.3616 26.7066L46.0156 25.3288L46.0156 28.4288L47.6021 28.4288C48.2464 28.4999 48.8969 28.4999 49.5412 28.4288L48.1309 28.4288L46.5444 28.4288L46.5444 48.9234L58.8839 52.0234L58.8839 49.0957L59.4127 49.7846ZM53.243 32.5622L51.6565 32.5622L53.243 32.5622ZM50.5988 33.5955L51.6565 33.5955L50.4226 33.5955L50.5988 33.5955ZM56.7686 39.6234L55.5346 38.2456L53.9481 38.2456L53.0668 38.2456L51.3039 38.2456L50.2463 38.2456L51.6565 38.59L52.8904 39.6234L54.6532 39.6234L54.6532 40.4845L54.6532 41.5178L56.5923 41.5178L54.6532 42.379L56.7686 39.6234ZM49.8938 42.8956L51.4803 42.8956L54.3007 41.8622L53.0668 41.8622L50.5988 41.8622L49.8938 42.8956ZM57.1211 42.8956L58.5313 42.8956L56.9448 42.8956C56.1633 43.2014 55.3984 43.5463 54.6532 43.929L57.1211 42.8956ZM50.4226 46.3401C50.4226 46.3401 50.4225 45.3067 49.3649 45.3067L50.7751 45.3067L52.5379 45.3067L53.9481 46.5123L55.5346 46.5123L56.9448 46.5123L53.9481 47.8901L52.5379 46.6846L50.4226 46.3401Z" fill="#FBD927"/>
<path d="M119.631 49.7846L118.045 49.7846L120.513 49.7846L120.513 35.49L119.279 35.49L117.164 35.49L115.753 35.49L115.753 34.1122L118.045 34.1122L119.279 34.1122L119.279 30.4955L113.638 29.1177L112.58 26.7066L106.234 25.3288L106.234 28.4288L107.821 28.4288C108.465 28.4999 109.116 28.4999 109.76 28.4288L108.35 28.4288L106.763 28.4288L106.763 48.9234L119.103 52.0234L119.103 49.0957L119.631 49.7846ZM113.462 32.5622L111.875 32.5622L113.462 32.5622ZM110.818 33.5955L111.875 33.5955L110.641 33.5955L110.818 33.5955ZM116.987 39.6234L115.753 38.2456L114.167 38.2456L113.286 38.2456L111.523 38.2456L110.465 38.2456L111.875 38.59L113.109 39.6234L114.872 39.6234L114.872 40.4845L114.872 41.5178L116.811 41.5178L114.872 42.379L116.987 39.6234ZM110.113 42.8956L111.699 42.8956L114.519 41.8622L113.286 41.8622L110.818 41.8622L110.113 42.8956ZM117.34 42.8956L118.75 42.8956L117.164 42.8956C116.382 43.2014 115.617 43.5463 114.872 43.929L117.34 42.8956ZM110.641 46.3401C110.641 46.3401 110.641 45.3067 109.584 45.3067L110.994 45.3067L112.757 45.3067L114.167 46.5123L115.753 46.5123L117.164 46.5123L114.167 47.8901L112.757 46.6846L110.641 46.3401Z" fill="#FBD927"/>
<path d="M78.7473 33.2745L77.5337 33.2745L76.4934 33.2745L75.4532 34.6458C74.9912 34.6193 74.5281 34.6193 74.0661 34.6458C74.0661 34.6458 74.0662 34.6458 73.0259 34.6458L73.0259 35.6743L72.159 35.6743L70.5985 35.6743L71.6388 35.6743L71.6388 34.8172L73.7194 34.8172L74.933 33.7888L76.6668 33.7888L76.6668 30.189L76.6668 31.0461L75.7999 31.0461L75.7999 31.9032L74.2395 31.9032L72.6791 33.1031L72.6791 32.0746L72.6791 31.2175L73.546 31.2175L73.546 32.246L74.4129 32.246L76.3201 32.246L76.3201 29.6747L63.3167 32.246L63.3167 34.303L62.2764 35.1601L59.6758 34.1315L59.6758 43.2166L62.1031 43.2166L63.1433 42.3596L64.8771 42.3596L65.9174 42.3596L66.9576 42.3596L68.518 41.3311L70.0784 41.3311L71.4655 40.3025L72.6791 40.3025L71.2921 40.3025L74.7596 38.2456L73.1992 38.2456L71.8122 39.4455L69.7317 39.4455L68.8648 40.6454L66.7843 40.6454L65.5706 41.8453L63.8368 40.8168L63.8368 49.559L67.9979 48.3591L70.0784 48.3591L66.6109 49.3876L63.4901 50.4161L63.4901 52.6445L72.159 50.4161L74.0661 47.6734L78.9207 46.1307L78.9207 42.3596C78.5227 42.258 78.1051 42.258 77.707 42.3596L76.4934 42.3596L75.4532 43.5595L74.4129 43.5595L73.0259 43.5595L71.1187 42.531L72.8525 42.531L74.2395 42.531L75.2798 42.531L76.3201 41.5024L77.3603 41.5024L78.7473 41.5024L78.7473 33.2745ZM65.9174 37.217L63.4901 37.217L63.4901 35.8457L65.744 35.8457L66.6109 35.8457L67.131 35.8457L65.9174 37.217ZM69.5583 44.5879L66.7843 44.5879L65.0505 45.6165L66.2641 45.6165L67.6512 44.7594L69.5583 44.5879Z" fill="#FBD927"/>
<path d="M138.964 33.2745L137.75 33.2745L136.71 33.2745L135.67 34.6458C135.208 34.6193 134.745 34.6193 134.283 34.6458C134.283 34.6458 134.283 34.6458 133.243 34.6458L133.243 35.6743L132.376 35.6743L130.815 35.6743L131.856 35.6743L131.856 34.8172L133.936 34.8172L135.15 33.7888L136.884 33.7888L136.884 30.189L136.884 31.0461L136.017 31.0461L136.017 31.9032L134.456 31.9032L132.896 33.1031L132.896 32.0746L132.896 31.2175L133.763 31.2175L133.763 32.246L134.63 32.246L136.537 32.246L136.537 29.6747L123.533 32.246L123.533 34.303L122.493 35.1601L119.893 34.1315L119.893 43.2166L122.32 43.2166L123.36 42.3596L125.094 42.3596L126.134 42.3596L127.174 42.3596L128.735 41.3311L130.295 41.3311L131.682 40.3025L132.896 40.3025L131.509 40.3025L134.976 38.2456L133.416 38.2456L132.029 39.4455L129.948 39.4455L129.082 40.6454L127.001 40.6454L125.787 41.8453L124.054 40.8168L124.054 49.559L128.215 48.3591L130.295 48.3591L126.828 49.3876L123.707 50.4161L123.707 52.6445L132.376 50.4161L134.283 47.6734L139.138 46.1307L139.138 42.3596C138.74 42.258 138.322 42.258 137.924 42.3596L136.71 42.3596L135.67 43.5595L134.63 43.5595L133.243 43.5595L131.336 42.531L133.069 42.531L134.456 42.531L135.497 42.531L136.537 41.5024L137.577 41.5024L138.964 41.5024L138.964 33.2745ZM126.134 37.217L123.707 37.217L123.707 35.8457L125.961 35.8457L126.828 35.8457L127.348 35.8457L126.134 37.217ZM129.775 44.5879L127.001 44.5879L125.267 45.6165L126.481 45.6165L127.868 44.7594L129.775 44.5879Z" fill="#FBD927"/>
<path d="M-1.46545 70.9107L-1.46545 68.1415L1.31947 68.1415L1.31947 49.1034L-5.12064 50.488L0.797322 49.1034L0.797322 45.815L-9.64618 48.238L-10.8646 50.6611L-17.3047 52.7379L-17.3047 74.3721L-1.46545 70.9107ZM-6.51313 55.161L-5.64286 53.9494L-2.68384 54.9879L-1.11732 53.6033L0.449199 54.4687L-0.7692 54.4687L-2.33572 55.334L-5.46876 54.2956L-6.51313 55.161ZM-1.11732 57.7571L0.449199 57.7571L-0.943295 57.7571L-2.68384 59.4878L-4.77252 59.4878L-3.90224 58.6224L-1.46545 59.4878L-1.11732 57.7571ZM-12.4311 60.3532L-10.3424 60.3532L-8.77583 59.1417L-7.20931 59.1417L-8.42778 59.1417L-10.3424 60.5262L-12.083 60.5262L-13.9976 61.9108L-12.4311 60.3532ZM-12.4311 64.5069L-10.8646 64.5069L-9.29805 63.1223L-7.38341 63.1223L-5.64286 61.7377L-3.90224 61.7377L-1.63947 60.6993L-3.72821 62.6031L-5.64286 61.7377L-7.20931 63.4685L-9.29805 63.4685L-10.5165 64.68L-11.5608 64.68L-12.7792 64.68L-14.3457 65.7184L-12.4311 64.5069ZM-16.2603 70.9107L-15.216 69.6992L-13.3014 69.6992L-11.5608 68.1415L-9.64618 68.1415L-6.51313 65.8915L-9.64618 68.8337L-11.5608 68.8337L-13.3014 70.3914L-15.0419 70.3914L-16.2603 70.9107Z" fill="#FBD927"/>
<path d="M3.80078 45.8149L3.80078 70.1156L10.7161 72.3882L10.7161 74.3113L17.4585 76.2344L17.4585 72.0386L14.5195 72.0386L17.4585 72.0386L17.4585 50.71L3.80078 45.8149ZM17.2856 68.0176L15.0381 66.9687L12.272 68.0176L15.5568 66.0945L17.2856 68.0176ZM6.91268 66.619L5.87536 65.5701L6.91268 65.5701L10.7161 65.5701L6.91268 66.619ZM12.4449 60.8498L13.4822 62.2484L15.9025 62.2484L13.1364 63.1225L13.1364 61.8988L10.5432 61.8988L7.94994 60.3254L6.39399 60.3254L8.12286 59.2764L10.5432 60.8498L12.4449 60.8498ZM16.5941 57.5282L17.2856 57.5282L15.3839 56.4792L13.1364 57.5282C14.0558 57.4284 14.9831 57.4284 15.9025 57.5282L16.5941 57.5282ZM10.1974 54.9058L6.73976 56.3044L5.52959 55.2554L5.52959 54.2065L6.91268 55.6051L10.1974 54.9058ZM15.7297 52.4583L15.7297 53.5072L14.3467 53.5072L12.7907 53.5072L11.2348 51.9338L8.29571 51.9338L11.4076 50.3604L12.7907 52.1086L15.7297 52.4583Z" fill="#FBD927"/>
<path d="M37.2312 77.9229L42.9124 74.815L42.9124 52.0237L30.0007 54.2683L24.6638 57.2035L24.6638 76.1963L24.6638 79.8222L31.3779 79.8222L31.3779 82.4122L25.5246 85.8653L22.4258 107.275L35.6818 105.376L36.8869 103.822L42.0515 101.232L42.9124 79.6496L37.9198 79.6496L36.3704 79.6496L37.2312 77.9229ZM35.5097 58.2395L34.1324 57.2035L34.9931 57.2035L37.2312 57.2035L36.1982 57.2035L35.5097 58.2395ZM38.7806 58.2395L39.9857 58.2395L41.1908 58.2395L39.8135 58.2395L38.6085 58.2395L38.7806 58.2395ZM26.3854 63.4194L25.5246 63.4194L26.3854 63.4194L27.7626 62.3834C28.3934 62.3486 29.0256 62.3486 29.6564 62.3834C30.5154 62.4616 31.3796 62.4616 32.2387 62.3834L29.8285 63.7647L27.9348 62.7287L26.3854 63.4194ZM35.5097 63.4194L37.2312 63.4194L38.092 63.4194L35.5097 64.4554L35.5097 63.4194ZM39.1249 63.4194L41.0186 63.4194L39.6414 63.4194L39.1249 63.4194ZM39.1249 67.5633L40.5021 68.5992L39.297 68.5992L38.2641 69.6352L39.297 68.5992L40.5021 67.7359L39.1249 67.5633ZM33.2716 67.5633L35.1653 67.5633L34.1324 67.5633L33.2716 67.5633ZM30.5171 67.5633L31.5501 67.5633L32.583 67.5633L30.5171 67.5633ZM25.1803 67.5633L26.041 67.5633L26.041 66.7L27.4183 66.7L26.5575 67.5633L25.1803 67.5633ZM25.1803 72.5705L26.2132 72.5705L28.107 71.5345L26.5575 72.7431L29.6564 72.7431L28.6234 72.7431L25.1803 72.5705ZM33.7881 72.5705L32.0665 71.5345C32.0665 71.5345 33.0995 71.5345 33.2716 71.5345L34.3046 71.5345L35.6818 70.1532L36.5425 70.1532L37.9198 70.1532L40.33 70.1532L37.9198 71.5345L36.3704 71.5345C35.719 71.9046 35.0869 72.308 34.4767 72.7431L33.7881 72.5705ZM31.7222 76.7143L30.3449 75.5057L28.4513 76.7143L27.2462 76.7143L25.1803 77.9229L27.074 76.0236L28.2791 76.0236L29.6564 74.9877L31.0336 76.7143L31.7222 76.7143ZM31.7222 103.304L30.6893 103.304L31.5501 103.304L31.7222 103.304ZM29.8285 103.304L27.9348 104.685L26.5575 104.685L25.1803 104.685L26.5575 103.822L27.7626 104.685L29.1398 103.65L29.8285 103.304ZM27.074 99.6783L28.107 99.6783L29.8285 99.6783L28.2791 100.542L27.074 99.6783ZM36.0261 99.6783L37.2312 99.6783L39.297 99.6783L37.4033 100.887L36.3704 100.887C36.0268 100.918 35.6811 100.918 35.3375 100.887L36.3704 100.887L36.0261 99.6783ZM30.3449 99.6783L31.7222 99.6783L30.3449 99.6783ZM30.3449 96.5704L28.9677 96.5704L27.5904 96.5704L26.041 96.5704L27.5904 96.5704L28.9677 96.5704L30.3449 96.5704L32.583 96.5704L33.9603 96.5704L35.5097 96.5704L33.7881 96.5704L32.2387 95.5344L30.3449 96.5704ZM40.5021 95.0164L39.1249 95.0164L37.9198 95.8797L39.9857 95.8797L40.5021 95.0164ZM40.5021 90.8725L38.9527 90.8725L38.9527 90.0092C38.6667 89.9764 38.3779 89.9764 38.092 90.0092L39.297 90.0092L40.8464 88.9733L40.5021 90.8725ZM28.4513 92.4265L27.074 92.4265L25.1803 92.4265L25.1803 91.3906L26.2132 91.3906L27.2462 91.3906L30.3449 90.0092L28.4513 92.4265ZM31.8943 86.2107L34.4767 87.2467L35.854 86.2107L37.0591 86.2107L36.0261 86.2107L35.1653 86.2107L31.8943 86.2107ZM40.8464 86.2107L39.4692 86.2107L38.092 86.2107L39.9857 85.1747L40.8464 86.2107Z" fill="#FBD927"/>
<path d="M95.5867 77.9229L101.268 74.815L101.268 52.0237L88.3561 54.2683L83.0193 57.2035L83.0193 76.1963L83.0193 79.8222L89.7334 79.8222L89.7334 82.4122L83.8801 85.8653L80.7812 107.275L94.0373 105.376L95.2423 103.822L100.407 101.232L101.268 79.6496L96.2753 79.6496L94.7259 79.6496L95.5867 77.9229ZM93.8651 58.2395L92.4878 57.2035L93.3486 57.2035L95.5867 57.2035L94.5537 57.2035L93.8651 58.2395ZM97.1361 58.2395L98.3411 58.2395L99.5462 58.2395L98.169 58.2395L96.9639 58.2395L97.1361 58.2395ZM84.7408 63.4194L83.8801 63.4194L84.7408 63.4194L86.1181 62.3834C86.7489 62.3486 87.3811 62.3486 88.0118 62.3834C88.8708 62.4616 89.7351 62.4616 90.5941 62.3834L88.184 63.7647L86.2902 62.7287L84.7408 63.4194ZM93.8651 63.4194L95.5867 63.4194L96.4474 63.4194L93.8651 64.4554L93.8651 63.4194ZM97.4804 63.4194L99.3741 63.4194L97.9968 63.4194L97.4804 63.4194ZM97.4804 67.5633L98.8576 68.5992L97.6525 68.5992L96.6196 69.6352L97.6525 68.5992L98.8576 67.7359L97.4804 67.5633ZM91.6271 67.5633L93.5208 67.5633L92.4878 67.5633L91.6271 67.5633ZM88.8726 67.5633L89.9055 67.5633L90.9384 67.5633L88.8726 67.5633ZM83.5357 67.5633L84.3965 67.5633L84.3965 66.7L85.7738 66.7L84.913 67.5633L83.5357 67.5633ZM83.5357 72.5705L84.5687 72.5705L86.4624 71.5345L84.913 72.7431L88.0118 72.7431L86.9789 72.7431L83.5357 72.5705ZM92.1435 72.5705L90.422 71.5345C90.422 71.5345 91.4549 71.5345 91.6271 71.5345L92.66 71.5345L94.0373 70.1532L94.898 70.1532L96.2753 70.1532L98.6855 70.1532L96.2753 71.5345L94.7259 71.5345C94.0744 71.9046 93.4424 72.308 92.8322 72.7431L92.1435 72.5705ZM90.0777 76.7143L88.7004 75.5057L86.8067 76.7143L85.6017 76.7143L83.5357 77.9229L85.4295 76.0236L86.6345 76.0236L88.0118 74.9877L89.389 76.7143L90.0777 76.7143ZM90.0777 103.304L89.0447 103.304L89.9056 103.304L90.0777 103.304ZM88.184 103.304L86.2902 104.685L84.913 104.685L83.5357 104.685L84.913 103.822L86.1181 104.685L87.4953 103.65L88.184 103.304ZM85.4295 99.6783L86.4624 99.6783L88.184 99.6783L86.6345 100.542L85.4295 99.6783ZM94.3816 99.6783L95.5867 99.6783L97.6525 99.6783L95.7588 100.887L94.7259 100.887C94.3823 100.918 94.0365 100.918 93.6929 100.887L94.7259 100.887L94.3816 99.6783ZM88.7004 99.6783L90.0777 99.6783L88.7004 99.6783ZM88.7004 96.5704L87.3232 96.5704L85.9459 96.5704L84.3965 96.5704L85.9459 96.5704L87.3232 96.5704L88.7004 96.5704L90.9384 96.5704L92.3157 96.5704L93.8651 96.5704L92.1435 96.5704L90.5941 95.5344L88.7004 96.5704ZM98.8576 95.0164L97.4804 95.0164L96.2753 95.8797L98.3411 95.8797L98.8576 95.0164ZM98.8576 90.8725L97.3082 90.8725L97.3082 90.0092C97.0222 89.9764 96.7334 89.9764 96.4474 90.0092L97.6525 90.0092L99.2019 88.9733L98.8576 90.8725ZM86.8067 92.4265L85.4295 92.4265L83.5357 92.4265L83.5357 91.3906L84.5687 91.3906L85.6017 91.3906L88.7004 90.0092L86.8067 92.4265ZM90.2498 86.2107L92.8322 87.2467L94.2094 86.2107L95.4145 86.2107L94.3816 86.2107L93.5208 86.2107L90.2498 86.2107ZM99.2019 86.2107L97.8247 86.2107L96.4474 86.2107L98.3411 85.1747L99.2019 86.2107Z" fill="#FBD927"/>
<path d="M50.3923 62.1878C51.0222 62.2339 51.6547 62.2339 52.2846 62.1878L51.7686 62.1878L50.3923 62.1878L50.3923 80.5521L50.3923 82.2846L62.7785 86.7891L62.7785 83.1509L61.7464 83.1509L60.1981 83.1509L62.7785 83.1509L62.7785 81.2451L62.7785 68.4248L61.4023 68.4248L59.3379 68.4248L58.1337 68.4248L58.1337 67.0388L60.3701 67.0388L61.4023 67.0388L61.4023 62.7076L54.6931 60.4553L54.6931 59.0694L48.5 56.9904L48.5 61.1483C49.1553 61.4475 49.7878 61.7949 50.3923 62.1878ZM60.026 77.4336L58.4778 77.4336C57.715 77.7412 56.9686 78.0882 56.2413 78.4732C56.2413 78.4732 57.6176 77.4337 57.6176 77.2604C58.1325 77.2105 58.651 77.2105 59.1659 77.2604L60.026 77.4336ZM54.8651 75.8744L53.4888 75.8744L51.0804 75.8744L52.4567 75.8744L55.2092 74.835L54.8651 75.8744ZM53.1448 71.0235L54.5211 72.063L56.0693 72.063L56.0693 72.9292L56.0693 73.9687L57.9617 73.9687L56.0693 74.835L54.8651 73.4489L53.3168 73.4489L52.4567 73.4489L50.9084 73.4489L49.7042 73.4489L50.9084 73.4489L53.1448 71.0235ZM54.6931 65.9993L53.1448 65.9993L55.0371 65.9993L54.6931 65.9993ZM51.5966 65.9993L52.6287 65.9993L51.4245 65.9993L51.5966 65.9993Z" fill="#FBD927"/>
<path d="M108.748 62.1878C109.378 62.2339 110.01 62.2339 110.64 62.1878L110.124 62.1878L108.748 62.1878L108.748 80.5521L108.748 82.2846L121.134 86.7891L121.134 83.1509L120.102 83.1509L118.554 83.1509L121.134 83.1509L121.134 81.2451L121.134 68.4248L119.758 68.4248L117.693 68.4248L116.489 68.4248L116.489 67.0388L118.726 67.0388L119.758 67.0388L119.758 62.7076L113.049 60.4553L113.049 59.0694L106.855 56.9904L106.855 61.1483C107.511 61.4475 108.143 61.7949 108.748 62.1878ZM118.382 77.4336L116.833 77.4336C116.071 77.7412 115.324 78.0882 114.597 78.4732C114.597 78.4732 115.973 77.4337 115.973 77.2604C116.488 77.2105 117.006 77.2105 117.521 77.2604L118.382 77.4336ZM113.221 75.8744L111.844 75.8744L109.436 75.8744L110.812 75.8744L113.565 74.835L113.221 75.8744ZM111.5 71.0235L112.877 72.063L114.425 72.063L114.425 72.9292L114.425 73.9687L116.317 73.9687L114.425 74.835L113.221 73.4489L111.672 73.4489L110.812 73.4489L109.264 73.4489L108.06 73.4489L109.264 73.4489L111.5 71.0235ZM113.049 65.9993L111.5 65.9993L113.393 65.9993L113.049 65.9993ZM109.952 65.9993L110.984 65.9993L109.78 65.9993L109.952 65.9993Z" fill="#FBD927"/>
<path d="M75.8081 73.0937L74.0668 73.0937L72.6738 73.0937L70.7584 73.0937L69.1912 74.2979L67.2758 74.2979L65.8828 75.5021L65.8828 84.2757L66.9275 83.2435L69.0171 83.2435L67.45 83.2435L65.8828 83.2435L65.8828 86.168L73.7185 84.1036L75.634 81.6952L77.2011 81.6952L80.1613 80.3189L80.1613 78.0826L80.1613 76.7063L79.1165 76.7063L77.7235 76.7063L76.6788 77.7385L75.634 77.7385L74.4151 77.7385L72.4996 79.4588L74.241 77.3944L75.634 77.3944L76.6788 76.3622L77.8976 76.3622L79.2907 76.3622L79.2907 71.8894L78.0717 71.8894L75.8081 73.0937Z" fill="#FBD927"/>
<path d="M134.164 73.0937L132.422 73.0937L131.029 73.0937L129.114 73.0937L127.547 74.2979L125.631 74.2979L124.238 75.5021L124.238 84.2757L125.283 83.2435L127.373 83.2435L125.805 83.2435L124.238 83.2435L124.238 86.168L132.074 84.1036L133.989 81.6952L135.557 81.6952L138.517 80.3189L138.517 78.0826L138.517 76.7063L137.472 76.7063L136.079 76.7063L135.034 77.7385L133.989 77.7385L132.771 77.7385L130.855 79.4588L132.596 77.3944L133.989 77.3944L135.034 76.3622L136.253 76.3622L137.646 76.3622L137.646 71.8894L136.427 71.8894L134.164 73.0937Z" fill="#FBD927"/>
<path d="M64.8036 64.9026L64.8036 69.5533L66.1925 69.5533L67.2342 69.5533L65.6717 69.5533L64.63 70.8055L62.7202 70.8055L62.7202 73.1309L63.9355 73.1309L64.8036 72.2365L68.9703 73.1309L70.0121 73.1309L71.0537 73.1309L72.4427 72.0576L74.0052 72.0576L75.3941 70.9844L76.4358 70.9844C76.2663 69.8582 76.2663 68.7118 76.4358 67.5857L75.2205 67.5857L74.1788 69.0167L72.9635 69.0167C72.9635 69.0167 72.0954 69.0167 71.9218 69.0167L71.9218 70.09L70.8801 70.09L69.3176 70.09L70.5329 70.09L70.5329 69.1956L72.7899 69.1956L74.0052 68.1224L75.7413 68.1224L75.7413 64.5448L74.6997 65.4392L72.4427 65.4392L72.4427 66.3335L70.8801 66.3335L70.0121 66.3335L68.2759 67.5857L68.2759 66.5125L68.2759 65.6181L69.1439 65.6181L69.1439 66.6913L70.1856 66.6913L72.0954 66.6913L72.0954 62.5772L55.9492 66.5125L64.8036 64.9026Z" fill="#FBD927"/>
<path d="M123.159 64.9026L123.159 69.5533L124.548 69.5533L125.59 69.5533L124.027 69.5533L122.985 70.8055L121.076 70.8055L121.076 73.1309L122.291 73.1309L123.159 72.2365L127.326 73.1309L128.368 73.1309L129.409 73.1309L130.798 72.0576L132.361 72.0576L133.75 70.9844L134.791 70.9844C134.622 69.8582 134.622 68.7118 134.791 67.5857L133.576 67.5857L132.534 69.0167L131.319 69.0167C131.319 69.0167 130.451 69.0167 130.277 69.0167L130.277 70.09L129.236 70.09L127.673 70.09L128.888 70.09L128.888 69.1956L131.145 69.1956L132.361 68.1224L134.097 68.1224L134.097 64.5448L133.055 65.4392L130.798 65.4392L130.798 66.3335L129.236 66.3335L128.368 66.3335L126.631 67.5857L126.631 66.5125L126.631 65.6181L127.499 65.6181L127.499 66.6913L128.541 66.6913L130.451 66.6913L130.451 62.5772L114.305 66.5125L123.159 64.9026Z" fill="#FBD927"/>
</g>
</svg>
