<svg width="99" height="183" viewBox="0 0 99 183" fill="none" xmlns="http://www.w3.org/2000/svg">
<mask id="mask0_148_6666" style="mask-type:alpha" maskUnits="userSpaceOnUse" x="0" y="0" width="100" height="183">
<rect width="100" height="183" fill="black"/>
</mask>
<g mask="url(#mask0_148_6666)">
<path d="M20.7352 185.849L20.7352 171.771C20.1911 170.423 19.8444 169 19.7064 167.548L18.5062 168.428C18.5062 168.428 17.4774 168.428 16.9631 168.428L15.7628 168.428C15.7628 170.363 15.7629 171.419 14.3912 170.363C14.3912 173.355 14.3911 171.243 13.5338 168.252L11.8192 169.659L10.7904 169.659L13.3624 168.076L13.3624 163.852L10.619 163.852L7.53271 163.852C7.53271 165.26 6.50396 165.436 6.50396 165.788L6.50396 163.852L5.13227 163.852L5.13227 168.428L5.98956 168.428L8.21857 166.844L9.07587 166.844L5.8181 169.659L5.8181 174.059L7.18979 174.059L8.9044 174.059L10.1046 174.059L11.4763 174.059L13.3624 174.059L14.7341 174.059L16.9631 173.179L18.3348 173.179L19.535 173.179L18.5062 173.179L17.1346 173.179L15.2485 174.235L14.2197 174.235L12.5051 175.115L11.1334 175.115L9.93316 175.115L7.87564 175.115L6.16103 175.995L6.16103 177.93L7.53271 177.05L9.24733 177.05L10.4476 177.05L10.619 177.93L12.5051 177.93L13.8768 177.93L16.1058 177.93L17.4775 177.93L18.6777 177.93L17.6489 177.93L16.2773 177.93L14.3912 177.93L13.3624 177.93L11.6478 177.93L10.2761 177.93L9.07587 177.93L7.01835 177.93L5.30374 177.93L5.30374 181.626L7.87564 180.218L4.10352 182.506L4.10352 186.201L22.1069 186.201L20.7352 185.849ZM12.6765 181.802L14.0483 181.802L15.4199 181.802L16.7916 181.802L17.9918 181.802L19.1921 181.802L18.1633 183.034L16.6201 183.034L15.5914 181.978L14.0483 181.978L12.848 181.978L10.619 184.089L12.6765 181.802Z" fill="#FBD927"/>
<path d="M28.92 205.027L27.6953 205.027L27.6953 209.171L43.4412 205.2L43.4412 202.438L46.9403 202.438L46.9403 179.993L37.1429 182.41L36.0931 184.655L32.769 185.69L29.2699 186.726L29.2699 203.991L30.4946 203.991L31.5443 203.991C32.0685 204.028 32.5947 204.028 33.1189 203.991C33.8618 203.666 34.5658 203.261 35.2184 202.783C35.7994 202.853 36.3869 202.853 36.9679 202.783L39.2423 201.229L37.3178 203.473L35.2184 203.473L33.4688 204.682L31.8942 204.682L28.92 205.027ZM28.92 191.043L30.3197 191.043L32.4191 189.661L34.5185 189.661L36.443 187.59L37.6677 187.59L35.5683 189.834L33.4688 189.834L31.5443 190.87L30.3197 190.87L29.2699 190.87L28.92 191.043ZM28.0452 196.395L29.2699 196.395L30.8445 196.395L32.0692 195.186C32.8833 195.101 33.7044 195.101 34.5185 195.186L36.0931 193.805L38.1926 193.805C38.562 193.417 38.9726 193.07 39.4172 192.769C40.1733 192.69 40.9356 192.69 41.6917 192.769C42.3642 192.352 43.0072 191.891 43.6162 191.388L44.8408 191.388C44.4376 191.299 44.0194 191.299 43.6162 191.388C43.0722 191.925 42.4152 192.338 41.6917 192.596C41.0042 192.78 40.2797 192.78 39.5922 192.596L38.7175 195.014L36.9679 195.014L35.5683 195.014L33.2939 195.014L32.0692 196.222L31.0194 196.222L28.0452 196.395ZM38.1926 197.949C38.8065 197.657 39.3921 197.31 39.9421 196.913L41.6917 196.913L43.6162 195.359C43.6162 195.359 44.8408 196.222 44.8408 196.395L43.7911 196.395L41.8667 197.949L39.9421 197.949L38.5425 197.949L36.793 197.949L34.6935 198.985L36.0931 198.985L37.8427 197.949C38.1342 197.961 38.426 197.961 38.7175 197.949L38.1926 197.949ZM28.2202 200.711L29.4448 200.711L31.7193 199.157L29.4448 201.229L28.2202 200.711Z" fill="#FBD927"/>
<path d="M62.5425 204.937L59.3113 204.937L62.5425 204.937L62.5425 186.53L62.5425 183.949L48.1816 179.993L48.1816 183.777L51.0538 183.777L52.1308 183.777L49.0792 183.777L49.0792 203.389L55.9006 205.625L56.9776 207.518L63.081 208.55L62.5425 204.937ZM49.0792 189.454L50.5153 188.422L51.7719 188.422L55.721 187.39L51.7719 189.11L49.0792 189.454ZM56.7981 190.659L60.5678 189.454L61.8244 190.487L60.3884 190.487L56.9776 191.519L56.7981 190.659ZM54.285 195.131L52.4899 193.411L54.4645 194.787L56.4391 194.787L58.0547 195.992L60.5678 195.992L58.2342 195.131L56.2596 193.927L54.285 195.131ZM50.6948 198.744L49.6177 198.744L50.6948 198.744L54.8235 198.744L50.6948 200.808L50.6948 198.744ZM60.0293 198.744L61.1063 199.948L59.8498 199.948L56.6186 199.948L60.0293 198.744Z" fill="#FBD927"/>
<path d="M63.0813 95.4749L48.8027 91.2179L48.8027 114.887L55.6839 117.1L55.6839 118.973L62.3931 121.017L62.3931 116.93L59.4686 116.93C59.4686 116.93 61.3609 116.93 62.3931 116.93L63.0813 95.4749ZM53.7916 98.3696L56.8881 96.8371L58.2644 98.5399L60.3288 97.6885L60.3288 98.7102L58.9526 98.7102L57.4043 99.5615L55.856 98.0291L53.7916 98.3696ZM49.8349 101.264L49.8349 100.072L51.2112 101.264L54.1356 100.072L50.6951 101.435L49.4908 100.413L49.8349 101.264ZM57.4043 103.137L60.1568 103.137L61.533 103.137L62.2211 103.137L60.3288 102.116L57.4043 103.137ZM54.4797 106.883L51.8993 105.351L50.351 105.351L52.0713 104.159L54.4797 105.692L57.0602 105.692L58.0923 107.054L60.5008 107.054L57.7483 107.054L57.7483 105.862L54.4797 106.883ZM50.523 110.459L51.5552 110.459L55.3399 110.459L51.5552 112.162L50.523 110.459ZM56.8881 112.843L60.1568 111.14L61.877 112.843L59.6406 111.992L56.8881 112.843Z" fill="#FBD927"/>
<path d="M28.8322 144.996L27.6016 144.996L27.6016 148.953L43.424 145.168L43.424 142.416L46.94 142.416L46.94 123.665C46.94 123.665 45.8852 123.665 45.0062 121.944L45.0062 120.396C43.2205 120.671 41.4577 121.074 39.732 121.6C39.732 123.149 39.7321 122.632 38.6773 121.6L36.216 121.6L35.1612 123.837L32.5241 123.837L31.1177 129.17L33.2273 127.793L35.3369 127.793L37.2708 125.729L35.1612 127.965L33.0515 127.965L31.1177 128.998L29.8871 128.998C28.6564 132.61 27.6016 134.331 27.0742 131.75L27.0742 142.416L28.3048 142.416L29.3596 142.416C29.8864 142.452 30.4151 142.452 30.9419 142.416C31.6883 142.092 32.3959 141.688 33.0515 141.212C33.6354 141.282 34.2257 141.282 34.8096 141.212L37.095 139.663L35.6886 143.104L33.5789 143.104L31.8209 144.308L30.2387 144.308L28.8322 144.996ZM28.8322 136.395L30.0628 136.395L31.6451 136.395L32.8757 135.191C32.8757 135.191 35.1611 135.191 35.3369 135.191C35.5128 135.191 36.9192 133.986 36.9192 133.986L39.0289 133.986L40.2595 132.954C41.0192 132.876 41.7852 132.876 42.5449 132.954C43.2144 132.592 43.8603 132.19 44.4788 131.75L45.7094 131.75C45.7094 131.75 45.7094 131.75 44.4788 131.75L42.5449 132.954C41.8448 133.046 41.1353 133.046 40.4353 132.954L39.0289 132.954L37.2708 132.954L35.8644 133.986L33.5789 133.986L32.3483 135.191L31.2935 135.191L28.8322 136.395ZM39.0289 137.943C39.6458 137.652 40.2342 137.307 40.7869 136.911L42.5449 136.911L44.4788 135.363L45.7094 135.363L44.6546 135.363L42.7207 136.911L40.7869 136.911L39.3804 136.911L37.6224 136.911L35.5128 137.943L36.9192 137.943L38.6773 136.911C38.6584 137.255 38.6584 137.599 38.6773 137.943L39.0289 137.943ZM29.0081 140.868L30.2387 140.868L32.5241 139.319L30.2387 141.212L29.0081 140.868Z" fill="#FBD927"/>
<path d="M62.5425 123.298L48.1816 119.154L48.1816 123.125L51.0538 123.125L52.1308 123.125L49.0792 123.125L49.0792 143.325L55.9006 145.397L56.9776 147.296L63.081 148.332L63.081 144.706L59.8498 144.706L62.5425 143.325L62.5425 123.298ZM48.7201 129.686L50.1563 128.477L51.4128 128.477L55.362 127.269L51.4128 129.168C50.6157 129.247 49.8318 129.421 49.0792 129.686L48.7201 129.686ZM56.4391 130.894L60.2088 129.686L61.4654 129.686L60.0293 129.686L56.6186 130.894L56.4391 130.894ZM53.926 135.556L52.1308 134.002L50.6948 134.002L52.3104 134.002L54.285 135.383L56.2596 135.383L57.8752 136.592L60.3884 136.592L57.8752 137.8L55.9006 136.419L53.926 135.556ZM50.3357 139.182L49.2587 139.182L50.3357 139.182L54.4645 138.146L50.3357 140.217L50.3357 139.182ZM59.6703 139.182L60.7474 140.217L59.4908 140.217L56.2596 140.217C57.5023 139.962 58.7619 139.789 60.0293 139.7L59.6703 139.182Z" fill="#FBD927"/>
<path d="M74.3491 100.113L69.0123 102.899L69.0123 122.228L69.0123 126.058L75.7264 126.058L75.7264 128.844L69.8731 132.153L68.668 153.919L81.924 152.004L83.1291 150.436L88.2938 147.824L89.1545 125.71L82.6126 125.71L82.6126 123.098L88.2938 119.79L88.2938 96.8049L75.3821 99.0685L74.3491 100.113ZM77.4479 148.521L76.415 148.521L77.2758 148.521L77.4479 148.521ZM75.5542 148.521L73.6605 149.914L72.2832 149.914L70.906 149.914L72.2832 149.043L73.4883 149.043L74.8656 149.043L75.5542 148.521ZM72.7997 144.864L73.8326 144.864L75.5542 144.864L74.0048 145.909L72.7997 144.864ZM81.7518 144.864L82.9569 144.864L85.0228 144.864L83.1291 146.083L82.0961 146.083L81.0632 146.083L82.0961 145.213L81.7518 144.864ZM76.0707 144.864L77.4479 144.864L76.0707 144.864ZM76.0707 141.904L74.6934 141.904L73.3162 141.904L71.7668 141.904L73.3162 141.904L74.6934 141.904L76.0707 142.949L78.3087 141.904L79.686 141.904L81.2354 141.904L79.5138 142.949L77.9644 141.73L76.0707 141.904ZM86.2279 140.163L84.8506 140.163L83.6456 140.163L85.7114 140.163L86.2279 140.163ZM86.2279 135.984L84.6785 135.984L83.6456 136.854C83.3596 136.821 83.0708 136.821 82.7848 136.854L83.9899 136.854L85.5393 135.984L86.2279 135.984ZM74.177 137.725L72.7997 136.854L70.906 137.725L70.906 136.506L71.9389 136.506L72.9719 136.506L76.0707 135.113L74.177 137.725ZM77.6201 131.456L80.2024 132.327L81.5797 131.456L82.7848 131.456L81.7518 131.456L80.8911 131.456L77.6201 131.456ZM86.5722 131.456L85.195 131.456L83.8177 132.501L85.7114 131.456L86.5722 131.456ZM74.6934 122.402L76.0707 121.183L77.4479 122.75L76.5871 122.75L75.2099 121.705L73.3162 122.75L72.1111 122.75L70.0452 123.795L71.9389 121.879L73.144 122.924L74.6934 122.402ZM86.5722 117.004L84.162 118.397L82.6126 118.397C81.8259 118.922 81.0779 119.504 80.3746 120.138L78.653 119.093C78.653 119.093 79.6859 119.093 79.8581 119.093C80.0302 119.093 80.8911 119.093 80.8911 119.093L82.2683 117.7L83.1291 117.7L84.5063 117.7L86.5722 117.004ZM75.3821 117.874L74.3491 118.919L73.3162 118.919L71.5946 118.919L72.6276 118.919L74.5213 117.874L75.3821 117.874ZM70.2174 113.521L71.0781 113.521L71.0781 112.651L71.9389 112.651L71.0781 113.521L70.2174 113.521ZM78.3087 113.521L80.2024 113.521L79.1695 113.521L78.3087 113.521ZM77.4479 113.521L75.5542 113.521L77.6201 113.521L77.4479 113.521ZM84.162 113.521L85.5393 114.566L84.3342 114.566L83.3012 114.566L84.3342 113.521L85.5393 113.521L84.162 113.521ZM85.7114 109.168L84.5063 108.646L86.4 108.646L85.7114 109.168ZM82.7848 109.168C82.7848 109.168 80.3746 110.213 80.2024 110.387L81.924 110.387L82.7848 109.168ZM74.3491 109.168C75.2081 109.247 76.0724 109.247 76.9315 109.168L74.6934 108.646L72.7997 107.427L71.2503 108.646C70.9643 108.613 70.6755 108.613 70.3895 108.646L71.2503 108.646L72.6276 107.427C73.2551 107.333 73.8874 107.275 74.5213 107.253L74.3491 109.168ZM86.5722 103.944L85.195 103.944L83.9899 104.989L85.195 104.989L86.5722 103.944ZM78.8252 103.944L79.686 103.944L81.924 103.944L80.8911 104.989L79.5138 103.944L78.8252 103.944Z" fill="#FBD927"/>
<path d="M94.7712 107.502L94.7712 127.702L107.157 132.191L107.157 128.393L106.125 128.393L104.577 128.393L107.157 128.393L107.157 113.718L105.781 113.718L103.717 113.718L102.513 113.718L102.513 112.337L104.749 112.337L105.781 112.337L105.781 108.711L99.072 106.467L99.072 105.085L92.8789 103.014L92.8789 107.157L94.4272 107.157C95.2405 107.75 96.1039 108.27 97.0077 108.711L95.6314 108.711L94.7712 107.502ZM105.265 122.35L103.717 122.35C102.921 122.652 102.169 123.059 101.48 123.559L102.857 122.178C103.372 122.128 103.89 122.128 104.405 122.178L105.265 122.35ZM100.104 120.797L98.7279 120.797L97.0077 122.178L97.0077 121.142L98.3839 122.178L101.136 120.969L100.104 120.797ZM98.3839 115.962L99.7601 117.171L101.308 117.171L101.308 118.207L103.201 118.207L101.308 119.07L100.104 117.861L98.5559 117.861L97.6958 117.861L96.1475 117.861L94.9433 117.861L96.1475 117.861L98.3839 115.962ZM99.9321 110.955L98.3839 110.955L100.276 110.955L99.9321 110.955ZM96.8357 110.955L95.6314 110.955L96.8357 110.955Z" fill="#FBD927"/>
<path d="M104.415 154.785L102.828 154.785L105.296 154.785L105.296 140.49L104.062 140.49L101.947 140.49L100.537 140.49L100.537 139.112L102.828 139.112L104.062 139.112L104.062 135.495L98.4212 134.118L97.3636 131.707L91.0176 130.329L91.0176 133.429L92.6041 133.429C93.2484 133.5 93.8988 133.5 94.5431 133.429L93.1329 133.429L91.5464 133.429L91.5464 153.923L103.886 157.023L103.886 154.096L104.415 154.785ZM98.245 137.562L96.6585 137.562L98.245 137.562ZM95.6008 138.596L96.6585 138.596L95.4245 138.596L95.6008 138.596ZM101.771 144.623L100.537 143.246L98.9501 143.246L98.0687 143.246L96.3059 143.246L95.2482 143.246L96.6585 143.59L97.8924 144.623L99.6552 144.623L99.6552 145.484L99.6552 146.518L101.594 146.518L99.6552 147.379L101.771 144.623ZM94.8957 147.896L96.4822 147.896L99.3027 146.862L98.0687 146.862L95.6008 146.862L94.8957 147.896ZM102.123 147.896L103.533 147.896L101.947 147.896C101.165 148.201 100.4 148.546 99.6552 148.929L102.123 147.896ZM95.4245 151.34C95.4245 151.34 95.4245 150.307 94.3668 150.307L95.7771 150.307L97.5398 150.307L98.9501 151.512L100.537 151.512L101.947 151.512L98.9501 152.89L97.5398 151.685L95.4245 151.34Z" fill="#FBD927"/>
<path d="M14.8579 167.577L15.9393 167.577L17.5614 167.577L19.0033 167.577L19.0033 163.232L13.416 163.232L13.416 167.577L14.8579 167.577Z" fill="#FBD927"/>
<path d="M43.5346 175.911L43.5346 173.141L46.3195 173.141L46.3195 154.103L39.8794 155.488L45.7973 154.103L45.7973 150.815L35.3538 153.238L34.1354 155.661L27.6953 157.738L27.6953 179.372L43.5346 175.911ZM38.4869 160.161L39.3571 158.949L42.3162 159.988L43.8827 158.603L45.4492 159.469L44.2308 159.469L42.6643 160.334L39.5312 159.296L38.4869 160.161ZM43.8827 162.757L45.4492 162.757L44.0567 162.757L42.3162 164.488L40.2275 164.488L41.0978 163.622L43.5346 164.488L43.8827 162.757ZM32.5689 165.353L34.6576 165.353L36.2242 164.142L37.7907 164.142L36.5722 164.142L34.6576 165.526L32.917 165.526L31.0024 166.911L32.5689 165.353ZM32.5689 169.507L34.1354 169.507L35.7019 168.122L37.6166 168.122L39.3571 166.738L41.0978 166.738L43.3605 165.699L41.2718 167.603L39.3571 166.738L37.7907 168.469L35.7019 168.469L34.4835 169.68L33.4392 169.68L32.2208 169.68L30.6543 170.718L32.5689 169.507ZM28.7397 175.911L29.784 174.699L31.6986 174.699L33.4392 173.141L35.3538 173.141L38.4869 170.892L35.3538 173.834L33.4392 173.834L31.6986 175.391L29.9581 175.391L28.7397 175.911Z" fill="#FBD927"/>
<path d="M48.8027 150.815L48.8027 175.116L55.718 177.388L55.718 179.311L62.4605 181.234L62.4605 177.039L59.5215 177.039L62.4605 177.039L62.4605 155.71L48.8027 150.815ZM62.2876 173.018L60.0401 171.969L57.274 173.018L60.5588 171.095L62.2876 173.018ZM51.9146 171.619L50.8773 170.57L51.9146 170.57L55.718 170.57L51.9146 171.619ZM57.4469 165.85L58.4841 167.248L60.9045 167.248L58.1384 168.123L58.1384 166.899L55.5452 166.899L52.9519 165.325L51.3959 165.325L53.1248 164.276L55.5452 165.85L57.4469 165.85ZM61.5961 162.528L62.2876 162.528L60.3859 161.479L58.1384 162.528C59.0578 162.428 59.9851 162.428 60.9045 162.528L61.5961 162.528ZM55.1994 159.906L51.7417 161.304L50.5315 160.255L50.5315 159.206L51.9146 160.605L55.1994 159.906ZM60.7316 157.458L60.7316 158.507L59.3486 158.507L57.7927 158.507L56.2367 156.934L53.2977 156.934L56.4096 155.36L57.7927 157.109L60.7316 157.458Z" fill="#FBD927"/>
<path d="M82.2312 182.923L87.9124 179.815L87.9124 157.024L75.0007 159.268L69.6638 162.204L69.6638 181.196L69.6638 184.822L76.3779 184.822L76.3779 187.412L70.5246 190.865L67.4258 212.275L80.6818 210.376L81.8869 208.822L87.0515 206.232L87.9124 184.65L82.9198 184.65L81.3704 184.65L82.2312 182.923ZM80.5097 163.24L79.1324 162.204L79.9931 162.204L82.2312 162.204L81.1982 162.204L80.5097 163.24ZM83.7806 163.24L84.9857 163.24L86.1908 163.24L84.8135 163.24L83.6085 163.24L83.7806 163.24ZM71.3854 168.419L70.5246 168.419L71.3854 168.419L72.7626 167.383C73.3934 167.349 74.0256 167.349 74.6564 167.383C75.5154 167.462 76.3796 167.462 77.2387 167.383L74.8285 168.765L72.9348 167.729L71.3854 168.419ZM80.5097 168.419L82.2312 168.419L83.092 168.419L80.5097 169.455L80.5097 168.419ZM84.1249 168.419L86.0186 168.419L84.6414 168.419L84.1249 168.419ZM84.1249 172.563L85.5021 173.599L84.297 173.599L83.2641 174.635L84.297 173.599L85.5021 172.736L84.1249 172.563ZM78.2716 172.563L80.1653 172.563L79.1324 172.563L78.2716 172.563ZM75.5171 172.563L76.5501 172.563L77.583 172.563L75.5171 172.563ZM70.1803 172.563L71.041 172.563L71.041 171.7L72.4183 171.7L71.5575 172.563L70.1803 172.563ZM70.1803 177.57L71.2132 177.57L73.107 176.534L71.5575 177.743L74.6564 177.743L73.6234 177.743L70.1803 177.57ZM78.7881 177.57L77.0665 176.534C77.0665 176.534 78.0995 176.534 78.2716 176.534L79.3046 176.534L80.6818 175.153L81.5425 175.153L82.9198 175.153L85.33 175.153L82.9198 176.534L81.3704 176.534C80.719 176.905 80.0869 177.308 79.4767 177.743L78.7881 177.57ZM76.7222 181.714L75.3449 180.506L73.4513 181.714L72.2462 181.714L70.1803 182.923L72.074 181.024L73.2791 181.024L74.6564 179.988L76.0336 181.714L76.7222 181.714ZM76.7222 208.304L75.6893 208.304L76.5501 208.304L76.7222 208.304ZM74.8285 208.304L72.9348 209.685L71.5575 209.685L70.1803 209.685L71.5575 208.822L72.7626 209.685L74.1398 208.65L74.8285 208.304ZM72.074 204.678L73.107 204.678L74.8285 204.678L73.2791 205.542L72.074 204.678ZM81.0261 204.678L82.2312 204.678L84.297 204.678L82.4033 205.887L81.3704 205.887C81.0268 205.918 80.6811 205.918 80.3375 205.887L81.3704 205.887L81.0261 204.678ZM75.3449 204.678L76.7222 204.678L75.3449 204.678ZM75.3449 201.57L73.9677 201.57L72.5904 201.57L71.041 201.57L72.5904 201.57L73.9677 201.57L75.3449 201.57L77.583 201.57L78.9603 201.57L80.5097 201.57L78.7881 201.57L77.2387 200.534L75.3449 201.57ZM85.5021 200.016L84.1249 200.016L82.9198 200.88L84.9857 200.88L85.5021 200.016ZM85.5021 195.873L83.9527 195.873L83.9527 195.009C83.6667 194.976 83.3779 194.976 83.092 195.009L84.297 195.009L85.8464 193.973L85.5021 195.873ZM73.4513 197.426L72.074 197.426L70.1803 197.426L70.1803 196.391L71.2132 196.391L72.2462 196.391L75.3449 195.009L73.4513 197.426ZM76.8943 191.211L79.4767 192.247L80.854 191.211L82.0591 191.211L81.0261 191.211L80.1653 191.211L76.8943 191.211ZM85.8464 191.211L84.4692 191.211L83.092 191.211L84.9857 190.175L85.8464 191.211Z" fill="#FBD927"/>
<path d="M95.3923 167.187C96.0222 167.233 96.6547 167.233 97.2846 167.187L96.7686 167.187L95.3923 167.187L95.3923 185.551L95.3923 187.284L107.779 191.788L107.779 188.15L106.746 188.15L105.198 188.15L107.779 188.15L107.779 186.244L107.779 173.424L106.402 173.424L104.338 173.424L103.134 173.424L103.134 172.038L105.37 172.038L106.402 172.038L106.402 167.707L99.6931 165.454L99.6931 164.068L93.5 161.989L93.5 166.147C94.1553 166.446 94.7878 166.794 95.3923 167.187ZM105.026 182.433L103.478 182.433C102.715 182.74 101.969 183.087 101.241 183.472C101.241 183.472 102.618 182.433 102.618 182.259C103.133 182.21 103.651 182.21 104.166 182.259L105.026 182.433ZM99.8651 180.873L98.4888 180.873L96.0804 180.873L97.4567 180.873L100.209 179.834L99.8651 180.873ZM98.1448 176.022L99.5211 177.062L101.069 177.062L101.069 177.928L101.069 178.968L102.962 178.968L101.069 179.834L99.8651 178.448L98.3168 178.448L97.4567 178.448L95.9084 178.448L94.7042 178.448L95.9084 178.448L98.1448 176.022ZM99.6931 170.998L98.1448 170.998L100.037 170.998L99.6931 170.998ZM96.5966 170.998L97.6287 170.998L96.4245 170.998L96.5966 170.998Z" fill="#FBD927"/>
<path d="M54.9162 82.5273C56.5229 82.5273 54.9162 82.5274 54.9162 80.0441C53.3096 80.7536 55.9873 80.2215 54.9162 82.5273Z" fill="#FBD927"/>
<path d="M62.4605 83.7686L62.4605 64.8204L62.4605 62.3642L53.5235 59.5571C53.2763 60.1076 53.1484 60.706 53.1484 61.3116C53.1484 61.9171 53.2763 62.5155 53.5235 63.066C53.5235 63.066 54.8984 64.2941 55.414 64.8204L56.7889 68.8557L59.1951 68.8557L60.3982 68.8557L59.0232 68.8557L56.9608 68.8557L58.1639 73.4172L59.3669 73.4172L58.1639 73.4172C58.4084 74.8097 58.4084 76.2355 58.1639 77.628L59.1951 78.6806L57.992 78.6806C57.992 79.9087 56.9608 80.4351 56.7889 81.1368C56.6171 81.8386 58.1639 81.1368 58.1639 82.365L62.4605 83.7686Z" fill="#FBD927"/>
<path d="M56.9641 77.5605C56.9641 76.512 58.3701 77.5605 58.6825 77.5605C59.1511 74.0654 56.3393 76.3372 56.9641 77.5605Z" fill="#FBD927"/>
<path d="M55.1348 67.2937L55.1348 64.7865C55.1348 64.7865 55.1348 63.4494 55.1348 63.2823L55.1348 64.7865C55.1348 64.7865 54.0173 66.4579 55.1348 66.9593C55.1348 64.7865 56.2522 64.9536 56.2522 66.9593C56.2522 68.9651 54.7622 65.6223 53.831 64.2851L52.5273 67.6279L53.831 67.6279L55.1348 67.2937Z" fill="#FBD927"/>
<path d="M51.58 79.3565L51.58 78.3151L50.5998 78.3151L51.58 78.3151L52.7236 78.3151L52.7236 77.2738C52.7236 77.2738 52.7236 71.7198 52.7236 77.2738C52.7236 77.2738 52.7236 77.2738 54.0305 77.2738C55.3375 77.2738 53.0504 77.2738 53.0504 76.2324L53.0504 74.6703L51.58 73.2818L50.2731 73.2818L51.7434 73.2818L53.3771 74.6703C54.0682 73.8516 54.6209 72.9122 55.0108 71.8934C54.0306 71.8934 53.8672 70.1579 53.8672 68.2487L50.9266 69.8107L49.6196 69.8107L48.8027 72.2405L48.8027 82.8277L53.7038 84.3896C53.1067 82.5364 52.7227 80.6134 52.5602 78.6623L51.58 79.3565Z" fill="#FBD927"/>
<path d="M59.8412 83.7686C59.739 84.5725 59.404 85.3292 58.8769 85.9466C58.3498 86.564 57.6535 87.0152 56.873 87.2451L62.4603 88.1143L62.4603 84.6377L59.8412 83.7686Z" fill="#FBD927"/>
<path d="M93.5 66.9268L105.916 71.3525L105.916 67.6077L104.881 67.6077L103.502 67.6077L101.605 67.6077L101.605 65.3949C101.605 65.3949 101.605 64.2033 101.605 65.3949C101.605 65.3949 101.605 67.4375 101.605 67.7779C98.5009 67.7779 98.6734 67.7779 98.6734 65.3949L98.6734 64.0331C101.605 63.0117 102.295 60.6286 103.329 58.4158L102.122 57.2242L100.57 57.2242L99.7081 57.2242L98.156 57.2242L96.9489 57.2242L98.156 57.2242L99.7081 57.2242L101.088 58.4158L102.64 58.4158C103.181 57.5555 103.884 56.8046 104.709 56.203C103.674 56.203 102.295 56.203 102.122 56.203C102.259 55.9394 102.33 55.6477 102.33 55.3518C102.33 55.0559 102.259 54.7642 102.122 54.5007C102.001 54.2631 101.938 54.0008 101.938 53.7347C101.938 53.4686 102.001 53.2063 102.122 52.9687C101.207 53.0903 100.279 53.0903 99.3632 52.9687L98.5009 52.9687C96.604 52.9687 98.5009 51.607 98.5009 51.2666C98.5009 50.9261 95.5694 51.2666 94.1898 51.2666C92.8102 51.2666 94.1898 51.2665 94.1898 50.2452L94.1898 67.2672L93.5 66.9268ZM96.4316 51.2666L97.6387 51.2666L96.4316 51.2666ZM96.4316 61.3095L96.4316 60.2882L97.8111 61.3095L100.57 60.118L99.1907 60.118L96.9489 61.65L96.4316 61.3095Z" fill="#FBD927"/>
<path d="M93.5 17.6817L105.916 22.1074L105.916 18.3626L104.881 18.3626L103.502 18.3626L101.605 18.3626L101.605 16.1497C101.605 16.1497 101.605 14.9582 101.605 16.1497C101.605 16.1497 101.605 18.1924 101.605 18.5328C98.5009 18.5328 98.6734 18.5328 98.6734 16.1497L98.6734 14.788C101.605 13.7666 102.295 11.3835 103.329 9.17066L102.122 7.97912L100.57 7.97912L99.7081 7.97912L98.156 7.97912L96.9489 7.97912L98.156 7.97912L99.7081 7.97912L101.088 9.17066L102.64 9.17066C103.181 8.31039 103.884 7.55951 104.709 6.95785C103.674 6.95785 102.295 6.95785 102.122 6.95785C102.259 6.6943 102.33 6.40258 102.33 6.10669C102.33 5.81081 102.259 5.51909 102.122 5.25554C102.001 5.01795 101.938 4.75563 101.938 4.48958C101.938 4.22353 102.001 3.96121 102.122 3.72362C101.207 3.84521 100.279 3.84521 99.3632 3.72362L98.5009 3.72362C96.604 3.72362 98.5009 2.36189 98.5009 2.02145C98.5009 1.68101 95.5694 2.02145 94.1898 2.02145C92.8102 2.02145 94.1898 2.02136 94.1898 1.00004L94.1898 18.022L93.5 17.6817ZM96.4316 2.02145L97.6387 2.02145L96.4316 2.02145ZM96.4316 12.0644L96.4316 11.0431L97.8111 12.0644L100.57 10.8728L99.1907 10.8728L96.9489 12.4049L96.4316 12.0644Z" fill="#FBD927"/>
<path d="M104.337 93.8536L102.76 93.8536L105.214 93.8536L105.214 79.3522L103.987 79.3522L101.883 79.3522L100.481 79.3522L100.481 77.9544L102.76 77.9544L103.987 77.9544L103.987 74.1106L98.3776 72.7128L97.326 70.2668L91.0156 68.869L91.0156 72.3634L92.5932 72.3634C93.7623 73.2846 95.1516 73.8867 96.6248 74.1106L95.2225 74.1106L93.6449 74.1106L93.645 94.902L105.915 98.0469L105.915 95.2513L104.337 93.8536ZM98.2024 76.3819L96.6248 76.3819L98.2024 76.3819ZM95.573 77.4303L96.6248 77.4303L95.3978 77.4303L95.573 77.4303ZM101.708 83.5453L100.481 82.3223L98.9035 82.3223L98.0271 82.3223L96.2742 82.3223L95.2225 82.3223L96.2742 82.3223L97.8518 82.3223L99.0788 83.5453L100.832 82.6717L100.832 83.5453L100.832 84.5936L102.76 84.5936L100.832 84.5936L101.708 83.5453ZM94.872 86.865L96.4495 86.865L99.2541 85.8166L98.0271 85.8166L95.573 85.8166L94.872 86.865ZM102.059 86.865L103.461 86.865L101.883 86.865C101.073 87.1706 100.307 87.5819 99.6046 88.088L102.059 86.865ZM95.3978 90.3593C95.3978 90.3593 95.3978 89.311 94.346 89.311L96.6248 91.5823L98.3776 91.5823L99.78 92.8053L101.358 92.8053L102.76 92.8053L98.9035 91.5823L97.5012 90.3593L95.3978 90.3593Z" fill="#FBD927"/>
<path d="M104.337 44.6085L102.76 44.6085L105.214 44.6085L105.214 30.107L103.987 30.107L101.883 30.107L100.481 30.107L100.481 28.7093L102.76 28.7093L103.987 28.7093L103.987 24.8655L98.3776 23.4677L97.326 21.0217L91.0156 19.6239L91.0156 23.1183L92.5932 23.1183C93.7623 24.0395 95.1516 24.6415 96.6248 24.8655L95.2225 24.8655L93.6449 24.8655L93.645 45.6568L105.915 48.8018L105.915 46.0062L104.337 44.6085ZM98.2024 27.1367L96.6248 27.1367L98.2024 27.1367ZM95.573 28.1851L96.6248 28.1851L95.3978 28.1851L95.573 28.1851ZM101.708 34.3002L100.481 33.0772L98.9035 33.0772L98.0271 33.0772L96.2742 33.0772L95.2225 33.0772L96.2742 33.0772L97.8518 33.0772L99.0788 34.3002L100.832 33.4266L100.832 34.3002L100.832 35.3485L102.76 35.3485L100.832 35.3485L101.708 34.3002ZM94.872 37.6199L96.4495 37.6199L99.2541 36.5715L98.0271 36.5715L95.573 36.5715L94.872 37.6199ZM102.059 37.6199L103.461 37.6199L101.883 37.6199C101.073 37.9255 100.307 38.3368 99.6046 38.8429L102.059 37.6199ZM95.3978 41.1142C95.3978 41.1142 95.3978 40.0659 94.346 40.0659L96.6248 42.3372L98.3776 42.3372L99.78 43.5602L101.358 43.5602L102.76 43.5602L98.9035 42.3372L97.5012 41.1142L95.3978 41.1142Z" fill="#FBD927"/>
<path d="M62.4594 60.7988L62.4594 57.2514L59.4441 57.2514C59.4441 57.2514 61.3952 57.2514 62.4594 57.2514L62.4594 53.3492C59.7292 54.524 57.212 56.1422 55.0098 58.1383L55.0098 60.0895L62.4594 60.7988Z" fill="#FBD927"/>
<path d="M82.5755 45.8992C82.5755 45.8992 80.1653 46.9421 79.9931 47.1159C75.854 47.9562 71.7716 49.0593 67.7701 50.4187L67.7701 62.4125L67.7701 65.8891L74.4842 65.8891L74.4842 68.6703L68.6309 71.973L67.4258 93.7012L80.6818 91.7891L81.8869 90.2247L87.0515 87.6173L87.9124 65.8891L82.9198 65.8891L81.3704 65.8891L81.3704 63.4556L87.0515 60.1528L87.0515 37.2079L84.297 37.2079C83.4045 40.0312 82.8271 42.9464 82.5755 45.8992ZM77.583 87.791L76.5501 87.791L77.4108 87.791L77.583 87.791ZM75.6893 87.791L73.7955 89.1817L72.4183 89.1817L71.041 89.1817L72.4183 88.3126L73.6234 88.3126L75.0007 88.3126L75.6893 87.791ZM72.9348 84.1407L73.9677 84.1407L75.6893 84.1407L74.1398 85.1838L72.9348 84.1407ZM81.8869 84.1407L83.092 84.1407L85.1579 84.1407L83.2641 85.3575L82.2312 85.3575L81.1982 85.3575L82.2312 84.4884L81.8869 84.1407ZM76.2058 81.1857L74.8285 81.1857L76.2058 82.2286L78.4437 81.1857L79.821 81.1857L81.3704 81.1857L79.6488 82.2286L78.0994 81.0119L76.2058 81.1857ZM86.363 79.4475L84.9857 79.4475L83.7806 79.4475L85.8464 79.4475L86.363 79.4475ZM86.363 75.2757L84.8136 75.2757L83.9527 74.4065C83.6667 74.3735 83.3779 74.3735 83.092 74.4065L84.297 74.4065L85.8464 74.4065L86.363 75.2757ZM74.312 77.0139L72.9348 77.0139L71.041 77.0139L71.041 75.7972L72.074 75.7972L73.107 75.7972L76.2058 74.4065L74.312 77.0139ZM77.7552 70.7562L80.3375 71.6253L81.7147 70.7562L82.9198 70.7562L81.8869 70.7562L81.0261 70.7562L77.7552 70.7562ZM86.7072 70.7562L85.33 70.7562L83.9527 71.7991L85.8464 70.7562L86.7072 70.7562ZM74.8285 61.7172L76.2058 60.5004L77.583 62.0649L76.7222 62.0649L75.3449 61.022L73.4513 62.0649L72.2462 62.0649L70.1803 63.1078L72.074 61.1958L73.2791 62.2388L74.8285 61.7172ZM86.7072 56.3287L84.4692 57.024L82.9198 57.024C81.7744 56.9212 80.6221 56.9212 79.4767 57.024L77.7552 55.9811C77.7552 55.9811 78.7881 55.9811 78.9603 55.9811C79.1324 55.9811 79.9931 55.9811 79.9931 55.9811L81.3704 54.5904L82.2312 54.5904L83.6085 54.5904L86.7072 56.3287ZM75.5171 57.1978L74.6564 57.024L73.6234 57.024L71.9019 57.024L72.9348 57.024L74.8285 55.9811L75.5171 57.1978ZM71.2132 52.8522L71.2132 51.983L72.074 51.983L71.2132 52.8522ZM78.4437 52.8522L80.3375 52.8522L79.3046 52.8522L78.4437 52.8522ZM77.583 52.8522L75.6892 52.8522L77.7552 52.8522L77.583 52.8522ZM84.297 52.8522L85.6743 53.8951L84.4692 53.8951L83.4363 53.8951L84.4692 52.8522L85.6743 52.8522L84.297 52.8522ZM85.8464 48.5066L84.4692 49.5495L86.363 49.5495L85.8464 48.5066ZM85.8464 43.4656L84.4692 43.4656L83.2641 44.5085L84.4692 44.5085L85.8464 43.4656Z" fill="#FBD927"/>
</g>
</svg>
