<svg width="369" height="85" viewBox="0 0 369 85" fill="none" xmlns="http://www.w3.org/2000/svg">
<g opacity="0.2">
<path d="M29.3106 11.7614C40.9973 11.7614 38.9349 8.21595 39.6224 11.7614C36.843 12.9697 33.9552 13.7144 31.0292 13.9773C23.1236 13.9773 25.186 13.9773 18.9989 13.9773C19.4765 18.3516 20.2823 22.6559 21.405 26.8295C21.405 26.8295 25.186 21.5113 25.186 21.0681H27.2482C27.2482 21.0681 27.2482 15.75 27.2482 17.0795C27.2482 18.409 27.2482 22.3976 27.2482 23.284C27.2482 24.1704 29.3106 23.284 22.4361 32.1476C23.1119 34.3482 24.3165 36.2121 25.8734 37.4659C25.8734 29.9319 32.7479 28.1591 28.967 32.5909C25.186 37.0227 26.2171 39.2385 31.7167 40.1249C33.4353 32.5908 35.8415 36.5795 35.154 31.7045C34.4666 26.8295 35.154 33.9204 35.154 34.8068C29.3107 41.4545 31.373 40.1248 37.5601 41.4544C37.5601 41.4544 40.6536 41.4544 35.4977 41.4544C30.3418 41.4544 38.9349 41.4544 35.4977 41.4544C32.0604 41.4544 33.0916 43.6703 35.4977 41.4544C35.4977 41.4544 33.0917 41.4544 31.373 41.4544C29.6544 41.4544 35.8414 41.4544 34.8102 44.1135C33.7791 46.7726 32.4042 44.1135 32.0605 44.1135C37.5601 44.1135 37.56 44.1135 37.2163 44.1135C42.3488 45.0079 47.5514 45.0079 52.6839 44.1135H49.2467C74.1514 42.3956 89.1262 37.7311 113.835 42.1022C113.835 42.1022 115.897 42.1022 115.554 42.1022C115.21 42.1022 95.9613 42.1022 128.615 42.1022C131.365 42.1022 111.205 42.1022 110.174 42.1022C110.174 42.1022 137.208 46.0907 124.834 44.318H106.96C89.7742 44.318 65.3698 44.318 56.433 44.318C47.4961 44.318 29.6224 44.318 17.9357 44.318C16.2171 44.318 17.9357 46.9771 17.9357 48.3066C17.9357 49.6362 17.9358 48.3067 21.373 54.068C24.8103 59.8294 28.5912 54.0681 24.1228 48.7499H29.2787C32.7159 54.5113 31.341 54.068 37.1844 54.068C33.7471 47.8635 34.0908 48.7499 35.122 48.7499C38.9029 55.8408 35.1221 54.068 47.8399 54.068C50.9334 54.068 82.2124 54.068 82.2124 54.068C82.2124 54.068 85.9934 54.068 88.3994 54.068H90.4617C105.22 55.5283 97.8215 55.5283 112.58 54.068H155.202C158.296 54.068 161.733 57.1703 160.702 54.068H178.231C167.968 55.7838 157.642 56.8193 147.296 57.1703H157.952C181.669 57.1703 167.576 54.9544 185.45 57.1703C185.45 57.1703 175.482 57.1703 183.044 57.1703C183.044 57.1703 227.728 57.1703 230.478 57.1703H267.6C265.427 56.938 263.242 56.938 261.069 57.1703C258.319 57.1703 305.753 57.1703 307.816 57.1703C309.878 57.1703 310.222 57.1703 310.222 57.1703C310.222 57.1703 304.722 57.1703 306.785 54.9544C216.385 50.9658 230.821 54.9544 226.009 49.193C227.728 49.193 233.915 49.193 229.447 49.193C229.447 49.193 229.446 49.193 231.509 49.193C231.509 49.193 231.509 49.193 234.259 49.193C237.008 49.193 234.259 49.193 238.04 49.193C229.79 49.193 234.602 49.193 238.04 49.193C238.04 51.8521 238.04 49.193 240.446 49.193C240.446 49.193 249.726 49.193 244.227 52.2953C256.944 52.2953 255.226 52.2953 255.226 52.2953C255.226 52.2953 258.663 52.2953 257.288 52.2953C255.913 52.2953 259.694 52.2953 261.069 52.2953C271.381 52.2953 329.814 52.2953 319.159 52.2953C320.391 52.776 321.707 52.776 322.94 52.2953H326.721C321.565 52.2953 318.128 49.193 321.909 47.4203C327.4 47.9736 332.916 47.9736 338.407 47.4203C328.439 47.4203 322.94 47.4203 327.752 44.318C312.628 44.318 323.284 41.2158 326.033 39.8863C328.783 38.5567 350.781 42.1021 343.907 37.2271C350.781 37.2271 343.907 33.2386 348.375 31.4659C342.188 31.4659 316.065 31.4658 317.096 27.9204C306.097 27.9204 313.316 27.9204 323.627 23.9318C331.154 21.5184 338.906 20.4742 346.657 20.8295H341.157C341.157 20.8295 341.157 20.8295 343.22 20.8295C345.282 20.8295 343.219 20.8295 345.282 20.8295C347.344 20.8295 349.063 20.8295 348.719 23.0454H361.093C363.704 23.7027 366.388 23.7027 368.999 23.0454C366.937 23.0454 365.562 23.0454 364.874 23.0454H353.187C351.125 23.0454 347.688 23.0454 346.313 23.0454H359.031C359.031 20.3863 364.187 23.0454 365.905 19.0568C359.031 21.7158 359.718 19.0568 353.187 15.0681C348.375 15.0681 349.75 15.0681 353.187 15.0681H339.439C339.439 15.0681 339.439 12.4091 339.439 11.9659H332.22C332.22 15.5113 332.22 15.5114 332.22 15.5114V11.9659H329.814C329.814 14.625 318.471 16.3977 319.846 11.9659C321.221 7.53408 323.627 11.9659 323.627 11.9659H319.159C319.159 11.9659 319.159 11.9659 317.44 11.9659C307.627 13.5839 297.693 13.5839 287.88 11.9659C287.88 11.9659 287.88 11.9659 286.161 11.9659H287.88H285.474C285.474 11.9659 287.536 11.9659 287.88 11.9659C288.223 11.9659 284.786 11.9659 282.38 11.9659C282.38 11.9659 282.38 11.9659 278.943 11.9659C278.943 11.9659 278.943 11.9659 273.1 11.9659C275.162 11.9659 275.506 11.9659 276.537 11.9659C277.568 11.9659 268.975 11.9659 266.913 11.9659H282.38C282.38 14.625 285.817 11.9659 267.944 11.9659H263.819H268.287H266.225H257.288H260.038C264.163 11.9659 260.038 11.9659 262.444 11.9659H257.632H269.662C269.662 11.9659 267.256 11.9659 266.225 11.9659C268.271 12.4485 270.367 12.4485 272.412 11.9659C272.412 11.9659 267.6 11.9659 268.631 11.9659C268.631 11.9659 271.381 11.966 272.068 9.30691C269.662 9.30691 272.756 6.64783 272.068 9.30691C272.068 9.30691 278.599 9.3069 279.974 12.4092C289.255 12.4092 325.002 4.8751 316.409 12.4092C316.409 12.4092 322.252 12.4092 318.471 12.4092C312.972 12.4092 314.69 12.4092 318.471 12.4092C323.971 12.4092 322.252 12.4092 315.034 12.4092C317.44 12.4092 317.44 12.4092 315.034 12.4092C312.628 12.4092 315.034 12.4092 312.972 12.4092C310.909 12.4092 306.785 12.4092 305.066 12.4092H303.004C289.942 15.0682 290.973 12.4091 292.004 15.0681C290.286 15.0681 293.036 17.7272 292.004 15.0681C289.598 15.0681 289.942 15.0681 287.88 15.0681C285.817 15.0681 292.692 15.0681 287.88 15.0681C283.068 15.0681 291.317 15.0681 257.288 15.0681C232.557 16.7309 207.775 16.7309 183.044 15.0681C150.97 19.4925 140.907 20.8257 108.679 19.0568C100.774 19.0568 103.523 19.0568 102.492 19.0568H94.2427C100.43 19.0568 91.269 19.0568 115.33 19.0568C115.33 19.0568 115.33 19.0568 117.736 19.0568C118.058 18.8597 118.41 18.7575 118.767 18.7575C119.124 18.7575 119.476 18.8597 119.798 19.0568C128.735 19.0568 146.265 19.0569 152.108 16.3978C152.108 16.3978 152.108 16.3978 155.889 16.3978H168.607C177.2 16.3978 189.918 16.3978 208.823 16.3978C227.728 16.3978 235.634 16.3978 234.946 16.3978C234.259 16.3978 241.133 16.3978 241.133 16.3978C241.133 16.3978 271.725 16.3978 275.506 16.3978C279.287 16.3978 282.036 16.3978 279.287 16.3978C279.287 16.3978 275.849 16.3978 276.193 16.3978C267.256 16.3978 272.068 11.5227 265.538 14.1818C267.256 14.1818 270.35 14.1818 267.6 14.1818H262.444H257.976C257.976 14.1818 254.882 14.1818 253.507 14.1818H256.601C256.601 14.1818 253.164 14.1818 250.757 14.1818C248.351 14.1818 254.538 14.1818 257.288 14.1818C261.757 14.1818 262.444 14.1818 260.726 14.1818C259.007 14.1818 266.225 14.1818 263.132 14.1818C260.726 14.1818 267.6 14.1818 263.132 14.1818C265.538 14.1818 266.225 14.1818 266.225 14.1818C266.225 14.1818 262.788 14.1818 259.694 14.1818L212.604 21.2726C212.604 21.2726 212.604 21.2726 210.885 21.2726H232.884C232.884 21.2726 244.914 21.2726 245.602 21.2726C246.289 21.2726 242.508 21.2727 251.789 23.9318C249.039 17.7272 237.008 23.9318 235.29 20.8295C235.29 20.8295 229.79 24.8181 231.165 20.8295C231.165 20.8295 231.165 20.8296 231.165 18.6137H233.571C233.571 18.6137 231.165 18.6137 230.821 18.6137C233.791 18.1892 236.788 18.1892 239.758 18.6137C243.539 18.6137 242.852 18.6137 242.508 18.6137C242.164 18.6137 242.508 18.6137 244.914 18.6137C247.32 18.6137 244.914 18.6137 249.383 18.6137H252.82C252.82 18.6137 252.82 18.6137 250.414 18.6137C245.945 18.6137 248.008 18.6137 250.414 18.6137C247.664 18.6137 248.351 18.6137 247.32 18.6137C255.226 18.6137 247.32 18.6137 253.851 18.6137C249.726 18.6137 250.07 21.2727 248.351 5.76139C248.351 5.76139 245.945 5.76139 242.852 5.76139C239.758 5.76139 235.29 5.76136 245.258 7.97726H238.383C238.383 7.97726 233.915 7.97726 224.291 7.97726C224.291 10.6363 224.291 11.0795 226.353 7.97726C228.415 4.875 226.353 7.97726 230.478 7.97726C234.602 7.97726 226.697 7.97726 224.291 7.97726C221.885 7.97726 224.291 13.2955 228.415 12.4092C238.383 8.86372 238.04 12.409 245.258 10.1931C241.874 11.2999 238.33 11.2999 234.946 10.1931C234.946 10.1931 241.821 10.1932 234.946 12.8523C234.946 15.5113 234.946 12.8523 234.946 15.5114V12.8523H229.79C230.69 13.1732 231.64 13.1732 232.54 12.8523C227.728 12.8523 228.415 12.8523 223.603 12.8523C223.603 22.159 227.728 21.7159 220.853 21.7159C220.853 17.7273 220.853 18.1704 220.853 18.1704C220.853 18.1704 220.853 18.1704 217.072 18.1704C213.291 18.1704 217.072 13.7386 215.01 13.7386C212.948 13.7386 215.01 13.7387 215.01 7.53415C201.261 7.53415 211.229 7.53415 211.229 7.53415H206.073C206.073 7.53415 206.073 7.53415 199.542 7.53415C193.012 7.53415 197.824 7.53415 194.387 7.53415C194.387 7.53415 194.387 7.53415 190.949 7.53415C190.949 7.53415 190.949 7.53414 190.949 14.625H194.387C204.698 11.0796 204.011 14.6251 211.229 12.4092C208.56 13.5812 205.79 14.3254 202.98 14.625C194.73 14.625 197.136 14.625 190.606 14.625V19.0568C185.106 19.0568 186.137 19.0568 185.106 11.5228C184.075 3.98871 185.106 3.9887 177.544 3.54552C177.544 3.54552 177.544 3.54552 175.138 3.54552C172.732 3.54552 175.138 7.09088 175.138 7.09088V3.98863H178.231C178.231 3.98863 182.013 3.98863 180.981 3.98863H173.076H169.295C169.295 3.98863 169.295 3.98871 169.295 7.53415C169.164 10.3384 169.164 13.1502 169.295 15.9545C174.794 15.9545 174.45 15.9545 179.95 15.9545C191.637 15.9545 189.231 12.4091 189.918 15.9545C187.261 17.1803 184.485 17.9259 181.669 18.1704C173.419 18.1704 175.825 18.1704 169.638 18.1704V20.3864C169.638 27.9205 169.638 23.0455 169.638 25.7045C169.638 28.3636 169.638 25.7045 167.576 20.8295C167.576 20.8295 158.295 20.8295 161.389 20.8295C164.482 20.8295 161.389 20.8295 161.389 23.9318C161.389 27.034 161.389 23.9318 161.389 20.8295C153.139 20.8295 156.92 20.8295 161.389 20.8295H157.264C154.514 20.8295 157.264 20.8295 155.202 20.8295C153.14 20.8295 150.39 20.8295 150.734 20.8295H153.14H143.859C143.859 20.8295 141.109 20.8295 141.109 23.0454C141.109 19.9431 141.109 23.0455 143.172 20.3864H137.328H140.422C140.422 20.3864 140.422 20.3864 138.359 20.3864H143.859V17.284H135.266H137.672C135.266 17.284 137.672 17.2842 137.672 20.3864C137.672 23.4887 134.578 20.3863 133.891 17.284C133.891 17.284 133.891 17.2841 133.891 14.625C123.923 14.625 133.891 14.6251 133.891 12.4092C133.891 12.4092 133.891 9.97731 130.454 8.64777C132.172 8.64777 134.235 6.64777 132.86 6.64777C131.485 6.64777 125.985 12.1932 119.455 8.64777C112.924 5.10233 133.771 8.64777 130.334 8.64777C126.897 8.64777 112.236 8.64777 109.83 8.64777C107.424 8.64777 129.646 2.65914 130.334 13.7386C133.084 13.7386 122.204 13.7386 123.923 13.7386C125.642 13.7386 128.391 10.1932 128.735 13.7386C129.079 17.2841 133.547 13.7386 125.985 13.7386H120.486C120.486 13.7386 120.486 13.7386 118.08 13.7386C115.674 13.7386 118.08 13.7386 116.017 13.7386H118.08C115.677 13.5183 113.264 13.5183 110.861 13.7386C102.612 13.7386 125.865 13.7386 126.553 13.7386C127.24 13.7386 128.959 13.7386 128.615 13.7386C128.271 13.7386 126.553 15.7386 125.522 4.65914C122.431 4.90868 119.332 4.90868 116.241 4.65914C113.148 4.65914 113.835 4.65914 113.491 4.65914C96.6488 4.65914 99.3986 2.65916 100.086 10.6364C105.586 10.6364 105.242 12.6364 110.398 12.6364C122.084 12.6364 120.022 9.09096 120.71 12.6364C118.041 13.8085 115.27 12.5527 112.46 12.8523C104.211 12.8523 106.617 12.8523 100.43 12.8523C100.43 16.3977 100.43 15.5113 103.179 15.9545C105.929 16.3977 105.929 15.9545 108.335 15.9545C110.741 15.9545 101.805 15.9545 104.554 15.9545C99.7423 15.9545 100.773 15.9545 100.773 15.9545H97.3362C95.2739 4.87501 97.3362 3.99998 94.2427 3.11362C89.4305 3.11362 91.1492 2.22726 94.2427 3.11362C99.7423 3.11362 90.8054 3.11362 91.1492 3.11362C91.4929 3.11362 99.0548 3.11362 91.1492 3.11362C83.2435 3.11362 87.7119 3.11368 87.3682 5.77276H81.1811C86.6807 5.77276 85.9933 7.98866 85.3059 5.77276C78.7751 5.77276 80.4937 8.43192 78.775 9.31828C77.0564 10.2046 76.369 5.31828 73.6192 5.31828C70.8694 5.31828 73.6192 11.5228 77.7439 10.6364C87.7119 7.09096 87.3682 10.6364 94.2427 8.42053C89.7306 10.4972 84.9169 11.254 80.15 10.6364C77.8615 10.8523 75.5639 10.8523 73.2754 10.6364V15.0681C69.4945 15.0681 69.8382 15.0682 67.7759 2.65914L60.2139 5.65914C65.7135 5.65914 60.2139 2.5568 60.2139 2.11362C55.7454 2.11362 56.433 2.11362 56.433 2.11362C56.433 2.11362 54.3706 4.32951 56.433 5.21587C58.4953 6.10223 46.4649 2.21587 43.3714 2.21587C40.2779 2.21587 43.3714 5.76146 47.1524 5.31828C57.1204 1.77284 56.7766 8.31815 63.9949 6.10225C61.2155 7.31057 58.3277 5.05539 55.4017 5.31828C47.4961 5.31828 49.5585 5.31828 43.3714 5.31828C45.7775 31.0227 47.8398 11.5228 49.9021 10.6364C51.9645 9.75004 51.9645 10.6364 51.9645 4.87501C51.9645 -0.886333 51.9645 4.87496 51.9645 10.1931C51.9645 15.5113 51.9646 10.1931 50.2459 10.1931C48.5273 10.1931 50.2459 10.1932 50.2459 12.8523C50.2459 15.5113 45.7775 18.6137 50.2459 19.5C54.7144 20.3864 55.4017 19.4999 56.0892 22.159C56.7766 24.8181 59.5265 22.159 59.1827 22.159H56.0892C59.1827 25.2613 37.8718 16.8408 44.0589 18.1704C41.2379 7.74726 49.6166 18.0475 49.2467 7.01825C37.9038 3.47281 37.9037 7.01825 42.7159 7.01825C45.122 7.01825 47.528 7.01825 42.7159 7.01825C40.3098 7.01825 40.6535 7.01826 39.6224 14.9955C39.6224 14.9955 39.6224 14.9956 39.6224 8.3479C41.341 8.3479 39.6224 8.34784 39.6224 5.68876H36.8726C39.9662 5.68876 39.6224 5.68868 39.2787 2.14324H34.8102C34.8102 2.14324 48.5593 -0.959021 25.186 2.14324C18.3115 38.9272 19.6863 9.98867 29.3106 11.7614ZM48.871 59.3861C49.5585 58.943 52.3083 59.3861 48.871 59.3861V59.3861ZM85.3059 57.6134C85.3059 57.6134 89.4305 57.6134 89.7742 57.6134C90.118 57.6134 91.493 58.4998 85.3059 58.0567V57.6134ZM307.128 69.1362C301.972 70.4657 304.722 71.7952 307.128 69.5793V69.1362ZM341.501 42.1022C341.501 42.1022 348.032 42.1022 347.001 42.1022C345.074 42.6285 343.083 42.6285 341.157 42.1022C341.157 42.1022 343.563 42.5454 341.845 42.5454L341.501 42.1022ZM333.252 42.1022C330.695 42.1456 328.186 41.221 326.033 39.443L333.252 42.1022ZM353.875 24.3749C353.875 24.3749 351.813 21.2727 354.219 22.6023L353.875 24.3749ZM345.626 27.034C345.626 27.034 343.563 27.034 342.532 27.034H345.626ZM336.689 22.6023C336.689 22.6023 336.689 22.6023 333.252 22.6023H336.689ZM332.564 22.6023C326.721 20.8296 331.533 21.2728 332.908 19.5L332.564 22.6023ZM338.407 26.1476C338.407 26.1476 331.533 26.1477 341.845 29.6932C341.845 29.6932 334.97 29.6932 335.658 29.6932C336.345 29.6932 329.471 29.6932 330.845 26.5909H328.096C330.845 20.3864 337.72 23.0454 338.751 23.0454L338.407 26.1476ZM261.757 22.159H264.506C264.506 22.159 263.819 18.6136 262.1 19.0568L261.757 22.159ZM290.286 22.6023C288.223 22.6023 288.567 22.6023 290.286 22.6023C292.004 22.6023 291.661 17.7273 290.63 19.5L290.286 22.6023ZM303.691 22.6023C297.16 22.6023 305.754 22.6023 303.691 22.6023C301.629 22.6023 303.004 19.9431 304.035 19.0568L303.691 22.6023ZM312.972 26.5909C312.972 26.5909 315.721 26.5909 316.753 26.5909C317.784 26.5909 315.721 23.9317 313.315 23.0454L312.972 26.5909ZM324.315 29.6932C326.033 26.5909 321.909 26.1476 324.658 26.1476L324.315 29.6932ZM324.315 29.6932C324.315 29.6932 323.283 27.9205 324.315 27.4773V29.6932ZM178.231 45.6477C173.763 45.6477 174.794 45.6477 174.107 45.6477C173.419 45.6477 176.857 45.6477 177.888 45.6477C178.919 45.6477 180.294 45.6477 178.231 45.6477ZM222.572 64.2612C212.623 65.3814 202.617 65.3814 192.668 64.2612C202.947 62.9389 213.274 62.3471 223.603 62.4884L222.572 64.2612ZM209.51 60.7158C209.51 60.7158 212.604 58.943 210.542 58.943L209.51 60.7158ZM209.51 60.7158C209.51 60.7158 212.604 59.8293 212.604 57.6134L209.51 60.7158ZM253.851 60.7158C253.851 60.7158 253.851 60.7158 255.913 60.7158H253.851ZM263.475 60.7158C266.913 60.7158 267.256 61.6021 264.85 61.1589L263.475 60.7158ZM309.878 38.5568C309.878 38.5568 309.191 38.9999 311.253 38.9999L309.878 38.5568ZM284.443 33.6818H282.036C282.036 33.6818 284.443 33.2385 285.817 34.1249L284.443 33.6818ZM282.036 33.6818C282.036 33.6818 299.91 33.6818 290.973 33.6818C290.973 33.6818 288.223 33.6818 286.161 33.6818C284.099 33.6818 286.161 33.6818 280.661 33.6818C280.661 33.6818 280.662 33.6818 283.068 33.6818H280.318H282.036ZM281.349 38.9999C277.568 38.9999 295.785 38.9999 295.442 38.9999C295.098 38.9999 298.192 38.9999 300.941 38.9999C300.941 38.9999 306.441 38.9999 308.159 38.9999C311.253 38.9999 322.94 41.659 316.753 38.9999C310.566 36.3408 318.815 38.9999 319.502 38.9999C316.753 38.9999 316.065 36.784 314.003 38.9999C311.941 41.2158 305.066 38.9999 308.847 38.9999C308.847 38.9999 306.785 38.9999 306.097 38.9999C305.41 38.9999 300.598 38.9999 298.879 38.9999C297.16 38.9999 296.473 38.9999 292.692 38.9999C288.911 38.9999 286.161 38.9999 284.786 38.9999C283.411 38.9999 286.849 38.9999 286.849 38.9999C294.754 38.9999 268.287 38.9999 273.787 38.9999C278.599 38.9999 273.787 38.9999 281.349 38.9999ZM256.257 38.9999C279.287 36.3408 243.539 38.9999 271.037 38.9999C279.287 38.9999 283.068 38.9999 271.037 38.9999H260.382H254.538C254.538 38.9999 242.852 41.659 256.945 38.9999H256.257ZM248.695 38.9999C248.695 38.9999 248.695 38.9999 246.633 38.9999H248.695ZM244.227 38.9999C239.579 40.2549 234.781 40.2549 230.134 38.9999H244.227ZM254.195 38.9999C258.663 38.9999 245.258 44.7613 232.884 41.659H198.511C198.511 41.659 198.511 41.659 201.948 41.659H195.418H189.231C183.387 41.659 185.106 41.659 185.106 41.659C187.738 41.9005 190.38 41.9005 193.012 41.659C191.31 42.1007 189.557 42.1007 187.856 41.659C187.856 41.659 187.856 41.659 185.106 41.659C182.356 41.659 185.106 41.659 183.044 41.659C180.981 41.659 180.638 41.659 174.794 41.659C173.419 39 238.383 45.2045 254.882 41.659L254.195 38.9999ZM169.638 38.9999C172.388 38.9999 169.638 41.659 172.732 38.9999C172.732 38.9999 171.013 36.3408 170.326 36.3408L169.638 38.9999ZM169.638 38.9999C169.638 38.9999 169.638 38.9999 167.92 38.9999H169.638ZM128.959 51.8522C129.646 57.1703 128.959 55.3975 129.646 54.5111L128.959 51.8522ZM94.5864 56.7272C92.1803 52.7386 92.5241 54.5113 91.1492 53.6249C89.7743 52.7386 91.1492 53.6249 93.899 53.6249C96.6488 53.6249 97.3362 59.3861 97.3362 59.3861L94.5864 56.7272ZM105.242 52.2953C105.242 52.2953 106.617 54.5112 106.617 54.9544L105.242 52.2953ZM113.835 58.943C113.835 58.943 113.835 58.943 107.992 58.943C107.028 58.7135 106.12 58.192 105.343 57.4215C104.566 56.651 103.943 55.6534 103.523 54.5111C105.242 54.5111 106.96 54.5111 109.367 54.5111C113.227 53.5645 117.192 53.5645 121.053 54.5111C121.053 54.5111 123.803 54.5111 117.96 54.5111C120.366 54.5111 120.709 54.5111 117.96 54.5111C115.554 54.5111 123.459 62.4884 115.21 61.602L113.835 58.943ZM120.71 58.943C123.116 58.943 120.71 58.943 122.772 58.943C124.834 58.943 122.084 61.602 122.084 61.602L120.71 58.943ZM124.834 58.943C124.834 58.943 122.772 55.8408 124.834 55.8408C126.897 55.8408 124.834 58.9429 126.897 58.4998C126.897 58.4998 128.271 64.2612 126.209 60.7158L124.834 58.943ZM149.702 46.0908C149.702 46.0908 149.702 46.0907 149.702 43.4316C150.434 43.9762 151.264 44.2629 152.108 44.2629C152.953 44.2629 153.783 43.9762 154.515 43.4316C151.765 43.4316 154.514 40.7726 158.295 40.3294C156.941 39.8976 155.525 39.8976 154.171 40.3294C154.171 40.3294 156.233 40.3294 151.765 40.3294C143.859 50.0794 149.359 46.534 151.077 47.8635L149.702 46.0908ZM143.859 55.8408C143.859 55.8408 143.859 57.1702 143.859 57.6134V55.8408ZM133.891 56.2839C133.891 56.2839 132.86 59.3861 134.235 59.3861L133.891 56.2839ZM126.329 56.2839C130.797 58.943 128.735 58.4999 123.923 58.943C119.111 59.3862 124.267 61.1588 126.673 58.4998L126.329 56.2839ZM113.611 58.943C118.767 58.943 116.017 58.943 113.611 56.2839C111.205 53.6248 113.611 58.4998 117.392 59.3861H113.267C119.111 56.7271 129.303 59.3861 127.928 59.3861H113.267C118.08 60.7157 109.487 60.2726 113.955 61.1589L113.611 58.943ZM238.727 23.9318C238.727 23.9318 242.852 23.9318 243.539 23.9318C244.227 23.9318 234.602 27.9204 239.071 26.1476L238.727 23.9318ZM236.321 25.7045C236.321 25.7045 233.571 25.7045 233.227 25.7045C232.884 25.7045 235.977 25.7045 233.227 25.7045H235.633C235.633 25.7045 237.008 28.3636 236.665 27.9204L236.321 25.7045ZM234.259 21.7159C234.259 21.7159 233.915 24.8181 234.602 23.9318L234.259 21.7159ZM223.259 21.7159H229.79H235.977C233.571 21.7159 233.915 21.7159 232.884 21.7159C231.853 21.7159 229.103 21.7159 224.634 21.7159C229.446 21.7159 221.884 21.7158 221.541 19.0568C221.197 16.3977 221.885 23.4885 223.603 22.159L223.259 21.7159ZM217.76 21.7159C217.76 21.7159 217.416 23.9318 218.104 23.9318L217.76 21.7159ZM211.573 21.7159C211.573 24.375 211.573 21.7159 215.01 21.7159H212.604C212.604 21.7159 210.542 22.159 212.604 23.0454L211.573 21.7159ZM230.478 0C230.478 0 228.072 0 233.571 0H230.478ZM243.883 11.0795C242.067 11.5339 240.2 11.5339 238.383 11.0795C240.243 10.1229 242.293 9.96754 244.227 10.6364L243.883 11.0795ZM240.789 11.0795C238.04 11.5227 237.696 11.5228 241.133 12.4092L240.789 11.0795ZM231.853 11.0795C231.853 11.0795 231.165 13.2954 232.196 13.2954L231.853 11.0795ZM231.853 11.0795C231.853 11.0795 231.853 11.0795 229.79 11.0795C227.728 11.0795 229.79 11.5227 231.165 11.9659L231.853 11.0795ZM202.292 21.2726C202.292 21.2726 204.355 25.2613 202.98 25.2613L202.292 21.2726ZM216.385 8.86364H214.666C214.666 8.86364 217.072 11.0795 217.072 12.8523L216.385 8.86364ZM214.666 8.86364C214.779 9.89261 214.779 10.9369 214.666 11.9659C214.666 11.9659 214.666 11.966 214.666 9.30691V8.86364ZM204.011 8.86364C209.51 8.86364 212.604 8.86364 204.011 8.86364V8.86364ZM204.011 1.77276C204.011 4.43184 204.011 5.76141 204.011 6.64777C204.011 6.64777 202.98 7.97737 204.698 9.30691L204.011 1.77276ZM201.261 7.09088C195.418 7.09088 201.261 9.75002 198.855 9.75002C199.53 11.7021 200.598 13.3854 201.948 14.625L201.261 7.09088ZM198.855 11.9659C198.855 15.0681 201.605 9.74998 198.855 11.9659C198.855 8.86362 199.886 19.9432 199.542 19.5L198.855 11.9659ZM195.418 7.09088C195.418 10.6363 195.418 7.09094 198.168 9.75002C200.23 9.75002 198.168 9.75002 196.105 9.75002C190.949 12.8523 191.637 14.625 196.105 14.625L195.418 7.09088ZM195.418 12.8523C197.48 12.8523 197.48 19.9432 197.824 20.3864L195.418 12.8523ZM191.637 15.9545C189.574 15.9545 182.7 15.9545 196.449 15.9545C196.449 15.9545 199.199 15.9545 191.981 15.9545C184.762 15.9545 181.669 15.9545 185.106 15.9545H191.637ZM182.7 5.31828C182.7 5.31828 182.7 13.7386 185.106 12.8523L182.7 5.31828ZM182.7 5.31828C182.895 6.4867 182.895 7.69522 182.7 8.86364C182.7 8.86364 182.7 8.86372 182.7 5.31828ZM182.7 10.1931C187.856 19.4999 178.231 23.0455 183.731 19.5L182.7 10.1931ZM182.7 15.9545C182.7 15.9545 182.012 22.6022 182.012 25.2613L182.7 15.9545ZM172.044 7.09088C172.044 7.09088 172.044 1.77271 172.044 3.10225C172.044 4.43179 172.044 6.64779 172.044 7.53415C172.044 7.53415 172.044 7.53418 169.638 12.4092C168.951 18.6137 170.67 19.5 171.357 16.3978L172.044 7.09088ZM172.044 11.9659C172.044 11.9659 175.825 11.9659 174.794 14.625C173.763 17.2841 174.794 14.625 171.357 14.625C167.92 14.625 166.889 21.2726 171.013 21.2726L172.044 11.9659ZM162.076 15.0681H165.514C165.514 15.0681 165.514 12.4091 167.576 15.0681C169.638 17.7272 171.701 15.0681 169.295 15.0681C171.105 15.6 172.984 15.6 174.794 15.0681C176.513 15.0681 174.794 15.0681 177.2 15.0681C174.107 15.0681 170.67 15.0681 167.92 15.0681C165.17 15.0681 164.826 15.0681 164.139 15.0681C163.451 15.0681 165.857 15.0681 164.139 15.0681C164.139 15.0681 158.639 25.7044 161.045 24.3749L162.076 15.0681ZM160.014 15.0681C160.014 15.0681 157.952 23.4886 158.983 23.0454L160.014 15.0681ZM149.359 22.6023C140.422 22.6023 151.421 20.3864 151.765 22.6023H149.359ZM152.452 26.1476C152.452 26.1476 152.452 33.6817 151.421 34.1249L152.452 26.1476ZM152.452 13.7386C152.452 13.7386 151.077 21.7159 152.796 21.7159L152.452 13.7386ZM143.859 25.7045C141.109 25.7045 143.859 25.7045 141.797 25.7045C139.734 25.7045 143.859 24.375 143.859 25.7045ZM141.797 18.1704C141.797 18.1704 140.422 18.6136 140.765 18.1704H141.797ZM138.703 31.909C138.703 31.909 138.703 31.909 140.765 31.909C136.297 33.6817 137.328 31.909 137.672 31.909H138.703ZM134.578 24.8181C134.578 24.8181 131.141 24.8181 133.547 24.8181H134.578ZM118.423 5.54552C123.235 5.54552 122.548 5.54552 121.861 5.54552C125.985 7.31824 118.423 7.76142 117.392 5.54552H118.423ZM126.673 15.9545C126.673 15.9545 125.985 18.1704 125.642 15.9545H126.673ZM126.673 12.8523C126.673 12.8523 126.673 15.0681 122.892 15.0681C119.111 15.0681 125.985 13.2954 125.642 12.8523H126.673ZM109.367 25.7045C106.273 26.1477 106.617 26.1477 109.023 25.7045H109.367ZM112.46 28.8068C114.179 27.4772 114.179 27.4772 112.116 28.8068H112.46ZM117.736 28.3635C117.736 28.3635 115.674 28.8067 117.392 28.3635H117.736ZM119.455 10.8636C119.455 10.8636 122.892 11.75 119.111 10.8636H119.455ZM113.267 14.625C113.267 14.625 115.33 14.625 115.33 11.5228C115.33 8.42052 115.33 11.5227 115.33 14.1818C115.33 16.8408 115.33 14.1818 112.924 14.1818C110.518 14.1818 112.236 15.0682 112.924 14.625H113.267ZM108.799 19.0568C108.799 19.0568 112.236 19.0568 111.549 19.0568C110.861 19.0568 115.33 19.0568 111.549 19.0568C114.986 19.0568 118.423 19.0568 114.986 19.0568C117.736 19.0568 118.08 19.0568 112.924 19.0568C113.432 19.495 114.031 19.7289 114.642 19.7289C115.254 19.7289 115.852 19.495 116.361 19.0568C114.299 19.0568 116.361 19.0568 111.549 19.0568C109.385 18.6169 129.404 18.6169 127.24 19.0568C127.24 19.0568 111.205 19.9431 109.486 19.0568H108.799ZM108.799 11.0795C108.799 16.8408 131.021 16.3978 127.928 16.3978C127.733 14.4855 127.733 14.5487 127.928 12.6364L108.799 11.0795ZM120.366 12.8523H122.084C122.084 12.8523 120.366 12.8523 122.084 15.5114C123.803 18.1705 117.616 13.2954 118.647 12.8523H120.366ZM118.647 19.5H129.303C129.303 19.5 107.08 19.5 109.143 19.5C107.907 19.9557 128.82 19.9557 127.584 19.5C127.584 19.5 121.397 19.5 125.522 19.5C129.646 19.5 122.084 19.5 122.084 19.5C122.084 19.5 124.834 19.5 127.928 19.5C121.053 19.5 142.708 19.5 122.428 19.5C112.804 19.5 106.273 19.5 109.023 19.5C111.773 19.5 115.21 19.5 117.96 19.5C120.709 19.5 117.96 19.5 121.741 19.5C125.522 19.5 110.742 19.4999 112.804 15.0681C114.866 10.6363 114.179 19.5 116.929 19.5H118.647ZM109.023 11.75C109.023 11.75 106.961 11.75 111.085 11.75C109.023 11.75 115.21 11.75 111.085 11.75C113.148 11.75 113.835 15.9546 107.304 15.5114C104.898 12.8523 108.679 18.3978 107.304 11.3069L109.023 11.75ZM45.09 9.75002C45.09 9.75002 45.0901 9.75002 47.1524 9.75002C49.2148 9.75002 47.1524 11.0796 43.3714 10.6364L45.09 9.75002ZM56.7767 35.0113C53.6831 35.0113 56.7766 35.0113 63.9949 35.0113H56.7767ZM82.2124 38.9999C82.2124 38.9999 68.8071 38.9999 69.1508 38.9999C84.6184 35.0113 83.5872 35.0112 83.2435 36.3408L82.2124 38.9999ZM82.2124 31.909C82.2124 31.909 82.2123 31.909 84.6184 31.909H82.2124ZM90.4617 31.909H88.3994C86.3371 28.3636 92.524 26.5908 92.8678 28.3635L90.4617 31.909ZM93.899 35.0113C93.899 35.0113 97.3363 35.0113 96.9926 35.0113C96.6488 35.0113 96.9925 35.0113 99.3986 35.0113C101.805 35.0113 97.3362 31.0227 97.3362 31.4659L93.899 35.0113ZM82.2124 4.44327C84.1535 4.14986 86.1145 4.14986 88.0556 4.44327H82.2124ZM88.0556 15.9545C88.0556 15.9545 88.3993 12.4092 90.4617 12.4092L88.0556 15.9545ZM82.2124 13.2954C85.3059 13.2954 85.3059 13.2954 82.2124 13.2954V13.2954ZM77.4001 13.2954C80.1499 13.2954 77.4002 13.2954 79.8063 13.2954C82.2124 13.2954 74.9941 15.9545 77.0564 13.2954H77.4001ZM77.4001 16.8409C75.6815 16.8409 77.4001 16.8409 77.4001 11.9659C77.4001 7.0909 78.4313 8.42048 78.775 13.7386L77.4001 16.8409ZM72.9318 13.2954C72.9318 13.2954 69.8383 13.2954 68.1197 13.2954C66.401 13.2954 74.6504 8.4204 74.3067 10.1931L72.9318 13.2954ZM69.1508 22.6023C69.1508 22.6023 69.1508 22.6023 71.2132 22.6023C71.2132 22.6023 85.6495 25.7045 84.2746 22.6023C82.8997 19.5 89.4305 22.6023 87.3682 22.6023H91.493C87.712 22.6023 91.4929 22.6023 94.2427 22.6023C96.305 22.6023 94.2426 22.6023 98.3673 22.6023C102.492 22.6023 98.3673 22.6023 95.2738 22.6023C95.2738 22.6023 95.2738 22.6023 87.3682 22.6023H81.5249C81.5249 22.6023 83.9309 22.6023 84.2746 22.6023C79.1188 22.6023 84.2747 22.6023 82.556 22.6023C84.9621 22.6023 76.369 22.6022 75.3378 19.0568H76.7128C74.3067 19.0568 72.588 19.0568 72.2443 19.0568C71.9006 19.0568 74.9942 19.0568 59.5265 16.8409C59.5265 16.8409 55.7455 16.8409 63.6512 16.8409C63.6512 16.8409 61.5889 14.625 61.9326 16.8409C62.2763 19.0568 63.6512 16.8409 67.4322 16.8409C71.2132 16.8409 66.7447 19.0569 70.5257 19.5L69.1508 22.6023ZM51.2771 16.8409C47.8398 16.8409 54.3706 16.8409 51.2771 16.8409C54.7143 16.8409 56.0893 16.8409 56.433 16.8409C56.433 13.7386 60.2139 16.8408 54.3706 14.1818C54.3706 14.1818 61.9326 14.1818 58.8391 14.1818C55.7455 14.1818 66.0572 14.1819 67.7759 18.6137H65.3698C65.3698 18.6137 62.62 18.6137 60.9013 18.6137C59.1827 18.6137 58.839 18.6137 57.4641 18.6137C55.4018 18.6137 56.0892 18.6137 57.4641 18.6137C59.5265 18.6137 53.6832 18.6137 53.3395 18.6137C52.9957 18.6137 47.8399 15.9545 52.652 13.7386L51.2771 16.8409ZM46.8086 27.4773C46.8086 25.2614 46.8086 25.2614 46.8086 27.4773C46.8086 29.6932 48.871 24.3749 48.1835 24.3749L46.8086 27.4773ZM50.2459 23.9318C52.153 24.6582 54.1822 24.6582 56.0892 23.9318C54.0268 23.9318 54.0268 23.9318 56.0892 23.9318C58.1516 23.9318 60.2139 23.9318 56.0892 23.9318C51.9645 23.9318 50.5896 27.034 53.6831 26.1476C56.7767 25.2613 53.6831 26.1476 55.4017 26.1476C57.1204 26.1476 51.9645 26.1476 52.3082 26.1476C52.055 25.2841 51.9545 24.3585 52.014 23.4385C52.0734 22.5184 52.2914 21.6272 52.652 20.8295L50.2459 23.9318ZM50.2459 40.3294C50.2459 40.3294 50.2459 40.3294 46.4649 40.3294H50.2459ZM47.4961 40.3294C47.4961 40.3294 44.4025 40.3294 43.0276 40.3294H47.4961ZM36.8726 40.1249V37.4659C36.8726 37.4659 40.9973 32.5909 40.9973 33.4773L36.8726 40.1249ZM34.8102 26.8295C34.8102 26.8295 34.8102 30.375 34.8102 31.7045C34.8102 33.0341 31.373 31.7045 31.0292 34.8068C31.0292 34.8068 34.1228 31.7044 34.8102 30.3749C35.4977 29.0453 32.0605 24.1704 36.8726 24.1704C41.6848 24.1704 38.5912 18.8522 38.5912 20.1818L34.8102 26.8295Z" fill="white"/>
<path fill-rule="evenodd" clip-rule="evenodd" d="M332.61 50.8259L334.673 50.8259L338.798 50.8259C340.517 50.8259 334.329 50.8259 335.36 48.6374L332.954 48.6374C327.82 47.9013 322.617 47.9013 317.483 48.6374L320.921 48.6374C308.862 49.3219 296.787 49.4174 286.247 48.9256C275.772 51.1757 276.613 51.0631 276.916 50.0964L277.73 48.3694C270.245 47.7246 263.971 46.7194 259.655 45.3546L257.936 45.3546L244.872 45.3546L241.091 45.3546C241.091 45.3546 236.278 42.0719 248.654 43.5309L266.531 43.5309L303.732 43.5309L342.236 43.5309C343.955 43.5309 342.236 41.3424 342.236 40.2481C342.236 39.1539 342.236 40.2481 338.798 35.5063C335.36 30.7646 331.579 35.5063 336.048 39.8833L330.891 39.8833C327.453 35.1415 328.828 35.5063 322.984 35.5063C326.422 40.6128 326.078 39.8833 325.047 39.8833C321.265 34.0473 325.047 35.5063 312.326 35.5063L277.948 35.5063L275.138 35.5063C271.985 35.7261 268.26 35.4733 269.009 35.871C270.138 36.4696 269.414 36.0858 267.599 35.9288L268.25 36.9653C268.25 36.9653 267.865 36.4554 267.503 35.9208C267.13 35.8909 266.713 35.871 266.259 35.871C265.632 35.871 265.805 35.6249 266.445 35.2449C265.99 35.209 265.548 35.1745 265.12 35.1416L264.124 35.1416C260.263 35.9207 256.297 35.9207 252.436 35.1416L255.53 35.1416C255.946 35.1416 256.054 34.9453 255.99 34.6244C252.419 34.5482 249.212 34.6961 244.231 35.0682C244.274 35.5365 244.36 36.2583 244.529 37.33L243.841 35.1416C243.856 35.1262 243.87 35.1103 243.883 35.0943C242.34 35.2108 240.627 35.3482 238.684 35.5063L196.055 35.5063C192.96 35.5063 189.523 32.9531 190.554 35.5063L173.021 35.5063C183.287 34.0942 193.614 33.242 203.962 32.9531L193.992 32.9531L193.304 32.9531C169.583 32.9531 183.678 34.7768 165.801 32.9531L120.765 32.9531L107.949 32.9531C105.776 33.1442 103.591 33.1442 101.417 32.9531L61.1942 32.9531L58.7877 32.9531C58.7877 32.9531 64.2882 32.953 62.2255 34.7768C152.641 38.0595 120.422 34.7768 125.235 39.5186L121.797 39.5186L119.734 39.5186L116.984 39.5186L113.202 39.5186C113.202 37.3301 113.202 39.5186 110.795 39.5186C110.795 39.5186 101.513 39.5186 107.014 36.9653L49.8492 36.9653C48.6163 36.5697 47.3006 36.5697 46.0676 36.9653L42.2859 36.9653C47.4427 36.9653 50.8805 39.5186 47.0989 40.9776C41.6067 40.5222 36.0892 40.5222 30.597 40.9776C40.5668 40.9776 46.0676 40.9776 41.2546 43.5308C56.3812 43.5308 45.7236 46.084 42.9734 47.1783C42.8691 47.2198 42.7371 47.2555 42.5801 47.2861C42.7124 47.3692 42.8435 47.4549 42.9734 47.5431L42.2833 47.3339C37.6939 47.9482 18.6322 45.5946 25.0966 49.3668C18.2208 49.3668 25.0967 52.6495 20.6274 54.1085C26.8156 54.1085 52.9433 54.1086 51.9119 57.0266C59.5396 57.0266 58.4079 57.0266 53.5589 58.1208L56.0374 58.1208L55.6936 61.0388C53.8918 60.4926 52.2827 59.1285 52.0207 58.4774C50.1192 58.9313 47.8374 59.5271 45.3799 60.3093C42.9837 60.9415 40.5647 61.4596 38.1302 61.8627C41.1628 62.8007 37.3051 62.6757 36.0977 63.9568L36.3427 62.1376C31.7101 62.7957 27.0281 63.0392 22.3462 62.8626L23.7214 62.8626C21.6587 62.8626 19.9398 62.8626 20.2836 61.0388L15.837 61.0388C16.0762 61.5632 16.0223 61.9671 14.7828 61.4035L14.8688 61.0388L9.96985 61.0388C9.96985 63.2273 4.81314 61.0388 3.09421 64.3216C9.96994 62.1331 9.28247 64.3216 15.8144 67.6044L29.5657 67.6044L29.5657 70.1576L36.7852 70.1576L39.1917 70.1576C39.1917 67.9691 50.5367 66.5101 49.1615 70.1576L49.8492 70.1576L51.568 70.1576C51.7905 70.1274 52.013 70.0979 52.2356 70.0691C52.3467 69.9799 52.4679 69.8878 52.5996 69.7928L53.9746 69.7928L54.5648 69.7928C59.6454 69.2448 64.7514 69.0521 69.8499 69.2146C78.8425 68.0356 77.9254 69.5504 77.0084 67.6044L81.1339 67.6044L98.3163 67.6044C97.4945 67.0367 96.0611 66.51 92.8226 66.51L93.5101 66.51L106.751 66.51C108.433 65.5043 110.38 64.9926 112.036 64.7472C111.851 64.7282 111.667 64.7079 111.483 64.6863L112.483 64.6863C115.065 64.3653 116.749 64.6863 115.169 64.6863L112.483 64.6863C112.336 64.7045 112.187 64.7247 112.036 64.7472C114.825 65.0343 117.635 65.014 120.422 64.6863L120.078 64.6863L120.078 63.0976L118.359 62.4979L116.606 62.4979C116.213 62.7072 115.952 62.8626 115.952 62.8626C115.854 62.7173 115.723 62.5968 115.562 62.4979L108.576 62.4979C108.102 62.5438 107.624 62.5858 107.147 62.6186L106.918 64.3216C105.848 64.5487 105.177 63.5035 104.824 62.6821C102.463 62.6198 100.402 62.0753 99.4505 60.3093C102.297 60.9804 103.915 61.4457 104.81 61.7684L107.262 61.7684L107.163 62.4979L108.576 62.4979C111.56 62.209 114.373 61.7668 115.562 62.4979L116.606 62.4979C116.815 62.3865 117.062 62.2598 117.327 62.1331L116.984 62.1331L116.64 60.3093C117.327 59.5798 116.984 62.1331 116.984 62.1331L117.327 62.1331C118.651 61.5013 120.432 60.8696 120.29 62.1331L121.453 62.1331L126.61 62.1331L127.985 62.1331L127.641 61.7684C128.115 61.4667 128.51 61.6918 128.828 62.1303C129.271 62.1303 129.789 62.1331 130.391 62.1331L130.391 65.0511L134.173 65.0511C135.878 65.0511 136.046 65.793 135.904 66.6076C136.484 66.5993 137.059 66.5927 137.632 66.5879L136.236 62.1331C138.438 62.1331 139.229 64.3845 139.514 66.5784C143.452 66.5719 147.37 66.6496 151.809 66.8116C151.655 65.2391 151.566 63.8079 151.706 63.9568L152.024 66.8195C154.672 66.9174 157.508 67.0451 160.645 67.2026L160.645 66.8748L160.645 64.3216C163.953 64.3216 164.898 64.3216 165.351 65.6706C166 65.5261 166.653 65.404 167.309 65.3044C167.399 65.0671 167.502 64.8465 167.613 64.6428L167.52 63.9568C167.979 63.7135 168.332 63.5108 168.598 63.3481C169.705 62.6694 169.287 62.6847 168.598 63.3481C168.286 63.6483 167.919 64.0813 167.613 64.6428L167.694 65.2487C168.321 65.1622 168.951 65.0963 169.583 65.0511L181.616 65.0511L181.616 66.0515L181.617 66.0569C181.623 65.4559 181.66 65.5666 181.873 66.2081C187.515 65.6956 193.161 65.2616 198.811 64.9061C198.84 61.4814 198.996 52.2172 199.836 51.9201L198.896 64.9008C213.643 63.9749 228.416 63.5836 243.19 63.7279C243.785 63.6519 244.386 63.6586 244.98 63.748C248.314 63.7903 251.648 63.8599 254.982 63.9568L255.53 63.9568L256.561 63.9568C256.71 63.9568 256.849 63.9782 256.979 64.0181C259.59 64.1025 262.201 64.2037 264.812 64.3216L257.515 64.3216C257.698 64.4791 257.857 64.6797 257.998 64.9079C259.979 65.4455 261.431 66.2871 260.687 67.6044C259.103 70.4052 259.14 66.7539 257.998 64.9079C257.04 64.6479 255.958 64.4589 254.94 64.3216L246.248 64.3216C244.084 64.6836 241.879 64.6836 239.715 64.3216L238.34 64.3216L236.278 64.3216L235.934 64.3216L234.902 64.3216L233.527 64.3216C233.205 64.4838 232.853 64.5679 232.496 64.5679C232.139 64.5679 231.787 64.4838 231.465 64.3216C227.821 64.3216 222.749 65.5972 217.623 67.2566C215.068 68.084 212.499 69.0067 210.087 69.9144C210.06 69.9564 210.023 69.9638 209.969 69.9585C209.462 70.1497 208.962 70.3401 208.471 70.5287C208.351 70.6349 208.224 70.7591 208.087 70.9041L210.837 70.9041L212.9 70.9041L213.588 70.9041C213.588 68.3508 216.682 70.9042 217.369 73.4575L217.369 75.6459C227.339 75.6459 217.369 75.6459 217.369 77.4696C217.369 77.4696 217.369 80.0133 219.371 81.4895C221.572 79.1529 226.327 72.0859 231.808 74.5346C237.641 77.1403 239.362 75.0923 242.112 74.6241C241.911 74.5704 241.686 74.5346 241.435 74.5346L243.153 74.5346C242.785 74.5346 242.441 74.568 242.112 74.6241C243.65 75.0357 243.763 76.4998 243.33 70.989L242.466 70.8871C242.466 69.9855 242.466 69.2686 242.487 68.6986L240.403 68.6986C239.066 68.7994 237.727 68.8442 236.388 68.8329C236.124 69.2088 235.934 69.7482 235.934 70.5223L235.934 68.8269C235.017 68.8105 234.099 68.7677 233.184 68.6986L230.777 68.6986L227.339 68.6986C227.329 68.6986 227.319 68.6989 227.309 68.6997C227.229 68.7256 227.149 68.7514 227.071 68.7769C225.348 69.7366 222.853 79.1457 222.526 76.3754C222.188 73.5082 217.867 68.8637 224.892 68.7029C225.293 68.1941 226.22 67.6044 228.371 67.6044C230.746 67.6044 228.913 68.1811 227.309 68.6997L227.339 68.6986L230.777 68.6986L233.184 68.6986L235.246 68.6986L235.934 68.6986L235.934 68.3339C235.934 66.5525 235.934 67.6711 237.232 68.1489C237.645 67.9691 237.997 67.9691 237.997 67.9691L238.34 67.9691C239.028 67.6043 240.747 68.3339 238.34 68.3339C237.893 68.3339 237.528 68.2581 237.232 68.1489C236.986 68.2559 236.719 68.4265 236.491 68.6986L240.403 68.6986L242.487 68.6986C242.578 66.2709 243.054 66.51 245.56 66.51C245.65 67.2366 245.698 67.9674 245.705 68.6986C245.706 68.8486 245.706 68.9986 245.704 69.1486C246.385 69.9255 247.313 72.0435 247.966 77.8173C251.057 77.612 254.158 77.612 257.249 77.8173L259.999 77.8173C261.498 77.8173 262.841 77.8173 264.045 77.8127C263.912 76.4174 263.926 74.5014 263.663 71.9813L262.405 71.9813C261.923 71.9813 261.515 71.7016 261.258 71.2777C251.626 71.56 253.429 74.0066 252.779 71.2518C255.449 70.2872 258.22 69.6747 261.03 69.4281L261.088 69.4281C261.324 68.7273 261.911 68.0467 262.985 67.6308C262.934 67.3828 262.879 67.1309 262.821 66.8749L265.156 66.8749C267.562 66.8749 267.562 66.5101 270.313 66.8749L272.103 66.8749C272.103 66.8749 272.097 66.9326 272.079 67.0318C273.063 67.1234 273.063 67.3568 273.063 69.4281L270.828 69.4281C270.525 69.6502 270.153 69.7928 269.697 69.7928L269.998 69.4281L265.938 69.4281C265.856 69.8457 265.846 70.4285 265.971 71.2518L273.407 71.2518L273.408 71.2671C275.596 71.0236 277.808 71.017 280.011 71.2518C280.575 71.208 281.141 71.1749 281.706 71.1527C281.594 70.5977 281.492 69.8965 281.417 69.0634L280.354 69.0634C279.14 69.0634 280.377 68.5061 281.635 68.2352L282.761 66.1453C284.113 66.1453 283.338 66.1454 282.946 68.0967C283.502 68.138 283.731 68.399 283.105 69.0634L282.808 69.0634C282.778 69.3902 282.761 69.7536 282.761 70.1576C282.761 70.5213 282.752 70.8431 282.737 71.1242C283.852 71.1063 284.967 71.1305 286.081 71.1966L286.886 69.7016L286.886 67.6044C288.863 67.6044 289.713 67.6044 290.368 69.0634L292.043 69.0634C292.682 69.0634 291.942 69.6185 290.778 70.2407C291.206 71.7448 291.638 74.1072 292.387 77.8173L299.95 77.8173C294.45 77.8173 299.95 80.3707 299.95 80.7354L303.732 80.7354C303.732 80.7354 305.795 78.9117 303.732 78.1822C301.669 77.4527 313.702 78.1822 316.796 78.1822C319.518 78.1822 317.45 75.9234 314.338 75.6288L313.014 75.6288C303.044 78.5468 303.388 75.6289 296.169 77.4526C298.948 76.4582 301.837 75.8452 304.763 75.6288L308.201 75.6288L308.201 71.6167C308.201 67.6639 308.201 70.8504 309.467 71.5053C309.691 71.438 309.954 71.3614 310.264 71.2518C310.319 71.2325 310.373 71.2023 310.428 71.1624C310.206 70.8494 309.92 70.3208 309.92 69.4281C309.92 67.2396 314.389 64.6863 309.92 63.9568C305.451 63.2273 304.763 63.9569 304.076 61.7684L300.982 61.7684C300.67 61.7684 302.903 59.9686 303.834 61.2655C304.184 61.0529 305.862 61.375 307.919 61.9117C308.041 61.5254 308.12 61.1238 308.152 60.7154C308.172 60.4534 308.174 60.1909 308.156 59.9302C307.702 59.8757 307.245 59.8534 306.789 59.8632C306.109 60.1219 305.193 60.3093 304.076 60.3093C304.962 60.0316 305.874 59.8828 306.789 59.8632C307.404 59.6291 307.826 59.3365 308.029 59.0716C307.983 58.8732 307.926 58.6776 307.857 58.4856L306.482 58.4856C303.388 59.2151 306.482 58.4856 304.763 58.4856L306.482 58.4856C307.98 58.1326 308.43 58.5484 308.029 59.0716C308.094 59.3535 308.137 59.6408 308.156 59.9302C308.751 60.0015 309.341 60.1279 309.92 60.3093L308.312 62.0154C313.244 63.3358 319.935 65.7278 316.108 65.0511C318.93 73.6297 320.551 70.0905 320.921 79.1678C332.266 82.0858 332.266 79.1678 327.453 79.1678L332.61 50.8259ZM78.7274 61.4035C77.0085 61.4035 77.3522 65.4158 78.3835 63.9568L78.7274 61.4035ZM65.3196 61.4035C67.3823 61.4035 66.0072 63.5921 64.9759 64.3216L65.3196 61.4035ZM59.1314 48.2725C59.1314 48.2725 59.819 47.9078 57.7563 47.9078L59.1314 48.2725ZM84.5717 52.2848L85.9469 52.2848L86.9782 52.2848C86.9782 52.2848 85.6243 52.49 84.3672 52.2848C83.9483 52.2164 83.5402 52.1024 83.1965 51.9201L84.5717 52.2848ZM60.525 47.9012C60.6418 47.9055 60.7506 47.9078 60.8505 47.9078L60.1628 47.9078C60.2967 47.9078 60.4171 47.9055 60.525 47.9012C59.434 47.8607 57.6405 47.6408 55.8683 47.421C55.5342 47.5419 55.2393 47.7015 55.006 47.9078C54.6385 48.2327 54.3147 48.4418 54.0151 48.5662C55.0354 48.9919 54.4415 48.9263 53.3904 48.7148C52.9203 48.7439 52.4796 48.5906 51.9707 48.41C50.8511 48.1617 49.7396 47.9078 49.5054 47.9078C50.5696 47.9078 51.325 48.1809 51.9707 48.41C52.4677 48.5202 52.9663 48.6294 53.3904 48.7148C53.5908 48.7024 53.7965 48.6568 54.0151 48.5662C53.6513 48.4144 53.0823 48.2001 52.2558 47.9078C48.1316 46.4493 51.9478 46.9348 55.8683 47.421C58.3833 46.5111 63.119 47.7971 60.525 47.9012ZM112.762 47.9078C111.228 48.0536 109.954 48.18 108.905 48.2889C109.791 48.752 98.6968 49.3488 108.905 48.2889C108.516 48.0855 105.815 47.9078 97.9794 47.9078L102.545 47.9078L104.607 47.9078L107.014 47.9078C108.585 47.5587 110.173 47.3276 111.767 47.2145C109.396 46.0873 109.091 44.105 116.535 45.3738C126.59 44.1999 144.171 45.0607 157.703 45.7193L158.238 45.7193C159.665 45.4145 161.128 45.3652 162.566 45.5715C163.76 45.5801 164.954 45.6293 166.145 45.7193L168.208 45.7193L176.459 45.7193C177.048 46.6572 168.716 46.2552 157.703 45.7193L155.832 45.7193L152.737 45.7193L149.3 45.7193L118.359 45.7193C117.705 45.5843 117.098 45.4698 116.535 45.3738C115.679 45.4738 114.877 45.5885 114.137 45.7193L114.583 47.1374C115.245 47.148 115.906 47.1789 116.567 47.2301C120.225 46.705 119.165 46.9745 117.505 47.3166C118.713 47.4456 119.916 47.6427 121.109 47.9078L114.825 47.9078L114.481 47.9078L112.762 47.9078ZM178.521 47.9078C181.616 45.7193 178.865 47.9078 181.616 47.9078L180.928 50.0964C180.24 50.0964 178.521 47.9078 178.521 47.9078ZM201.555 44.2604L201.555 42.0718L200.18 40.6128C201.899 41.707 207.4 38.7891 199.492 46.8136L197.086 46.8136C195.731 47.169 194.315 47.169 192.961 46.8136C196.742 46.4489 199.492 44.2604 196.742 44.2604C197.474 43.8122 198.304 43.5762 199.149 43.5762C199.993 43.5762 200.824 43.8122 201.555 44.2604ZM112.514 60.3093L107.701 60.3093C107.3 60.3093 110.41 59.1917 112.183 58.5505L112.171 58.4856C114.032 57.8779 113.448 58.0928 112.183 58.5505L112.514 60.3093ZM115.609 58.8503L114.921 58.8503L114.607 57.1829C114.515 57.0115 114.487 56.9305 114.577 57.0266L114.607 57.1829C114.862 57.6625 115.609 58.8503 115.609 58.8503ZM133.485 62.1331C133.485 62.1331 133.829 60.3093 133.142 60.3093L133.485 62.1331ZM168.598 63.3481C169.705 62.6694 169.287 62.6847 168.598 63.3481V63.3481ZM210.494 53.7438L212.556 53.7438L213.588 53.7438C213.932 53.7438 214.963 52.2848 210.494 53.7438ZM224.589 66.8749C224.589 66.8749 225.276 65.0511 225.62 66.8749L224.589 66.8749ZM264.124 58.8503C267.219 58.4856 266.875 58.4856 264.468 58.8503L264.124 58.8503ZM261.03 56.2971C259.311 57.3913 259.311 57.3913 261.374 56.2971L261.03 56.2971ZM233.527 56.6619C233.527 56.6619 235.59 56.2971 233.871 56.6619L233.527 56.6619ZM231.808 72.7109C231.808 72.7109 228.371 71.9813 232.152 72.7109L231.808 72.7109ZM251.404 69.4281L253.123 69.4281L254.842 69.4281C255.874 69.0633 249.685 65.051 251.404 67.2395C253.123 69.428 251.404 69.4281 251.404 69.4281ZM271.76 53.7438L269.697 53.7438L267.29 56.6619C267.634 58.1209 273.822 56.6618 271.76 53.7438ZM274.094 51.1906L266.259 51.1906L262.821 54.1085C262.821 54.4733 271.688 51.1906 274.094 51.1906ZM288.949 61.4036L291.012 61.4036L289.637 63.9568C291.248 64.1123 291.361 64.5328 291.253 64.9641C291.672 65.0232 292.143 65.0876 292.67 65.158C292.559 65.008 292.464 64.8508 292.387 64.6863L294.793 64.6863L299.263 64.6863L302.7 64.6863L306.826 64.6863C307.17 64.6863 312.326 66.8748 307.513 68.6986L308.889 66.1453L303.732 66.1453C303.732 67.1321 303.167 67.3562 302.811 67.386C303.214 67.4632 304.099 67.6991 305.795 68.3339L301.325 68.3339C303.951 68.3339 296.924 68.3338 293.684 66.1059C293.385 66.1309 293.067 66.1453 292.731 66.1453C290.561 66.1453 291.107 65.5449 291.253 64.9641C286.688 64.3216 288.16 64.3216 287.918 64.3216L284.824 64.3216C283.792 61.4036 275.198 61.4036 277.604 61.4036L275.885 61.4036C277.26 63.9568 270.728 61.4036 272.791 61.4036L275.126 61.4036L275.885 61.4036C274.51 58.8503 288.949 61.4036 288.949 61.4036ZM313.358 57.3913C313.358 55.5675 311.295 59.9447 311.983 59.9447L313.358 57.3913Z" fill="white"/>
<path fill-rule="evenodd" clip-rule="evenodd" d="M233.527 64.3216L234.902 64.3216C235.411 63.9609 236.009 63.7684 236.621 63.7684C237.233 63.7684 237.832 63.9609 238.34 64.3216L239.715 64.3216L241.778 64.3216C240.059 63.5921 246.248 64.3216 246.248 64.3216L254.94 64.3216C252.237 63.9568 249.993 63.9568 251.748 63.9568L251.404 63.9568L251.061 63.9568L247.966 63.9568L245.904 63.9568L245.56 63.9568L244.185 63.9568L242.122 63.9568C242.473 63.8502 242.83 63.7739 243.19 63.7279C228.416 63.5836 213.643 63.9749 198.896 64.9008L198.805 66.1624C198.805 66.1624 198.805 65.6855 198.811 64.9061C193.161 65.2616 187.515 65.6956 181.873 66.2081C181.903 66.2984 181.937 66.3993 181.975 66.5102C182.201 66.51 182.426 66.51 182.647 66.51L184.46 67.6044L185.741 67.6044L187.116 67.6044C187.116 67.6044 192.617 66.5272 190.21 67.6215L189.179 67.6044L187.116 67.6044L185.741 67.6044C185.741 67.6044 185.741 67.9966 185.584 68.2829L188.744 70.1894C189.14 69.8606 189.867 69.223 189.867 67.9862L189.867 70.5394L193.992 70.5394L196.055 70.5394L198.117 70.5394L198.499 70.5394L198.461 69.8099C198.818 69.8099 199.041 70.0921 199.171 70.5394L200.524 70.5394L207.4 70.5394C207.4 70.5394 208.041 70.5394 208.705 70.3338C209.061 70.0601 209.329 69.9607 209.531 69.9324C209.891 69.6635 210.15 69.2755 210.15 68.7157C210.15 69.515 210.15 69.8139 210.087 69.9144C212.499 69.0067 215.068 68.084 217.623 67.2566C222.749 65.5972 227.821 64.3216 231.465 64.3216C231.787 64.4838 232.139 64.5679 232.496 64.5679C232.853 64.5679 233.205 64.4838 233.527 64.3216ZM191.242 67.6044C191.242 67.6044 193.304 68.3509 192.273 68.7157L191.242 67.6044ZM201.899 69.0804C210.837 69.0804 199.836 70.9041 199.492 69.0804L201.899 69.0804ZM207.4 66.5271L209.462 66.5271C211.525 66.5271 207.4 67.6214 207.4 66.5271Z" fill="white"/>
<path d="M207.4 70.9041L207.497 70.9041C207.818 70.7799 208.142 70.6547 208.471 70.5287C208.553 70.4555 208.631 70.3909 208.705 70.3338C208.041 70.5394 207.4 70.5394 207.4 70.5394L200.524 70.5394L199.171 70.5394C199.426 71.4135 199.324 72.9183 199.164 74.1809C200.986 73.4981 203.934 72.287 207.4 70.9421L207.4 70.9041Z" fill="white"/>
<path d="M195.367 74.1868L198.69 74.1868L198.499 70.5394L198.117 70.5394L196.055 70.5394L193.992 70.5394L189.867 70.5394L189.323 70.5394L195.367 74.1868Z" fill="white"/>
<path d="M268.937 66.8749L265.156 66.8749L262.821 66.8749C262.879 67.1309 262.934 67.3828 262.985 67.6308C263.773 67.3259 264.823 67.1633 266.187 67.2395C268.004 68.8916 266.294 67.6338 265.938 69.4281L269.998 69.4281L271.981 67.0234C271.586 66.9917 271.048 66.9723 270.313 66.8749L268.937 66.8749Z" fill="white"/>
<path d="M261.03 69.4281C258.22 69.6747 255.449 70.2872 252.779 71.2518C253.429 74.0066 251.626 71.56 261.258 71.2777C260.959 70.7849 260.863 70.0973 261.088 69.4281L261.03 69.4281Z" fill="white"/>
<path d="M225.62 69.4281L224.589 69.4281C224.589 69.4281 224.589 69.0888 224.892 68.7029C217.867 68.8637 222.188 73.5082 222.526 76.3754C222.853 79.1457 225.348 69.7366 227.071 68.7769C226.221 69.0536 225.503 69.3041 225.62 69.4281Z" fill="white"/>
<path fill-rule="evenodd" clip-rule="evenodd" d="M210.837 70.9041L208.087 70.9041L207.497 70.9041L207.4 70.9421L207.4 73.4575L213.588 73.4575C215.994 73.4575 213.588 73.4573 213.588 70.9041L212.9 70.9041L210.837 70.9041ZM209.462 72.728C209.462 72.728 210.837 72.3632 210.494 72.728L209.462 72.728Z" fill="white"/>
<path d="M183.334 67.6044L182.367 67.6044C182.667 68.3938 183.088 69.392 183.678 70.5394L189.323 70.5394C188.326 70.5344 188.372 70.4965 188.707 70.2195L188.744 70.1894L185.584 68.2829C185.371 68.6729 184.868 68.8664 183.678 67.6044L183.334 67.6044Z" fill="white"/>
<path fill-rule="evenodd" clip-rule="evenodd" d="M166.145 70.5223C167.176 76.7231 166.145 76.7231 173.708 77.0878L176.115 77.0878C176.647 77.0878 176.944 76.9452 177.083 76.7231L176.115 76.7231L176.115 74.1699C176.115 74.1699 177.575 75.9404 177.083 76.7231L178.178 76.7231L179.209 76.7231L179.209 74.1699L179.209 73.8051L179.248 73.7408L179.569 70.1636L179.209 70.1576C179.209 70.1576 175.427 70.1576 176.459 67.9691C176.524 67.8305 176.581 67.7095 176.631 67.6044L176.459 67.6044C176.523 67.5887 176.588 67.5736 176.653 67.5591C177.076 66.6823 177.015 66.9952 177.57 67.3917C178.318 67.2856 179.074 67.2525 179.826 67.2924L179.864 66.8748L174.969 66.8748C173.05 67.0712 171.131 67.2766 169.213 67.4911C169.146 68.0789 168.963 67.8648 168.806 67.5368C168.606 67.5592 168.407 67.5817 168.208 67.6044C168.142 67.6007 168.076 67.5971 168.01 67.5934L168.552 71.6166C167.502 70.0572 167.065 68.6943 166.988 67.5372C166.732 67.5232 166.478 67.5093 166.225 67.4956C166.056 67.5205 165.886 67.546 165.716 67.5721C165.823 68.3529 165.945 69.3213 166.145 70.5223ZM166.145 69.4281C167.667 68.9668 168.226 71.568 168.432 73.5432C168.456 73.2641 168.496 72.9861 168.552 72.7108L168.552 75.6288L166.145 69.4281Z" fill="white"/>
<path d="M169.239 66.908C169.873 66.8866 170.559 66.8748 171.302 66.8748L171.586 66.8748C174.044 66.666 176.292 66.5767 178.349 66.5385C178.876 66.4876 179.404 66.4373 179.931 66.3877C180.394 64.8161 181.259 64.6073 181.616 66.0515L181.616 65.0511L169.583 65.0511C168.951 65.0963 168.321 65.1622 167.694 65.2487L167.926 66.9696C168.134 66.9569 168.349 66.9452 168.571 66.9348C168.559 66.8971 168.552 66.8748 168.552 66.8748L169.239 66.892L169.239 66.908Z" fill="white"/>
<path d="M181.959 76.7231L181.959 73.8051C182.032 72.5262 182.064 71.2454 182.056 69.9648C181.925 70.0043 181.779 70.0392 181.616 70.0687C181.557 70.0793 181.495 70.0893 181.432 70.0985L179.248 73.7408L179.209 74.1699L179.209 76.7231L181.959 76.7231Z" fill="white"/>
<path d="M181.616 69.7928C181.616 69.0859 181.616 68.5665 181.616 68.1888C181.148 68.0533 180.568 67.9691 179.897 67.9691C179.852 67.9691 179.809 67.9687 179.766 67.968L179.569 70.1636L180.24 70.1747C180.701 70.1747 181.097 70.1473 181.432 70.0985L181.616 69.7928Z" fill="white"/>
<path d="M182.021 66.6482C182.505 66.7137 183.092 66.9821 183.678 67.6044L184.46 67.6044L182.647 66.51L181.975 66.5102C181.99 66.5546 182.005 66.6006 182.021 66.6482Z" fill="white"/>
<path d="M179.798 67.6044L177.929 67.6044C178.315 67.7917 178.887 67.9533 179.766 67.968L179.798 67.6044Z" fill="white"/>
<path d="M174.969 66.8748L179.864 66.8748L179.896 66.5181C179.393 66.5223 178.877 66.5287 178.349 66.5385C177.222 66.6475 176.095 66.7596 174.969 66.8748Z" fill="white"/>
<path d="M169.213 67.4911C171.131 67.2766 173.05 67.0712 174.969 66.8748L171.586 66.8748C170.823 66.9397 170.04 67.016 169.237 67.1058C169.233 67.2612 169.225 67.3884 169.213 67.4911Z" fill="white"/>
<path d="M160.645 64.3216L160.645 66.8748L161.332 66.8748C162.646 66.3762 163.989 65.9741 165.351 65.6706C164.898 64.3216 163.953 64.3216 160.645 64.3216Z" fill="white"/>
<path d="M161.332 66.8748L165.614 66.8748C165.538 66.3857 165.458 65.9903 165.351 65.6706C163.989 65.9741 162.646 66.3762 161.332 66.8748Z" fill="white"/>
<path d="M167.309 65.3044C166.653 65.404 166 65.5261 165.351 65.6706C165.458 65.9903 165.538 66.3857 165.614 66.8748C165.63 66.9721 165.645 67.073 165.66 67.1777C166.059 67.1267 166.496 67.0797 166.977 67.0387C166.991 66.3867 167.119 65.8079 167.309 65.3044Z" fill="white"/>
<path d="M165.701 67.4672C165.875 67.4766 166.05 67.486 166.225 67.4956C166.479 67.4583 166.73 67.4224 166.98 67.3879C166.975 67.2693 166.974 67.1529 166.977 67.0387C166.496 67.0797 166.059 67.1267 165.66 67.1777C165.674 67.2711 165.687 67.3676 165.701 67.4672Z" fill="white"/>
<path d="M152.274 69.0796C152.67 68.9995 153.09 68.9111 153.538 68.8112C153.561 68.4685 153.583 68.1907 153.607 67.9691L152.151 67.9691L152.274 69.0796Z" fill="white"/>
<path d="M156.863 67.9691L160.301 67.9691L160.645 67.9691L160.645 67.2026C157.508 67.0451 154.672 66.9174 152.024 66.8195L152.151 67.9691L153.607 67.9691C153.736 66.7393 153.889 67.2371 154.255 67.9691L155.144 67.9691L156.863 67.9691Z" fill="white"/>
<path d="M138.642 70.1747L136.743 70.0555C136.688 70.224 136.633 70.4136 136.579 70.6267L136.579 72.346L136.579 72.7108L136.27 72.7108C136.248 73.0467 136.236 73.4106 136.236 73.8051C141.223 71.0209 143.09 71.2659 143.444 72.7091C143.479 72.8496 143.499 73.0014 143.506 73.163C143.651 73.0039 143.792 72.8528 143.93 72.7091C145.244 70.582 146.574 68.4688 147.914 68.0415C147.718 67.4139 147.72 66.8919 148.268 66.8919L148.494 67.9691L149.3 67.9691L151.931 67.9691C151.888 67.5888 151.847 67.196 151.809 66.8116C147.37 66.6496 143.452 66.5719 139.514 66.5784C139.674 67.8098 139.674 69.0231 139.674 69.8099L139.416 69.5363C139.313 69.6092 139.169 69.6675 139.033 69.7112L140.361 70.1747L138.642 70.1747Z" fill="white"/>
<path d="M147.914 68.0415C146.574 68.4688 145.244 70.582 143.93 72.7091C145.706 70.8547 146.945 70.2325 148.73 69.7942C148.486 69.3672 148.106 68.6541 147.914 68.0415Z" fill="white"/>
<path d="M150.786 69.3692C150.341 68.8496 149.843 68.3797 149.3 67.9691L149.483 69.6247C149.885 69.5407 150.316 69.4586 150.786 69.3692Z" fill="white"/>
<path d="M151.931 67.9691L149.3 67.9691C149.843 68.3797 150.341 68.8496 150.786 69.3692L150.798 69.367C151.193 69.2918 151.616 69.2113 152.072 69.1203C152.025 68.768 151.977 68.3757 151.931 67.9691Z" fill="white"/>
<path d="M149.691 71.4977C150.408 71.2588 151.115 71.0313 151.812 70.8148C151.512 70.3001 151.169 69.8162 150.786 69.3692C150.316 69.4586 149.885 69.5407 149.483 69.6247L149.691 71.4977Z" fill="white"/>
<path d="M155.339 69.73L155.29 69.2819C155.01 69.1245 154.781 68.8571 154.591 68.5663C154.223 68.6553 153.873 68.7365 153.538 68.8112C153.511 69.2177 153.483 69.7156 153.453 70.3194C154.034 70.1491 154.608 69.9865 155.174 69.8312L155.339 69.73Z" fill="white"/>
<path d="M152.274 69.0796L152.151 67.9691L151.931 67.9691C151.977 68.3757 152.025 68.768 152.072 69.1203L152.274 69.0796Z" fill="white"/>
<path d="M155.565 71.7685C157.955 70.5358 158.928 69.5735 158.734 68.9257C157.634 69.1835 156.505 69.4688 155.345 69.7845L155.565 71.7685Z" fill="white"/>
<path d="M156.626 68.0355C156.123 68.1759 155.646 68.3023 155.194 68.4169L155.29 69.2819C155.452 69.3737 155.632 69.4281 155.832 69.4281L155.339 69.73L155.345 69.7845C156.505 69.4688 157.634 69.1835 158.734 68.9257C158.596 68.4633 157.863 68.1612 156.626 68.0355Z" fill="white"/>
<path d="M155.831 73.8051L156.863 73.8051L160.301 73.8051L160.301 68.5728C159.785 68.6843 159.263 68.8019 158.734 68.9257C158.928 69.5735 157.955 70.5358 155.565 71.7685L155.676 72.7705C155.813 72.7877 155.829 72.992 155.831 73.8051Z" fill="white"/>
<path d="M155.144 71.9813L153.081 71.9813C154.777 73.3305 155.427 72.739 155.676 72.7705L155.565 71.7685C155.429 71.8386 155.289 71.9095 155.144 71.9813Z" fill="white"/>
<path d="M152.394 71.9813C150.611 71.9813 153.356 73.1825 152.523 73.8051L155.791 73.8051L155.676 72.7705C155.427 72.739 154.777 73.3305 153.081 71.9813L155.144 71.9813C155.289 71.9095 155.429 71.8386 155.565 71.7685L155.345 69.7845L155.174 69.8312L153.425 70.9041L153.453 70.3194C152.912 70.4778 152.366 70.6429 151.812 70.8148C152.03 71.1881 152.224 71.5778 152.394 71.9813Z" fill="white"/>
<path d="M153.538 68.8112C153.09 68.9111 152.67 68.9995 152.274 69.0796L152.394 70.1576C152.394 71.1415 152.241 70.3922 152.072 69.1203C151.616 69.2113 151.193 69.2918 150.798 69.367L150.786 69.3692C151.169 69.8162 151.512 70.3001 151.812 70.8148C152.366 70.6429 152.912 70.4778 153.453 70.3194C153.483 69.7156 153.511 69.2177 153.538 68.8112Z" fill="white"/>
<path d="M146.549 72.346C146.635 72.4004 146.713 72.4548 146.786 72.5091C147.772 72.151 148.74 71.8143 149.691 71.4977L149.483 69.6247C149.271 69.669 149.066 69.7139 148.869 69.7607L148.956 70.1747C148.956 70.1747 148.863 70.027 148.73 69.7942C146.945 70.2325 145.706 70.8547 143.93 72.7091C144.584 72.7091 145.367 72.71 146.235 72.7105C146.349 72.6685 146.462 72.6269 146.576 72.5854L146.549 72.346Z" fill="white"/>
<path d="M147.541 73.8051L149.947 73.8051L149.691 71.4977C148.74 71.8143 147.772 72.151 146.786 72.5091C146.876 72.5766 146.956 72.6439 147.027 72.7108C147.454 73.1108 147.561 73.494 147.541 73.8051Z" fill="white"/>
<path d="M151.812 70.8148C151.115 71.0313 150.408 71.2588 149.691 71.4977L149.947 73.8051L151.706 73.8051L152.523 73.8051C153.356 73.1825 150.611 71.9813 152.394 71.9813C152.224 71.5778 152.03 71.1881 151.812 70.8148Z" fill="white"/>
<path d="M148.268 67.9691C148.15 67.9794 148.032 68.004 147.914 68.0415C148.106 68.6541 148.486 69.3672 148.73 69.7942L148.869 69.7607L148.494 67.9691L148.268 67.9691Z" fill="white"/>
<path d="M149.3 67.9691L148.494 67.9691L148.869 69.7607C149.066 69.7139 149.271 69.669 149.483 69.6247L149.3 67.9691Z" fill="white"/>
<path d="M160.645 67.2026L160.645 67.9691L160.301 67.9691L160.301 68.5728C162.194 68.1633 163.997 67.8351 165.716 67.5721L165.701 67.4672C165.227 67.4415 164.76 67.4164 164.299 67.3919C160.973 68.0277 161.702 68.8394 161.409 67.2413C161.152 67.2282 160.897 67.2153 160.645 67.2026Z" fill="white"/>
<path d="M165.614 66.8748L161.332 66.8748C161.364 67.009 161.389 67.1309 161.409 67.2413C162.345 67.2889 163.307 67.3391 164.299 67.3919C164.693 67.3166 165.144 67.2438 165.66 67.1777C165.645 67.073 165.63 66.9721 165.614 66.8748Z" fill="white"/>
<path d="M127.889 72.4175C131.716 73.4426 136.536 74.1868 142.424 74.1868C142.52 74.1478 142.616 74.109 142.712 74.0703C142.99 73.7421 143.254 73.4405 143.506 73.163C143.499 73.0014 143.479 72.8496 143.444 72.7091C143.597 72.7091 143.759 72.7091 143.93 72.7091C145.244 70.582 146.574 68.4688 147.914 68.0415C147.718 67.4139 147.72 66.8919 148.268 66.8919L148.494 67.9691L149.3 67.9691L151.931 67.9691C151.888 67.5888 151.847 67.196 151.809 66.8116C147.37 66.6496 143.452 66.5719 139.514 66.5784C139.674 67.8098 139.674 69.0231 139.674 69.8099L139.416 69.5363C139.313 69.6092 139.169 69.6675 139.033 69.7112L140.361 70.1747L138.642 70.1747L136.743 70.0555C136.688 70.224 136.633 70.4136 136.579 70.6267L136.579 72.346L136.579 72.7108L136.27 72.7108C136.248 73.0467 136.236 73.4106 136.236 73.8051C141.223 71.0209 143.09 71.2659 143.444 72.7091C143.479 72.8496 143.499 73.0014 143.506 73.163C143.651 73.0039 143.792 72.8528 143.93 72.7091C141.096 72.7087 141.485 72.7092 143.444 72.7091C143.09 71.2659 141.223 71.0209 136.236 73.8051C136.236 73.4106 136.248 73.0467 136.27 72.7108L134.861 72.7108L134.308 70.0749C134.285 70.0161 134.265 69.9573 134.247 69.8988L126.751 69.4281L121.453 69.4281L120.143 69.4281C120.581 69.6635 121.056 69.9038 121.57 70.1451C121.97 70.0384 122.389 69.9212 122.828 69.7928C125.642 69.2952 127.656 71.173 127.889 72.4175Z" fill="white"/>
<path d="M104.511 61.7684C104.511 61.7684 104.609 62.1841 104.824 62.6821C105.577 62.702 106.36 62.6728 107.147 62.6186L107.163 62.4979L105.639 62.4979C105.162 62.4979 106.834 62.4979 104.81 61.7684L104.511 61.7684Z" fill="white"/>
<path d="M99.4505 60.3093C100.402 62.0753 102.463 62.6198 104.824 62.6821C104.609 62.1841 104.511 61.7684 104.511 61.7684L104.81 61.7684C103.915 61.4457 102.297 60.9804 99.4505 60.3093Z" fill="white"/>
<path d="M106.918 64.3216L107.147 62.6186C106.36 62.6728 105.577 62.702 104.824 62.6821C105.177 63.5035 105.848 64.5487 106.918 64.3216Z" fill="white"/>
<path d="M107.262 61.7684L104.81 61.7684C106.834 62.4979 105.162 62.4979 105.639 62.4979L107.163 62.4979L107.262 61.7684Z" fill="white"/>
<path d="M126.61 62.1331L121.453 62.1331L120.29 62.1331C120.268 62.3285 120.201 62.5694 120.078 62.8626L120.078 63.0976L127.237 65.5957C126.809 63.718 126.226 62.8547 126.472 62.4596C124.986 62.1331 124.057 62.1331 126.61 62.1331Z" fill="white"/>
<path d="M110.108 66.51L116.296 66.51C116.157 66.51 116.369 66.8231 116.951 67.3228C120.855 67.1187 124.297 66.9565 127.466 66.8363C127.401 66.3801 127.322 65.968 127.237 65.5957L120.078 63.0976L120.078 64.6863L120.422 64.6863C117.635 65.014 114.825 65.0343 112.036 64.7472C110.38 64.9926 108.433 65.5043 106.751 66.51L110.108 66.51Z" fill="white"/>
<path d="M126.751 69.4281L127.641 69.4281C127.641 68.4355 127.572 67.5777 127.466 66.8363C124.297 66.9565 120.855 67.1187 116.951 67.3228C117.455 67.756 118.238 68.3296 119.313 68.961L126.751 69.4281Z" fill="white"/>
<path d="M104.569 68.3339L105.886 68.3339L106.574 68.3339L108.293 68.3339L109.324 68.3339L116.296 68.7716L116.296 67.3571C114.841 67.4339 113.323 67.5163 111.731 67.6044L105.271 67.6044C105.023 67.8309 104.788 68.0737 104.569 68.3339Z" fill="white"/>
<path d="M105.199 70.1576L103.439 70.1576C102.853 71.5148 102.609 73.1926 102.888 75.2641L108.389 75.2641C111.483 75.2641 115.952 75.2641 105.982 73.4404L112.858 73.4404L120.765 73.4404L124.891 73.4404C125.486 72.703 125.91 72.209 126.211 71.932C124.411 71.3706 122.867 70.7544 121.57 70.1451C121.309 70.2146 121.056 70.2798 120.81 70.3407C122.032 70.6352 123.167 70.8871 121.453 70.8871L119.39 70.8871L119.35 70.6734C117.008 71.155 115.432 71.2096 114.085 71.1541C114.827 71.2658 115.565 71.42 116.296 71.6166C116.296 71.6166 113.703 71.6166 113.294 71.1097C113.009 71.0902 112.73 71.0685 112.451 71.048C110.787 71.658 108.993 71.7539 107.278 71.3225C106.874 71.403 106.443 71.5002 105.982 71.6166C106.406 71.5027 106.831 71.4031 107.259 71.3177C107.177 71.2969 107.095 71.275 107.014 71.2518L107.358 70.8871C108.35 70.6828 109.358 70.5901 110.364 70.6091L110.222 70.1576L108.981 70.1576L106.574 70.1576L105.199 70.1576Z" fill="white"/>
<path d="M106.574 70.1576L108.981 70.1576L110.222 70.1576L110.108 69.7928C112.88 70.381 113.193 70.495 111.769 70.7083C112.133 70.7531 112.497 70.8127 112.858 70.8871C112.775 70.9221 112.692 70.9558 112.609 70.9882C112.825 71.0043 113.041 71.0239 113.256 71.0471C113.122 70.7246 113.81 70.2194 116.296 69.4281L116.296 68.7716L109.324 68.3339L108.293 68.3339L106.574 68.3339L105.886 68.3339L104.569 68.3339C104.12 68.866 103.736 69.4708 103.439 70.1576L105.199 70.1576L106.574 70.1576Z" fill="white"/>
<path d="M107.358 70.8871L107.014 71.2518C107.095 71.275 107.177 71.2969 107.259 71.3177C109.025 70.9649 110.823 70.855 112.609 70.9882C112.692 70.9558 112.775 70.9221 112.858 70.8871C112.497 70.8127 112.133 70.7531 111.769 70.7083C111.426 70.7595 110.984 70.8165 110.452 70.8871L110.364 70.6091C109.358 70.5901 108.35 70.6828 107.358 70.8871Z" fill="white"/>
<path d="M119.115 69.4281L118.702 69.4281L116.296 69.4281C113.81 70.2194 113.122 70.7246 113.256 71.0471C113.533 71.0769 113.809 71.1125 114.085 71.1541C115.432 71.2096 117.008 71.155 119.35 70.6734L119.115 69.4281Z" fill="white"/>
<path d="M119.487 69.2659C119.59 69.2533 119.693 69.2441 119.797 69.2381C119.629 69.1447 119.468 69.0523 119.313 68.961L116.296 68.7716L116.296 69.4281L118.702 69.4281C118.833 69.3898 118.964 69.3571 119.097 69.3299L119.046 69.0634C119.26 69.0634 119.4 69.1417 119.487 69.2659Z" fill="white"/>
<path d="M130.391 65.0511L130.391 62.1331C129.789 62.1331 129.271 62.1303 128.828 62.1303C129.2 62.6452 129.464 63.4545 129.621 64.0503C129.661 64.1368 129.689 64.2271 129.704 64.3216C129.72 64.4257 129.734 64.5117 129.746 64.5811C129.804 64.8612 129.804 64.9285 129.746 64.5811C129.718 64.4461 129.676 64.2616 129.621 64.0503C129.224 63.1958 127.668 62.7221 126.472 62.4596C126.226 62.8547 126.809 63.718 127.237 65.5957L130.494 66.7319C132.363 66.6743 134.152 66.6329 135.904 66.6076C136.046 65.793 135.878 65.0511 134.173 65.0511L130.391 65.0511Z" fill="white"/>
<path d="M136.236 62.1331L137.632 66.5879C138.261 66.5826 138.888 66.5794 139.514 66.5784C139.229 64.3845 138.438 62.1331 136.236 62.1331Z" fill="white"/>
<path d="M137.632 66.5879C137.059 66.5927 136.484 66.5993 135.904 66.6076C135.769 67.3859 135.353 68.2305 135.727 68.5579L136.118 68.6942C136.155 68.6971 136.194 68.6986 136.236 68.6986C137.076 68.6986 137.232 68.6986 137.121 69.0442L138.56 69.5461L137.632 66.5879Z" fill="white"/>
<path d="M126.751 69.4281L134.247 69.8988C134.2 69.7395 134.173 69.5818 134.173 69.4281L134.272 69.9003L136.743 70.0555C136.904 69.5587 137.057 69.2438 137.121 69.0442L136.118 68.6942C135.938 68.68 135.812 68.6323 135.727 68.5579L130.494 66.7319C129.509 66.7622 128.502 66.797 127.466 66.8363C127.572 67.5777 127.641 68.4355 127.641 69.4281L126.751 69.4281Z" fill="white"/>
<path d="M136.508 70.9352C136.521 70.6753 136.545 70.4159 136.579 70.1576L136.579 70.6267C136.633 70.4136 136.688 70.224 136.743 70.0555L134.272 69.9003L134.308 70.0749C134.687 71.0442 135.764 72.0336 136.287 72.4742C136.336 71.8695 136.416 71.3617 136.508 70.9352Z" fill="white"/>
<path d="M139.674 69.8099C139.674 69.0231 139.674 67.8098 139.514 66.5784C138.888 66.5794 138.261 66.5826 137.632 66.5879L138.56 69.5461L139.033 69.7112C139.169 69.6675 139.313 69.6092 139.416 69.5363L138.642 68.7157C139.674 69.0804 139.674 69.354 139.416 69.5363L139.674 69.8099Z" fill="white"/>
<path d="M81.1339 70.1576L82.8528 70.1576L83.2182 70.1576C84.4606 70.0424 85.6047 69.9483 86.6153 69.8845C86.3878 68.3223 84.4269 69.8231 96.851 70.1117C98.8183 69.7611 100.829 69.7764 102.792 70.1576L103.439 70.1576C103.736 69.4708 104.12 68.866 104.569 68.3339L103.48 68.3339C99.3146 69.7295 99.7627 68.6035 98.3163 67.6044L81.1339 67.6044L77.0084 67.6044C77.9254 69.5504 78.8425 68.0356 69.8499 69.2146C73.6198 69.3347 77.3856 69.6491 81.1339 70.1576Z" fill="white"/>
<path d="M90.0723 70.1576L89.285 70.1576C91.0542 72.346 96.948 72.346 96.948 72.346C97.6356 70.1575 100.386 70.1576 100.386 70.1576L99.3545 70.1576L96.6042 70.1576L95.9167 70.1576L92.4788 70.1576L90.0723 70.1576Z" fill="white"/>
<path d="M93.5101 66.51L92.8226 66.51C96.0611 66.51 97.4945 67.0367 98.3163 67.6044L105.271 67.6044C105.727 67.1867 106.226 66.8243 106.751 66.51L93.5101 66.51Z" fill="white"/>
<path d="M116.296 66.51L110.108 66.51L106.751 66.51C106.226 66.8243 105.727 67.1867 105.271 67.6044L111.731 67.6044C113.323 67.5163 114.841 67.4339 116.296 67.3571L116.951 67.3228C116.369 66.8231 116.157 66.51 116.296 66.51Z" fill="white"/>
<path d="M98.3163 67.6044C99.7627 68.6035 99.3146 69.7295 103.48 68.3339L104.569 68.3339C104.788 68.0737 105.023 67.8309 105.271 67.6044L98.3163 67.6044Z" fill="white"/>
<path d="M82.8528 70.1576L81.1339 70.1576C77.3856 69.6491 73.6198 69.3347 69.8499 69.2146C68.7293 69.3615 67.4548 69.5503 66.0072 69.7928L63.9445 69.7928L56.0374 69.7928L54.5648 69.7928C53.7878 69.8766 53.0113 69.9687 52.2356 70.0691C46.1972 74.9191 70.1498 71.3697 83.2182 70.1576L82.8528 70.1576Z" fill="white"/>
<path d="M30.597 58.4856C30.597 58.4856 37.4728 58.4855 27.1592 55.5675L33.3474 55.5675C32.6598 55.5675 39.5355 55.5675 38.1604 58.1208L40.9107 58.1208C39.0473 61.5806 35.29 61.6917 32.7399 61.4035C31.5262 61.2664 30.586 61.0388 30.2534 61.0388L30.597 58.4856Z" fill="white"/>
<path d="M36.0977 63.9568C37.3051 62.6757 41.1628 62.8007 38.1302 61.8627C37.5352 61.9612 36.9394 62.0528 36.3427 62.1376L36.0977 63.9568Z" fill="white"/>
<path d="M55.6936 61.0388L56.0374 58.1208L53.5589 58.1208C53.0807 58.2287 52.5664 58.3472 52.0207 58.4774C52.2827 59.1285 53.8918 60.4926 55.6936 61.0388Z" fill="white"/>
</g>
<path d="M243.835 56.3058L245.758 49.0143C246.31 47.6209 247.295 46.9243 248.712 46.9243H258.192L257.435 49.8137H249.255C249.169 49.8167 249.087 49.8451 249.021 49.8947C248.933 49.9499 248.868 50.0297 248.835 50.122L248.384 51.7888H253.958L253.241 54.6808H247.638L247.241 56.2118C247.23 56.2665 247.232 56.3228 247.248 56.3766C247.264 56.4304 247.293 56.4802 247.332 56.5226C247.369 56.565 247.416 56.5989 247.469 56.6216C247.523 56.6443 247.582 56.6551 247.641 56.6533H255.623C255.4 57.5241 255.15 58.482 254.872 59.527H246.749C246.304 59.5409 245.861 59.4593 245.456 59.2888C245.051 59.1182 244.696 58.8634 244.418 58.5447C244.132 58.2388 243.931 57.8745 243.832 57.4825C243.732 57.0906 243.737 56.6825 243.847 56.2927L243.835 56.3058ZM230.81 56.2927L232.73 49.0012C233.278 47.6079 234.26 46.9112 235.675 46.9112H245.164L244.384 49.8189H236.204C236.119 49.8228 236.038 49.8512 235.972 49.8999C235.891 49.9579 235.83 50.0371 235.798 50.1272L234.201 56.2118C234.19 56.2667 234.193 56.3233 234.209 56.3771C234.225 56.431 234.255 56.4808 234.295 56.5226C234.333 56.5648 234.382 56.5985 234.436 56.6211C234.49 56.6437 234.55 56.6547 234.61 56.6533H242.609C242.379 57.5241 242.124 58.482 241.844 59.527H233.724C232.667 59.4905 231.875 59.1369 231.35 58.4664C231.098 58.1613 230.919 57.8115 230.824 57.4394C230.729 57.0673 230.72 56.6812 230.798 56.3058L230.81 56.2927ZM214.265 59.527L217.056 49.0012C217.627 47.6079 218.592 46.9112 219.95 46.9112H220.83L226.881 53.4425L228.518 46.9112H231.793L228.458 59.5218H225.216L225.83 57.1705L219.847 50.6785L217.527 59.5401L214.265 59.527ZM200.388 59.527L203.202 49.0012C203.739 47.6079 204.686 46.9112 206.042 46.9112H216.073L212.73 59.5218H209.459L210.385 56.0628L212.042 49.8189H206.499C206.417 49.8208 206.338 49.8495 206.276 49.8999C206.195 49.957 206.137 50.0369 206.11 50.1272L205.302 53.176H210.202L209.425 56.0733H204.539L203.616 59.5401L200.388 59.527ZM198.271 59.527H194.956C195.048 59.2083 195.194 58.6858 195.396 57.9595C195.599 57.2332 195.819 56.4495 196.045 55.6266C196.271 54.8036 196.471 54.0904 196.634 53.4921C196.796 52.8939 196.879 52.5882 196.879 52.5882C196.308 53.3615 195.669 54.2114 194.962 55.138C194.248 56.0628 193.622 56.8753 193.085 57.5677L192.279 58.6127C191.8 58.6177 191.334 58.4688 190.962 58.1919C190.591 57.915 190.337 57.5277 190.245 57.0974C190.217 56.9929 190.154 56.6977 190.054 56.2144C189.954 55.7311 189.842 55.1929 189.722 54.592C189.602 53.9911 189.491 53.4686 189.4 53.0245C189.308 52.5804 189.26 52.3426 189.26 52.3426C189.174 52.6744 189.025 53.2204 188.82 53.9807C188.614 54.7409 188.402 55.5482 188.171 56.4025C187.94 57.2568 187.745 57.9935 187.577 58.6179C187.408 59.2423 187.331 59.5505 187.331 59.5505H184.048C184.117 59.3032 184.303 58.6066 184.605 57.4605L185.617 53.6489C185.988 52.2555 186.316 51.0233 186.6 49.9522C186.883 48.881 187.025 48.3481 187.025 48.3533C187.406 47.4041 188.084 46.9304 189.06 46.9321H191.011C191.037 47.0627 191.125 47.4781 191.271 48.1809C191.417 48.8837 191.582 49.67 191.768 50.5452C191.954 51.4204 192.114 52.1911 192.254 52.8573C192.394 53.5235 192.462 53.8605 192.462 53.8605L197.871 46.9295H201.613C201.539 47.1907 201.328 47.9745 200.991 49.252C200.653 50.5295 200.268 51.9664 199.848 53.547C199.428 55.1276 199.059 56.5253 198.736 57.727L198.271 59.527ZM181.471 52.2695C181.471 52.2695 181.668 51.5954 182.043 50.2474C182.051 50.1943 182.046 50.1403 182.03 50.0888C182.014 50.0373 181.987 49.9894 181.949 49.9481C181.912 49.9069 181.866 49.8732 181.814 49.8491C181.761 49.8251 181.704 49.8112 181.645 49.8085H176.386C176.299 49.8124 176.217 49.8427 176.151 49.8947C176.073 49.9513 176.016 50.029 175.988 50.1168C175.988 50.1168 175.788 50.9214 175.394 52.5307H181.06C181.151 52.536 181.241 52.5131 181.315 52.4657C181.39 52.4182 181.445 52.3491 181.471 52.2695ZM179.243 59.5401L176.574 55.4567H174.454C174.454 55.475 174.406 55.6475 174.323 55.9792C174.228 56.3537 174.112 56.8004 173.977 57.3195C173.84 57.842 173.72 58.3148 173.606 58.7433C173.491 59.1717 173.431 59.4304 173.406 59.527H169.977L172.769 49.0091C173.306 47.6262 174.277 46.9347 175.683 46.9347H182.385C182.823 46.9248 183.257 47.0076 183.653 47.1767C184.05 47.3457 184.398 47.5965 184.671 47.9092C184.956 48.2168 185.156 48.582 185.255 48.9746C185.355 49.3671 185.35 49.7757 185.242 50.1664L185.097 50.715C184.997 51.0834 184.885 51.4988 184.754 52.0056C184.623 52.5124 184.503 52.9566 184.397 53.3798C184.234 53.9734 183.859 54.5002 183.331 54.8768C182.798 55.2604 182.138 55.4651 181.46 55.4567H180.214L182.871 59.5401H179.243ZM141.647 59.5401L144.438 49.0143C144.994 47.6209 145.983 46.9243 147.404 46.9243H156.843L156.066 49.798H147.904C147.819 49.8016 147.738 49.83 147.672 49.879C147.594 49.94 147.534 50.0182 147.498 50.1063L147.058 51.7679H152.598L151.863 54.6599H146.289L145.001 59.5192L141.647 59.5401ZM139.075 52.2695C139.075 52.2695 139.272 51.5954 139.647 50.2474C139.657 50.1947 139.654 50.1405 139.638 50.0889C139.622 50.0373 139.594 49.9897 139.555 49.9496C139.52 49.9049 139.473 49.8688 139.418 49.8443C139.364 49.8197 139.304 49.8074 139.244 49.8085H133.97C133.883 49.8124 133.801 49.8427 133.735 49.8947C133.657 49.9513 133.6 50.029 133.573 50.1168C133.573 50.1168 133.373 50.9214 132.978 52.5307H138.644C138.736 52.5373 138.827 52.5149 138.903 52.4674C138.979 52.4199 139.035 52.35 139.061 52.2695H139.075ZM136.838 59.5401L134.17 55.4567H132.05C132.05 55.475 132.001 55.6475 131.918 55.9792C131.823 56.3537 131.708 56.8004 131.573 57.3195C131.437 57.8385 131.314 58.3131 131.201 58.7433C131.093 59.1691 131.027 59.4304 131.001 59.527H127.573L130.364 49.0091C130.901 47.6262 131.873 46.9347 133.278 46.9347H139.964C140.404 46.9234 140.841 47.006 141.24 47.1761C141.64 47.3461 141.99 47.5989 142.264 47.9144C142.548 48.222 142.749 48.5872 142.848 48.9798C142.947 49.3724 142.943 49.7809 142.835 50.1716L142.689 50.7203C142.587 51.0886 142.475 51.504 142.347 52.0108C142.218 52.5177 142.095 52.9618 141.987 53.385C141.824 53.9824 141.446 54.5124 140.914 54.8892C140.381 55.2661 139.726 55.4678 139.052 55.462H137.815L140.472 59.5453L136.838 59.5401ZM115.125 56.3058L117.047 49.0143C117.598 47.6209 118.583 46.9243 120.002 46.9243H129.481L128.724 49.8137H120.544C120.459 49.8167 120.376 49.8451 120.31 49.8947C120.223 49.9499 120.157 50.0297 120.124 50.122L119.684 51.7835H125.259L124.533 54.6756H118.927L118.519 56.2065C118.508 56.2613 118.51 56.3176 118.526 56.3714C118.542 56.4251 118.571 56.475 118.61 56.5174C118.646 56.5596 118.693 56.5933 118.746 56.616C118.799 56.6387 118.857 56.6497 118.916 56.648H126.916C126.693 57.5189 126.441 58.4768 126.161 59.5218H118.039C117.593 59.5357 117.15 59.4541 116.746 59.2836C116.341 59.113 115.985 58.8582 115.707 58.5395C115.423 58.2365 115.221 57.8758 115.12 57.4872C115.019 57.0987 115.02 56.6937 115.125 56.3058ZM105.279 52.5386C105.453 51.8332 105.593 51.2819 105.688 50.8822C105.816 50.378 105.882 50.1272 105.882 50.1272C105.906 50.0373 105.962 49.9573 106.042 49.8999C106.113 49.8495 106.2 49.8212 106.291 49.8189H111.627C111.688 49.8181 111.747 49.8294 111.802 49.8521C111.857 49.8749 111.906 49.9084 111.945 49.9503C111.984 49.9923 112.012 50.0416 112.028 50.0948C112.044 50.1479 112.047 50.2036 112.036 50.2578L111.465 52.2773C111.438 52.3579 111.382 52.4277 111.306 52.4752C111.231 52.5228 111.139 52.5451 111.048 52.5386H105.279ZM105.565 46.9295C104.136 46.9295 103.151 47.6262 102.608 49.0195C102.545 49.2546 102.373 49.9078 102.088 50.9815C101.802 52.0552 101.479 53.2492 101.131 54.5685C100.782 55.8878 100.471 57.0451 100.202 58.0457C99.9335 59.0463 99.8164 59.5401 99.8164 59.5401H103.271C103.299 59.4478 103.371 59.1865 103.485 58.7563C103.596 58.3253 103.719 57.8472 103.853 57.3169C103.988 56.7865 104.099 56.3842 104.193 56.0106C104.288 55.637 104.339 55.4489 104.348 55.4306L111.49 55.4594C112.166 55.4627 112.824 55.2586 113.358 54.8796C113.892 54.5007 114.272 53.9689 114.436 53.3693C114.545 52.9461 114.667 52.4889 114.799 51.9978C114.93 51.5066 115.047 51.0729 115.145 50.6915C115.242 50.3101 115.296 50.1377 115.296 50.1377C115.404 49.7455 115.406 49.3353 115.303 48.9422C115.199 48.549 114.993 48.1847 114.702 47.8804C114.42 47.563 114.062 47.3093 113.656 47.1394C113.25 46.9694 112.806 46.8878 112.359 46.9008L105.565 46.9295Z" fill="#FFD300"/>
<path fill-rule="evenodd" clip-rule="evenodd" d="M165.085 52.8211H163.671C163.665 52.7994 163.656 52.7784 163.645 52.7584L164.653 51.8466C164.895 52.1287 165.045 52.4674 165.085 52.8237V52.8211ZM160.959 53.2078L162.371 53.2208C162.379 53.2413 162.388 53.2614 162.399 53.2809L161.385 54.1979C161.142 53.9118 160.995 53.5682 160.959 53.2078ZM163.325 52.4501L163.262 52.4266L163.276 51.1204C163.665 51.163 164.033 51.3062 164.336 51.5331L163.325 52.4501ZM163.248 53.6127L163.313 53.5866L164.305 54.5088C163.996 54.7302 163.624 54.8669 163.233 54.9033L163.248 53.6127ZM162.722 53.5814L162.788 53.6075V54.8981C162.398 54.8565 162.03 54.7132 161.728 54.4853L162.722 53.5814ZM162.799 52.4214L162.736 52.4449L161.745 51.5201C162.053 51.2983 162.423 51.1615 162.813 51.1256L162.799 52.4214ZM162.859 53.1607C162.838 53.1412 162.821 53.1179 162.81 53.0924C162.799 53.0668 162.793 53.0394 162.793 53.0118C162.794 52.9839 162.801 52.9564 162.813 52.9308C162.825 52.9053 162.843 52.8822 162.865 52.8629C162.886 52.8435 162.912 52.8281 162.94 52.8178C162.968 52.8075 162.998 52.8024 163.028 52.8028C163.059 52.8032 163.089 52.8095 163.117 52.8212C163.145 52.8329 163.17 52.8498 163.191 52.8708C163.212 52.8896 163.229 52.9124 163.24 52.9376C163.252 52.9628 163.257 52.9898 163.256 53.0171C163.254 53.0737 163.227 53.1273 163.182 53.166C163.16 53.1856 163.134 53.201 163.105 53.211C163.076 53.2211 163.045 53.2256 163.015 53.2244C162.984 53.2232 162.954 53.2162 162.926 53.2039C162.898 53.1916 162.874 53.1742 162.853 53.1529L162.859 53.1607ZM160.959 52.7845C161.005 52.4285 161.161 52.0919 161.411 51.8153L162.388 52.7375C162.377 52.7571 162.367 52.7771 162.359 52.7976L160.959 52.7845ZM165.079 53.2443C165.033 53.6002 164.876 53.9366 164.628 54.2136L163.639 53.2914C163.639 53.2731 163.659 53.2522 163.668 53.2313L165.079 53.2443ZM161.245 51.3581C160.826 51.7339 160.562 52.2309 160.499 52.7644C160.436 53.298 160.577 53.835 160.898 54.2842C161.219 54.7333 161.701 55.0667 162.261 55.2275C162.821 55.3884 163.424 55.3668 163.969 55.1664C164.513 54.966 164.965 54.5992 165.247 54.1285C165.529 53.6578 165.623 53.1123 165.515 52.5849C165.406 52.0575 165.101 51.5809 164.651 51.2362C164.201 50.8915 163.635 50.7001 163.048 50.6945C162.714 50.6906 162.383 50.7473 162.074 50.8612C161.764 50.9751 161.483 51.144 161.245 51.3581Z" fill="#FFD300"/>
<path fill-rule="evenodd" clip-rule="evenodd" d="M170.186 51.18L170.232 46.9608L171.715 47.0261L170.186 51.18ZM167.886 50.5399L167.918 47.7837V47.5564L169.757 47.4023L169.723 50.7307L167.886 50.5399ZM166.015 53.0401C166.009 53.6279 165.797 54.1985 165.411 54.668C165.024 55.1376 164.483 55.4813 163.867 55.6486C163.251 55.8159 162.592 55.798 161.988 55.5974C161.383 55.3969 160.865 55.0244 160.51 54.5346C160.155 54.0449 159.98 53.4638 160.013 52.8767C160.046 52.2897 160.284 51.7278 160.692 51.2736C161.1 50.8194 161.656 50.4969 162.28 50.3536C162.903 50.2102 163.56 50.2536 164.155 50.4772C164.709 50.6861 165.182 51.0418 165.514 51.4985C165.845 51.9552 166.019 52.492 166.015 53.0401ZM168.777 53.2178C168.74 54.1463 168.43 55.0486 167.88 55.8303C167.402 56.5176 166.758 57.0957 165.998 57.5206C165.469 57.8205 164.89 58.0377 164.283 58.1633C163.97 58.2291 163.65 58.2693 163.329 58.2834C162.133 58.3419 160.947 58.0588 159.935 57.4736C159.102 56.9943 158.417 56.328 157.946 55.5383C157.474 54.7485 157.231 53.8615 157.241 52.9617C157.244 52.6989 157.27 52.4368 157.321 52.178C157.453 51.4876 157.745 50.831 158.178 50.2526C158.68 49.5794 159.347 49.0229 160.126 48.6276C161.015 48.1772 162.016 47.945 163.032 47.9536L166.529 47.9849V48.8287H166.992V47.9849H167.452L167.429 50.0958H166.969V49.252H166.506V50.0958L164.283 50.0749C163.891 49.9304 163.472 49.8551 163.049 49.8529C162.228 49.8456 161.43 50.106 160.799 50.5873C160.168 51.0686 159.745 51.7395 159.606 52.4798C159.467 53.2202 159.62 53.9818 160.039 54.6283C160.457 55.2747 161.114 55.7639 161.891 56.0082C162.667 56.2526 163.514 56.2361 164.279 55.9618C165.044 55.6875 165.677 55.1733 166.065 54.5112C166.453 53.849 166.571 53.0822 166.398 52.3479C166.224 51.6136 165.77 50.9597 165.118 50.5034L167.426 50.5243V50.5399C167.425 50.6455 167.467 50.7476 167.544 50.826C167.622 50.9044 167.728 50.9533 167.843 50.9632L168.349 51.0154C168.666 51.7122 168.812 52.4639 168.777 53.2178ZM163.723 59.1403L162.172 59.1247C162.119 59.1242 162.067 59.1067 162.027 59.0752C161.986 59.0437 161.958 59.0002 161.949 58.9522L161.878 58.6152C162.233 58.6754 162.593 58.7068 162.955 58.7093C163.086 58.7093 163.215 58.7093 163.346 58.7093C163.575 58.6965 163.803 58.6721 164.029 58.6361L163.952 58.9758C163.94 59.0227 163.91 59.0645 163.869 59.0944C163.827 59.1243 163.776 59.1405 163.723 59.1403ZM159.072 57.8341C159.028 57.8599 158.976 57.8712 158.924 57.8659C158.872 57.8607 158.823 57.8393 158.786 57.8053L157.704 56.7969C157.667 56.7627 157.645 56.7182 157.64 56.6708C157.634 56.6234 157.647 56.5758 157.675 56.5357L157.886 56.2509C158.297 56.7955 158.807 57.271 159.395 57.6564L159.072 57.8341ZM170.143 46.6003C169.889 46.6003 169.775 46.7257 169.772 46.9582V46.9791L167.889 47.1384C167.773 47.1463 167.664 47.1935 167.584 47.2709C167.505 47.3482 167.459 47.4501 167.458 47.5564V47.5721L163.038 47.5303C162.006 47.527 160.99 47.7529 160.075 48.1887L159.435 47.789C159.303 47.7064 159.143 47.6683 158.984 47.6811C158.825 47.694 158.675 47.757 158.561 47.8595L157.452 48.8549C157.343 48.9571 157.274 49.0899 157.257 49.2319C157.24 49.3739 157.276 49.5171 157.358 49.6386L157.712 50.135C157.121 50.978 156.8 51.9553 156.784 52.9565C156.772 53.971 157.058 54.9697 157.612 55.8486L157.286 56.2875C157.196 56.4083 157.154 56.554 157.168 56.6998C157.183 56.8456 157.251 56.9824 157.364 57.0869L158.449 58.1006C158.561 58.2059 158.71 58.2722 158.869 58.2879C159.029 58.3036 159.19 58.2679 159.323 58.1868L159.809 57.8968C160.301 58.1672 160.832 58.373 161.386 58.5081L161.495 59.0306C161.524 59.1755 161.607 59.3068 161.73 59.4021C161.853 59.4973 162.008 59.5507 162.169 59.5531H163.718C163.877 59.5541 164.033 59.5048 164.158 59.4134C164.283 59.3221 164.369 59.1943 164.403 59.0515L164.523 58.529C167.295 57.9438 169.997 55.0335 168.869 51.0598L169.726 51.1487V51.1669C169.597 51.6659 169.76 51.632 170.297 51.4047C170.669 51.2427 171.917 47.465 172.112 46.9138C172.097 46.6029 170.512 46.6029 170.143 46.5977V46.6003Z" fill="#FFD300"/>
<path fill-rule="evenodd" clip-rule="evenodd" d="M167.862 53.0587C167.862 53.1005 167.848 53.1413 167.822 53.1758C167.796 53.2103 167.759 53.237 167.717 53.2526C167.674 53.2681 167.628 53.2718 167.583 53.2631C167.538 53.2544 167.497 53.2338 167.465 53.2038C167.433 53.1739 167.412 53.1359 167.403 53.0948C167.395 53.0536 167.4 53.0112 167.418 52.9727C167.436 52.9342 167.466 52.9015 167.505 52.8787C167.543 52.8559 167.588 52.844 167.634 52.8445C167.695 52.8458 167.753 52.869 167.796 52.909C167.838 52.9491 167.862 53.0028 167.862 53.0587ZM166.939 53.0587C166.938 53.1837 166.978 53.3063 167.053 53.4108C167.128 53.5153 167.235 53.5972 167.361 53.646C167.487 53.6948 167.626 53.7084 167.76 53.685C167.894 53.6616 168.018 53.6023 168.116 53.5146C168.213 53.4269 168.28 53.3148 168.308 53.1924C168.336 53.0699 168.323 52.9427 168.272 52.8268C168.221 52.7109 168.133 52.6115 168.02 52.5411C167.907 52.4708 167.773 52.4327 167.637 52.4317C167.454 52.4296 167.279 52.4936 167.148 52.6096C167.018 52.7257 166.942 52.8843 166.939 53.0509V53.0587Z" fill="#FFD300"/>
<path fill-rule="evenodd" clip-rule="evenodd" d="M158.169 52.9693C158.175 52.3747 158.312 51.7873 158.572 51.2424L158.147 51.0752C157.8 51.8091 157.656 52.61 157.73 53.4068C157.803 54.2035 158.09 54.9714 158.566 55.6422C159.041 56.3131 159.691 56.866 160.457 57.252C161.223 57.638 162.081 57.845 162.955 57.8547V57.4341C161.671 57.4196 160.445 56.9406 159.546 56.1019C158.647 55.2633 158.148 54.1331 158.158 52.9588" fill="#FFD300"/>
<path d="M204.956 34.3111C204.956 34.3111 205.242 33.3575 205.779 31.4556C205.795 31.381 205.793 31.3039 205.771 31.2304C205.749 31.157 205.709 31.0892 205.653 31.0324C205.603 30.971 205.537 30.9212 205.462 30.8868C205.386 30.8523 205.303 30.8342 205.219 30.8338H197.762C197.64 30.8392 197.524 30.8815 197.431 30.954C197.32 31.0354 197.24 31.1456 197.199 31.2701C197.199 31.2701 196.914 32.4065 196.362 34.6794H204.362C204.492 34.6894 204.622 34.6583 204.73 34.5912C204.838 34.5242 204.918 34.4253 204.956 34.3111ZM201.794 44.5861L198.022 38.815H195.028C195.028 38.8412 194.959 39.0763 194.839 39.5544C194.708 40.0769 194.545 40.7082 194.351 41.4485C194.159 42.1826 193.988 42.854 193.831 43.4601C193.674 44.0662 193.582 44.4293 193.545 44.56H188.717L192.671 29.6974C193.42 27.7432 194.797 26.7661 196.779 26.7661H206.228C206.85 26.75 207.467 26.8667 208.031 27.1071C208.595 27.3475 209.09 27.7048 209.476 28.1508C209.88 28.5841 210.166 29.0993 210.309 29.6535C210.452 30.2077 210.448 30.7852 210.299 31.338L210.093 32.1218C209.95 32.6443 209.793 33.2504 209.61 33.9505C209.428 34.6507 209.253 35.2934 209.102 35.889C208.873 36.7278 208.344 37.4726 207.599 38.0052C206.846 38.5448 205.913 38.8308 204.956 38.815H203.196L206.956 44.5861H201.794ZM185.723 44.5861H181.071C181.2 44.1367 181.408 43.3974 181.694 42.3602C181.98 41.3231 182.291 40.2258 182.611 39.0632C182.931 37.9007 183.211 36.8948 183.446 36.0458C183.68 35.1967 183.788 34.7709 183.788 34.7709C182.991 35.8603 182.074 37.0647 181.083 38.3735C180.091 39.6824 179.188 40.8267 178.429 41.8038C177.669 42.7808 177.286 43.2798 177.286 43.2798C176.609 43.2831 175.952 43.0708 175.428 42.6794C174.904 42.288 174.546 41.7419 174.414 41.135C174.377 40.986 174.286 40.5706 174.129 39.8862C173.971 39.2017 173.843 38.4414 173.66 37.595C173.477 36.7485 173.334 36.0066 173.209 35.3613C173.083 34.716 173.012 34.3973 173.012 34.3973C172.886 34.8675 172.68 35.6382 172.389 36.712C172.097 37.7857 171.797 38.9248 171.472 40.1317C171.146 41.3387 170.869 42.3837 170.634 43.2668C170.4 44.1498 170.283 44.5887 170.283 44.5887H165.643C165.74 44.2404 166.003 43.2589 166.432 41.6444C166.86 40.0299 167.336 38.2351 167.86 36.26C168.384 34.2797 168.846 32.538 169.246 31.035C169.646 29.5275 169.849 28.7751 169.849 28.7751C170.386 27.4323 171.352 26.7661 172.723 26.7661H175.48C175.52 26.9516 175.643 27.5499 175.849 28.5296C176.054 29.5093 176.289 30.6353 176.551 31.871C176.814 33.1067 177.037 34.1961 177.237 35.1392C177.437 36.0823 177.523 36.5552 177.523 36.5552L185.174 26.7661H190.462C190.356 27.1441 190.063 28.2387 189.585 30.0501C189.107 31.8614 188.569 33.8844 187.971 36.1189C187.381 38.3552 186.858 40.3259 186.403 42.031C185.947 43.7361 185.721 44.5878 185.723 44.5861ZM146.035 44.5861L150.009 29.7104C150.769 27.7484 152.101 26.7661 154.023 26.7661H168.197L163.472 44.5861H158.866L160.178 39.6719L162.52 30.8469H154.689C154.573 30.8524 154.462 30.8938 154.375 30.9644C154.26 31.0431 154.178 31.1557 154.143 31.2832L153.001 35.5912H159.926L158.826 39.685H151.918L150.618 44.5861H146.035Z" fill="#FFD300"/>
</svg>
