<svg width="388" height="262" viewBox="0 0 388 262" fill="none" xmlns="http://www.w3.org/2000/svg">
<g opacity="0.2">
<mask id="mask0_159_1832" style="mask-type:alpha" maskUnits="userSpaceOnUse" x="0" y="0" width="388" height="262">
<rect x="387.222" width="261.375" height="387.222" rx="20" transform="rotate(90 387.222 0)" fill="black"/>
</mask>
<g mask="url(#mask0_159_1832)">
<mask id="mask1_159_1832" style="mask-type:alpha" maskUnits="userSpaceOnUse" x="-16" y="-12" width="404" height="274">
<rect x="387.222" y="-11.6168" width="272.992" height="402.711" transform="rotate(90 387.222 -11.6168)" fill="black"/>
</mask>
<g mask="url(#mask1_159_1832)">
<path d="M172.438 23.3869L180.727 -4.25788L134.639 -4.25787L130.328 9.06488L126.681 9.06488L123.034 21.7216L130.991 21.7216L130.991 16.0595L130.991 21.7216L172.438 23.3869ZM166.801 5.40108L169.785 11.3964L166.47 14.061L166.47 18.0578L164.48 18.0578L164.48 15.3933L162.822 12.3957L165.806 9.39802L166.801 5.40108ZM161.496 -2.25953L163.485 -2.25953L161.496 0.405094L163.485 6.06723L160.833 -0.594077L162.822 -2.92569L161.496 -2.25953ZM157.517 12.3957C158.266 14.1042 158.822 15.8918 159.175 17.7248L157.517 20.3893L157.517 21.7216L159.507 18.0578L157.517 12.3957ZM150.223 6.73339L153.207 1.73741L153.207 -1.26023L155.196 2.07042L152.212 6.73339L152.212 11.7295L149.559 13.7278L149.559 18.3909L149.559 13.0618L151.88 13.0618L150.223 6.73339ZM143.26 -0.927218L143.26 1.07125L144.917 8.39872L141.602 1.07125L143.26 -0.927218ZM138.618 11.3964L142.265 17.7248L138.618 21.0554L140.607 16.7255L138.618 11.3964Z" fill="white"/>
<path d="M162.724 45.2065L157.072 34.8739L120.503 34.8739L112.524 34.8739L112.524 47.8731L107.537 47.8731L100.888 36.5404L59.331 34.2072L62.9879 59.8724L65.98 62.2056L70.9669 72.205L113.521 73.8715L113.521 61.2055L118.84 61.2055L124.824 72.205L168.708 72.2049L164.386 47.2064L162.724 45.2065ZM69.9695 51.2062L69.9695 49.2064L69.9695 50.8729L69.9695 51.2062ZM69.9695 47.5397L67.3098 43.8732L67.3098 41.2068L67.3098 38.5402L67.3098 41.2068L67.3098 43.54L69.3046 46.2065L69.9695 47.5397ZM76.951 42.2067L76.951 44.2066L76.951 47.5397L76.951 44.5399L76.951 42.2067ZM78.6133 59.539L78.6133 61.8722L78.6133 65.872L76.2861 62.2056L77.9484 60.2056C77.8878 59.5404 77.8878 58.871 77.9484 58.2057L77.9484 60.2056L78.6133 59.539ZM78.6133 48.5397L78.6133 51.2062L78.6133 48.5397ZM84.5975 48.5397L84.5975 45.8731L84.5975 43.2067L84.5975 40.2069L84.5975 43.2067L86.2597 45.8731L84.5975 48.5397L86.2597 52.8727L84.5975 55.5393L86.2597 58.5391L84.5975 55.2059L86.5922 52.2061L84.5975 48.5397ZM87.5896 68.2052L87.5896 65.5387L87.5896 63.2055L87.5896 67.2052L87.5896 68.2052ZM95.5685 68.2052L95.5685 65.2054L95.5685 63.2055C95.6317 62.6518 95.6317 62.0926 95.5685 61.5389L95.5685 63.8721L97.5632 66.8719L95.5685 68.2052ZM92.5764 44.8732L92.5764 42.2067L92.5764 38.5402L94.5711 38.5402L94.5711 40.5401L94.5711 42.5401L97.2308 48.5397L92.5764 44.8732ZM104.545 51.5395L102.55 56.5392L104.545 59.2057L104.545 61.5389L104.545 59.539L104.545 57.8725L104.545 51.5395ZM104.545 68.8717L104.545 66.2053L102.882 63.5387L104.877 67.2052L104.545 68.8717ZM121.832 45.8731L123.827 48.5397L120.503 51.2062L120.503 49.5396L122.83 46.873L120.503 43.2067L120.503 40.8735L118.175 36.8737L121.832 40.5401L120.17 42.8733L121.832 45.8731ZM131.806 68.8717L129.146 64.2054L129.146 61.2055C128.025 59.6808 126.804 58.2333 125.489 56.8726L127.484 53.5393C127.484 53.5393 127.484 55.5392 127.484 55.8725L127.484 57.8725L130.144 60.5389L130.144 62.2056L130.144 64.872L131.806 68.8717ZM131.806 47.2064L129.811 45.2065L129.811 43.2067L129.811 39.8735L128.149 41.8734L129.811 45.5399L131.806 47.2064ZM140.117 37.207L140.117 38.8736L140.117 41.54L140.117 39.8735L140.117 37.207ZM140.117 52.8727L140.117 56.5392L140.117 54.5394L140.117 52.8727ZM140.117 51.2062L140.117 47.5397L140.117 49.5396L140.117 51.2062ZM140.117 64.2054L138.455 66.8719L138.455 64.5388L136.46 62.5388L138.123 64.5388L138.123 66.8719L140.117 64.2054ZM148.429 67.2052L146.766 64.5388L146.766 68.2052L148.429 67.2052ZM148.429 61.5389L146.434 56.5392L146.434 59.8724L148.429 61.5389ZM148.429 45.2065C148.278 46.8696 148.278 48.5431 148.429 50.2063L145.769 45.5399L147.764 41.8734L145.769 38.8736C145.832 38.3199 145.832 37.7608 145.769 37.207L145.769 38.8736L147.764 41.54C148.178 42.8514 148.511 44.1873 148.761 45.5399L148.429 45.2065ZM158.402 68.8717L158.402 66.2053L158.402 63.8721L158.402 66.2053L158.402 68.8717ZM158.402 53.8727L158.402 55.5393L158.402 59.8724L158.402 57.8725L160.397 55.2059L158.402 53.8727Z" fill="white"/>
<path d="M193.731 22.3475L193.731 16.0915L193.731 22.3475L229.369 22.3475L234.365 22.3475L242.026 -5.45667L234.698 -5.45667L234.698 0.10416L234.698 2.18939L234.698 -3.71893L196.728 -3.71893L192.398 9.48808L188.735 11.5733L186.736 23.3901L193.731 22.3475ZM223.707 -3.71893L225.705 -0.938453L225.705 1.4944L227.704 9.14046L224.373 1.4944L223.707 -3.71893ZM221.375 11.2258L223.707 18.5244L221.709 20.9572L221.709 18.1769L219.71 11.5733L221.375 11.2258ZM212.716 6.36011L216.046 2.88451L213.382 6.7076L213.382 10.5307L211.05 13.6587L211.05 18.5244L212.716 14.0062L215.047 10.1832L212.716 6.36011ZM205.721 -0.590958L205.721 -2.67632L205.721 -0.590958L205.721 7.40272L201.724 -0.590958L205.721 -0.590958ZM205.721 17.4818L203.39 19.567L203.39 17.1341L203.39 10.8782L205.721 17.4818Z" fill="white"/>
<path d="M75.6165 22.3475L75.6165 16.0915L75.6165 22.3475L111.255 22.3475L116.251 22.3475L123.912 -5.45667L116.584 -5.45667L116.584 0.10416L116.584 2.18939L116.584 -3.71893L78.6141 -3.71893L74.2842 9.48808L70.6204 11.5733L68.622 23.3901L75.6165 22.3475ZM105.593 -3.71893L107.591 -0.938453L107.591 1.4944L109.59 9.14046L106.259 1.4944L105.593 -3.71893ZM103.261 11.2258L105.593 18.5244L103.594 20.9572L103.594 18.1769L101.596 11.5733L103.261 11.2258ZM94.6015 6.36011L97.9321 2.88451L95.2676 6.7076L95.2676 10.5307L92.9361 13.6587L92.9361 18.5244L94.6015 14.0062L96.9329 10.1832L94.6015 6.36011ZM87.607 -0.590958L87.607 -2.67632L87.607 -0.590958L87.607 7.40272L83.6101 -0.590958L87.607 -0.590958ZM87.607 17.4818L85.2755 19.567L85.2755 17.1341L85.2755 10.8782L87.607 17.4818Z" fill="white"/>
<path d="M19.4695 22.3475L19.4695 16.0915L19.4695 22.3475L55.108 22.3475L60.1041 22.3475L67.7647 -5.45667L60.4371 -5.45667L60.4371 0.10416L60.4371 2.18939L60.4371 -3.71893L22.4671 -3.71893L18.1372 9.48808L14.4734 11.5733L12.4751 23.3901L19.4695 22.3475ZM49.4459 -3.71893L51.4442 -0.938453L51.4442 1.4944L53.4427 9.14046L50.1119 1.4944L49.4459 -3.71893ZM47.1142 11.2258L49.4459 18.5244L47.4474 20.9572L47.4474 18.1769L45.4489 11.5733L47.1142 11.2258ZM38.4545 6.36011L41.7851 2.88451L39.1206 6.7076L39.1206 10.5307L36.7892 13.6587L36.7892 18.5244L38.4545 14.0062L40.786 10.1832L38.4545 6.36011ZM31.46 -0.590958L31.46 -2.67632L31.46 -0.590958L31.46 7.40272L27.4631 -0.590958L31.46 -0.590958ZM31.46 17.4818L29.1286 19.567L29.1286 17.1341L29.1286 10.8782L31.46 17.4818Z" fill="white"/>
<path d="M175.1 103.267C175.028 102.25 175.028 101.229 175.1 100.213L175.1 104.964L203.515 104.964L203.515 102.588L203.515 98.5158L203.515 95.8008L206.56 95.8008L206.56 100.213L206.56 102.588L212.987 102.588C213.69 98.9212 214.593 95.2957 215.693 91.7283L220.429 89.6921L222.797 77.4746L216.708 77.4746C216.807 78.4903 216.807 79.5133 216.708 80.529L212.987 88.3346L212.987 85.6195L212.987 82.5653L172.394 82.5653L166.305 106.321L172.056 106.321L175.1 103.267ZM208.928 91.3889L208.928 88.3346L208.928 91.3889ZM206.898 86.2983L206.898 88.3346L206.898 85.959L206.898 86.2983ZM195.058 98.1765L197.764 95.8008L197.764 92.7465L197.764 91.0496L197.764 87.6558L199.794 85.6195L199.794 87.6558L199.794 90.7102L197.426 93.0858L197.426 96.4796L195.397 96.4796L195.397 100.213L193.705 96.4796L195.058 98.1765ZM188.631 84.9409L188.631 87.9953L190.661 93.4252L190.661 91.0496L188.631 86.2983L188.631 84.9409ZM188.631 98.8552L188.631 101.57L188.631 98.5158C188.031 97.0111 187.353 95.5385 186.602 94.1039C186.646 95.6949 186.532 97.2866 186.263 98.8552L188.631 98.8552ZM181.866 85.959C181.866 85.959 183.895 85.9589 183.895 83.9227L183.895 86.6377L183.895 90.0314L181.527 92.7465L181.527 95.8008L181.527 98.5158L179.16 92.7465C180.031 91.9175 180.824 91.0084 181.527 90.0314L179.16 85.959L181.866 85.959Z" fill="white"/>
<path d="M175.1 216.25C175.028 215.233 175.028 214.212 175.1 213.196L175.1 217.947L203.515 217.947L203.515 215.571L203.515 211.499L203.515 208.784L206.56 208.784L206.56 213.196L206.56 215.571L212.987 215.571C213.69 211.904 214.593 208.279 215.693 204.711L220.429 202.675L222.797 190.458L216.708 190.458C216.807 191.473 216.807 192.496 216.708 193.512L212.987 201.318L212.987 198.603L212.987 195.548L172.394 195.548L166.305 219.304L172.056 219.304L175.1 216.25ZM208.928 204.372L208.928 201.318L208.928 204.372ZM206.898 199.281L206.898 201.318L206.898 198.942L206.898 199.281ZM195.058 211.159L197.764 208.784L197.764 205.73L197.764 204.033L197.764 200.639L199.794 198.603L199.794 200.639L199.794 203.693L197.426 206.069L197.426 209.463L195.397 209.463L195.397 213.196L193.705 209.463L195.058 211.159ZM188.631 197.924L188.631 200.978L190.661 206.408L190.661 204.033L188.631 199.281L188.631 197.924ZM188.631 211.838L188.631 214.553L188.631 211.499C188.031 209.994 187.353 208.522 186.602 207.087C186.646 208.678 186.532 210.27 186.263 211.838L188.631 211.838ZM181.866 198.942C181.866 198.942 183.895 198.942 183.895 196.906L183.895 199.621L183.895 203.014L181.527 205.73L181.527 208.784L181.527 211.499L179.16 205.73C180.031 204.9 180.824 203.991 181.527 203.014L179.16 198.942L181.866 198.942Z" fill="white"/>
<path d="M206.363 141.182L206.363 138.829L206.363 136.812L203.674 134.795C203.726 133.899 203.726 133.001 203.674 132.106C203.674 132.106 203.674 132.106 203.674 130.089C203.674 128.072 201.656 130.089 201.656 130.089L201.656 128.408L201.656 125.383L201.656 127.4L203.337 127.4L203.337 131.434L205.355 133.786L205.355 137.148L212.415 137.148L212.415 135.467L212.415 132.778L210.398 132.778L210.398 129.753C209.597 128.663 208.696 127.651 207.708 126.728L209.725 126.728L211.743 126.728L211.743 128.408L211.743 130.089L211.743 133.786L216.786 133.786L212.079 108.576L207.708 108.576L206.027 106.559L208.381 101.517L190.225 101.517L190.225 106.223L190.225 108.24L190.225 111.601L190.225 113.618L190.225 115.635L192.243 118.66L192.243 121.686L194.26 124.375L194.26 126.728L194.26 124.039L191.906 121.349L191.906 118.324L189.553 115.635L189.553 112.61L191.906 122.022L191.906 118.996L189.889 116.644L191.906 113.282L174.76 113.282L177.113 121.349L177.113 122.022L175.096 115.299L173.079 109.248L168.708 109.248L173.079 126.055L178.458 129.753L181.82 139.165L189.217 139.165C189.273 138.381 189.273 137.595 189.217 136.812L189.217 134.459L187.199 132.442L187.199 130.425L187.199 127.736L189.553 124.039L189.553 127.4L189.553 130.089L189.553 132.106L191.57 134.123L191.57 136.139L191.57 138.829L206.363 141.182ZM198.631 116.307L198.631 111.601L201.32 111.601L201.32 115.971L201.32 117.652L201.32 114.963L198.631 116.307ZM184.174 123.366L184.174 117.988L182.156 114.627L182.156 116.98L183.837 119.669L184.174 123.366Z" fill="white"/>
<path d="M206.363 254.165L206.363 251.812L206.363 249.795L203.674 247.778C203.726 246.882 203.726 245.984 203.674 245.089C203.674 245.089 203.674 245.089 203.674 243.072C203.674 241.055 201.656 243.072 201.656 243.072L201.656 241.391L201.656 238.366L201.656 240.383L203.337 240.383L203.337 244.417L205.355 246.77L205.355 250.131L212.415 250.131L212.415 248.45L212.415 245.761L210.398 245.761L210.398 242.736C209.597 241.646 208.696 240.634 207.708 239.711L209.725 239.711L211.743 239.711L211.743 241.391L211.743 243.072L211.743 246.77L216.786 246.77L212.079 221.559L207.708 221.559L206.027 219.542L208.381 214.5L190.225 214.5L190.225 219.206L190.225 221.223L190.225 224.584L190.225 226.601L190.225 228.618L192.243 231.643L192.243 234.669L194.26 237.358L194.26 239.711L194.26 237.022L191.906 234.332L191.906 231.307L189.553 228.618L189.553 225.593L191.906 235.005L191.906 231.979L189.889 229.627L191.906 226.265L174.76 226.265L177.113 234.332L177.113 235.005L175.096 228.282L173.079 222.231L168.708 222.231L173.079 239.038L178.458 242.736L181.82 252.148L189.217 252.148C189.273 251.364 189.273 250.578 189.217 249.795L189.217 247.442L187.199 245.425L187.199 243.408L187.199 240.719L189.553 237.022L189.553 240.383L189.553 243.072L189.553 245.089L191.57 247.106L191.57 249.122L191.57 251.812L206.363 254.165ZM198.631 229.29L198.631 224.584L201.32 224.584L201.32 228.954L201.32 230.635L201.32 227.946L198.631 229.29ZM184.174 236.349L184.174 230.971L182.156 227.61L182.156 229.963L183.837 232.652L184.174 236.349Z" fill="white"/>
<path d="M405.663 23.3869L413.905 -4.25794L368.08 -4.25794L363.794 9.06482L360.168 9.06482L356.212 22.0546L364.124 22.0546L364.124 16.3924C364.124 16.3924 364.124 20.0561 364.124 22.0546L405.663 23.3869ZM400.059 5.40102L403.026 11.3963L399.729 14.0609L401.378 18.0577L399.4 18.0577L399.4 15.3932L397.751 12.3956L400.718 9.39796L400.059 5.40102ZM394.455 -2.25959L396.762 -2.25959L394.455 0.405033L396.762 6.06717L394.125 -0.594138L396.103 -2.92575L394.455 -2.25959ZM390.828 12.3956L390.828 17.7247L390.828 20.3892L390.828 21.7215L392.806 18.0577L390.828 12.3956ZM383.575 6.73333L386.542 1.73735L386.542 -1.26029L388.85 2.07036L385.883 6.73333L385.883 11.7294L383.245 13.7278L383.245 18.3909L383.245 13.0618L385.553 13.0618L383.575 6.73333ZM376.652 -0.927279L376.652 1.07119L376.652 8.39866L373.355 1.07119L376.652 -0.927279ZM372.036 11.3963L375.333 17.7247L372.036 21.0554L373.685 16.7254L372.036 11.3963Z" fill="white"/>
<path d="M351.795 22.3475L359.818 -5.45667L352.129 -5.45667L352.129 0.10416L352.129 2.18939L352.129 -3.71893L313.02 -3.71893L309.009 9.48808L305.332 11.5733L303.326 23.3901L310.346 23.3901L310.346 17.1341L313.02 22.3475L351.795 22.3475ZM339.427 -4.41405L341.767 -1.63357L341.767 0.799281L344.107 8.44534L340.43 0.799281C340.277 -0.744087 339.94 -2.26176 339.427 -3.71893L339.427 -4.41405ZM337.087 10.5307L339.427 17.8293L339.427 20.2621L339.427 17.4818L337.087 10.8782L337.087 10.5307ZM328.062 5.66499L331.071 2.18939L331.071 -0.590959L331.071 2.53702L328.396 6.36011L328.396 10.1832L326.056 13.3112L326.056 18.1769L323.717 13.3112L326.391 9.48808L328.062 5.66499ZM321.042 -1.28608L321.042 -3.37144L321.042 -1.28608L323.048 6.7076L319.037 -1.28608L321.042 -1.28608ZM321.042 16.7866L319.037 18.872L319.037 16.4392L319.037 10.1832C319.532 12.5892 319.867 15.0278 320.04 17.4818L321.042 16.7866Z" fill="white"/>
<path d="M396.681 45.2065L391.287 34.8739L353.866 34.8739L346.449 34.8739L346.449 47.8731L341.055 47.8731L334.649 36.5404L292.508 34.2072L296.216 59.8724L299.25 62.2056L304.307 72.205L347.123 73.8715L347.123 61.2055L352.18 61.2055L358.586 72.205L403.087 72.2049L398.704 47.2064L396.681 45.2065ZM302.959 51.2062L302.959 49.2064L302.959 50.8729L302.959 51.2062ZM302.959 47.5397L300.262 43.8732L300.262 41.2068L300.262 38.5402L301.947 41.2068L301.947 43.54L301.947 46.2065L302.959 47.5397ZM310.039 42.2067L310.039 44.2066L310.039 47.5397L308.016 44.5399L310.039 42.2067ZM310.039 59.539L310.039 61.8722L310.039 65.872L307.679 62.2056L307.679 60.2056L307.679 58.2057L309.364 60.2056L310.039 59.539ZM310.039 48.5397L310.039 51.2062L310.039 48.5397ZM315.77 48.5397L315.77 45.8731L315.77 43.2067L315.77 40.2069L315.77 43.2067L315.77 45.8731L313.747 48.5397L315.77 52.8727L315.77 55.5393L315.77 58.5391L313.747 55.2059L316.107 52.2061L315.77 48.5397ZM319.141 68.2052L319.141 65.5387L319.141 63.2055L319.141 67.2052L319.141 68.2052ZM327.232 68.2052L327.232 65.2054L325.547 63.2055C325.611 62.6518 325.611 62.0926 325.547 61.5389L325.547 63.8721L327.232 66.8719L327.232 68.2052ZM323.861 44.8732L325.547 42.2067L323.861 38.5402L326.221 38.5402L326.221 40.5401L326.221 42.5401L328.918 48.5397L323.861 44.8732ZM335.998 51.5395L334.312 56.5392L335.998 59.2057L335.998 61.5389L335.998 59.539L335.998 57.8725L335.998 51.5395ZM335.998 68.8717L335.998 66.2053L333.975 63.5387L335.998 67.2052L335.998 68.8717ZM353.529 45.8731L355.888 48.5397L352.854 51.2062L352.854 49.5396L354.877 46.873L352.854 43.2067L352.854 40.8735L350.832 36.8737L354.54 40.5401L352.517 42.8733L353.529 45.8731ZM363.98 68.8717L361.283 64.2054L361.283 61.2055C360.266 59.6824 359.14 58.2343 357.911 56.8726L359.934 53.5393C359.934 53.5393 359.934 55.5392 359.934 55.8725C359.934 56.2058 359.934 57.8725 359.934 57.8725L362.631 60.5389L362.631 62.2056L362.631 64.872L363.98 68.8717ZM362.294 47.2064L360.271 45.2065L360.271 43.2067L360.271 39.8735L360.271 41.8734L362.294 45.5399L362.294 47.2064ZM370.722 37.207L370.722 38.8736L372.408 38.8736L372.408 40.5401L370.722 38.8736L370.722 37.207ZM370.722 52.8727L370.722 56.5392L370.722 54.5394L370.722 52.8727ZM370.722 51.2062L370.722 47.5397L370.722 51.5395L370.722 51.2062ZM370.722 64.2054L368.7 66.8719L368.7 64.5388L368.7 62.5388L370.722 64.5388L370.722 66.8719L370.722 64.2054ZM379.151 67.2052L380.162 64.872L380.162 68.5385L379.151 67.2052ZM379.151 61.5389C379.151 61.5389 377.128 56.8725 376.791 56.5392L376.791 59.8724L379.151 61.5389ZM379.151 45.2065C378.998 46.8696 378.998 48.5431 379.151 50.2063L380.162 45.8731L382.522 42.2067L380.162 39.2068C380.226 38.6531 380.226 38.094 380.162 37.5403L380.162 39.2068L382.522 41.8734C382.703 43.0885 382.815 44.3125 382.859 45.5399L379.151 45.2065ZM389.264 68.8717L389.264 66.2053L387.242 63.8721L387.242 66.2053L389.264 68.8717ZM389.264 53.8727L389.264 55.5393L389.264 59.8724L387.242 57.8725L389.264 55.2059L389.264 53.8727Z" fill="white"/>
<path d="M396.681 161.797L391.287 151.464L353.866 151.464L346.449 151.464L346.449 164.464L341.055 164.464L334.649 153.131L292.508 150.798L296.216 176.463L299.25 178.796L304.307 188.796L347.123 190.462L347.123 177.796L352.18 177.796L358.586 188.796L403.087 188.796L398.704 163.797L396.681 161.797ZM302.959 167.797L302.959 165.797L302.959 167.463L302.959 167.797ZM302.959 164.13L300.262 160.464L300.262 157.797L300.262 155.131L301.947 157.797L301.947 160.131L301.947 162.797L302.959 164.13ZM310.039 158.797L310.039 160.797L310.039 164.13L308.016 161.13L310.039 158.797ZM310.039 176.13L310.039 178.463L310.039 182.463L307.679 178.796L307.679 176.796L307.679 174.796L309.364 176.796L310.039 176.13ZM310.039 165.13L310.039 167.797L310.039 165.13ZM315.77 165.13L315.77 162.464L315.77 159.797L315.77 156.797L315.77 159.797L315.77 162.464L313.747 165.13L315.77 169.463L315.77 172.13L315.77 175.13L313.747 171.796L316.107 168.797L315.77 165.13ZM319.141 184.796L319.141 182.129L319.141 179.796L319.141 183.796L319.141 184.796ZM327.232 184.796L327.232 181.796L325.547 179.796C325.611 179.242 325.611 178.683 325.547 178.13L325.547 180.463L327.232 183.463L327.232 184.796ZM323.861 161.464L325.547 158.797L323.861 155.131L326.221 155.131L326.221 157.131L326.221 159.131L328.918 165.13L323.861 161.464ZM335.998 168.13L334.312 173.13L335.998 175.796L335.998 178.13L335.998 176.13L335.998 174.463L335.998 168.13ZM335.998 185.462L335.998 182.796L333.975 180.129L335.998 183.796L335.998 185.462ZM353.529 162.464L355.888 165.13L352.854 167.797L352.854 166.13L354.877 163.464L352.854 159.797L352.854 157.464L350.832 153.464L354.54 157.131L352.517 159.464L353.529 162.464ZM363.98 185.462L361.283 180.796L361.283 177.796C360.266 176.273 359.14 174.825 357.911 173.463L359.934 170.13C359.934 170.13 359.934 172.13 359.934 172.463C359.934 172.796 359.934 174.463 359.934 174.463L362.631 177.129L362.631 178.796L362.631 181.463L363.98 185.462ZM362.294 163.797L360.271 161.797L360.271 159.797L360.271 156.464L360.271 158.464L362.294 162.13L362.294 163.797ZM370.722 153.798L370.722 155.464L372.408 155.464L372.408 157.131L370.722 155.464L370.722 153.798ZM370.722 169.463L370.722 173.13L370.722 171.13L370.722 169.463ZM370.722 167.797L370.722 164.13L370.722 168.13L370.722 167.797ZM370.722 180.796L368.7 183.463L368.7 181.129L368.7 179.129L370.722 181.129L370.722 183.463L370.722 180.796ZM379.151 183.796L380.162 181.463L380.162 185.129L379.151 183.796ZM379.151 178.13C379.151 178.13 377.128 173.463 376.791 173.13L376.791 176.463L379.151 178.13ZM379.151 161.797C378.998 163.46 378.998 165.134 379.151 166.797L380.162 162.464L382.522 158.797L380.162 155.797C380.226 155.244 380.226 154.685 380.162 154.131L380.162 155.797L382.522 158.464C382.703 159.679 382.815 160.903 382.859 162.13L379.151 161.797ZM389.264 185.462L389.264 182.796L387.242 180.463L387.242 182.796L389.264 185.462ZM389.264 170.463L389.264 172.13L389.264 176.463L387.242 174.463L389.264 171.796L389.264 170.463Z" fill="white"/>
<path d="M382.377 84.7464L343.268 84.7464L334.577 108.727L341.931 108.727L341.931 106.729L341.931 103.731L341.931 108.727L370.343 108.727L370.343 106.063L370.343 102.066L370.343 99.7345L373.018 99.7345L373.018 104.064L373.018 106.063L380.037 106.063L384.383 93.0731L387.057 93.0731L391.068 81.0826L383.046 81.0826L383.046 84.0802C381.898 85.6548 380.892 87.3266 380.037 89.0763L380.037 86.4117L382.377 84.7464ZM353.63 105.064L353.63 102.066C353.045 100.526 352.258 99.0701 351.29 97.736L353.964 100.401C354.061 101.398 354.061 102.401 353.964 103.398L353.63 105.064ZM356.638 95.0716L356.638 92.4069L353.964 89.0763L355.97 89.0763L353.964 91.7409L356.304 97.07L356.638 95.0716ZM365.998 91.7409L363.658 94.4054L363.658 97.403L361.652 97.403L361.652 101.067L359.981 97.403L362.321 95.0716L362.321 92.0739L362.321 90.4086L362.321 87.411L362.321 85.0795L362.321 87.411L365.998 91.7409ZM375.692 94.7384L375.692 91.7409L375.692 95.4046L375.692 94.7384ZM375.692 88.7433L375.692 86.4117L375.692 88.7433Z" fill="white"/>
<path d="M382.377 201.336L343.267 201.336L334.576 225.317L341.93 225.317L341.93 223.319L341.93 220.321L341.93 225.317L370.343 225.317L370.343 222.653L370.343 218.656L370.343 216.325L373.017 216.325L373.017 220.655L373.017 222.653L380.037 222.653L384.382 209.663L387.056 209.663L391.068 197.673L383.045 197.673L383.045 200.67C381.898 202.245 380.891 203.917 380.037 205.666L380.037 203.002L382.377 201.336ZM353.629 221.654L353.629 218.656C353.045 217.116 352.258 215.66 351.29 214.326L353.964 216.991C354.06 217.988 354.06 218.991 353.964 219.988L353.629 221.654ZM356.638 211.662L356.638 208.997L353.964 205.666L355.969 205.666L353.964 208.331L356.304 213.66L356.638 211.662ZM365.998 208.331L363.658 210.995L363.658 213.993L361.652 213.993L361.652 217.657L359.981 213.993L362.321 211.662L362.321 208.664L362.321 206.999L362.321 204.001L362.321 201.67L362.321 204.001L365.998 208.331ZM375.691 211.328L375.691 208.331L375.691 211.995L375.691 211.328ZM375.691 205.333L375.691 203.002L375.691 205.333Z" fill="white"/>
<path d="M357.721 141.742C357.721 141.742 357.721 139.373 357.721 139.035C357.721 138.697 357.721 136.328 357.721 136.328L355.721 134.298L355.721 132.269L355.721 129.9L352.387 126.179L356.721 129.562L356.721 132.269L358.721 134.298L358.721 136.667L358.721 139.373L358.721 141.403L374.724 141.403L374.724 138.358L374.724 135.99L372.057 133.96L372.057 131.592L372.057 129.562L370.056 129.562L370.056 127.532L370.056 124.487L370.056 126.855L370.056 131.253L372.057 133.622L372.057 137.682L379.391 137.682L379.391 135.652L379.391 132.607L377.724 132.607L377.724 129.562L377.724 127.87L375.057 124.487L377.057 124.487L379.058 124.487L379.058 126.179L377.391 126.179L377.391 128.209L377.391 131.93L385.059 131.93L378.058 100.466L372.723 103.172L364.055 103.172L364.055 105.879L364.055 107.909L364.055 104.864L361.722 102.834L361.722 99.1125L355.721 99.1125L355.721 101.481L357.388 103.172L357.388 106.894L357.388 110.954L359.388 113.66L359.388 116.705L361.388 119.412L361.388 122.119L361.388 119.074L359.055 116.705L359.055 113.322L357.054 110.616L357.054 106.894L359.388 121.78L359.388 118.735L357.054 116.029L343.052 116.029L345.052 118.059L345.052 122.119L345.052 118.397L345.052 115.352L339.385 115.352L343.385 130.577L348.053 134.298L352.053 143.095L360.055 144.787L357.721 141.742Z" fill="white"/>
<path d="M357.721 258.332C357.721 258.332 357.721 255.963 357.721 255.625C357.721 255.287 357.721 252.919 357.721 252.919L355.721 250.889L355.721 248.859L355.721 246.49L352.387 242.769L356.721 246.152L356.721 248.859L358.721 250.889L358.721 253.257L358.721 255.964L358.721 257.994L374.724 257.994L374.724 254.949L374.724 252.58L372.057 250.55L372.057 248.182L372.057 246.152L370.056 246.152L370.056 244.122L370.056 241.077L370.056 243.445L370.056 247.844L372.057 250.212L372.057 254.272L379.391 254.272L379.391 252.242L379.391 249.197L377.724 249.197L377.724 246.152L377.724 244.46L375.057 241.077L377.057 241.077L379.058 241.077L379.058 242.769L377.391 242.769L377.391 244.799L377.391 248.52L385.059 248.52L378.058 217.056L372.723 219.763L364.055 219.763L364.055 222.469L364.055 224.499L364.055 221.454L361.722 219.424L361.722 215.703L355.721 215.703L355.721 218.071L357.388 219.763L357.388 223.484L357.388 227.544L359.388 230.251L359.388 233.296L361.388 236.002L361.388 238.709L361.388 235.664L359.055 233.296L359.055 229.912L357.054 227.206L357.054 223.484L359.388 238.371L359.388 235.326L357.054 232.619L343.052 232.619L345.052 234.649L345.052 238.709L345.052 234.987L345.052 231.942L339.385 231.942L343.385 247.167L348.053 250.889L352.053 259.685L360.055 261.377L357.721 258.332Z" fill="white"/>
<path d="M290.834 103.413L290.834 100.342L290.834 105.12L318.51 105.12L318.51 102.731L318.51 98.6352L318.51 95.9049L321.177 95.9049L321.177 100.342L321.177 102.731L328.179 102.731L330.847 91.8093L335.515 89.7616L338.183 77.475L332.181 77.475L332.181 80.5467C332.043 81.7941 332.043 83.0535 332.181 84.3009L332.181 81.5705L332.181 78.4989L292.501 78.4989L286.499 102.389L292.167 102.389L290.834 103.413ZM324.178 91.4681L324.178 88.3964L324.178 91.4681ZM322.177 86.3486L322.177 88.3964L322.177 86.0074L322.177 86.3486ZM310.507 98.2939L313.174 95.9049L313.174 92.8333L313.174 91.1268L313.174 87.7138L313.174 85.666L312.508 88.3964L310.507 90.7855L310.507 94.1983L308.84 94.1983L306.839 94.1983L306.839 97.9526L305.172 94.1983L310.507 98.2939ZM304.171 84.9835L304.171 88.0552L306.172 93.5159L306.172 91.1268L306.172 86.3486L304.171 84.9835ZM304.171 98.9766L304.171 101.707L304.171 98.6352C303.579 97.1221 302.912 95.6411 302.171 94.1983L304.171 98.9766ZM297.503 86.0074C297.503 86.0074 299.503 86.0073 299.503 83.9596L299.503 86.69L299.503 90.1029L297.169 92.8333L297.169 95.9049L297.169 98.6352L294.502 92.8333L296.836 90.1029L297.503 86.0074Z" fill="white"/>
<path d="M290.834 220.003L290.834 216.932L290.834 221.71L318.51 221.71L318.51 219.321L318.51 215.225L318.51 212.495L321.177 212.495L321.177 216.932L321.177 219.321L328.179 219.321L330.847 208.399L335.515 206.352L338.183 194.065L332.181 194.065L332.181 197.137C332.043 198.384 332.043 199.644 332.181 200.891L332.181 198.161L332.181 195.089L292.501 195.089L286.499 218.98L292.167 218.98L290.834 220.003ZM324.178 208.058L324.178 204.987L324.178 208.058ZM322.177 202.939L322.177 204.987L322.177 202.598L322.177 202.939ZM310.507 214.884L313.174 212.495L313.174 209.423L313.174 207.717L313.174 204.304L313.174 202.256L312.508 204.987L310.507 207.376L310.507 210.788L308.84 210.788L306.839 210.788L306.839 214.543L305.172 210.788L310.507 214.884ZM304.171 201.574L304.171 204.645L306.172 210.106L306.172 207.717L306.172 202.939L304.171 201.574ZM304.171 215.567L304.171 218.297L304.171 215.225C303.579 213.712 302.912 212.231 302.171 210.788L304.171 215.567ZM297.503 202.598C297.503 202.598 299.503 202.597 299.503 200.55L299.503 203.28L299.503 206.693L297.169 209.423L297.169 212.495L297.169 215.225L294.502 209.423L296.836 206.693L297.503 202.598Z" fill="white"/>
<path d="M322.799 140.847L322.799 138.497L322.799 136.483L320.144 134.469C320.195 133.575 320.195 132.678 320.144 131.784C320.144 131.784 320.144 131.784 320.144 129.77L318.153 129.77L318.153 128.091L318.153 125.07L318.153 127.084L319.812 127.084L319.812 131.112L321.803 133.462L321.803 136.819L328.773 136.819L327.113 136.819L327.113 135.141L325.454 135.141L325.454 132.119L323.131 129.098L325.122 129.098L326.781 129.098L326.781 130.777L324.79 130.777L324.79 132.455L324.79 136.148L329.768 136.148L324.79 110.972L320.808 110.972L319.148 108.958L321.14 103.922L303.55 103.922L303.55 108.622L305.209 110.636L305.209 113.993L305.209 116.007L305.209 118.021L307.201 121.042L307.201 124.063L309.192 126.749L309.192 129.098L309.192 126.413L313.174 133.126L313.174 130.105L310.851 127.42L310.851 123.392L308.528 121.713L308.528 117.685L306.205 115.336L308.196 111.979L291.27 111.979L293.593 120.035L293.593 124.063L291.602 117.35L289.611 111.307L285.296 111.307L289.611 128.091L294.921 131.784L297.908 141.183L305.209 141.183C305.406 140.412 305.406 139.604 305.209 138.833L305.209 136.483L302.886 134.469L302.886 132.455L302.886 129.77L304.877 126.077L304.877 129.434L304.877 132.119L304.877 134.133L306.869 136.148L306.869 138.162L306.869 140.847L322.799 140.847ZM315.166 116.007L315.166 111.307L317.821 111.307L317.821 115.671L317.821 117.35L317.821 118.357L315.166 116.007ZM300.895 123.056L300.895 117.685L298.903 114.328L298.903 116.678L300.563 119.364L300.895 123.056Z" fill="white"/>
<path d="M322.799 257.434L322.799 255.084L322.799 253.07L320.144 251.056C320.195 250.161 320.195 249.265 320.144 248.37C320.144 248.37 320.144 248.37 320.144 246.356L318.153 246.356L318.153 244.678L318.153 241.657L318.153 243.671L319.812 243.671L319.812 247.699L321.803 250.049L321.803 253.405L328.773 253.405L327.113 253.405L327.113 251.727L325.454 251.727L325.454 248.706L323.131 245.685L325.122 245.685L326.781 245.685L326.781 247.363L324.79 247.363L324.79 249.042L324.79 252.734L329.768 252.734L324.79 227.558L320.808 227.558L319.148 225.544L321.14 220.509L303.55 220.509L303.55 225.208L305.209 227.222L305.209 230.579L305.209 232.593L305.209 234.607L307.201 237.629L307.201 240.65L309.192 243.335L309.192 245.685L309.192 242.999L313.174 249.713L313.174 246.692L310.851 244.006L310.851 239.978L308.528 238.3L308.528 234.272L306.205 231.922L308.196 228.565L291.27 228.565L293.593 236.622L293.593 240.65L291.602 233.936L289.611 227.894L285.296 227.894L289.611 244.678L294.921 248.37L297.908 257.769L305.209 257.769C305.406 256.999 305.406 256.19 305.209 255.419L305.209 253.07L302.886 251.056L302.886 249.042L302.886 246.356L304.877 242.664L304.877 246.021L304.877 248.706L304.877 250.72L306.869 252.734L306.869 254.748L306.869 257.434L322.799 257.434ZM315.166 232.593L315.166 227.894L317.821 227.894L317.821 232.258L317.821 233.936L317.821 234.943L315.166 232.593ZM300.895 239.643L300.895 234.272L298.903 230.915L298.903 233.265L300.563 235.95L300.895 239.643Z" fill="white"/>
<path d="M298.519 -4.25794L251.471 -4.25794L247.071 9.13083L243.347 9.13083L239.624 22.1849L247.748 22.1849L247.748 16.4947L247.748 22.1849L289.042 22.1849L298.519 -4.25794ZM255.533 21.8503L257.563 17.4989L255.533 12.1433L259.256 18.5031L255.533 21.8503ZM258.24 1.76705L260.271 -0.24132L260.271 1.76705L260.271 9.13083L258.24 1.76705ZM269.41 12.4781L266.702 14.4864L266.702 19.1724L265.01 13.8169L267.379 13.8169L267.379 8.79616L270.426 3.7753L270.426 0.762801L272.457 4.11009L269.41 8.79616L269.41 12.4781ZM275.841 20.5113L275.841 21.8503L277.872 18.1683L275.841 13.8169C276.034 15.597 276.034 17.3924 275.841 19.1724L275.841 20.5113ZM280.919 8.1267L278.211 1.43226L280.242 -0.910778L282.272 -0.910779L279.565 1.76705L280.919 8.1267ZM285.657 18.8378L283.626 18.8378L283.626 16.1601L283.626 13.1476L286.673 10.1351L286.673 4.44475L289.719 10.4697L286.334 13.1476L285.657 18.8378Z" fill="white"/>
<path d="M236.354 60.467L242.372 71.4663L286.498 71.4663L282.152 46.4679L276.47 36.1352L239.697 36.1352L232.677 36.1352L232.677 49.1343L227.663 49.1343L220.977 37.8017L179.525 31.8021L183.202 57.4672L186.211 59.8003L191.225 69.7997L233.011 71.4663L233.011 61.8002L233.011 58.8004L236.354 60.467ZM274.464 57.1339L276.47 54.4673L276.47 56.1339L276.47 60.467L276.47 58.467L274.464 57.1339ZM274.464 63.4668L274.464 65.8L274.464 68.1331L274.464 65.4667L274.464 63.1335L274.464 63.4668ZM264.435 39.4682L264.435 37.8017L264.435 39.4682L266.441 42.1348C266.508 43.356 266.508 44.58 266.441 45.8013C266.289 47.4644 266.289 49.1377 266.441 50.8009L263.766 46.1345L265.772 42.4681L264.435 39.4682ZM264.435 57.1339L264.435 60.467L264.435 62.1335L262.429 57.1339L264.435 57.1339ZM264.435 64.1334L264.435 67.7999L264.435 65.1333L264.435 64.1334ZM256.412 64.1334L254.406 66.7999L254.406 64.4667L252.4 62.4669L254.406 64.4667L256.078 66.7999L256.412 64.1334ZM256.412 52.8008L256.412 56.4673L256.412 54.4673L256.412 52.8008ZM256.412 47.4678L256.412 49.4677L256.412 51.4675L256.412 47.4678ZM256.412 37.1351L256.412 38.8016L258.083 38.8016L258.083 41.4682L256.412 39.8016L256.412 37.1351ZM246.717 37.1351L246.717 39.135L248.723 42.8014L246.383 39.8016L246.383 45.8013L246.383 43.8013L246.717 37.1351ZM246.717 53.8007L248.723 50.4676C248.723 50.4676 248.723 52.4675 248.723 52.8008L248.723 54.8007L251.398 57.4671L251.398 59.1337L251.398 61.8002L251.398 66.4666L248.723 61.8002L248.723 58.8004C248.007 57.5391 247.226 56.3154 246.383 55.134L246.717 53.8007ZM238.695 49.801L241.035 47.1344L238.695 43.4681L238.695 41.1349L236.354 37.1351L240.032 40.8015L240.032 43.1347L242.037 45.8013L238.695 48.4677L238.695 49.801ZM187.214 49.801L187.214 47.8011L187.214 49.4677L187.214 49.801ZM187.214 46.1345L184.539 42.4681L184.539 39.8016L184.539 37.1351L186.211 39.8016L184.539 42.1348L186.545 44.8012L187.214 46.1345ZM194.234 40.8015L194.234 42.8014L194.234 46.1345L192.562 43.1347L194.234 40.8015ZM194.234 58.1338L194.234 60.467L194.234 64.4667L191.894 60.8002L191.894 58.8004C191.833 58.1352 191.833 57.4658 191.894 56.8005L191.894 58.8004L194.234 58.1338ZM194.234 47.1344L194.234 49.801L194.234 47.1344ZM200.251 47.1344L200.251 44.468L200.251 41.8014L200.251 38.8016L200.251 41.8014L200.251 44.468L200.251 47.1344L200.251 51.4675L200.251 54.1341L200.251 57.1339L200.251 53.8007L202.257 50.8009L200.251 47.1344ZM203.26 66.7999L203.26 64.1334L201.588 61.8002L201.588 65.8L203.26 66.7999ZM211.283 66.7999L211.283 63.8L212.954 63.8C213.018 63.2463 213.018 62.6872 212.954 62.1335L212.954 64.4667L214.96 67.4665L211.283 66.7999ZM208.274 43.4681L208.274 40.8015L208.274 37.1351L210.28 37.1351L210.28 39.135L210.28 41.1349L212.954 47.1344L208.274 43.4681ZM220.308 50.1342L218.303 55.134L220.308 57.8005L220.308 60.1337L220.308 58.1338L220.308 56.4673L220.308 50.1342ZM220.309 67.4665L220.309 64.8001L220.309 62.1335L222.314 65.8L220.309 67.4665Z" fill="white"/>
<path d="M236.354 173.45L242.372 184.449L286.498 184.449L282.152 159.451L276.47 149.118L239.697 149.118L232.677 149.118L232.677 162.117L227.663 162.117L220.977 150.785L179.525 144.785L183.202 170.45L186.211 172.783L191.225 182.783L233.011 184.449L233.011 174.783L233.011 171.783L236.354 173.45ZM274.464 170.117L276.47 167.45L276.47 169.117L276.47 173.45L276.47 171.45L274.464 170.117ZM274.464 176.45L274.464 178.783L274.464 181.116L274.464 178.45L274.464 176.117L274.464 176.45ZM264.435 152.451L264.435 150.785L264.435 152.451L266.441 155.118C266.508 156.339 266.508 157.563 266.441 158.784C266.289 160.447 266.289 162.121 266.441 163.784L263.766 159.118L265.772 155.451L264.435 152.451ZM264.435 170.117L264.435 173.45L264.435 175.117L262.429 170.117L264.435 170.117ZM264.435 177.116L264.435 180.783L264.435 178.116L264.435 177.116ZM256.412 177.116L254.406 179.783L254.406 177.45L252.4 175.45L254.406 177.45L256.078 179.783L256.412 177.116ZM256.412 165.784L256.412 169.45L256.412 167.45L256.412 165.784ZM256.412 160.451L256.412 162.451L256.412 164.451L256.412 160.451ZM256.412 150.118L256.412 151.785L258.083 151.785L258.083 154.451L256.412 152.785L256.412 150.118ZM246.717 150.118L246.717 152.118L248.723 155.784L246.383 152.785L246.383 158.784L246.383 156.784L246.717 150.118ZM246.717 166.784L248.723 163.451C248.723 163.451 248.723 165.451 248.723 165.784L248.723 167.784L251.398 170.45L251.398 172.117L251.398 174.783L251.398 179.45L248.723 174.783L248.723 171.783C248.007 170.522 247.226 169.298 246.383 168.117L246.717 166.784ZM238.695 162.784L241.035 160.117L238.695 156.451L238.695 154.118L236.354 150.118L240.032 153.785L240.032 156.118L242.037 158.784L238.695 161.451L238.695 162.784ZM187.214 162.784L187.214 160.784L187.214 162.451L187.214 162.784ZM187.214 159.118L184.539 155.451L184.539 152.785L184.539 150.118L186.211 152.785L184.539 155.118L186.545 157.784L187.214 159.118ZM194.234 153.785L194.234 155.784L194.234 159.118L192.562 156.118L194.234 153.785ZM194.234 171.117L194.234 173.45L194.234 177.45L191.894 173.783L191.894 171.783C191.833 171.118 191.833 170.449 191.894 169.784L191.894 171.783L194.234 171.117ZM194.234 160.117L194.234 162.784L194.234 160.117ZM200.251 160.117L200.251 157.451L200.251 154.784L200.251 151.785L200.251 154.784L200.251 157.451L200.251 160.117L200.251 164.451L200.251 167.117L200.251 170.117L200.251 166.784L202.257 163.784L200.251 160.117ZM203.26 179.783L203.26 177.116L201.588 174.783L201.588 178.783L203.26 179.783ZM211.283 179.783L211.283 176.783L212.954 176.783C213.018 176.229 213.018 175.67 212.954 175.117L212.954 177.45L214.96 180.45L211.283 179.783ZM208.274 156.451L208.274 153.785L208.274 150.118L210.28 150.118L210.28 152.118L210.28 154.118L212.954 160.117L208.274 156.451ZM220.308 163.117L218.303 168.117L220.308 170.784L220.308 173.117L220.308 171.117L220.308 169.45L220.308 163.117ZM220.309 180.45L220.309 177.783L220.309 175.117L222.314 178.783L220.309 180.45Z" fill="white"/>
<path d="M266.82 85.9486C266.73 87.1682 266.73 88.3927 266.82 89.6124L266.82 88.6132L266.82 85.9486L231.264 85.9486L227.91 85.9486L219.189 109.93L226.233 109.93L226.233 107.931L226.233 104.934L226.233 109.93L229.923 109.93L254.744 109.93L254.744 107.265L254.744 103.268L254.744 100.937L257.428 100.937L257.428 105.267L257.428 107.265L265.813 107.265L270.174 94.2753L272.857 94.2753L276.882 82.2849L268.832 82.2849C268.253 83.5537 267.58 84.7781 266.82 85.9486ZM237.302 104.601L237.302 101.603C236.707 100.126 236.035 98.681 235.289 97.273C235.289 97.273 237.302 99.9376 237.637 99.9376C237.734 100.935 237.734 101.938 237.637 102.935L237.302 104.601ZM240.321 94.6085L240.321 91.9439L240.321 87.2809L240.321 89.9455L242.333 95.2746L240.321 94.6085ZM249.713 91.2778L247.7 93.9423L247.7 96.94L246.023 96.94L244.011 96.94L244.011 100.604L242.333 96.94L245.017 94.6085L245.017 91.6108L245.017 89.9455L245.017 86.9479L245.017 84.6164L245.017 86.9479L249.713 91.2778ZM259.44 94.2753L259.44 91.2778L259.44 94.9415L259.44 94.2753ZM259.44 88.2802L259.44 90.2785L259.44 87.9471L259.44 88.2802Z" fill="white"/>
<path d="M266.82 198.931C266.73 200.151 266.73 201.375 266.82 202.595L266.82 201.596L266.82 198.931L231.264 198.931L227.91 198.931L219.189 222.912L226.233 222.912L226.233 220.914L226.233 217.916L226.233 222.912L229.923 222.912L254.744 222.912L254.744 220.248L254.744 216.251L254.744 213.919L257.428 213.919L257.428 218.249L257.428 220.248L265.813 220.248L270.174 207.258L272.857 207.258L276.882 195.268L268.832 195.268C268.253 196.536 267.58 197.761 266.82 198.931ZM237.302 217.583L237.302 214.586C236.707 213.109 236.035 211.664 235.289 210.256C235.289 210.256 237.302 212.92 237.637 212.92C237.734 213.917 237.734 214.921 237.637 215.918L237.302 217.583ZM240.321 207.591L240.321 204.926L240.321 200.264L240.321 202.928L242.333 208.257L240.321 207.591ZM249.713 204.26L247.7 206.925L247.7 209.923L246.023 209.923L244.011 209.923L244.011 213.586L242.333 209.923L245.017 207.591L245.017 204.593L245.017 202.928L245.017 199.93L245.017 197.599L245.017 199.93L249.713 204.26ZM259.44 207.258L259.44 204.26L259.44 207.924L259.44 207.258ZM259.44 201.263L259.44 203.261L259.44 200.93L259.44 201.263Z" fill="white"/>
<path d="M245.704 135.156L245.704 131.785L245.704 129.088L245.704 125.379L243.373 122.345L243.373 118.637L241.041 115.94L224.055 115.94L226.053 117.962L226.053 122.008L226.053 118.974L226.053 115.94L220.391 115.94L224.388 131.111L229.051 134.819L229.051 137.853L231.715 143.585L236.045 143.585L238.71 143.585L238.71 141.562L238.71 138.865L236.711 136.842L236.711 134.819L236.711 132.459L233.381 128.751L237.378 132.122L237.378 134.819L239.376 136.842L239.376 139.202L239.376 141.899L248.036 141.899L248.036 139.539L245.704 135.156Z" fill="white"/>
<path d="M245.704 248.139L245.704 244.768L245.704 242.071L245.704 238.362L243.373 235.328L243.373 231.62L241.041 228.923L224.055 228.923L226.053 230.945L226.053 234.991L226.053 231.957L226.053 228.923L220.391 228.923L224.388 244.094L229.051 247.802L229.051 250.836L231.715 256.568L236.045 256.568L238.71 256.568L238.71 254.545L238.71 251.848L236.711 249.825L236.711 247.802L236.711 245.442L233.381 241.734L237.378 245.105L237.378 247.802L239.376 249.825L239.376 252.185L239.376 254.882L248.036 254.882L248.036 252.522L245.704 248.139Z" fill="white"/>
<path d="M261.564 113.85L252.559 113.85L252.559 116.54L252.559 118.556L252.559 115.531L250.135 113.514L250.135 109.817L245.633 109.817L245.633 112.17L247.364 113.85L245.633 121.918L245.633 123.935L245.633 125.951L247.711 128.641L247.711 131.666L249.789 134.355L249.789 136.372C251.969 136.044 254.189 136.044 256.369 136.372L256.369 134.019L253.598 132.002L253.598 129.649C253.598 129.649 253.598 127.968 253.598 127.632L251.52 127.632L251.52 125.615L251.52 122.59L251.52 124.943L253.252 124.943L253.252 129.313L255.33 131.666L255.33 135.027L262.256 135.027L260.525 133.01L260.525 128.641L258.793 128.641L258.793 125.615L258.793 123.935L256.369 120.573L258.447 120.573L260.178 120.573L260.178 122.254L258.1 122.254L258.1 124.271L258.1 127.968L266.066 127.968L258.447 96.7074L261.564 113.85Z" fill="white"/>
<path d="M261.563 226.833L252.559 226.833L252.559 229.522L252.559 231.539L252.559 228.514L250.135 226.497L250.135 222.799L245.632 222.799L245.632 225.152L247.364 226.833L245.632 234.9L245.632 236.917L245.632 238.934L247.71 241.623L247.71 244.648L249.788 247.337L249.788 249.354C251.969 249.026 254.188 249.026 256.368 249.354L256.368 247.001L253.598 244.984L253.598 242.632C253.598 242.632 253.598 240.951 253.598 240.615L251.52 240.615L251.52 238.598L251.52 235.573L251.52 237.926L253.251 237.926L253.251 242.295L255.329 244.648L255.329 248.01L262.256 248.01L260.524 245.993L260.524 241.623L258.793 241.623L258.793 238.598L258.793 236.917L256.368 233.556L258.446 233.556L260.178 233.556L260.178 235.236L258.1 235.236L258.1 237.253L258.1 240.951L266.065 240.951L258.446 209.69L261.563 226.833Z" fill="white"/>
</g>
</g>
</g>
</svg>
