<svg width="390" height="264" viewBox="0 0 390 264" fill="none" xmlns="http://www.w3.org/2000/svg">
<g opacity="0.2">
<mask id="mask0_159_1831" style="mask-type:alpha" maskUnits="userSpaceOnUse" x="0" y="0" width="390" height="264">
<rect x="1.1507e-05" y="263.25" width="263.25" height="390" rx="20" transform="rotate(-90 1.1507e-05 263.25)" fill="black"/>
</mask>
<g mask="url(#mask0_159_1831)">
<mask id="mask1_159_1831" style="mask-type:alpha" maskUnits="userSpaceOnUse" x="0" y="0" width="406" height="275">
<rect x="1.1507e-05" y="274.95" width="274.95" height="405.6" transform="rotate(-90 1.1507e-05 274.95)" fill="black"/>
</mask>
<g mask="url(#mask1_159_1831)">
<path d="M216.325 239.696L207.976 267.539L254.395 267.539L258.737 254.121L262.41 254.121L266.084 241.373L258.069 241.373L258.069 247.076L258.069 241.373L216.325 239.696ZM222.002 257.811L218.997 251.772L222.336 249.089L222.336 245.063L224.34 245.063L224.34 247.747L226.009 250.766L223.004 253.785L222.002 257.811ZM227.345 265.526L225.342 265.526L227.345 262.842L225.342 257.14L228.013 263.849L226.009 266.197L227.345 265.526ZM231.353 250.766C230.598 249.045 230.038 247.245 229.683 245.399L231.353 242.715L231.353 241.373L229.349 245.063L231.353 250.766ZM238.7 256.469L235.694 261.501L235.694 264.52L233.69 261.165L236.696 256.469L236.696 251.437L239.368 249.424L239.368 244.728L239.368 250.095L237.03 250.095L238.7 256.469ZM245.713 264.184L245.713 262.172L244.043 254.792L247.382 262.172L245.713 264.184ZM250.388 251.772L246.714 245.399L250.388 242.044L248.384 246.405L250.388 251.772Z" fill="white"/>
<path d="M226.108 217.72L231.801 228.126L268.633 228.126L276.669 228.126L276.669 215.034L281.692 215.034L288.388 226.448L330.243 228.798L326.56 202.948L323.546 200.599L318.524 190.527L275.665 188.849L275.665 201.606L270.307 201.606L264.28 190.527L220.081 190.527L224.434 215.705L226.108 217.72ZM319.528 211.677L319.528 213.691L319.528 212.013L319.528 211.677ZM319.528 215.37L322.207 219.062L322.207 221.748L322.207 224.434L322.207 221.748L322.207 219.398L320.198 216.712L319.528 215.37ZM312.497 220.741L312.497 218.727L312.497 215.37L312.497 218.391L312.497 220.741ZM310.823 203.284L310.823 200.934L310.823 196.906L313.166 200.599L311.492 202.613C311.553 203.283 311.553 203.957 311.492 204.627L311.492 202.613L310.823 203.284ZM310.823 214.362L310.823 211.677L310.823 214.362ZM304.795 214.362L304.795 217.048L304.795 219.734L304.795 222.755L304.795 219.734L303.121 217.048L304.795 214.362L303.121 209.998L304.795 207.313L303.121 204.291L304.795 207.648L302.786 210.67L304.795 214.362ZM301.782 194.556L301.782 197.242L301.782 199.591L301.782 195.563L301.782 194.556ZM293.746 194.556L293.746 197.577L293.746 199.591C293.682 200.149 293.682 200.712 293.746 201.27L293.746 198.92L291.737 195.899L293.746 194.556ZM296.759 218.055L296.759 220.741L296.759 224.434L294.75 224.434L294.75 222.419L294.75 220.405L292.072 214.362L296.759 218.055ZM284.705 211.341L286.714 206.306L284.705 203.62L284.705 201.27L284.705 203.284L284.705 204.963L284.705 211.341ZM284.705 193.885L284.705 196.57L286.379 199.256L284.37 195.563L284.705 193.885ZM267.294 217.048L265.284 214.362L268.633 211.677L268.633 213.355L266.289 216.041L268.633 219.734L268.633 222.084L270.977 226.112L267.294 222.419L268.968 220.069L267.294 217.048ZM257.248 193.885L259.927 198.584L259.927 201.606C261.056 203.141 262.287 204.599 263.61 205.97L261.601 209.327C261.601 209.327 261.601 207.313 261.601 206.977L261.601 204.963L258.923 202.277L258.923 200.599L258.923 197.913L257.248 193.885ZM257.248 215.705L259.257 217.72L259.257 219.734L259.257 223.091L260.932 221.077L259.257 217.384L257.248 215.705ZM248.877 225.776L248.877 224.098L248.877 221.412L248.877 223.091L248.877 225.776ZM248.877 209.998L248.877 206.306L248.877 208.32L248.877 209.998ZM248.877 211.677L248.877 215.37L248.877 213.355L248.877 211.677ZM248.877 198.584L250.552 195.899L250.552 198.249L252.561 200.263L250.886 198.249L250.886 195.899L248.877 198.584ZM240.506 195.563L242.181 198.249L242.181 194.556L240.506 195.563ZM240.506 201.27L242.515 206.306L242.515 202.948L240.506 201.27ZM240.506 217.72C240.658 216.044 240.658 214.359 240.506 212.684L243.185 217.384L241.176 221.077L243.185 224.098C243.121 224.656 243.121 225.219 243.185 225.776L243.185 224.098L241.176 221.412C240.759 220.092 240.423 218.746 240.172 217.384L240.506 217.72ZM230.461 193.885L230.461 196.57L230.461 198.92L230.461 196.57L230.461 193.885ZM230.461 208.991L230.461 207.313L230.461 202.948L230.461 204.963L228.452 207.648L230.461 208.991Z" fill="white"/>
<path d="M194.88 240.743L194.88 247.044L194.88 240.743L158.986 240.743L153.954 240.743L146.238 268.746L153.618 268.746L153.618 263.146L153.618 261.045L153.618 266.996L191.861 266.996L196.222 253.694L199.912 251.594L201.924 239.693L194.88 240.743ZM164.688 266.996L162.676 264.196L162.676 261.745L160.663 254.044L164.018 261.745L164.688 266.996ZM167.037 251.944L164.688 244.593L166.701 242.143L166.701 244.943L168.714 251.594L167.037 251.944ZM175.759 256.845L172.404 260.345L175.088 256.495L175.088 252.644L177.436 249.494L177.436 244.593L175.759 249.144L173.41 252.994L175.759 256.845ZM182.803 263.846L182.803 265.946L182.803 263.846L182.803 255.795L186.829 263.846L182.803 263.846ZM182.803 245.643L185.151 243.543L185.151 245.993L185.151 252.294L182.803 245.643Z" fill="white"/>
<path d="M313.841 240.743L313.841 247.044L313.841 240.743L277.947 240.743L272.915 240.743L265.199 268.746L272.579 268.746L272.579 263.146L272.579 261.045L272.579 266.996L310.822 266.996L315.183 253.694L318.873 251.594L320.885 239.693L313.841 240.743ZM283.649 266.996L281.637 264.196L281.637 261.745L279.624 254.044L282.978 261.745L283.649 266.996ZM285.998 251.944L283.649 244.593L285.662 242.143L285.662 244.943L287.675 251.594L285.998 251.944ZM294.719 256.845L291.365 260.345L294.049 256.495L294.049 252.644L296.397 249.494L296.397 244.593L294.719 249.144L292.371 252.994L294.719 256.845ZM301.764 263.846L301.764 265.946L301.764 263.846L301.764 255.795L305.79 263.846L301.764 263.846ZM301.764 245.643L304.112 243.543L304.112 245.993L304.112 252.294L301.764 245.643Z" fill="white"/>
<path d="M370.391 240.743L370.391 247.043L370.391 240.743L334.497 240.743L329.465 240.743L321.75 268.746L329.13 268.746L329.13 263.146L329.13 261.045L329.13 266.996L367.372 266.996L371.733 253.694L375.423 251.594L377.436 239.693L370.391 240.743ZM340.2 266.996L338.187 264.196L338.187 261.745L336.174 254.044L339.529 261.745L340.2 266.996ZM342.548 251.944L340.2 244.593L342.213 242.143L342.213 244.943L344.225 251.594L342.548 251.944ZM351.27 256.845L347.915 260.345L350.599 256.495L350.599 252.644L352.947 249.494L352.947 244.593L351.27 249.144L348.922 252.994L351.27 256.845ZM358.315 263.846L358.315 265.946L358.315 263.846L358.315 255.795L362.34 263.846L358.315 263.846ZM358.315 245.643L360.663 243.543L360.663 245.993L360.663 252.294L358.315 245.643Z" fill="white"/>
<path d="M213.644 159.242C213.717 160.266 213.717 161.294 213.644 162.318L213.644 157.533L185.025 157.533L185.025 159.926L185.025 164.027L185.025 166.762L181.959 166.762L181.959 162.318L181.959 159.926L175.485 159.926C174.778 163.619 173.868 167.271 172.76 170.864L167.99 172.914L165.605 185.22L171.738 185.22C171.638 184.197 171.638 183.166 171.738 182.143L175.485 174.282L175.485 177.016L175.485 180.092L216.369 180.092L222.502 156.166L216.71 156.166L213.644 159.242ZM179.574 171.205L179.574 174.282L179.574 171.205ZM181.618 176.333L181.618 174.282L181.618 176.674L181.618 176.333ZM193.542 164.369L190.817 166.762L190.817 169.838L190.817 171.547L190.817 174.965L188.773 177.016L188.773 174.965L188.773 171.889L191.158 169.496L191.158 166.078L193.202 166.078L193.202 162.318L194.905 166.078L193.542 164.369ZM200.016 177.7L200.016 174.623L197.972 169.154L197.972 171.547L200.016 176.333L200.016 177.7ZM200.016 163.686L200.016 160.951L200.016 164.027C200.621 165.543 201.303 167.026 202.06 168.471C202.016 166.868 202.13 165.265 202.401 163.686L200.016 163.686ZM206.83 176.674C206.83 176.674 204.786 176.674 204.786 178.725L204.786 175.991L204.786 172.573L207.17 169.838L207.17 166.762L207.17 164.027L209.555 169.838C208.677 170.673 207.879 171.589 207.17 172.573L209.555 176.674L206.83 176.674Z" fill="white"/>
<path d="M213.644 45.4491C213.717 46.4732 213.717 47.5013 213.644 48.5254L213.644 43.74L185.025 43.74L185.025 46.1328L185.025 50.2344L185.025 52.9688L181.959 52.9688L181.959 48.5254L181.959 46.1328L175.485 46.1328C174.778 49.8261 173.868 53.4776 172.76 57.0706L167.99 59.1214L165.605 71.4265L171.738 71.4265C171.638 70.4036 171.638 69.3732 171.738 68.3503L175.485 60.4887L175.485 63.2232L175.485 66.2994L216.369 66.2993L222.502 42.3728L216.71 42.3728L213.644 45.4491ZM179.574 57.4124L179.574 60.4887L179.574 57.4124ZM181.618 62.5396L181.618 60.4887L181.618 62.8813L181.618 62.5396ZM193.542 50.5762L190.817 52.9688L190.817 56.0451L190.817 57.7541L190.817 61.1723L188.773 63.2232L188.773 61.1723L188.773 58.096L191.158 55.7034L191.158 52.2852L193.202 52.2852L193.202 48.5254L194.905 52.2852L193.542 50.5762ZM200.016 63.9067L200.016 60.8304L197.972 55.3615L197.972 57.7541L200.016 62.5396L200.016 63.9067ZM200.016 49.8925L200.016 47.1581L200.016 50.2344C200.621 51.7498 201.303 53.233 202.06 54.678C202.016 53.0755 202.13 51.4724 202.401 49.8925L200.016 49.8925ZM206.83 62.8813C206.83 62.8813 204.786 62.8814 204.786 64.9322L204.786 62.1977L204.786 58.7796L207.17 56.0451L207.17 52.9688L207.17 50.2344L209.555 56.0451C208.677 56.8801 207.879 57.7956 207.17 58.7796L209.555 62.8813L206.83 62.8813Z" fill="white"/>
<path d="M182.156 121.056L182.156 123.426L182.156 125.457L184.865 127.488C184.813 128.39 184.813 129.295 184.865 130.197C184.865 130.197 184.865 130.197 184.865 132.228C184.865 134.259 186.897 132.228 186.897 132.228L186.897 133.921L186.897 136.968L186.897 134.937L185.204 134.937L185.204 130.874L183.172 128.504L183.172 125.119L176.061 125.119L176.061 126.811L176.061 129.52L178.093 129.52L178.093 132.567C178.899 133.664 179.806 134.684 180.802 135.614L178.77 135.614L176.738 135.614L176.738 133.921L176.738 132.228L176.738 128.504L171.659 128.504L176.399 153.895L180.802 153.895L182.495 155.927L180.124 161.005L198.41 161.005L198.41 156.265L198.41 154.234L198.41 150.848L198.41 148.817L198.41 146.786L196.378 143.739L196.378 140.692L194.346 137.983L194.346 135.614L194.346 138.322L196.717 141.03L196.717 144.077L199.087 146.786L199.087 149.833L196.717 140.353L196.717 143.4L198.748 145.77L196.717 149.156L213.986 149.156L211.616 141.03L211.616 140.353L213.648 147.124L215.679 153.218L220.082 153.218L215.679 136.291L210.262 132.567L206.875 123.087L199.426 123.087C199.369 123.876 199.369 124.668 199.426 125.457L199.426 127.827L201.457 129.858L201.457 131.89L201.457 134.598L199.087 138.322L199.087 134.937L199.087 132.228L199.087 130.197L197.055 128.166L197.055 126.134L197.055 123.426L182.156 121.056ZM189.944 146.109L189.944 150.848L187.235 150.848L187.235 146.447L187.235 144.754L187.235 147.463L189.944 146.109ZM204.505 138.999L204.505 144.416L206.537 147.801L206.537 145.432L204.844 142.723L204.505 138.999Z" fill="white"/>
<path d="M182.156 7.26256L182.156 9.63239L182.156 11.6637L184.865 13.695C184.813 14.597 184.813 15.5014 184.865 16.4034C184.865 16.4034 184.865 16.4033 184.865 18.4346C184.865 20.4659 186.897 18.4346 186.897 18.4346L186.897 20.1275L186.897 23.1744L186.897 21.1431L185.204 21.1431L185.204 17.0805L183.172 14.7107L183.172 11.3251L176.061 11.3251L176.061 13.0178L176.061 15.7263L178.093 15.7263L178.093 18.7732C178.899 19.8705 179.806 20.8905 180.802 21.8202L178.77 21.8202L176.738 21.8202L176.738 20.1275L176.738 18.4346L176.738 14.7107L171.659 14.7107L176.399 40.1019L180.802 40.1019L182.495 42.1331L180.124 47.2114L198.41 47.2114L198.41 42.4717L198.41 40.4404L198.41 37.0549L198.41 35.0236L198.41 32.9922L196.378 29.9453L196.378 26.8983L194.346 24.19L194.346 21.8202L194.346 24.5285L196.717 27.237L196.717 30.2839L199.087 32.9922L199.087 36.0392L196.717 26.5599L196.717 29.6068L198.748 31.9766L196.717 35.3621L213.986 35.3621L211.616 27.237L211.616 26.5599L213.648 33.3309L215.679 39.4248L220.082 39.4248L215.679 22.4973L210.262 18.7732L206.875 9.2939L199.426 9.2939C199.369 10.0828 199.369 10.8748 199.426 11.6637L199.426 14.0336L201.457 16.0648L201.457 18.0961L201.457 20.8046L199.087 24.5285L199.087 21.1431L199.087 18.4346L199.087 16.4034L197.055 14.3721L197.055 12.3409L197.055 9.63239L182.156 7.26256ZM189.944 32.3151L189.944 37.0549L187.235 37.0549L187.235 32.6538L187.235 30.961L187.235 33.6694L189.944 32.3151ZM204.505 25.2056L204.505 30.6224L206.537 34.008L206.537 31.6381L204.844 28.9297L204.505 25.2056Z" fill="white"/>
<path d="M-18.5739 239.696L-26.875 267.539L19.2789 267.539L23.5955 254.121L27.2478 254.121L31.2324 241.038L23.2634 241.038L23.2634 246.74C23.2634 246.74 23.2634 243.05 23.2634 241.038L-18.5739 239.696ZM-12.9292 257.811L-15.9175 251.772L-12.5971 249.089L-14.2574 245.063L-12.265 245.063L-12.265 247.747L-10.605 250.766L-13.5932 253.785L-12.9292 257.811ZM-7.28458 265.526L-9.60887 265.526L-7.28458 262.842L-9.60887 257.14L-6.95247 263.849L-8.94464 266.197L-7.28458 265.526ZM-3.6321 250.766L-3.6321 245.399L-3.6321 242.715L-3.6321 241.373L-5.62427 245.063L-3.6321 250.766ZM3.67287 256.469L0.684612 261.501L0.684612 264.52L-1.63968 261.165L1.34858 256.469L1.34858 251.437L4.00498 249.424L4.00498 244.728L4.00498 250.095L1.6807 250.095L3.67287 256.469ZM10.6457 264.184L10.6457 262.172L10.6457 254.792L13.9662 262.172L10.6457 264.184ZM15.2944 251.772L11.9739 245.399L15.2944 242.044L13.6341 246.405L15.2944 251.772Z" fill="white"/>
<path d="M35.6808 240.743L27.6008 268.746L35.3442 268.746L35.3442 263.146L35.3442 261.045L35.3442 266.996L74.7342 266.996L78.7742 253.694L82.4775 251.594L84.4976 239.693L77.4276 239.693L77.4276 245.993L74.7342 240.743L35.6808 240.743ZM48.1375 267.696L45.7808 264.896L45.7808 262.445L43.4241 254.745L47.1275 262.445C47.282 264 47.6212 265.528 48.1375 266.996L48.1375 267.696ZM50.4941 252.644L48.1375 245.293L48.1375 242.843L48.1375 245.643L50.4941 252.294L50.4941 252.644ZM59.5841 257.545L56.5541 261.045L56.5541 263.846L56.5541 260.695L59.2475 256.845L59.2475 252.994L61.6042 249.844L61.6042 244.943L63.9609 249.844L61.2675 253.694L59.5841 257.545ZM66.6541 264.546L66.6541 266.646L66.6541 264.546L64.6342 256.495L68.6742 264.546L66.6541 264.546ZM66.6541 246.343L68.6742 244.243L68.6742 246.693L68.6742 252.994C68.1754 250.571 67.838 248.115 67.6642 245.643L66.6541 246.343Z" fill="white"/>
<path d="M-9.52688 217.72L-4.09421 228.126L33.5959 228.126L41.066 228.126L41.066 215.034L46.4988 215.034L52.9503 226.448L95.3941 228.798L91.6591 202.948L88.6031 200.599L83.5098 190.527L40.3869 188.849L40.3869 201.606L35.2938 201.606L28.8422 190.527L-15.9784 190.527L-11.5644 215.705L-9.52688 217.72ZM84.8681 211.677L84.8681 213.691L84.8681 212.013L84.8681 211.677ZM84.8681 215.37L87.5844 219.062L87.5844 221.748L87.5844 224.434L85.8867 221.748L85.8867 219.398L85.8867 216.712L84.8681 215.37ZM77.7375 220.741L77.7375 218.727L77.7375 215.37L79.7748 218.391L77.7375 220.741ZM77.7375 203.284L77.7375 200.934L77.7375 196.906L80.1144 200.599L80.1144 202.613L80.1144 204.627L78.4165 202.613L77.7375 203.284ZM77.7375 214.362L77.7375 211.677L77.7375 214.362ZM71.9651 214.362L71.9651 217.048L71.9651 219.734L71.9651 222.755L71.9651 219.734L71.9651 217.048L74.0025 214.362L71.9651 209.998L71.9651 207.313L71.9651 204.291L74.0025 207.648L71.6256 210.67L71.9651 214.362ZM68.5697 194.556L68.5697 197.242L68.5697 199.591L68.5697 195.563L68.5697 194.556ZM60.4204 194.556L60.4204 197.577L62.1181 199.591C62.0536 200.149 62.0536 200.712 62.1181 201.27L62.1181 198.92L60.4204 195.899L60.4204 194.556ZM63.8159 218.055L62.1181 220.741L63.8159 224.434L61.439 224.434L61.439 222.419L61.439 220.405L58.7227 214.362L63.8159 218.055ZM51.5922 211.341L53.2899 206.306L51.5922 203.62L51.5922 201.27L51.5922 203.284L51.5922 204.963L51.5922 211.341ZM51.5922 193.885L51.5922 196.57L53.6294 199.256L51.5922 195.563L51.5922 193.885ZM33.9355 217.048L31.5587 214.362L34.6146 211.677L34.6146 213.355L32.5773 216.041L34.6146 219.734L34.6146 222.084L36.6519 226.112L32.9168 222.419L34.9541 220.069L33.9355 217.048ZM23.4094 193.885L26.1259 198.584L26.1259 201.606C27.1493 203.14 28.2841 204.598 29.5213 205.97L27.484 209.327C27.484 209.327 27.484 207.313 27.484 206.977C27.484 206.641 27.484 204.963 27.484 204.963L24.7676 202.277L24.7676 200.599L24.7676 197.913L23.4094 193.885ZM25.1071 215.705L27.1445 217.72L27.1445 219.734L27.1445 223.091L27.1445 221.077L25.1071 217.384L25.1071 215.705ZM16.6184 225.776L16.6184 224.098L14.9207 224.098L14.9207 222.419L16.6184 224.098L16.6184 225.776ZM16.6184 209.998L16.6184 206.306L16.6184 208.32L16.6184 209.998ZM16.6184 211.677L16.6184 215.37L16.6184 211.341L16.6184 211.677ZM16.6184 198.584L18.6557 195.899L18.6557 198.249L18.6557 200.263L16.6184 198.249L16.6184 195.899L16.6184 198.584ZM8.12962 195.563L7.11101 197.913L7.11101 194.22L8.12962 195.563ZM8.12962 201.27C8.12962 201.27 10.1669 205.97 10.5065 206.306L10.5065 202.948L8.12962 201.27ZM8.12962 217.72C8.28334 216.044 8.28334 214.359 8.12962 212.684L7.11101 217.048L4.73417 220.741L7.11101 223.762C7.0465 224.32 7.0465 224.883 7.11101 225.441L7.11101 223.762L4.73417 221.077C4.55226 219.853 4.43883 218.62 4.39455 217.384L8.12962 217.72ZM-2.05674 193.885L-2.05674 196.57L-0.0195147 198.92L-0.0195149 196.57L-2.05674 193.885ZM-2.05674 208.991L-2.05674 207.313L-2.05674 202.948L-0.0195142 204.963L-2.05674 207.648L-2.05674 208.991Z" fill="white"/>
<path d="M-9.52688 100.293L-4.09421 110.699L33.5959 110.699L41.066 110.699L41.066 97.6069L46.4988 97.6069L52.9503 109.021L95.3941 111.371L91.6591 85.5215L88.6031 83.1716L83.5098 73.1005L40.3869 71.422L40.3869 84.1788L35.2938 84.1788L28.8422 73.1005L-15.9784 73.1005L-11.5644 98.2783L-9.52688 100.293ZM84.8681 94.2499L84.8681 96.2641L84.8681 94.5856L84.8681 94.2499ZM84.8681 97.9427L87.5844 101.635L87.5844 104.321L87.5844 107.007L85.8867 104.321L85.8867 101.971L85.8867 99.2854L84.8681 97.9427ZM77.7375 103.314L77.7375 101.3L77.7375 97.9427L79.7748 100.964L77.7375 103.314ZM77.7375 85.8573L77.7375 83.5074L77.7375 79.4788L80.1144 83.1716L80.1144 85.1859L80.1144 87.2001L78.4165 85.1859L77.7375 85.8573ZM77.7375 96.9355L77.7375 94.2499L77.7375 96.9355ZM71.9651 96.9355L71.9651 99.6212L71.9651 102.307L71.9651 105.328L71.9651 102.307L71.9651 99.6212L74.0025 96.9355L71.9651 92.5714L71.9651 89.8857L71.9651 86.8644L74.0025 90.2215L71.6256 93.2428L71.9651 96.9355ZM68.5697 77.1289L68.5697 79.8146L68.5697 82.1645L68.5697 78.1361L68.5697 77.1289ZM60.4204 77.1289L60.4204 80.1502L62.1181 82.1645C62.0536 82.7222 62.0536 83.2853 62.1181 83.843L62.1181 81.4931L60.4204 78.4717L60.4204 77.1289ZM63.8159 100.628L62.1181 103.314L63.8159 107.007L61.439 107.007L61.439 104.992L61.439 102.978L58.7227 96.9355L63.8159 100.628ZM51.5922 93.9141L53.2899 88.8786L51.5922 86.1929L51.5922 83.843L51.5922 85.8573L51.5922 87.5358L51.5922 93.9141ZM51.5922 76.4576L51.5922 79.1432L53.6294 81.8289L51.5922 78.1361L51.5922 76.4576ZM33.9355 99.6212L31.5587 96.9355L34.6146 94.2499L34.6146 95.9284L32.5773 98.6141L34.6146 102.307L34.6146 104.657L36.6519 108.685L32.9168 104.992L34.9541 102.643L33.9355 99.6212ZM23.4094 76.4576L26.1259 81.1575L26.1259 84.1788C27.1493 85.7129 28.2841 87.1714 29.5213 88.5429L27.484 91.9C27.484 91.9 27.484 89.8858 27.484 89.5501C27.484 89.2144 27.484 87.5358 27.484 87.5358L24.7676 84.8502L24.7676 83.1716L24.7676 80.486L23.4094 76.4576ZM25.1071 98.2783L27.1445 100.293L27.1445 102.307L27.1445 105.664L27.1445 103.65L25.1071 99.9568L25.1071 98.2783ZM16.6184 108.349L16.6184 106.671L14.9207 106.671L14.9207 104.992L16.6184 106.671L16.6184 108.349ZM16.6184 92.5714L16.6184 88.8786L16.6184 90.8928L16.6184 92.5714ZM16.6184 94.2499L16.6184 97.9427L16.6184 93.9141L16.6184 94.2499ZM16.6184 81.1575L18.6557 78.4718L18.6557 80.8217L18.6557 82.836L16.6184 80.8217L16.6184 78.4718L16.6184 81.1575ZM8.12962 78.1361L7.11101 80.486L7.11101 76.7933L8.12962 78.1361ZM8.12962 83.843C8.12962 83.843 10.1669 88.5429 10.5065 88.8787L10.5065 85.5215L8.12962 83.843ZM8.12962 100.293C8.28334 98.6175 8.28334 96.9321 8.12962 95.257L7.11101 99.6212L4.73417 103.314L7.11101 106.335C7.0465 106.893 7.0465 107.456 7.11101 108.014L7.11101 106.335L4.73417 103.65C4.55226 102.426 4.43883 101.193 4.39455 99.9568L8.12962 100.293ZM-2.05674 76.4576L-2.05674 79.1432L-0.0195147 81.4931L-0.0195149 79.1432L-2.05674 76.4576ZM-2.05674 91.5642L-2.05674 89.8857L-2.05674 85.5215L-0.0195142 87.5358L-2.05674 90.2215L-2.05674 91.5642Z" fill="white"/>
<path d="M4.88005 177.896L44.27 177.896L53.0234 153.743L45.6167 153.743L45.6167 155.756L45.6167 158.775L45.6167 153.743L17.0001 153.743L17.0001 156.427L17.0001 160.452L17.0001 162.8L14.3067 162.8L14.3067 158.439L14.3067 156.427L7.23671 156.427L2.86013 169.51L0.166728 169.51L-3.87337 181.586L4.20683 181.586L4.20683 178.567C5.3624 176.981 6.37616 175.297 7.23671 173.535L7.23671 176.219L4.88005 177.896ZM33.8334 157.433L33.8334 160.452C34.4224 162.003 35.2148 163.47 36.1901 164.813L33.4967 162.129C33.3998 161.125 33.3998 160.114 33.4967 159.11L33.8334 157.433ZM30.8034 167.497L30.8034 170.181L33.4967 173.535L31.4768 173.535L33.4967 170.851L31.14 165.484L30.8034 167.497ZM21.3767 170.851L23.7334 168.168L23.7334 165.149L25.7534 165.149L25.7534 161.459L27.4367 165.149L25.08 167.497L25.08 170.516L25.08 172.193L25.08 175.212L25.08 177.561L25.08 175.212L21.3767 170.851ZM11.6134 167.832L11.6134 170.851L11.6134 167.161L11.6134 167.832ZM11.6134 173.87L11.6134 176.219L11.6134 173.87Z" fill="white"/>
<path d="M4.88005 60.4696L44.27 60.4696L53.0234 36.3165L45.6167 36.3165L45.6167 38.3293L45.6167 41.3484L45.6167 36.3165L17.0001 36.3165L17.0001 39.0002L17.0001 43.0257L17.0001 45.3739L14.3067 45.3739L14.3067 41.0129L14.3067 39.0002L7.23671 39.0002L2.86013 52.0831L0.166728 52.0831L-3.87337 64.1596L4.20683 64.1596L4.20683 61.1405C5.3624 59.5546 6.37616 57.8708 7.23671 56.1086L7.23671 58.7923L4.88005 60.4696ZM33.8334 40.0066L33.8334 43.0257C34.4224 44.5766 35.2148 46.0431 36.1901 47.3867L33.4967 44.703C33.3998 43.6989 33.3998 42.6879 33.4967 41.6838L33.8334 40.0066ZM30.8034 50.0703L30.8034 52.754L33.4967 56.1086L31.4768 56.1086L33.4967 53.4248L31.14 48.0575L30.8034 50.0703ZM21.3767 53.4248L23.7334 50.7412L23.7334 47.7221L25.7534 47.7221L25.7534 44.032L27.4367 47.7221L25.08 50.0703L25.08 53.0894L25.08 54.7667L25.08 57.7858L25.08 60.134L25.08 57.7858L21.3767 53.4248ZM11.6134 50.4058L11.6134 53.4248L11.6134 49.7349L11.6134 50.4058ZM11.6134 56.444L11.6134 58.7923L11.6134 56.444Z" fill="white"/>
<path d="M29.7129 120.492C29.7129 120.492 29.7129 122.877 29.7129 123.218C29.7129 123.559 29.7129 125.944 29.7129 125.944L31.7276 127.989L31.7276 130.033L31.7276 132.418L35.0854 136.167L30.7202 132.759L30.7202 130.033L28.7056 127.989L28.7056 125.603L28.7056 122.877L28.7056 120.833L12.5883 120.833L12.5883 123.899L12.5883 126.285L15.2744 128.329L15.2744 130.714L15.2744 132.759L17.2892 132.759L17.2892 134.804L17.2892 137.87L17.2892 135.485L17.2892 131.055L15.2744 128.67L15.2744 124.581L7.88728 124.581L7.88728 126.625L7.88728 129.692L9.56628 129.692L9.56628 132.759L9.56628 134.463L12.2524 137.87L10.2379 137.87L8.22313 137.87L8.22313 136.167L9.902 136.167L9.902 134.122L9.902 130.374L2.17899 130.374L9.23043 162.064L14.6029 159.338L23.3332 159.338L23.3332 156.612L23.3332 154.567L23.3332 157.634L25.6836 159.679L25.6836 163.427L31.7276 163.427L31.7276 161.042L30.0486 159.338L30.0486 155.589L30.0486 151.5L28.034 148.774L28.034 145.708L26.0193 142.982L26.0193 140.256L26.0193 143.322L28.3698 145.708L28.3698 149.115L30.3845 151.841L30.3845 155.589L28.034 140.596L28.034 143.663L30.3845 146.389L44.4871 146.389L42.4725 144.345L42.4725 140.256L42.4725 144.004L42.4725 147.071L48.1807 147.071L44.1514 131.737L39.4505 127.989L35.4212 119.129L27.3625 117.425L29.7129 120.492Z" fill="white"/>
<path d="M29.7129 3.06543C29.7129 3.06543 29.7129 5.45077 29.7129 5.79152C29.7129 6.13228 29.7129 8.51749 29.7129 8.51749L31.7276 10.5621L31.7276 12.6065L31.7276 14.9918L35.0854 18.7401L30.7202 15.3326L30.7202 12.6065L28.7056 10.5621L28.7056 8.17679L28.7056 5.4507L28.7056 3.40613L12.5883 3.40613L12.5883 6.47292L12.5883 8.85831L15.2744 10.9027L15.2744 13.288L15.2744 15.3326L17.2892 15.3326L17.2892 17.3772L17.2892 20.4438L17.2892 18.0585L17.2892 13.6288L15.2744 11.2436L15.2744 7.15444L7.88728 7.15444L7.88728 9.19901L7.88728 12.2658L9.56628 12.2658L9.56628 15.3326L9.56628 17.0363L12.2524 20.4438L10.2379 20.4438L8.22313 20.4438L8.22313 18.7401L9.902 18.7401L9.902 16.6956L9.902 12.9473L2.17899 12.9473L9.23043 44.6374L14.6029 41.9113L23.3332 41.9113L23.3332 39.1854L23.3332 37.1408L23.3332 40.2076L25.6836 42.2521L25.6836 46.0003L31.7276 46.0003L31.7276 43.6151L30.0486 41.9113L30.0486 38.163L30.0486 34.074L28.034 31.348L28.034 28.2813L26.0193 25.5552L26.0193 22.8292L26.0193 25.896L28.3698 28.2813L28.3698 31.6887L30.3845 34.4148L30.3845 38.163L28.034 23.1699L28.034 26.2367L30.3845 28.9626L44.4871 28.9626L42.4725 26.9182L42.4725 22.8292L42.4725 26.5774L42.4725 29.6442L48.1807 29.6442L44.1514 14.3104L39.4505 10.5621L35.4212 1.70239L27.3625 -0.00135442L29.7129 3.06543Z" fill="white"/>
<path d="M97.08 159.095L97.08 162.189L97.08 157.376L69.2056 157.376L69.2056 159.783L69.2056 163.908L69.2056 166.657L66.519 166.657L66.519 162.189L66.519 159.783L59.4663 159.783L56.7797 170.782L52.078 172.845L49.3913 185.22L55.4363 185.22L55.4363 182.126C55.575 180.869 55.575 179.601 55.4363 178.345L55.4363 181.095L55.4363 184.188L95.4008 184.188L101.446 160.126L95.7367 160.126L97.08 159.095ZM63.4965 171.126L63.4965 174.22L63.4965 171.126ZM65.5114 176.282L65.5114 174.22L65.5114 176.626L65.5114 176.282ZM77.2657 164.251L74.579 166.657L74.579 169.751L74.579 171.47L74.579 174.907L74.579 176.97L75.2507 174.22L77.2657 171.814L77.2657 168.376L78.9449 168.376L80.9598 168.376L80.9598 164.595L82.6391 168.376L77.2657 164.251ZM83.6466 177.657L83.6466 174.563L81.6315 169.064L81.6315 171.47L81.6315 176.282L83.6466 177.657ZM83.6466 163.564L83.6466 160.814L83.6466 163.908C84.2428 165.432 84.9154 166.923 85.6616 168.376L83.6466 163.564ZM90.3633 176.626C90.3633 176.626 88.3482 176.626 88.3482 178.688L88.3482 175.938L88.3482 172.501L90.6991 169.751L90.6991 166.657L90.6991 163.908L93.3858 169.751L91.035 172.501L90.3633 176.626Z" fill="white"/>
<path d="M97.08 41.6687L97.08 44.7624L97.08 39.9499L69.2056 39.9499L69.2056 42.3562L69.2056 46.4811L69.2056 49.231L66.519 49.231L66.519 44.7624L66.519 42.3562L59.4663 42.3562L56.7797 53.356L52.078 55.4183L49.3913 67.7931L55.4363 67.7931L55.4363 64.6994C55.575 63.443 55.575 62.1746 55.4363 60.9182L55.4363 63.6682L55.4363 66.7619L95.4008 66.7619L101.446 42.6999L95.7367 42.6999L97.08 41.6687ZM63.4965 53.6996L63.4965 56.7933L63.4965 53.6996ZM65.5114 58.8558L65.5114 56.7933L65.5114 59.1995L65.5114 58.8558ZM77.2657 46.8248L74.579 49.231L74.579 52.3246L74.579 54.0433L74.579 57.4808L74.579 59.5433L75.2507 56.7933L77.2657 54.3871L77.2657 50.9498L78.9449 50.9498L80.9598 50.9498L80.9598 47.1686L82.6391 50.9498L77.2657 46.8248ZM83.6466 60.2307L83.6466 57.137L81.6315 51.6371L81.6315 54.0433L81.6315 58.8558L83.6466 60.2307ZM83.6466 46.1373L83.6466 43.3874L83.6466 46.4811C84.2428 48.0051 84.9154 49.4967 85.6616 50.9498L83.6466 46.1373ZM90.3633 59.1995C90.3633 59.1995 88.3482 59.1996 88.3482 61.262L88.3482 58.512L88.3482 55.0746L90.6991 52.3246L90.6991 49.231L90.6991 46.4811L93.3858 52.3246L91.035 55.0746L90.3633 59.1995Z" fill="white"/>
<path d="M64.8851 121.393L64.8851 123.759L64.8851 125.788L67.5593 127.816C67.5076 128.717 67.5076 129.62 67.5593 130.521C67.5593 130.521 67.5593 130.521 67.5593 132.55L69.5648 132.55L69.5648 134.24L69.5648 137.283L69.5648 135.254L67.8935 135.254L67.8935 131.197L65.888 128.831L65.888 125.45L58.8684 125.45L60.5398 125.45L60.5398 127.14L62.2111 127.14L62.2111 130.183L64.5509 133.226L62.5453 133.226L60.874 133.226L60.874 131.535L62.8796 131.535L62.8796 129.845L62.8796 126.126L57.8656 126.126L62.8796 151.483L66.8907 151.483L68.562 153.511L66.5564 158.582L84.2724 158.582L84.2724 153.849L82.6011 151.821L82.6011 148.44L82.6011 146.411L82.6011 144.383L80.5955 141.34L80.5955 138.297L78.5898 135.592L78.5898 133.226L78.5898 135.931L74.5787 129.169L74.5787 132.212L76.9186 134.916L76.9186 138.973L79.2584 140.664L79.2584 144.721L81.5982 147.087L79.5927 150.468L96.64 150.468L94.3002 142.354L94.3002 138.297L96.3058 145.059L98.3113 151.145L102.657 151.145L98.3113 134.24L92.9631 130.521L89.9548 121.055L82.6011 121.055C82.4029 121.831 82.4029 122.645 82.6011 123.421L82.6011 125.788L84.9409 127.816L84.9409 129.845L84.9409 132.55L82.9353 136.269L82.9353 132.888L82.9353 130.183L82.9353 128.155L80.9297 126.126L80.9297 124.098L80.9297 121.393L64.8851 121.393ZM72.5731 146.411L72.5731 151.145L69.8991 151.145L69.8991 146.749L69.8991 145.059L69.8991 144.045L72.5731 146.411ZM86.9464 139.311L86.9464 144.721L88.952 148.102L88.952 145.735L87.2807 143.03L86.9464 139.311Z" fill="white"/>
<path d="M64.8851 3.97004L64.8851 6.33664L64.8851 8.36521L67.5593 10.3936C67.5076 11.2945 67.5076 12.1976 67.5593 13.0984C67.5593 13.0984 67.5593 13.0983 67.5593 15.1268L69.5648 15.1268L69.5648 16.8174L69.5648 19.8602L69.5648 17.8316L67.8935 17.8316L67.8935 13.7746L65.888 11.408L65.888 8.02705L58.8684 8.02705L60.5398 8.02705L60.5398 9.71746L62.2111 9.71746L62.2111 12.7602L64.5509 15.803L62.5453 15.803L60.874 15.803L60.874 14.1126L62.8796 14.1126L62.8796 12.4222L62.8796 8.70324L57.8656 8.70324L62.8796 34.0598L66.8907 34.0598L68.562 36.0883L66.5564 41.1596L84.2724 41.1596L84.2724 36.4264L82.6011 34.3979L82.6011 31.017L82.6011 28.9884L82.6011 26.96L80.5955 23.9172L80.5955 20.8744L78.5898 18.1696L78.5898 15.803L78.5898 18.5078L74.5787 11.746L74.5787 14.7888L76.9186 17.4936L76.9186 21.5506L79.2584 23.241L79.2584 27.298L81.5982 29.6646L79.5927 33.0455L96.64 33.0455L94.3002 24.9314L94.3002 20.8744L96.3058 27.6362L98.3113 33.7217L102.657 33.7217L98.3113 16.8174L92.9631 13.0984L89.9548 3.63188L82.6011 3.63188C82.4029 4.40802 82.4029 5.22247 82.6011 5.99861L82.6011 8.3652L84.9409 10.3936L84.9409 12.4222L84.9409 15.1268L82.9353 18.8458L82.9353 15.465L82.9353 12.7602L82.9353 10.7318L80.9297 8.70324L80.9297 6.67467L80.9297 3.97004L64.8851 3.97004ZM72.5731 28.9884L72.5731 33.7217L69.8991 33.7217L69.8991 29.3266L69.8991 27.6362L69.8991 26.6218L72.5731 28.9884ZM86.9464 21.8886L86.9464 27.298L88.952 30.6789L88.952 28.3123L87.2807 25.6076L86.9464 21.8886Z" fill="white"/>
<path d="M89.3393 267.539L136.726 267.539L141.157 254.054L144.907 254.054L148.657 240.906L140.475 240.906L140.475 246.637L140.475 240.906L98.8848 240.906L89.3393 267.539ZM132.635 241.243L130.589 245.626L132.635 251.02L128.885 244.615L132.635 241.243ZM129.907 261.471L127.862 263.493L127.862 261.471L127.862 254.054L129.907 261.471ZM118.657 250.683L121.385 248.66L121.385 243.94L123.089 249.334L120.703 249.334L120.703 254.391L117.635 259.448L117.635 262.482L115.589 259.111L118.657 254.391L118.657 250.683ZM112.18 242.592L112.18 241.243L110.135 244.952L112.18 249.334C111.986 247.542 111.986 245.733 112.18 243.94L112.18 242.592ZM107.066 255.065L109.794 261.808L107.748 264.168L105.703 264.168L108.43 261.471L107.066 255.065ZM102.294 244.278L104.339 244.278L104.339 246.974L104.339 250.009L101.271 253.043L101.271 258.774L98.203 252.706L101.612 250.009L102.294 244.278Z" fill="white"/>
<path d="M151.95 202.349L145.889 191.271L101.446 191.271L105.823 216.449L111.547 226.856L148.583 226.856L155.653 226.856L155.653 213.763L160.704 213.763L167.437 225.177L209.187 231.22L205.483 205.37L202.453 203.021L197.403 192.949L155.317 191.271L155.317 201.006L155.317 204.028L151.95 202.349ZM113.567 205.706L111.547 208.392L111.547 206.713L111.547 202.349L111.547 204.363L113.567 205.706ZM113.567 199.328L113.567 196.978L113.567 194.628L113.567 197.314L113.567 199.663L113.567 199.328ZM123.668 223.499L123.668 225.177L123.668 223.499L121.648 220.813C121.58 219.583 121.58 218.35 121.648 217.12C121.8 215.445 121.8 213.76 121.648 212.085L124.341 216.784L122.321 220.477L123.668 223.499ZM123.668 205.706L123.668 202.349L123.668 200.671L125.688 205.706L123.668 205.706ZM123.668 198.656L123.668 194.964L123.668 197.649L123.668 198.656ZM131.748 198.656L133.768 195.971L133.768 198.321L135.789 200.335L133.768 198.321L132.085 195.971L131.748 198.656ZM131.748 210.07L131.748 206.378L131.748 208.392L131.748 210.07ZM131.748 215.442L131.748 213.427L131.748 211.413L131.748 215.442ZM131.748 225.848L131.748 224.17L130.065 224.17L130.065 221.484L131.748 223.163L131.748 225.848ZM141.512 225.848L141.512 223.834L139.492 220.141L141.849 223.163L141.849 217.12L141.849 219.134L141.512 225.848ZM141.512 209.063L139.492 212.42C139.492 212.42 139.492 210.406 139.492 210.07L139.492 208.056L136.799 205.37L136.799 203.692L136.799 201.006L136.799 196.306L139.492 201.006L139.492 204.028C140.214 205.298 141.001 206.531 141.849 207.72L141.512 209.063ZM149.593 213.092L147.236 215.777L149.593 219.47L149.593 221.82L151.95 225.848L148.246 222.156L148.246 219.806L146.226 217.12L149.593 214.434L149.593 213.092ZM201.443 213.092L201.443 215.106L201.443 213.427L201.443 213.092ZM201.443 216.784L204.137 220.477L204.137 223.163L204.137 225.848L202.453 223.163L204.137 220.813L202.117 218.127L201.443 216.784ZM194.373 222.156L194.373 220.141L194.373 216.784L196.056 219.806L194.373 222.156ZM194.373 204.699L194.373 202.349L194.373 198.321L196.73 202.013L196.73 204.028C196.791 204.698 196.791 205.372 196.73 206.042L196.73 204.028L194.373 204.699ZM194.373 215.777L194.373 213.092L194.373 215.777ZM188.312 215.777L188.312 218.463L188.312 221.149L188.312 224.17L188.312 221.149L188.312 218.463L188.312 215.777L188.312 211.413L188.312 208.727L188.312 205.706L188.312 209.063L186.292 212.085L188.312 215.777ZM185.282 195.971L185.282 198.656L186.965 201.006L186.965 196.978L185.282 195.971ZM177.201 195.971L177.201 198.992L175.518 198.992C175.454 199.55 175.454 200.113 175.518 200.671L175.518 198.321L173.498 195.299L177.201 195.971ZM180.232 219.47L180.232 222.156L180.232 225.848L178.212 225.848L178.212 223.834L178.212 221.82L175.518 215.777L180.232 219.47ZM168.111 212.756L170.131 207.72L168.111 205.035L168.111 202.685L168.111 204.699L168.111 206.378L168.111 212.756ZM168.111 195.299L168.111 197.985L168.111 200.671L166.091 196.978L168.111 195.299Z" fill="white"/>
<path d="M151.95 88.5561L145.889 77.4778L101.446 77.4778L105.823 102.656L111.547 113.062L148.583 113.062L155.653 113.062L155.653 99.97L160.704 99.97L167.437 111.384L209.187 117.427L205.483 91.5774L202.453 89.2275L197.403 79.1564L155.317 77.4778L155.317 87.2132L155.317 90.2345L151.95 88.5561ZM113.567 91.913L111.547 94.5987L111.547 92.9202L111.547 88.5561L111.547 90.5703L113.567 91.913ZM113.567 85.5347L113.567 83.1848L113.567 80.8349L113.567 83.5204L113.567 85.8704L113.567 85.5347ZM123.668 109.705L123.668 111.384L123.668 109.705L121.648 107.02C121.58 105.79 121.58 104.557 121.648 103.327C121.8 101.652 121.8 99.9666 121.648 98.2915L124.341 102.991L122.321 106.684L123.668 109.705ZM123.668 91.913L123.668 88.5561L123.668 86.8776L125.688 91.913L123.668 91.913ZM123.668 84.8633L123.668 81.1705L123.668 83.8562L123.668 84.8633ZM131.748 84.8633L133.768 82.1777L133.768 84.5276L135.789 86.5418L133.768 84.5276L132.085 82.1777L131.748 84.8633ZM131.748 96.2772L131.748 92.5845L131.748 94.5987L131.748 96.2772ZM131.748 101.648L131.748 99.6342L131.748 97.6201L131.748 101.648ZM131.748 112.055L131.748 110.377L130.065 110.377L130.065 107.691L131.748 109.37L131.748 112.055ZM141.512 112.055L141.512 110.041L139.492 106.348L141.849 109.37L141.849 103.327L141.849 105.341L141.512 112.055ZM141.512 95.2702L139.492 98.6271C139.492 98.6271 139.492 96.6129 139.492 96.2772L139.492 94.263L136.799 91.5774L136.799 89.8989L136.799 87.2132L136.799 82.5134L139.492 87.2132L139.492 90.2345C140.214 91.5049 141.001 92.7374 141.849 93.9273L141.512 95.2702ZM149.593 99.2986L147.236 101.984L149.593 105.677L149.593 108.027L151.95 112.055L148.246 108.363L148.246 106.013L146.226 103.327L149.593 100.641L149.593 99.2986ZM201.443 99.2986L201.443 101.313L201.443 99.6342L201.443 99.2986ZM201.443 102.991L204.137 106.684L204.137 109.37L204.137 112.055L202.453 109.37L204.137 107.02L202.117 104.334L201.443 102.991ZM194.373 108.363L194.373 106.348L194.373 102.991L196.056 106.013L194.373 108.363ZM194.373 90.906L194.373 88.556L194.373 84.5276L196.73 88.2204L196.73 90.2345C196.791 90.9046 196.791 91.5788 196.73 92.2488L196.73 90.2345L194.373 90.906ZM194.373 101.984L194.373 99.2986L194.373 101.984ZM188.312 101.984L188.312 104.67L188.312 107.356L188.312 110.377L188.312 107.356L188.312 104.67L188.312 101.984L188.312 97.6201L188.312 94.9344L188.312 91.913L188.312 95.2701L186.292 98.2915L188.312 101.984ZM185.282 82.1777L185.282 84.8633L186.965 87.2132L186.965 83.1848L185.282 82.1777ZM177.201 82.1777L177.201 85.1991L175.518 85.1991C175.454 85.7568 175.454 86.3199 175.518 86.8776L175.518 84.5276L173.498 81.5063L177.201 82.1777ZM180.232 105.677L180.232 108.363L180.232 112.055L178.212 112.055L178.212 110.041L178.212 108.027L175.518 101.984L180.232 105.677ZM168.111 98.9629L170.131 93.9273L168.111 91.2416L168.111 88.8917L168.111 90.906L168.111 92.5845L168.111 98.9629ZM168.111 81.5063L168.111 84.1919L168.111 86.8776L166.091 83.1848L168.111 81.5063Z" fill="white"/>
<path d="M121.266 176.685C121.356 175.457 121.356 174.224 121.266 172.995L121.266 174.001L121.266 176.685L157.077 176.685L160.455 176.685L169.239 152.532L162.144 152.532L162.144 154.545L162.144 157.564L162.144 152.532L158.428 152.532L133.428 152.532L133.428 155.216L133.428 159.241L133.428 161.589L130.726 161.589L130.726 157.228L130.726 155.216L122.28 155.216L117.888 168.299L115.185 168.299L111.131 180.375L119.239 180.375C119.823 179.097 120.5 177.864 121.266 176.685ZM150.996 157.899L150.996 160.919C151.595 162.406 152.272 163.861 153.023 165.28C153.023 165.28 150.996 162.596 150.658 162.596C150.561 161.592 150.561 160.581 150.658 159.577L150.996 157.899ZM147.955 167.963L147.955 170.647L147.955 175.343L147.955 172.66L145.928 167.292L147.955 167.963ZM138.496 171.318L140.523 168.634L140.523 165.615L142.212 165.615L144.239 165.615L144.239 161.925L145.928 165.615L143.226 167.963L143.226 170.982L143.226 172.66L143.226 175.679L143.226 178.027L143.226 175.679L138.496 171.318ZM128.699 168.299L128.699 171.318L128.699 167.628L128.699 168.299ZM128.699 174.337L128.699 172.324L128.699 174.672L128.699 174.337Z" fill="white"/>
<path d="M121.266 62.8921C121.356 61.6637 121.356 60.4304 121.266 59.202L121.266 60.2084L121.266 62.8921L157.077 62.8921L160.455 62.8921L169.239 38.7389L162.144 38.7389L162.144 40.7516L162.144 43.7708L162.144 38.7389L158.428 38.7389L133.428 38.7389L133.428 41.4225L133.428 45.4482L133.428 47.7964L130.726 47.7964L130.726 43.4354L130.726 41.4225L122.28 41.4225L117.888 54.5056L115.185 54.5056L111.131 66.5821L119.239 66.5821C119.823 65.3042 120.5 64.0709 121.266 62.8921ZM150.996 44.1063L150.996 47.1254C151.595 48.6127 152.272 50.0683 153.023 51.4864C153.023 51.4864 150.996 48.8027 150.658 48.8027C150.561 47.7986 150.561 46.7876 150.658 45.7836L150.996 44.1063ZM147.955 54.1701L147.955 56.8538L147.955 61.5502L147.955 58.8665L145.928 53.4991L147.955 54.1701ZM138.496 57.5246L140.523 54.841L140.523 51.8219L142.212 51.8219L144.239 51.8219L144.239 48.1318L145.928 51.8219L143.226 54.1701L143.226 57.1892L143.226 58.8665L143.226 61.8856L143.226 64.2338L143.226 61.8856L138.496 57.5246ZM128.699 54.5056L128.699 57.5246L128.699 53.8347L128.699 54.5056ZM128.699 60.5438L128.699 58.5311L128.699 60.8793L128.699 60.5438Z" fill="white"/>
<path d="M142.533 127.125L142.533 130.52L142.533 133.236L142.533 136.972L144.881 140.027L144.881 143.763L147.229 146.479L164.338 146.479L162.325 144.442L162.325 140.367L162.325 143.423L162.325 146.479L168.028 146.479L164.002 131.199L159.306 127.464L159.306 124.408L156.622 118.636L152.261 118.636L149.578 118.636L149.578 120.673L149.578 123.389L151.59 125.427L151.59 127.464L151.59 129.841L154.945 133.576L150.919 130.18L150.919 127.464L148.907 125.427L148.907 123.05L148.907 120.334L140.185 120.334L140.185 122.71L142.533 127.125Z" fill="white"/>
<path d="M142.533 13.331L142.533 16.7266L142.533 19.4429L142.533 23.178L144.881 26.234L144.881 29.969L147.229 32.6854L164.338 32.6854L162.325 30.6482L162.325 26.5735L162.325 29.6294L162.325 32.6854L168.028 32.6854L164.002 17.4057L159.306 13.6706L159.306 10.6147L156.622 4.84226L152.261 4.84226L149.578 4.84226L149.578 6.87961L149.578 9.59594L151.59 11.6333L151.59 13.6706L151.59 16.0475L154.945 19.7826L150.919 16.387L150.919 13.6706L148.907 11.6333L148.907 9.25645L148.907 6.53999L140.185 6.53999L140.185 8.91696L142.533 13.331Z" fill="white"/>
<path d="M126.56 148.583L135.629 148.583L135.629 145.875L135.629 143.843L135.629 146.89L138.071 148.922L138.071 152.646L142.605 152.646L142.605 150.276L140.861 148.583L142.605 140.458L142.605 138.427L142.605 136.395L140.513 133.687L140.513 130.64L138.42 127.932L138.42 125.9C136.224 126.231 133.988 126.231 131.792 125.9L131.792 128.27L134.583 130.302L134.583 132.671C134.583 132.671 134.583 134.364 134.583 134.703L136.676 134.703L136.676 136.734L136.676 139.781L136.676 137.411L134.932 137.411L134.932 133.01L132.839 130.64L132.839 127.255L125.863 127.255L127.607 129.286L127.607 133.687L129.351 133.687L129.351 136.734L129.351 138.427L131.792 141.812L129.7 141.812L127.956 141.812L127.956 140.12L130.048 140.12L130.048 138.088L130.048 134.364L122.026 134.364L129.7 165.849L126.56 148.583Z" fill="white"/>
<path d="M126.56 34.7902L135.629 34.7902L135.629 32.0817L135.629 30.0504L135.629 33.0973L138.071 35.1286L138.071 38.8527L142.605 38.8527L142.605 36.4829L140.861 34.7902L142.605 26.6649L142.605 24.6336L142.605 22.6024L140.513 19.8939L140.513 16.847L138.42 14.1386L138.42 12.1073C136.224 12.4378 133.988 12.4378 131.792 12.1073L131.792 14.4771L134.583 16.5085L134.583 18.8783C134.583 18.8783 134.583 20.5711 134.583 20.9096L136.676 20.9096L136.676 22.9409L136.676 25.9878L136.676 23.618L134.932 23.618L134.932 19.2168L132.839 16.847L132.839 13.4615L125.863 13.4615L127.607 15.4927L127.607 19.8939L129.351 19.8939L129.351 22.9409L129.351 24.6336L131.792 28.0191L129.7 28.0191L127.956 28.0191L127.956 26.3264L130.048 26.3264L130.048 24.2951L130.048 20.571L122.026 20.571L129.7 52.0561L126.56 34.7902Z" fill="white"/>
</g>
</g>
</g>
</svg>
