<svg width="319" height="471" viewBox="0 0 319 471" fill="none" xmlns="http://www.w3.org/2000/svg">
<g opacity="0.05">
<mask id="mask0_159_1500" style="mask-type:alpha" maskUnits="userSpaceOnUse" x="0" y="0" width="319" height="471">
<rect width="319" height="470.582" fill="black"/>
</mask>
<g mask="url(#mask0_159_1500)">
<path d="M-3.31551 298.1L-3.31551 291.857L2.98513 291.857L2.98512 248.942L-11.5851 252.063L1.8038 248.942L1.8038 242.699L-21.8237 248.161L-24.5802 253.623L-39.1504 257.135L-39.1504 305.903L-3.31551 298.1ZM-14.7355 262.597L-12.7665 259.866L-6.07203 261.816L-2.52791 259.085L1.0162 259.085L-1.74032 259.085L-5.28443 262.597L-12.3727 260.256L-14.7355 262.597ZM-2.52791 268.449L1.0162 268.449L-2.13419 268.449L-6.07203 272.35L-10.7975 272.35L-8.82855 272.35L-3.31551 272.35L-2.52791 268.449ZM-28.1243 274.301L-23.3987 274.301L-19.8546 271.57L-16.3105 271.57L-19.0672 271.57L-23.3987 274.691L-27.3367 274.691L-31.6684 277.812L-28.1243 274.301ZM-28.1243 283.664L-24.5802 283.664L-21.0361 280.543L-16.7044 280.543L-12.7665 277.422L-8.82855 277.422L-3.70923 275.081L-6.46575 281.714L-10.7975 281.714L-14.3416 285.225L-19.0672 285.225L-21.8237 287.956L-24.1863 287.956L-26.9428 287.956L-30.487 290.297L-28.1243 283.664ZM-36.7876 298.1L-34.425 295.369L-30.0932 295.369L-26.1553 292.248L-21.8237 292.248L-14.7355 287.176L-21.8237 293.808L-26.1553 293.808L-30.0932 297.32L-34.0311 297.32L-36.7876 298.1Z" fill="black"/>
<path d="M40.9025 250.982L8.59863 241.296L8.59863 295.152L24.1667 300.189L24.1667 304.451L38.9565 308.713L38.9565 299.414L32.3401 299.414L38.9565 299.414L40.9025 250.982ZM19.8854 257.569L26.8911 254.082L30.0048 257.957L34.6753 257.957L34.6753 260.281L31.5617 260.281L28.0589 262.219L24.556 258.731L19.8854 257.569ZM10.9338 263.768L10.9338 261.444L14.0475 263.768L20.6639 261.444L12.8799 264.543L10.1553 262.219L10.9338 263.768ZM28.0589 268.418C30.0554 267.542 32.1442 266.893 34.2861 266.481L37.3997 268.418L38.9565 268.418L34.6753 266.093L28.0589 268.418ZM21.4423 276.942L15.6043 273.455L12.1015 273.455L15.9935 271.13L21.4423 274.617L27.2804 274.617L29.6156 277.717L35.0645 277.717L28.8373 277.717L28.8373 275.005L21.4423 276.942ZM12.4906 285.078L14.8259 285.078L23.3883 283.141L14.8259 287.015L12.4906 285.078ZM26.8911 290.503L34.2861 286.241L38.1781 290.503L33.1184 288.178L26.8911 290.503Z" fill="black"/>
<path d="M66.3994 262.333L54.3254 268.937L54.3254 311.671L54.3254 320.994L69.5154 320.994L69.5154 326.822L56.2728 334.591L53.5464 383.152L83.537 378.878L86.2634 375.382L97.948 369.555L99.8955 319.829L85.0949 319.829L85.0949 313.613L97.948 306.62L97.948 255.341L68.7364 260.391L66.3994 262.333ZM73.4102 370.72L71.0734 370.72L73.0208 370.72L73.4102 370.72ZM69.1258 370.72L64.8414 373.828L61.7256 373.828L58.6096 373.828L61.7256 373.828L64.452 373.828L67.568 371.497L69.1258 370.72ZM62.894 362.562L65.231 362.562L69.1258 362.562L65.6204 362.562L62.894 362.562ZM83.1474 360.62L85.8739 360.62L90.5478 360.62L86.2634 363.339L83.9264 361.397C83.1491 361.467 82.3668 361.467 81.5895 361.397L83.9264 361.397L83.1474 360.62ZM70.2944 360.62L73.4102 360.62L70.2944 360.62ZM70.2944 353.627L67.1784 353.627L64.0626 353.627L60.5572 353.627L64.0626 353.627L67.1784 351.685L70.2944 353.627L75.3576 351.685L78.4736 353.627L81.979 351.685L78.084 353.627L74.5786 351.296L70.2944 353.627ZM93.2742 350.131L90.1582 350.131L87.4318 350.131L92.1057 350.131L93.2742 350.131ZM93.2742 340.807L89.7688 340.807L87.4318 340.807C86.7848 340.733 86.1315 340.733 85.4844 340.807L88.2108 340.807L91.7162 338.476L93.2742 340.807ZM66.01 344.303L62.894 344.303L58.6096 344.303L58.6096 341.972L60.9466 341.972L63.2836 341.972L70.2944 338.864L66.01 344.303ZM73.7998 330.318L79.642 332.649L82.758 330.318L85.4844 330.318L83.1474 330.318L81.2 330.318L73.7998 330.318ZM94.0531 330.318L90.9372 330.318L87.8213 332.26L92.1057 329.929L94.0531 330.318ZM67.1784 310.117L70.2944 307.786L73.4102 311.671L71.4628 311.671L68.3468 308.951L64.0626 311.671L61.3362 311.671L56.6622 314.39L60.9466 310.117L63.673 312.059L67.1784 310.117ZM94.0531 298.462L88.6003 301.57L85.0949 301.57C83.3131 302.88 81.6216 304.308 80.0316 305.843L76.1366 303.512C76.1366 303.512 78.4736 303.512 78.863 303.512L81.2 303.512L84.3159 300.405L86.2634 300.405L89.3792 300.405L94.0531 298.462ZM68.7364 298.462L66.3994 300.793L64.0626 300.793L60.1676 300.793L62.5046 302.735L66.789 300.793L68.7364 298.462ZM57.0518 288.75L58.9992 288.75L62.115 288.75L60.1676 288.75L57.0518 288.75ZM75.3576 288.75L79.642 288.75L77.3052 288.75L75.3576 288.75ZM73.4102 288.75L69.1258 288.75L71.4628 288.75L73.4102 288.75ZM88.6003 288.75L91.7162 290.693L88.9898 290.693L86.6528 293.023L88.9898 291.081L91.7162 291.081L88.6003 288.75ZM92.1057 279.038L88.9898 280.98L93.2742 280.98L92.1057 279.038ZM85.4844 279.038L79.642 281.369L83.537 281.369L85.4844 279.038ZM66.3994 279.038C68.3429 279.214 70.2984 279.214 72.2418 279.038L66.789 282.146L62.5046 279.815L58.9992 282.146C58.3522 282.072 57.6988 282.072 57.0518 282.146L58.9992 282.146L62.115 279.815C63.6474 279.331 65.2084 278.941 66.789 278.65L66.3994 279.038ZM94.0531 267.383L90.9372 267.383L88.2108 267.383L90.9372 267.383L94.0531 267.383ZM76.5262 267.383L78.4736 267.383L83.537 267.383L81.2 267.383L78.084 265.053L76.5262 267.383Z" fill="black"/>
<path d="M-36.3797 226.303L-39.1504 226.303L-39.1504 235.677L-3.52662 226.693L-3.52662 220.444L4.38964 220.444L4.38964 169.665L-17.7761 175.133L-20.1511 180.211L-27.6716 182.555L-35.588 184.899L-35.588 223.959L-32.8173 223.959L-30.4423 223.959C-29.2563 224.042 -28.0659 224.042 -26.8799 223.959C-25.1994 223.223 -23.6065 222.306 -22.1302 221.225C-20.8157 221.384 -19.4865 221.384 -18.172 221.225L-13.0263 217.709L-17.3804 222.787L-22.1302 222.787L-26.0883 225.522L-29.6507 225.522L-36.3797 226.303ZM-36.3797 194.664L-33.213 194.664L-28.4633 191.539L-23.7135 191.539L-19.3594 186.852L-16.5887 186.852L-21.3385 191.929L-26.0883 191.929L-30.4423 194.273L-33.213 194.273L-35.588 194.273L-36.3797 194.664ZM-38.3587 206.773L-35.588 206.773L-32.0256 206.773L-29.2549 204.038C-27.413 203.844 -25.5554 203.844 -23.7135 204.038L-20.1511 200.913L-15.4013 200.913C-14.5655 200.036 -13.6366 199.251 -12.6306 198.57C-10.9201 198.392 -9.19538 198.392 -7.4849 198.57C-5.96338 197.627 -4.50865 196.583 -3.13086 195.445L-0.360144 195.445C-1.2724 195.243 -2.21861 195.243 -3.13086 195.445C-4.36152 196.66 -5.84799 197.594 -7.4849 198.179C-9.04028 198.594 -10.6793 198.594 -12.2347 198.179L-14.2137 203.648L-18.172 203.648L-21.3385 203.648L-26.4842 203.648L-29.2549 206.382L-31.6299 206.382L-38.3587 206.773ZM-15.4013 210.288C-14.0124 209.627 -12.6874 208.843 -11.443 207.944L-7.4849 207.944L-3.13086 204.429C-3.13086 204.429 -0.360143 206.382 -0.360143 206.773L-2.73511 206.773L-7.08899 210.288L-11.443 210.288L-14.6097 210.288L-18.5678 210.288L-23.3176 212.632L-20.1511 212.632L-16.1928 210.288C-15.5334 210.317 -14.8731 210.317 -14.2137 210.288L-15.4013 210.288ZM-37.963 216.538L-35.1923 216.538L-30.0466 213.022L-35.1923 217.709L-37.963 216.538Z" fill="black"/>
<path d="M39.6878 226.101L32.3775 226.101L39.6878 226.101L39.6878 184.456L39.6878 178.618L7.19775 169.667L7.19775 178.229L13.6958 178.229L16.1324 178.229L9.22835 178.229L9.22835 222.598L24.6612 227.658L27.0979 231.939L40.9062 234.274L39.6878 226.101ZM9.22835 191.073L12.4774 188.738L15.3203 188.738L24.255 186.402L15.3203 190.295L9.22835 191.073ZM26.6918 193.797L35.2204 191.073L38.0633 193.408L34.8144 193.408L27.0979 195.743L26.6918 193.797ZM21.0061 203.917L16.9447 200.025L21.4121 203.138L25.8795 203.138L29.5347 205.863L35.2204 205.863L29.9407 203.917L25.4735 201.192L21.0061 203.917ZM12.8835 212.09L10.4467 212.09L12.8835 212.09L22.2244 212.09L12.8835 216.76L12.8835 212.09ZM34.0021 212.09L36.4387 214.814L33.5959 214.814L26.2856 214.814L34.0021 212.09Z" fill="black"/>
<path d="M-36.3797 364.325L-39.1504 364.325L-39.1504 373.7L-3.52662 364.716L-3.52662 358.466L4.38964 358.466L4.38964 307.687L-17.7761 313.156L-20.1511 318.234L-27.6716 320.577L-35.588 322.921L-35.588 361.982L-32.8173 361.982L-30.4423 361.982C-29.2563 362.064 -28.0659 362.064 -26.8799 361.982C-25.1994 361.246 -23.6065 360.329 -22.1302 359.247C-20.8157 359.407 -19.4865 359.407 -18.172 359.247L-13.0263 355.732L-17.3804 360.81L-22.1302 360.81L-26.0883 363.544L-29.6507 363.544L-36.3797 364.325ZM-36.3797 332.686L-33.213 332.686L-28.4633 329.561L-23.7135 329.561L-19.3594 324.874L-16.5887 324.874L-21.3385 329.952L-26.0883 329.952L-30.4423 332.295L-33.213 332.295L-35.588 332.295L-36.3797 332.686ZM-38.3587 344.795L-35.588 344.795L-32.0256 344.795L-29.2549 342.061C-27.413 341.867 -25.5554 341.867 -23.7135 342.061L-20.1511 338.936L-15.4013 338.936C-14.5655 338.059 -13.6366 337.273 -12.6306 336.592C-10.9201 336.414 -9.19538 336.414 -7.4849 336.592C-5.96338 335.649 -4.50865 334.605 -3.13086 333.467L-0.360144 333.467C-1.2724 333.266 -2.21861 333.266 -3.13086 333.467C-4.36152 334.683 -5.84799 335.616 -7.4849 336.202C-9.04028 336.616 -10.6793 336.616 -12.2347 336.202L-14.2137 341.67L-18.172 341.67L-21.3385 341.67L-26.4842 341.67L-29.2549 344.404L-31.6299 344.404L-38.3587 344.795ZM-15.4013 348.31C-14.0124 347.65 -12.6874 346.865 -11.443 345.967L-7.4849 345.967L-3.13086 342.451C-3.13086 342.451 -0.360143 344.404 -0.360143 344.795L-2.73511 344.795L-7.08899 348.31L-11.443 348.31L-14.6097 348.31L-18.5678 348.31L-23.3176 350.654L-20.1511 350.654L-16.1928 348.31C-15.5334 348.339 -14.8731 348.339 -14.2137 348.31L-15.4013 348.31ZM-37.963 354.56L-35.1923 354.56L-30.0466 351.045L-35.1923 355.732L-37.963 354.56Z" fill="black"/>
<path d="M-36.3797 429.935L-39.1504 429.935L-39.1504 439.31L-3.52662 430.326L-3.52662 424.076L4.38964 424.076L4.38964 373.298L-17.7761 378.766L-20.1511 383.844L-27.6716 386.187L-35.588 388.531L-35.588 427.592L-32.8173 427.592L-30.4423 427.592C-29.2563 427.674 -28.0659 427.674 -26.8799 427.592C-25.1994 426.856 -23.6065 425.939 -22.1302 424.857C-20.8157 425.017 -19.4865 425.017 -18.172 424.857L-13.0263 421.342L-17.3804 426.42L-22.1302 426.42L-26.0883 429.154L-29.6507 429.154L-36.3797 429.935ZM-36.3797 398.296L-33.213 398.296L-28.4633 395.171L-23.7135 395.171L-19.3594 390.484L-16.5887 390.484L-21.3385 395.562L-26.0883 395.562L-30.4423 397.906L-33.213 397.906L-35.588 397.906L-36.3797 398.296ZM-38.3587 410.405L-35.588 410.405L-32.0256 410.405L-29.2549 407.671C-27.413 407.477 -25.5554 407.477 -23.7135 407.671L-20.1511 404.546L-15.4013 404.546C-14.5655 403.669 -13.6366 402.883 -12.6306 402.202C-10.9201 402.024 -9.19538 402.024 -7.4849 402.202C-5.96338 401.259 -4.50865 400.215 -3.13086 399.077L-0.360144 399.077C-1.2724 398.876 -2.21861 398.876 -3.13086 399.077C-4.36152 400.293 -5.84799 401.226 -7.4849 401.812C-9.04028 402.226 -10.6793 402.226 -12.2347 401.812L-14.2137 407.28L-18.172 407.28L-21.3385 407.28L-26.4842 407.28L-29.2549 410.014L-31.6299 410.014L-38.3587 410.405ZM-15.4013 413.92C-14.0124 413.26 -12.6874 412.475 -11.443 411.577L-7.4849 411.577L-3.13086 408.061C-3.13086 408.061 -0.360143 410.014 -0.360143 410.405L-2.73511 410.405L-7.08899 413.92L-11.443 413.92L-14.6097 413.92L-18.5678 413.92L-23.3176 416.264L-20.1511 416.264L-16.1928 413.92C-15.5334 413.949 -14.8731 413.949 -14.2137 413.92L-15.4013 413.92ZM-37.963 420.17L-35.1923 420.17L-30.0466 416.655L-35.1923 421.342L-37.963 420.17Z" fill="black"/>
<path d="M39.6878 364.121L32.3775 364.121L39.6878 364.121L39.6878 322.477L39.6878 316.639L7.19775 307.687L7.19775 316.249L13.6958 316.249L16.1324 316.249L9.22835 316.249L9.22835 360.619L24.6612 365.678L27.0979 369.96L40.9062 372.295L39.6878 364.121ZM9.22835 329.093L12.4774 326.758L15.3203 326.758L24.255 324.423L15.3203 328.315L9.22835 329.093ZM26.6918 331.818L35.2204 329.093L38.0633 331.428L34.8144 331.428L27.0979 333.764L26.6918 331.818ZM21.0061 341.937L16.9447 338.045L21.4121 341.158L25.8795 341.158L29.5347 343.883L35.2204 343.883L29.9407 341.937L25.4735 339.212L21.0061 341.937ZM12.8835 350.11L10.4467 350.11L12.8835 350.11L22.2244 350.11L12.8835 354.781L12.8835 350.11ZM34.0021 350.11L36.4387 352.834L33.5959 352.834L26.2856 352.834L34.0021 350.11Z" fill="black"/>
<path d="M39.6878 429.731L32.3775 429.731L39.6878 429.731L39.6878 388.087L39.6878 382.248L7.19775 373.297L7.19775 381.859L13.6958 381.859L16.1324 381.859L9.22835 381.859L9.22835 426.228L24.6612 431.288L27.0979 435.569L40.9062 437.905L39.6878 429.731ZM9.22835 394.703L12.4774 392.368L15.3203 392.368L24.255 390.033L15.3203 393.925L9.22835 394.703ZM26.6918 397.427L35.2204 394.703L38.0633 397.038L34.8144 397.038L27.0979 399.373L26.6918 397.427ZM21.0061 407.547L16.9447 403.655L21.4121 406.768L25.8795 406.768L29.5347 409.493L35.2204 409.493L29.9407 407.547L25.4735 404.822L21.0061 407.547ZM12.8835 415.72L10.4467 415.72L12.8835 415.72L22.2244 415.72L12.8835 420.39L12.8835 415.72ZM34.0021 415.72L36.4387 418.444L33.5959 418.444L26.2856 418.444L34.0021 415.72Z" fill="black"/>
<path d="M134.245 247.871C133.057 247.956 131.864 247.956 130.676 247.871L136.228 247.871L136.228 214.668L133.452 214.668L128.693 214.668L125.521 214.668L125.521 211.11L130.676 211.11L133.452 211.11L133.452 203.6C129.167 202.779 124.931 201.723 120.762 200.438L118.383 194.904L104.106 192.137L104.106 199.252C105.293 199.135 106.488 199.135 107.675 199.252L116.796 203.6L113.624 203.6L110.055 203.6L110.055 251.034L137.814 258.149L137.814 251.429L134.245 247.871ZM120.365 208.343L116.796 208.343L120.365 208.343ZM114.417 210.715L116.796 210.715L114.02 210.715L114.417 210.715ZM128.297 224.55L125.521 221.388L121.952 221.388L119.969 221.388L116.003 221.388L113.624 219.016L116.003 219.016L119.572 219.016L122.348 221.783L126.314 221.783L126.314 224.155L130.676 224.155L126.314 226.131L128.297 224.55ZM112.831 232.06L116.4 232.06L122.745 229.689L119.969 229.689L114.417 232.06L112.831 232.06ZM129.09 232.06L132.262 232.06L128.693 232.06C126.935 232.762 125.214 233.554 123.538 234.432C125.397 234.381 127.257 234.513 129.09 234.827L129.09 232.06ZM114.02 239.966C114.02 239.966 114.02 237.594 111.641 237.594L114.813 237.594L118.779 237.594L121.952 240.361L125.521 240.361L128.693 240.361L121.952 243.128C120.983 242.109 119.921 241.183 118.779 240.361L114.02 243.128L114.02 239.966Z" fill="black"/>
<path d="M266.269 247.871C265.081 247.956 263.888 247.956 262.7 247.871L268.252 247.871L268.252 214.668L265.476 214.668L260.717 214.668L257.545 214.668L257.545 211.11L262.7 211.11L265.476 211.11L265.476 203.6C261.191 202.779 256.954 201.723 252.786 200.438L250.406 194.904L236.13 192.137L236.13 199.252C237.317 199.135 238.512 199.135 239.699 199.252L248.82 203.6L245.647 203.6L242.078 203.6L242.078 251.034L269.838 258.149L269.838 251.429L266.269 247.871ZM252.389 208.343L248.82 208.343L252.389 208.343ZM246.441 210.715L248.82 210.715L246.044 210.715L246.441 210.715ZM260.321 224.55L257.545 221.388L253.976 221.388L251.993 221.388L248.027 221.388L245.647 219.016L248.027 219.016L251.596 219.016L254.372 221.783L258.338 221.783L258.338 224.155L262.7 224.155L258.338 226.131L260.321 224.55ZM244.854 232.06L248.424 232.06L254.769 229.689L251.993 229.689L246.441 232.06L244.854 232.06ZM261.114 232.06L264.286 232.06L260.717 232.06C258.959 232.762 257.238 233.554 255.562 234.432C257.421 234.381 259.281 234.513 261.114 234.827L261.114 232.06ZM246.044 239.966C246.044 239.966 246.044 237.594 243.665 237.594L246.837 237.594L250.803 237.594L253.976 240.361L257.545 240.361L260.717 240.361L253.976 243.128C253.007 242.109 251.945 241.183 250.803 240.361L246.044 243.128L246.044 239.966Z" fill="black"/>
<path d="M178.55 211.339L175.8 211.339L173.443 211.339L171.087 214.482C170.04 214.421 168.991 214.421 167.944 214.482C167.944 214.482 167.945 214.482 165.588 214.482C163.231 214.482 165.588 216.839 165.588 216.839L163.624 216.839L160.089 216.839L162.445 216.839L162.445 214.875L167.159 214.875L169.908 212.518L173.836 212.518L173.836 204.268L171.872 204.268L168.73 204.268L168.73 206.625L165.195 206.625C163.922 207.561 162.738 208.613 161.66 209.768L161.66 207.411L161.66 205.053L163.624 205.053L165.588 205.053L169.908 205.053L169.908 199.16L140.449 204.66L140.449 209.768L138.093 211.732L132.201 208.982L132.201 230.197L137.7 230.197L140.056 230.197L143.984 230.197L146.341 230.197L148.698 230.197L152.233 227.84L155.768 227.84L158.91 225.483L161.66 225.483L158.518 225.483L155.375 228.233L151.84 228.233L148.698 230.983L145.163 230.983L156.161 228.233L152.626 228.233L149.876 230.59L145.948 228.233L145.948 248.269L155.375 245.519L156.161 245.519L148.305 247.876L141.235 250.233L141.235 255.341L160.874 250.233L165.195 243.947L176.193 240.019L176.193 231.376C175.278 231.31 174.359 231.31 173.443 231.376L170.694 231.376L168.337 233.733L165.981 233.733L162.838 233.733L158.518 230.983L162.445 230.983L165.588 230.983L167.944 230.983L170.301 228.626L172.658 228.626L175.8 228.626L178.55 211.339ZM149.483 220.375L143.984 220.375L143.984 217.232L149.091 217.232L151.055 217.232L147.912 217.232L149.483 220.375ZM157.732 237.269L151.447 237.269L147.519 239.626L150.269 239.626L153.411 237.662L157.732 237.269Z" fill="black"/>
<path d="M310.574 211.339L307.824 211.339L305.467 211.339L303.111 214.482C302.064 214.421 301.015 214.421 299.968 214.482C299.968 214.482 299.968 214.482 297.612 214.482C295.255 214.482 297.612 216.839 297.612 216.839L295.648 216.839L292.113 216.839L294.469 216.839L294.469 214.875L299.183 214.875L301.932 212.518L305.86 212.518L305.86 204.268L303.896 204.268L300.754 204.268L300.754 206.625L297.219 206.625C295.946 207.561 294.762 208.613 293.684 209.768L293.684 207.411L293.684 205.053L295.648 205.053L297.612 205.053L301.932 205.053L301.932 199.16L272.473 204.66L272.473 209.768L270.116 211.732L264.225 208.982L264.225 230.197L269.724 230.197L272.08 230.197L276.008 230.197L278.365 230.197L280.722 230.197L284.257 227.84L287.792 227.84L290.934 225.483L293.684 225.483L290.542 225.483L287.399 228.233L283.864 228.233L280.722 230.983L277.187 230.983L288.185 228.233L284.65 228.233L281.9 230.59L277.972 228.233L277.972 248.269L287.399 245.519L288.185 245.519L280.329 247.876L273.259 250.233L273.259 255.341L292.898 250.233L297.219 243.947L308.217 240.019L308.217 231.376C307.302 231.31 306.383 231.31 305.467 231.376L302.718 231.376L300.361 233.733L298.004 233.733L294.862 233.733L290.542 230.983L294.469 230.983L297.612 230.983L299.968 230.983L302.325 228.626L304.682 228.626L307.824 228.626L310.574 211.339ZM281.507 220.375L276.008 220.375L276.008 217.232L281.115 217.232L283.078 217.232L279.936 217.232L281.507 220.375ZM289.756 237.269L283.471 237.269L279.543 239.626L282.293 239.626L285.435 237.662L289.756 237.269Z" fill="black"/>
<path d="M0.175245 12.7602C0.175245 7.54293 -6.14508 14.9962 0.175246 17.9775C0.175245 12.7602 -3.77496 13.5056 0.175245 12.7602Z" fill="black"/>
<path d="M40.9025 -21.5498L8.59863 -31.1807L8.59863 22.3675L24.1667 27.3756L24.1667 31.6131L39.3457 36.2361L39.3457 26.9903L32.7293 26.9903C32.7293 26.9903 37.0104 26.9903 39.3457 26.9903L40.9025 -21.5498ZM19.8854 -15.0008L26.8911 -18.4678L30.0048 -14.6155L34.6753 -16.5418L34.6753 -14.2301L31.5617 -14.2301L28.0589 -12.3041L24.556 -15.7711L19.8854 -15.0008ZM10.9338 -8.45178L10.9338 -11.1484L14.0475 -8.45178L20.6639 -11.1484L12.8799 -8.06646L10.1553 -10.3778L10.9338 -8.45178ZM28.0589 -4.21413L34.2861 -4.21413L37.3997 -4.21413L38.9565 -4.21413L34.6753 -6.52547L28.0589 -4.21413ZM21.4423 4.26118L15.6043 0.794166L12.1015 0.794166L15.9935 -1.90249L21.4423 1.56451L27.2804 1.56451L29.6156 4.6465L35.0645 4.6465L28.8373 4.6465L28.8373 1.94984L21.4423 4.26118ZM12.4906 12.3512L14.8259 12.3512L23.3883 12.3512L14.8259 16.2036L12.4906 12.3512ZM26.8911 17.7446L34.2861 13.8922L38.1781 17.7446L33.1184 15.8183L26.8911 17.7446Z" fill="black"/>
<path d="M-36.5783 90.4883L-39.3625 90.4883L-39.3625 99.4399L-3.5658 90.8774L-3.5658 84.6502L4.38889 84.6502L4.38889 42.227C4.38889 42.227 2.00257 42.227 0.0138676 38.335L0.0138674 34.8322C-4.02606 35.4546 -8.01421 36.3651 -11.9185 37.5566C-11.9185 41.0594 -11.9184 39.8918 -14.3048 37.5566L-19.8731 37.5566L-22.2596 42.6163L-28.2258 42.6163L-31.4077 54.6815L-26.6348 51.5679L-21.862 51.5679L-17.4868 46.8975L-22.2596 51.9571L-27.0325 51.9571L-31.4077 54.2923L-34.1918 54.2923C-36.976 62.4656 -39.3624 66.3576 -40.5557 60.5196L-40.5557 84.6502L-37.7715 84.6502L-35.3851 84.6502C-34.1934 84.7324 -32.9972 84.7324 -31.8055 84.6502C-30.1167 83.917 -28.5159 83.0033 -27.0325 81.9258C-25.7117 82.0846 -24.376 82.0846 -23.0551 81.9257L-17.8845 78.4229L-21.0665 86.207L-25.8393 86.207L-29.8167 88.9314L-33.3963 88.9314L-36.5783 90.4883ZM-36.5783 71.0281L-33.7942 71.0281L-30.2145 71.0281L-27.4303 68.3037C-27.4303 68.3037 -22.2597 68.3037 -21.862 68.3037C-21.4642 68.3037 -18.2823 65.5793 -18.2823 65.5793L-13.5093 65.5793L-10.7251 63.244C-9.00636 63.0667 -7.2734 63.0667 -5.55462 63.244C-4.03997 62.4254 -2.57875 61.5155 -1.17946 60.5196L1.60472 60.5196C1.60472 60.5196 1.60473 60.5196 -1.17946 60.5196L-5.55462 63.244C-7.13845 63.4525 -8.74364 63.4525 -10.3275 63.244L-13.5093 63.244L-17.4868 63.244L-20.6686 65.5793L-25.8393 65.5793L-28.6235 68.3037L-31.01 68.3037L-36.5783 71.0281ZM-13.5093 74.5309C-12.1136 73.8726 -10.7824 73.0909 -9.53196 72.1957L-5.55462 72.1957L-1.17946 68.6928L1.60472 68.6928L-0.781629 68.6928L-5.1568 72.1957L-9.53196 72.1957L-12.714 72.1957L-16.6913 72.1957L-21.4641 74.5309L-18.2823 74.5309L-14.3048 72.1957C-14.3475 72.9735 -14.3475 73.7531 -14.3048 74.5309L-13.5093 74.5309ZM-36.1805 81.1473L-33.3963 81.1473L-28.2258 77.6445L-33.3963 81.9258L-36.1805 81.1473Z" fill="black"/>
<path d="M39.6878 41.3969L7.19775 32.0224L7.19775 41.0064L13.6958 41.0064L16.1324 41.0064L9.22835 41.0064L9.22835 86.7071L24.6612 91.3943L27.0979 95.691L40.9062 98.0347L40.9062 89.832L33.5959 89.832L39.6878 86.7071L39.6878 41.3969ZM8.41608 55.8493L11.6652 53.1151L14.508 53.1151L23.4427 50.3808L14.508 54.6775C12.7046 54.8567 10.9311 55.2503 9.22835 55.8493L8.41608 55.8493ZM25.8795 58.5835L34.4081 55.8493L37.251 55.8493L34.0021 55.8493L26.2856 58.5835L25.8795 58.5835ZM20.1938 69.1298L16.1324 65.6144L12.8835 65.6144L16.5386 65.6144L21.0061 68.7393L25.4735 68.7393L29.1286 71.4735L34.8144 71.4735L29.1286 74.2078L24.6612 71.0828L20.1938 69.1298ZM12.0712 77.3325L9.63441 77.3325L12.0712 77.3325L21.4121 74.989L12.0712 79.6762L12.0712 77.3325ZM33.1898 77.3325L35.6266 79.6762L32.7838 79.6762L25.4735 79.6762C28.285 79.0975 31.1346 78.706 34.0021 78.5044L33.1898 77.3325Z" fill="black"/>
<path d="M66.3994 -11.0537L54.3254 -4.75063L54.3254 38.9779L54.3254 47.6448L69.5154 47.6448L69.5154 53.948L56.2728 61.433L53.5464 110.677L83.537 106.343L86.2634 102.798L97.948 96.8886L99.8955 46.8569L85.0949 46.8569L85.0949 40.9477L97.948 33.4626L97.948 -18.5388L68.7364 -13.4176L66.3994 -11.0537ZM73.4102 98.4644L71.0734 98.4644L73.0208 98.4644L73.4102 98.4644ZM69.1258 98.4644L64.8414 101.616L61.7256 101.616L58.6096 101.616L61.7256 99.6462L64.452 99.6462L67.568 99.6462L69.1258 98.4644ZM62.894 90.1915L65.231 90.1915L69.1258 90.1915L65.6204 92.5551L62.894 90.1915ZM83.1474 90.1915L85.8739 90.1915L90.5478 90.1915L86.2634 92.9491L83.9264 92.9491L81.5895 92.9491L83.9264 90.9793L83.1474 90.1915ZM70.2944 90.1915L73.4102 90.1915L70.2944 90.1915ZM70.2944 83.4943L67.1784 83.4943L64.0626 83.4943L60.5572 83.4943L64.0626 83.4943L67.1784 83.4943L70.2944 85.858L75.3576 83.4943L78.4736 83.4943L81.979 83.4943L78.0841 85.858L74.5786 83.1004L70.2944 83.4943ZM93.2742 79.5548L90.1582 79.5548L87.4318 79.5548L92.1057 79.5548L93.2742 79.5548ZM93.2742 70.0999L89.7688 70.0999L87.4318 72.0697C86.7848 71.9948 86.1315 71.9948 85.4844 72.0697L88.2108 72.0697L91.7162 70.0999L93.2742 70.0999ZM66.01 74.0394L62.894 72.0697L58.6096 74.0394L58.6096 71.2817L60.9466 71.2817L63.2836 71.2817L70.2944 68.1302L66.01 74.0394ZM73.7998 59.8573L79.642 61.827L82.758 59.8573L85.4844 59.8573L83.1474 59.8573L81.2 59.8573L73.7998 59.8573ZM94.0531 59.8573L90.9372 59.8573L87.8213 62.2209L92.1057 59.8573L94.0531 59.8573ZM67.1784 39.3719L70.2944 36.6142L73.4102 40.1598L71.4628 40.1598L68.3468 37.7961L64.0626 40.1598L61.3362 40.1598L56.6622 42.5234L60.9466 38.1899L63.673 40.5537L67.1784 39.3719ZM94.0531 27.1594L88.6003 30.3111L85.0949 30.3111C83.315 31.4984 81.6228 32.815 80.0316 34.2505L76.1366 31.8867C76.1366 31.8867 78.4736 31.8867 78.863 31.8867C79.2525 31.8867 81.2 31.8867 81.2 31.8867L84.3159 28.7352L86.2634 28.7352L89.3792 28.7352L94.0531 27.1594ZM68.7364 29.1291L66.3994 31.4929L64.0626 31.4929L60.1676 31.4929L62.5046 31.4929L66.789 29.1291L68.7364 29.1291ZM57.0518 19.2803L58.9992 19.2803L58.9992 17.3106L60.9466 17.3106L58.9992 19.2803L57.0518 19.2803ZM75.3576 19.2803L79.642 19.2803L77.3052 19.2803L75.3576 19.2803ZM73.4102 19.2803L69.1258 19.2803L73.7998 19.2803L73.4102 19.2803ZM88.6003 19.2803L91.7162 21.6441L88.9898 21.6441L86.6528 21.6441L88.9898 19.2803L91.7162 19.2803L88.6003 19.2803ZM92.1057 9.4316L89.3792 8.24979L93.6636 8.24979L92.1057 9.4316ZM85.4844 9.4316C85.4844 9.4316 80.0315 11.7953 79.642 12.1892L83.537 12.1892L85.4844 9.4316ZM66.3994 9.4316C68.3429 9.60995 70.2984 9.60995 72.2418 9.4316L67.1784 8.24979L62.894 5.49216L59.3886 8.24979C58.7416 8.17494 58.0882 8.17494 57.4412 8.24979L59.3886 8.24979L62.5046 5.49216C63.9245 5.2811 65.3548 5.14951 66.789 5.09812L66.3994 9.4316ZM94.0531 -2.38673L90.9372 -2.38673L88.2108 -0.0231186L90.9372 -0.0231187L94.0531 -2.38673ZM76.5262 -2.38673L78.4736 -2.38673L83.537 -2.38673L81.2 -0.0231183L78.084 -2.38673L76.5262 -2.38673Z" fill="black"/>
<path d="M202.639 -11.0537L190.565 -4.75063L190.565 38.9779L190.565 47.6448L205.755 47.6448L205.755 53.948L192.513 61.433L189.786 110.677L219.777 106.343L222.503 102.798L234.188 96.8886L236.135 46.8569L221.335 46.8569L221.335 40.9477L234.188 33.4626L234.188 -18.5388L204.976 -13.4176L202.639 -11.0537ZM209.65 98.4644L207.313 98.4644L209.261 98.4644L209.65 98.4644ZM205.366 98.4644L201.081 101.616L197.965 101.616L194.849 101.616L197.965 99.6462L200.692 99.6462L203.808 99.6462L205.366 98.4644ZM199.134 90.1915L201.471 90.1915L205.366 90.1915L201.86 92.5551L199.134 90.1915ZM219.387 90.1915L222.114 90.1915L226.788 90.1915L222.503 92.9491L220.166 92.9491L217.829 92.9491L220.166 90.9793L219.387 90.1915ZM206.534 90.1915L209.65 90.1915L206.534 90.1915ZM206.534 83.4943L203.418 83.4943L200.302 83.4943L196.797 83.4943L200.302 83.4943L203.418 83.4943L206.534 85.858L211.597 83.4943L214.713 83.4943L218.219 83.4943L214.324 85.858L210.818 83.1004L206.534 83.4943ZM229.514 79.5548L226.398 79.5548L223.672 79.5548L228.345 79.5548L229.514 79.5548ZM229.514 70.0999L226.009 70.0999L223.672 72.0697C223.025 71.9948 222.371 71.9948 221.724 72.0697L224.451 72.0697L227.956 70.0999L229.514 70.0999ZM202.25 74.0394L199.134 72.0697L194.849 74.0394L194.849 71.2817L197.186 71.2817L199.523 71.2817L206.534 68.1302L202.25 74.0394ZM210.04 59.8573L215.882 61.827L218.998 59.8573L221.724 59.8573L219.387 59.8573L217.44 59.8573L210.04 59.8573ZM230.293 59.8573L227.177 59.8573L224.061 62.2209L228.345 59.8573L230.293 59.8573ZM203.418 39.3719L206.534 36.6142L209.65 40.1598L207.703 40.1598L204.587 37.7961L200.302 40.1598L197.576 40.1598L192.902 42.5234L197.186 38.1899L199.913 40.5537L203.418 39.3719ZM230.293 27.1594L224.84 30.3111L221.335 30.3111C219.555 31.4984 217.863 32.815 216.271 34.2505L212.376 31.8867C212.376 31.8867 214.713 31.8867 215.103 31.8867C215.492 31.8867 217.44 31.8867 217.44 31.8867L220.556 28.7352L222.503 28.7352L225.619 28.7352L230.293 27.1594ZM204.976 29.1291L202.639 31.4929L200.302 31.4929L196.407 31.4929L198.744 31.4929L203.029 29.1291L204.976 29.1291ZM193.292 19.2803L195.239 19.2803L195.239 17.3106L197.186 17.3106L195.239 19.2803L193.292 19.2803ZM211.597 19.2803L215.882 19.2803L213.545 19.2803L211.597 19.2803ZM209.65 19.2803L205.366 19.2803L210.04 19.2803L209.65 19.2803ZM224.84 19.2803L227.956 21.6441L225.23 21.6441L222.893 21.6441L225.23 19.2803L227.956 19.2803L224.84 19.2803ZM228.345 9.4316L225.619 8.24979L229.903 8.24979L228.345 9.4316ZM221.724 9.4316C221.724 9.4316 216.271 11.7953 215.882 12.1892L219.777 12.1892L221.724 9.4316ZM202.639 9.4316C204.583 9.60995 206.538 9.60995 208.482 9.4316L203.418 8.24979L199.134 5.49216L195.628 8.24979C194.981 8.17494 194.328 8.17494 193.681 8.24979L195.628 8.24979L198.744 5.49216C200.164 5.2811 201.595 5.14951 203.029 5.09812L202.639 9.4316ZM230.293 -2.38673L227.177 -2.38673L224.451 -0.0231186L227.177 -0.0231187L230.293 -2.38673ZM212.766 -2.38673L214.713 -2.38673L219.777 -2.38673L217.44 -0.0231183L214.324 -2.38673L212.766 -2.38673Z" fill="black"/>
<path d="M112.603 5.66157L112.603 51.3623L140.625 61.5181L140.625 52.9247L138.29 52.9247L134.787 52.9247L140.625 52.9247L140.625 19.7234L137.511 19.7234L132.841 19.7234L130.117 19.7234L130.117 16.5985L135.176 16.5985L137.511 16.5985L137.511 8.39579L122.333 3.31804L122.333 0.193126L108.321 -4.49424L108.321 4.88049L111.824 4.88049C113.664 6.2212 115.618 7.39738 117.662 8.39579L114.549 8.39579L112.603 5.66157ZM136.344 39.2536L132.841 39.2536C131.042 39.9369 129.34 40.8563 127.781 41.9878L130.895 38.8629C132.06 38.7505 133.233 38.7505 134.398 38.8629L136.344 39.2536ZM124.668 35.7382L121.554 35.7382L117.662 38.8629L117.662 36.5194L120.776 38.8629L127.003 36.1287L124.668 35.7382ZM120.776 24.8011L123.889 27.5355L127.392 27.5355L127.392 29.879L131.674 29.879L127.392 31.832L124.668 29.0978L121.165 29.0978L119.219 29.0978L115.716 29.0978L112.992 29.0978L115.716 29.0978L120.776 24.8011ZM124.279 13.4737L120.776 13.4737L125.057 13.4737L124.279 13.4737ZM117.273 13.4737L114.549 13.4737L117.273 13.4737Z" fill="black"/>
<path d="M248.842 5.66157L248.842 51.3623L276.865 61.5181L276.865 52.9247L274.53 52.9247L271.027 52.9247L276.865 52.9247L276.865 19.7234L273.751 19.7234L269.081 19.7234L266.356 19.7234L266.356 16.5985L271.416 16.5985L273.751 16.5985L273.751 8.39579L258.572 3.31804L258.572 0.193126L244.561 -4.49424L244.561 4.88049L248.064 4.88049C249.904 6.2212 251.857 7.39738 253.902 8.39579L250.788 8.39579L248.842 5.66157ZM272.584 39.2536L269.081 39.2536C267.281 39.9369 265.58 40.8563 264.021 41.9878L267.135 38.8629C268.3 38.7505 269.473 38.7505 270.638 38.8629L272.584 39.2536ZM260.908 35.7382L257.794 35.7382L253.902 38.8629L253.902 36.5194L257.016 38.8629L263.243 36.1287L260.908 35.7382ZM257.016 24.8011L260.129 27.5355L263.632 27.5355L263.632 29.879L267.913 29.879L263.632 31.832L260.908 29.0978L257.405 29.0978L255.459 29.0978L251.956 29.0978L249.232 29.0978L251.956 29.0978L257.016 24.8011ZM260.518 13.4737L257.016 13.4737L261.297 13.4737L260.518 13.4737ZM253.513 13.4737L250.788 13.4737L253.513 13.4737Z" fill="black"/>
<path d="M179.204 34.4729C179.204 34.4729 176.436 34.4729 176.041 34.4729C175.645 34.4729 172.878 34.4729 172.878 34.4729L170.506 36.8104L168.134 36.8104L165.367 36.8104L161.018 40.7061L164.971 35.6416L168.134 35.6416L170.506 33.3042L173.273 33.3042L176.436 33.3042L178.808 33.3042L178.808 14.6047L175.25 14.6047L172.483 14.6047L170.111 17.7212L167.343 17.7212L164.971 17.7212L164.971 20.0587L162.599 20.0587L159.041 20.0587L161.808 20.0587L166.948 20.0587L169.715 17.7212L174.46 17.7212L174.46 9.15058L172.087 9.15058L168.529 9.15058L168.529 11.0986L164.971 11.0986L162.994 11.0986L159.041 14.2151L159.041 11.8777L159.041 9.54024L161.018 9.54024L161.018 11.4881L163.39 11.4881L167.739 11.4881L167.739 2.52776L130.971 10.7089L134.134 16.9421L134.134 27.0711L137.297 27.0711L139.669 27.0711L136.111 27.0711L133.739 29.7981L129.39 29.7981L129.39 36.8104L132.158 36.8104L134.134 34.8624L138.483 34.8624L143.227 34.8624L146.39 32.5251L149.948 32.5251L153.111 30.1876L156.274 30.1876L152.715 30.1876L149.948 32.9146L145.995 32.9146L142.832 35.2521L138.483 35.2521L155.878 32.5251L152.32 32.5251L149.157 35.2521L149.157 51.6141L151.529 49.2767L156.274 49.2767L151.925 49.2767L148.367 49.2767L148.367 55.8994L166.157 51.2246L170.506 45.7706L180.785 41.0957L182.762 31.7459L179.204 34.4729Z" fill="black"/>
<path d="M315.443 34.4729C315.443 34.4729 312.676 34.4729 312.281 34.4729C311.885 34.4729 309.118 34.4729 309.118 34.4729L306.746 36.8104L304.374 36.8104L301.606 36.8104L297.258 40.7061L301.211 35.6416L304.374 35.6416L306.746 33.3042L309.513 33.3042L312.676 33.3042L315.048 33.3042L315.048 14.6047L311.49 14.6047L308.722 14.6047L306.35 17.7212L303.583 17.7212L301.211 17.7212L301.211 20.0587L298.839 20.0587L295.281 20.0587L298.048 20.0587L303.188 20.0587L305.955 17.7212L310.699 17.7212L310.699 9.15058L308.327 9.15058L304.769 9.15058L304.769 11.0986L301.211 11.0986L299.234 11.0986L295.281 14.2151L295.281 11.8777L295.281 9.54024L297.258 9.54024L297.258 11.4881L299.63 11.4881L303.978 11.4881L303.978 2.52776L267.211 10.7089L270.374 16.9421L270.374 27.0711L273.537 27.0711L275.909 27.0711L272.351 27.0711L269.979 29.7981L265.63 29.7981L265.63 36.8104L268.397 36.8104L270.374 34.8624L274.723 34.8624L279.467 34.8624L282.63 32.5251L286.188 32.5251L289.351 30.1876L292.513 30.1876L288.955 30.1876L286.188 32.9146L282.234 32.9146L279.072 35.2521L274.723 35.2521L292.118 32.5251L288.56 32.5251L285.397 35.2521L285.397 51.6141L287.769 49.2767L292.513 49.2767L288.165 49.2767L284.606 49.2767L284.606 55.8994L302.397 51.2246L306.746 45.7706L317.025 41.0957L319.002 31.7459L315.443 34.4729Z" fill="black"/>
<path d="M134.416 112.633L130.826 112.633L136.41 112.633L136.41 80.2928L133.618 80.2928L128.832 80.2928L125.642 80.2928L125.642 77.1757L130.826 77.1757L133.618 77.1757L133.618 68.9932L120.856 65.8761L118.463 60.4212L104.106 57.304L104.106 64.3175L107.695 64.3175C109.153 64.4784 110.625 64.4784 112.082 64.3175L108.892 64.3175L105.302 64.3175L105.302 110.685L133.219 117.698L133.219 111.074L134.416 112.633ZM120.457 73.669L116.868 73.669L120.457 73.669ZM114.475 76.0067L116.868 76.0067L114.076 76.0067L114.475 76.0067ZM128.434 89.6442L125.642 86.527L122.053 86.527L120.059 86.527L116.07 86.527L113.677 86.527L116.868 87.3063L119.66 89.6442L123.648 89.6442L123.648 91.5924L123.648 93.9302L128.035 93.9302L123.648 95.8785L128.434 89.6442ZM112.88 97.0473L116.469 97.0473L122.85 94.7095L120.059 94.7095L114.475 94.7095L112.88 97.0473ZM129.231 97.0473L132.422 97.0473L128.832 97.0473C127.064 97.7391 125.334 98.5195 123.648 99.3852L129.231 97.0473ZM114.076 104.84C114.076 104.84 114.076 102.502 111.683 102.502L114.874 102.502L118.862 102.502L122.053 105.23L125.642 105.23L128.832 105.23L122.053 108.347L118.862 105.619L114.076 104.84Z" fill="black"/>
<path d="M270.655 112.633L267.066 112.633L272.65 112.633L272.65 80.2928L269.858 80.2928L265.072 80.2928L261.882 80.2928L261.882 77.1757L267.066 77.1757L269.858 77.1757L269.858 68.9932L257.096 65.8761L254.703 60.4212L240.346 57.304L240.346 64.3175L243.935 64.3175C245.393 64.4784 246.864 64.4784 248.322 64.3175L245.131 64.3175L241.542 64.3175L241.542 110.685L269.459 117.698L269.459 111.074L270.655 112.633ZM256.697 73.669L253.108 73.669L256.697 73.669ZM250.715 76.0067L253.108 76.0067L250.316 76.0067L250.715 76.0067ZM264.673 89.6442L261.882 86.527L258.292 86.527L256.298 86.527L252.31 86.527L249.917 86.527L253.108 87.3063L255.899 89.6442L259.887 89.6442L259.887 91.5924L259.887 93.9302L264.274 93.9302L259.887 95.8785L264.673 89.6442ZM249.12 97.0473L252.709 97.0473L259.09 94.7095L256.298 94.7095L250.715 94.7095L249.12 97.0473ZM265.471 97.0473L268.661 97.0473L265.072 97.0473C263.304 97.7391 261.573 98.5195 259.887 99.3852L265.471 97.0473ZM250.316 104.84C250.316 104.84 250.316 102.502 247.923 102.502L251.114 102.502L255.102 102.502L258.292 105.23L261.882 105.23L265.072 105.23L258.292 108.347L255.102 105.619L250.316 104.84Z" fill="black"/>
<path d="M178.158 75.2804L175.413 75.2804L173.059 75.2804L170.706 78.383C169.661 78.323 168.613 78.323 167.568 78.383C167.568 78.383 167.568 78.383 165.214 78.383L165.214 80.7098L163.253 80.7098L159.723 80.7098L162.076 80.7098L162.076 78.7708L166.783 78.7708L169.529 76.444L173.451 76.444L173.451 68.2998L173.451 70.239L171.49 70.239L171.49 72.178L167.96 72.178L164.43 74.8927L164.43 72.5658L164.43 70.6267L166.391 70.6267L166.391 72.9537L168.352 72.9537L172.667 72.9537L172.667 67.1364L143.248 72.9537L143.248 77.6074L140.894 79.5464L135.011 77.2195L135.011 97.7738L140.502 97.7738L142.856 95.8347L146.778 95.8347L149.132 95.8347L151.485 95.8347L155.016 93.5078L158.546 93.5078L161.684 91.1808L164.43 91.1808L161.292 91.1808L169.137 86.5271L165.606 86.5271L162.468 89.2418L157.761 89.2418L155.8 91.9565L151.093 91.9565L148.347 94.6712L144.425 92.3444L144.425 112.123L153.839 109.408L158.546 109.408L150.701 111.735L143.64 114.062L143.64 119.104L163.253 114.062L167.568 107.857L178.551 104.367L178.551 95.8347C177.65 95.6048 176.705 95.6048 175.805 95.8347L173.059 95.8347L170.706 98.5494L168.352 98.5494L165.214 98.5494L160.899 96.2225L164.822 96.2225L167.96 96.2225L170.313 96.2225L172.667 93.8955L175.02 93.8955L178.158 93.8955L178.158 75.2804ZM149.132 84.2002L143.64 84.2002L143.64 81.0977L148.74 81.0977L150.701 81.0977L151.878 81.0977L149.132 84.2002ZM157.369 100.876L151.093 100.876L147.17 103.203L149.916 103.203L153.054 101.264L157.369 100.876Z" fill="black"/>
<path d="M314.394 75.2804L311.648 75.2804L309.294 75.2804L306.941 78.383C305.896 78.323 304.848 78.323 303.803 78.383C303.803 78.383 303.803 78.383 301.45 78.383L301.45 80.7098L299.488 80.7098L295.958 80.7098L298.311 80.7098L298.311 78.7708L303.018 78.7708L305.764 76.444L309.687 76.444L309.687 68.2998L309.687 70.239L307.726 70.239L307.726 72.178L304.195 72.178L300.665 74.8927L300.665 72.5658L300.665 70.6267L302.626 70.6267L302.626 72.9537L304.587 72.9537L308.902 72.9537L308.902 67.1364L279.483 72.9537L279.483 77.6074L277.13 79.5464L271.246 77.2195L271.246 97.7738L276.738 97.7738L279.091 95.8347L283.014 95.8347L285.367 95.8347L287.721 95.8347L291.251 93.5078L294.781 93.5078L297.919 91.1808L300.665 91.1808L297.527 91.1808L305.372 86.5271L301.842 86.5271L298.704 89.2418L293.997 89.2418L292.035 91.9565L287.328 91.9565L284.583 94.6712L280.66 92.3444L280.66 112.123L290.074 109.408L294.781 109.408L286.936 111.735L279.876 114.062L279.876 119.104L299.488 114.062L303.803 107.857L314.786 104.367L314.786 95.8347C313.886 95.6048 312.941 95.6048 312.04 95.8347L309.294 95.8347L306.941 98.5494L304.587 98.5494L301.45 98.5494L297.135 96.2225L301.057 96.2225L304.195 96.2225L306.549 96.2225L308.902 93.8955L311.256 93.8955L314.394 93.8955L314.394 75.2804ZM285.367 84.2002L279.876 84.2002L279.876 81.0977L284.975 81.0977L286.936 81.0977L288.113 81.0977L285.367 84.2002ZM293.604 100.876L287.328 100.876L283.406 103.203L286.152 103.203L289.29 101.264L293.604 100.876Z" fill="black"/>
<path d="M-3.31551 160.429L-3.31551 154.164L2.98513 154.164L2.98512 111.092L-11.5851 114.224L1.8038 111.092L1.8038 103.652L-21.8237 109.134L-24.5802 114.616L-39.1504 119.315L-39.1504 168.26L-3.31551 160.429ZM-14.7355 124.797L-12.7665 122.056L-6.07203 124.405L-2.52791 121.273L1.0162 123.23L-1.74032 123.23L-5.28443 125.188L-12.3727 122.839L-14.7355 124.797ZM-2.52791 130.67L1.0162 130.67L-2.13419 130.67L-6.07203 134.586L-10.7975 134.586L-8.82855 132.628L-3.31551 134.586L-2.52791 130.67ZM-28.1243 136.544L-23.3987 136.544L-19.8546 133.803L-16.3105 133.803L-19.0672 133.803L-23.3987 136.935L-27.3367 136.935L-31.6684 140.068L-28.1243 136.544ZM-28.1243 145.941L-24.5802 145.941L-21.0361 142.809L-16.7044 142.809L-12.7665 139.676L-8.82855 139.676L-3.70923 137.327L-8.43482 141.634L-12.7665 139.676L-16.3105 143.592L-21.0361 143.592L-23.7926 146.333L-26.1553 146.333L-28.9119 146.333L-32.456 148.682L-28.1243 145.941ZM-36.7876 160.429L-34.425 157.688L-30.0932 157.688L-26.1553 154.164L-21.8237 154.164L-14.7355 149.074L-21.8237 155.73L-26.1553 155.73L-30.0932 159.254L-34.0311 159.254L-36.7876 160.429Z" fill="black"/>
<path d="M8.59863 103.652L8.59863 158.63L24.2439 163.772L24.2439 168.123L39.498 172.473L39.498 162.981L32.8488 162.981L39.498 162.981L39.498 114.727L8.59863 103.652ZM39.1069 153.884L34.0222 151.511L27.7641 153.884L35.1957 149.533L39.1069 153.884ZM15.639 150.72L13.2922 148.346L15.639 148.346L24.2439 148.346L15.639 150.72ZM28.1553 137.667L30.502 140.831L35.9778 140.831L29.7197 142.809L29.7197 140.04L23.8528 140.04L17.9857 136.481L14.4655 136.481L18.377 134.107L23.8528 137.667L28.1553 137.667ZM37.5424 130.152L39.1069 130.152L34.8045 127.779L29.7197 130.152C31.7998 129.927 33.8977 129.927 35.9778 130.152L37.5424 130.152ZM23.0705 124.219L15.2478 127.384L12.5099 125.01L12.5099 122.637L15.639 125.801L23.0705 124.219ZM35.5867 118.682L35.5867 121.055L32.4578 121.055L28.9376 121.055L25.4174 117.496L18.768 117.496L25.8084 113.936L28.9376 117.891L35.5867 118.682Z" fill="black"/>
<path d="M84.2318 176.294L97.0849 169.262L97.0849 117.699L67.8734 122.777L55.7992 129.418L55.7992 172.387L55.7992 180.591L70.9892 180.591L70.9892 186.45L57.7466 194.263L50.7358 242.701L80.7264 238.404L83.4528 234.888L95.1374 229.029L97.0849 180.2L85.7897 180.2L82.2844 180.2L84.2318 176.294ZM80.3369 131.762L77.221 129.418L79.1684 129.418L84.2318 129.418L81.8948 129.418L80.3369 131.762ZM87.7371 131.762L90.4635 131.762L93.1899 131.762L90.0741 131.762L87.3477 131.762L87.7371 131.762ZM59.694 143.481L57.7466 143.481L59.694 143.481L62.81 141.137C64.237 141.058 65.6673 141.058 67.0944 141.137C69.0378 141.314 70.9931 141.314 72.9366 141.137L67.4838 144.262L63.1994 141.918L59.694 143.481ZM80.3369 143.481L84.2318 143.481L86.1792 143.481L80.3369 145.824L80.3369 143.481ZM88.5161 143.481L92.8005 143.481L89.6846 143.481L88.5161 143.481ZM88.5161 152.856L91.632 155.199L88.9056 155.199L86.5687 157.543L88.9056 155.199L91.632 153.246L88.5161 152.856ZM75.2736 152.856L79.558 152.856L77.221 152.856L75.2736 152.856ZM69.0418 152.856L71.3788 152.856L73.7156 152.856L69.0418 152.856ZM56.9676 152.856L58.915 152.856L58.915 150.903L62.031 150.903L60.0836 152.856L56.9676 152.856ZM56.9676 164.184L59.3046 164.184L63.589 161.84L60.0836 164.575L67.0944 164.575L64.7574 164.575L56.9676 164.184ZM76.442 164.184L72.5472 161.84C72.5472 161.84 74.8841 161.84 75.2736 161.84L77.6105 161.84L80.7264 158.715L82.6738 158.715L85.7897 158.715L91.2425 158.715L85.7897 161.84L82.2844 161.84C80.8105 162.678 79.3805 163.59 78 164.575L76.442 164.184ZM71.7682 173.559L68.6522 170.825L64.368 173.559L61.6416 173.559L56.9676 176.294L61.252 171.997L63.9784 171.997L67.0944 169.653L70.2102 173.559L71.7682 173.559ZM71.7682 233.716L69.4312 233.716L71.3788 233.716L71.7682 233.716ZM67.4838 233.716L63.1994 236.841L60.0836 236.841L56.9676 236.841L60.0836 234.888L62.81 236.841L65.9258 234.498L67.4838 233.716ZM61.252 225.513L63.589 225.513L67.4838 225.513L63.9784 227.466L61.252 225.513ZM81.5054 225.513L84.2318 225.513L88.9056 225.513L84.6212 228.248L82.2844 228.248C81.507 228.319 80.7247 228.319 79.9474 228.248L82.2844 228.248L81.5054 225.513ZM68.6522 225.513L71.7682 225.513L68.6522 225.513ZM68.6522 218.482L65.5364 218.482L62.4204 218.482L58.915 218.482L62.4204 218.482L65.5364 218.482L68.6522 218.482L73.7156 218.482L76.8316 218.482L80.3369 218.482L76.442 218.482L72.9366 216.138L68.6522 218.482ZM91.632 214.966L88.5161 214.966L85.7897 216.919L90.4635 216.919L91.632 214.966ZM91.632 205.591L88.1266 205.591L88.1266 203.638C87.4795 203.564 86.8262 203.564 86.1792 203.638L88.9056 203.638L92.411 201.294L91.632 205.591ZM64.368 209.107L61.252 209.107L56.9676 209.107L56.9676 206.763L59.3046 206.763L61.6416 206.763L68.6522 203.638L64.368 209.107ZM72.1576 195.044L78 197.388L81.1159 195.044L83.8423 195.044L81.5054 195.044L79.558 195.044L72.1576 195.044ZM92.411 195.044L89.2951 195.044L86.1792 195.044L90.4635 192.7L92.411 195.044Z" fill="black"/>
<path d="M216.256 176.294L229.109 169.262L229.109 117.699L199.898 122.777L187.824 129.418L187.824 172.387L187.824 180.591L203.014 180.591L203.014 186.45L189.771 194.263L182.76 242.701L212.751 238.404L215.477 234.888L227.162 229.029L229.109 180.2L217.814 180.2L214.309 180.2L216.256 176.294ZM212.361 131.762L209.245 129.418L211.193 129.418L216.256 129.418L213.919 129.418L212.361 131.762ZM219.762 131.762L222.488 131.762L225.214 131.762L222.099 131.762L219.372 131.762L219.762 131.762ZM191.718 143.481L189.771 143.481L191.718 143.481L194.834 141.137C196.261 141.058 197.692 141.058 199.119 141.137C201.062 141.314 203.018 141.314 204.961 141.137L199.508 144.262L195.224 141.918L191.718 143.481ZM212.361 143.481L216.256 143.481L218.204 143.481L212.361 145.824L212.361 143.481ZM220.541 143.481L224.825 143.481L221.709 143.481L220.541 143.481ZM220.541 152.856L223.656 155.199L220.93 155.199L218.593 157.543L220.93 155.199L223.656 153.246L220.541 152.856ZM207.298 152.856L211.582 152.856L209.245 152.856L207.298 152.856ZM201.066 152.856L203.403 152.856L205.74 152.856L201.066 152.856ZM188.992 152.856L190.939 152.856L190.939 150.903L194.055 150.903L192.108 152.856L188.992 152.856ZM188.992 164.184L191.329 164.184L195.613 161.84L192.108 164.575L199.119 164.575L196.782 164.575L188.992 164.184ZM208.466 164.184L204.572 161.84C204.572 161.84 206.908 161.84 207.298 161.84L209.635 161.84L212.751 158.715L214.698 158.715L217.814 158.715L223.267 158.715L217.814 161.84L214.309 161.84C212.835 162.678 211.405 163.59 210.024 164.575L208.466 164.184ZM203.793 173.559L200.677 170.825L196.392 173.559L193.666 173.559L188.992 176.294L193.276 171.997L196.003 171.997L199.119 169.653L202.235 173.559L203.793 173.559ZM203.793 233.716L201.456 233.716L203.403 233.716L203.793 233.716ZM199.508 233.716L195.224 236.841L192.108 236.841L188.992 236.841L192.108 234.888L194.834 236.841L197.95 234.498L199.508 233.716ZM193.276 225.513L195.613 225.513L199.508 225.513L196.003 227.466L193.276 225.513ZM213.53 225.513L216.256 225.513L220.93 225.513L216.646 228.248L214.309 228.248C213.531 228.319 212.749 228.319 211.972 228.248L214.309 228.248L213.53 225.513ZM200.677 225.513L203.793 225.513L200.677 225.513ZM200.677 218.482L197.561 218.482L194.445 218.482L190.939 218.482L194.445 218.482L197.561 218.482L200.677 218.482L205.74 218.482L208.856 218.482L212.361 218.482L208.466 218.482L204.961 216.138L200.677 218.482ZM223.656 214.966L220.541 214.966L217.814 216.919L222.488 216.919L223.656 214.966ZM223.656 205.591L220.151 205.591L220.151 203.638C219.504 203.564 218.851 203.564 218.204 203.638L220.93 203.638L224.435 201.294L223.656 205.591ZM196.392 209.107L193.276 209.107L188.992 209.107L188.992 206.763L191.329 206.763L193.666 206.763L200.677 203.638L196.392 209.107ZM204.182 195.044L210.024 197.388L213.14 195.044L215.867 195.044L213.53 195.044L211.582 195.044L204.182 195.044ZM224.435 195.044L221.32 195.044L218.204 195.044L222.488 192.7L224.435 195.044Z" fill="black"/>
<path d="M114.008 140.694C115.433 140.798 116.864 140.798 118.289 140.694L117.121 140.694L114.008 140.694L114.008 182.242L114.008 186.161L142.03 196.352L142.03 188.121L139.695 188.121L136.192 188.121L142.03 188.121L142.03 183.81L142.03 154.805L138.917 154.805L134.246 154.805L131.522 154.805L131.522 151.669L136.582 151.669L138.917 151.669L138.917 141.87L123.738 136.775L123.738 133.639L109.727 128.935L109.727 138.342C111.209 139.019 112.64 139.805 114.008 140.694ZM135.803 175.186L132.3 175.186C130.575 175.882 128.886 176.667 127.241 177.538C127.241 177.538 130.354 175.187 130.354 174.795C131.519 174.682 132.692 174.682 133.857 174.795L135.803 175.186ZM124.127 171.659L121.013 171.659L115.565 171.659L118.678 171.659L124.906 169.307L124.127 171.659ZM120.235 160.684L123.349 163.036L126.852 163.036L126.852 164.996L126.852 167.347L131.133 167.347L126.852 169.307L124.127 166.171L120.624 166.171L118.678 166.171L115.175 166.171L112.451 166.171L115.175 166.171L120.235 160.684ZM123.738 149.317L120.235 149.317L124.516 149.317L123.738 149.317ZM116.732 149.317L119.067 149.317L116.343 149.317L116.732 149.317Z" fill="black"/>
<path d="M246.032 140.694C247.457 140.798 248.888 140.798 250.313 140.694L249.146 140.694L246.032 140.694L246.032 182.242L246.032 186.161L274.055 196.352L274.055 188.121L271.72 188.121L268.217 188.121L274.055 188.121L274.055 183.81L274.055 154.805L270.941 154.805L266.271 154.805L263.546 154.805L263.546 151.669L268.606 151.669L270.941 151.669L270.941 141.87L255.762 136.775L255.762 133.639L241.751 128.935L241.751 138.342C243.234 139.019 244.664 139.805 246.032 140.694ZM267.828 175.186L264.325 175.186C262.599 175.882 260.91 176.667 259.265 177.538C259.265 177.538 262.379 175.187 262.379 174.795C263.544 174.682 264.717 174.682 265.882 174.795L267.828 175.186ZM256.151 171.659L253.038 171.659L247.589 171.659L250.703 171.659L256.93 169.307L256.151 171.659ZM252.26 160.684L255.373 163.036L258.876 163.036L258.876 164.996L258.876 167.347L263.157 167.347L258.876 169.307L256.151 166.171L252.649 166.171L250.703 166.171L247.2 166.171L244.475 166.171L247.2 166.171L252.26 160.684ZM255.762 149.317L252.26 149.317L256.541 149.317L255.762 149.317ZM248.757 149.317L251.092 149.317L248.367 149.317L248.757 149.317Z" fill="black"/>
<path d="M171.509 165.368L167.569 165.368L164.418 165.368L160.084 165.368L156.539 168.092L152.205 168.092L149.054 170.817L149.054 190.666L151.417 188.331L156.145 188.331L152.599 188.331L149.054 188.331L149.054 194.947L166.781 190.277L171.115 184.828L174.66 184.828L181.358 181.714L181.358 176.655L181.358 173.541L178.994 173.541L175.842 173.541L173.479 175.876L171.115 175.876L168.357 175.876L164.024 179.768L167.963 175.098L171.115 175.098L173.479 172.763L176.236 172.763L179.388 172.763L179.388 162.643L176.63 162.643L171.509 165.368Z" fill="black"/>
<path d="M303.533 165.368L299.593 165.368L296.442 165.368L292.108 165.368L288.563 168.092L284.229 168.092L281.078 170.817L281.078 190.666L283.441 188.331L288.169 188.331L284.623 188.331L281.078 188.331L281.078 194.947L298.805 190.277L303.139 184.828L306.684 184.828L313.382 181.714L313.382 176.655L313.382 173.541L311.018 173.541L307.866 173.541L305.502 175.876L303.139 175.876L300.381 175.876L296.048 179.768L299.987 175.098L303.139 175.098L305.502 172.763L308.26 172.763L311.412 172.763L311.412 162.643L308.654 162.643L303.533 165.368Z" fill="black"/>
<path d="M146.612 146.836L146.612 157.358L149.755 157.358L152.111 157.358L148.576 157.358L146.22 160.191L141.899 160.191L141.899 165.452L144.648 165.452L146.612 163.428L156.039 165.452L158.396 165.452L160.753 165.452L163.895 163.024L167.43 163.024L170.572 160.596L172.929 160.596C172.546 158.048 172.546 155.454 172.929 152.906L170.18 152.906L167.823 156.144L165.073 156.144C165.073 156.144 163.109 156.144 162.717 156.144L162.717 158.572L160.36 158.572L156.825 158.572L159.574 158.572L159.574 156.549L164.681 156.549L167.43 154.121L171.358 154.121L171.358 146.027L169.001 148.05L163.895 148.05L163.895 150.074L160.36 150.074L158.396 150.074L154.468 152.906L154.468 150.478L154.468 148.455L156.432 148.455L156.432 150.883L158.789 150.883L163.109 150.883L163.109 141.575L126.58 150.478L146.612 146.836Z" fill="black"/>
<path d="M278.636 146.836L278.636 157.358L281.779 157.358L284.135 157.358L280.6 157.358L278.243 160.191L273.923 160.191L273.923 165.452L276.672 165.452L278.636 163.428L288.063 165.452L290.42 165.452L292.777 165.452L295.919 163.024L299.454 163.024L302.596 160.596L304.953 160.596C304.57 158.048 304.57 155.454 304.953 152.906L302.204 152.906L299.847 156.144L297.097 156.144C297.097 156.144 295.133 156.144 294.74 156.144L294.74 158.572L292.384 158.572L288.849 158.572L291.598 158.572L291.598 156.549L296.705 156.549L299.454 154.121L303.382 154.121L303.382 146.027L301.025 148.05L295.919 148.05L295.919 150.074L292.384 150.074L290.42 150.074L286.492 152.906L286.492 150.478L286.492 148.455L288.456 148.455L288.456 150.883L290.813 150.883L295.133 150.883L295.133 141.575L258.604 150.478L278.636 146.836Z" fill="black"/>
</g>
</g>
</svg>
