<svg width="137" height="116" viewBox="0 0 137 116" fill="none" xmlns="http://www.w3.org/2000/svg">
<g opacity="0.23">
<path fillRule="evenodd" clipRule="evenodd" d="M73.7146 55.4008H61.2391C61.1859 55.2094 61.1098 55.0239 61.0122 54.8477L69.9089 46.8047C72.0399 49.2927 73.3591 52.2804 73.7146 55.4239V55.4008ZM37.3213 58.8116L49.7717 58.9268C49.845 59.1076 49.9291 59.2845 50.0237 59.4569L41.0766 67.5459C38.938 65.0224 37.6348 61.9913 37.3213 58.8116ZM58.1895 52.1283L57.635 51.9209L57.761 40.398C61.1931 40.7739 64.4368 42.037 67.1114 44.0392L58.1895 52.1283ZM57.509 62.3837L58.0887 62.1532L66.8342 70.2884C64.1062 72.241 60.8295 73.4475 57.383 73.7683L57.509 62.3837ZM52.8716 62.1071L53.4513 62.3376V73.7222C50.0167 73.3552 46.7704 72.091 44.101 70.081L52.8716 62.1071ZM53.5521 51.8748L52.9977 52.0822L44.2522 43.924C46.9682 41.9677 50.2381 40.7605 53.6782 40.4441L53.5521 51.8748ZM54.0814 58.3968C53.8937 58.2243 53.7457 58.0193 53.6461 57.7936C53.5466 57.568 53.4975 57.3264 53.5017 57.0832C53.5068 56.837 53.5651 56.5943 53.6733 56.3688C53.7814 56.1434 53.9372 55.9397 54.1318 55.7695C54.3204 55.5979 54.5447 55.4626 54.7914 55.3715C55.0382 55.2805 55.3024 55.2356 55.5684 55.2395C55.8401 55.2431 56.1081 55.2983 56.3553 55.4014C56.6026 55.5045 56.8238 55.6534 57.0049 55.8387C57.1943 56.0052 57.3437 56.2059 57.4435 56.4281C57.5433 56.6503 57.5914 56.8891 57.5846 57.1293C57.5649 57.6292 57.3293 58.1016 56.9293 58.4429C56.7347 58.6164 56.5033 58.7516 56.2494 58.8402C55.9955 58.9288 55.7244 58.969 55.4529 58.9582C55.1814 58.9474 54.9152 58.8859 54.6706 58.7774C54.4261 58.669 54.2084 58.5159 54.031 58.3276L54.0814 58.3968ZM37.3213 55.0782C37.7213 51.9372 39.104 48.9684 41.3034 46.5282L49.9229 54.6634C49.8284 54.8357 49.7442 55.0126 49.6708 55.1934L37.3213 55.0782ZM73.6642 59.1342C73.2573 62.2735 71.8754 65.2406 69.6821 67.6842L60.9619 59.5491C60.9619 59.3877 61.1382 59.2034 61.2139 59.019L73.6642 59.1342ZM39.8417 42.4952C36.1456 45.8101 33.8208 50.1942 33.2631 54.9007C32.7054 59.6071 33.9494 64.3448 36.7832 68.3067C39.617 72.2686 43.8653 75.2095 48.8043 76.6286C53.7434 78.0477 59.0678 77.8572 63.8704 76.0894C68.6731 74.3217 72.6569 71.086 75.1434 66.9338C77.6298 62.7815 78.4651 57.9694 77.5068 53.3172C76.5485 48.6649 73.856 44.4604 69.888 41.4198C65.9199 38.3792 60.9217 36.6905 55.7448 36.6415C52.8024 36.6074 49.8818 37.1071 47.1521 38.1119C44.4223 39.1167 41.9376 40.6065 39.8417 42.4952Z" fill="#C4C4C4" stroke="#C4C4C4"/>
<path fillRule="evenodd" clipRule="evenodd" d="M118.73 40.9293L119.133 3.71044L132.214 4.28658L118.73 40.9293ZM98.4417 35.2831L98.7189 10.9698V8.96487L114.95 7.60516L114.647 36.9655L98.4417 35.2831ZM81.9338 57.3379C81.8848 62.5227 80.0176 67.5562 76.6068 71.6982C73.196 75.8403 68.4216 78.8721 62.9859 80.3479C57.5502 81.8237 51.74 81.6656 46.4099 79.8967C41.0798 78.1278 36.5111 74.8416 33.3758 70.5214C30.2405 66.2012 28.7041 61.075 28.9925 55.8967C29.2809 50.7185 31.3789 45.7615 34.978 41.7549C38.577 37.7483 43.4872 34.9036 48.9863 33.639C54.4853 32.3745 60.283 32.7569 65.5266 34.73C70.415 36.5728 74.5892 39.7101 77.5128 43.7387C80.4364 47.7672 81.976 52.5031 81.9338 57.3379ZM106.305 58.905C105.97 67.0961 103.237 75.055 98.3913 81.9508C94.1701 88.0135 88.4892 93.1136 81.7825 96.8614C77.122 99.5073 72.0112 101.423 66.6608 102.531C63.8947 103.111 61.0777 103.466 58.243 103.591C47.6939 104.106 37.2306 101.61 28.3019 96.4466C20.9553 92.2185 14.9144 86.3414 10.7543 79.3748C6.59421 72.4081 4.45337 64.5837 4.53557 56.6465C4.5606 54.328 4.79664 52.0155 5.24125 49.7328C6.40586 43.6424 8.98402 37.8508 12.8021 32.7481C17.2309 26.8098 23.1171 21.9009 29.9905 18.4136C37.8295 14.441 46.66 12.3926 55.6219 12.4678L86.4703 12.7444V20.1881H90.5532V12.7444H94.6108L94.4092 31.3653H90.3515V23.9216H86.2686V31.3653L66.6608 31.181C63.1989 29.9065 59.5049 29.2419 55.7731 29.2221C48.526 29.1583 41.4905 31.4548 35.9257 35.7006C30.361 39.9464 26.6302 45.8644 25.4009 52.3956C24.1716 58.9267 25.5242 65.6447 29.2165 71.3474C32.9088 77.05 38.6998 81.3651 45.5533 83.5204C52.4068 85.6757 59.8754 85.5306 66.6226 83.111C73.3698 80.6915 78.9551 76.1553 82.3792 70.3144C85.8032 64.4735 86.8425 57.709 85.3109 51.2316C83.7794 44.7541 79.777 38.9863 74.0201 34.9605L94.384 35.1448V35.2831C94.3732 36.2141 94.7456 37.1147 95.4272 37.8063C96.1088 38.4978 97.0499 38.9299 98.0636 39.0165L102.525 39.4774C105.318 45.6239 106.609 52.2546 106.305 58.905ZM61.721 111.15L48.0358 111.011C47.5656 111.007 47.1117 110.853 46.7527 110.575C46.3938 110.298 46.1523 109.914 46.07 109.49L45.4399 106.518C48.5744 107.048 51.7538 107.326 54.9414 107.347C56.1008 107.347 57.2349 107.347 58.3942 107.347C60.4136 107.235 62.4245 107.019 64.4177 106.702L63.7373 109.698C63.6293 110.112 63.3714 110.481 63.0055 110.745C62.6395 111.008 62.1869 111.151 61.721 111.15ZM20.6907 99.6269C20.3023 99.8547 19.8402 99.9538 19.3815 99.9077C18.9228 99.8616 18.4953 99.673 18.1704 99.3734L8.61843 90.4777C8.2988 90.1756 8.10005 89.7837 8.05431 89.3655C8.00857 88.9472 8.11855 88.5271 8.36642 88.1731L10.2314 85.6611C13.8517 90.4651 18.3538 94.6598 23.5386 98.0598L20.6907 99.6269ZM118.352 0.530113C116.109 0.530113 115.101 1.63632 115.076 3.68739V3.87176L98.4669 5.27755C97.4435 5.34651 96.4854 5.76318 95.7812 6.44558C95.0769 7.12797 94.6773 8.02668 94.6612 8.96487V9.10314L55.6723 8.73441C46.5745 8.70475 37.6052 10.6978 29.5369 14.5419L23.8914 11.0159C22.7258 10.2874 21.32 9.9512 19.9136 10.0647C18.5072 10.1781 17.1874 10.7343 16.1793 11.6382L6.4006 20.4186C5.4379 21.3208 4.833 22.4915 4.68228 23.7445C4.53156 24.9974 4.84368 26.2604 5.5689 27.3323L8.69404 31.711C3.48111 39.1477 0.644149 47.7682 0.503085 56.6004C0.399153 65.5491 2.92323 74.3594 7.81196 82.1121L4.93882 85.9838C4.1421 87.0496 3.7744 88.3352 3.8985 89.6212C4.02259 90.9072 4.63076 92.114 5.61928 93.0358L15.1964 101.978C16.1832 102.907 17.4941 103.491 18.9024 103.63C20.3106 103.769 21.7277 103.453 22.9085 102.738L27.193 100.18C31.5309 102.565 36.2141 104.38 41.105 105.573L42.0627 110.182C42.3189 111.46 43.0514 112.618 44.1358 113.458C45.2202 114.299 46.5894 114.77 48.0106 114.791H61.6706C63.0808 114.799 64.4514 114.364 65.5526 113.559C66.6538 112.753 67.4188 111.626 67.7193 110.366L68.7778 105.757C93.2247 100.595 117.067 74.9218 107.111 39.8692L114.672 40.6528V40.8141C113.538 45.2158 114.975 44.9162 119.713 42.9113C122.989 41.4824 134.003 8.15827 135.717 3.29561C135.591 0.553169 121.603 0.553172 118.352 0.50708V0.530113Z" fill="#C4C4C4" stroke="#C4C4C4"/>
<path fillRule="evenodd" clipRule="evenodd" d="M98.2306 57.4975C98.2256 57.8666 98.101 58.2262 97.8725 58.5306C97.644 58.835 97.322 59.0706 96.9471 59.2076C96.5722 59.3447 96.1613 59.377 95.7663 59.3005C95.3713 59.224 95.01 59.0421 94.7281 58.7779C94.4461 58.5136 94.2562 58.1788 94.1823 57.8159C94.1084 57.4529 94.1539 57.0781 94.313 56.7388C94.4721 56.3994 94.7377 56.1109 95.0761 55.9096C95.4145 55.7083 95.8106 55.6032 96.2143 55.6077C96.7537 55.6198 97.2664 55.8242 97.6432 56.1773C98.0199 56.5304 98.2307 57.0042 98.2306 57.4975ZM90.0901 57.4975C90.0801 58.6005 90.4281 59.6814 91.09 60.6035C91.7518 61.5257 92.6979 62.2477 93.8085 62.6782C94.9191 63.1087 96.1444 63.2283 97.3294 63.0221C98.5144 62.8158 99.6059 62.2929 100.466 61.5194C101.326 60.746 101.916 59.7567 102.161 58.6766C102.406 57.5966 102.295 56.4744 101.843 55.4519C101.391 54.4294 100.617 53.5525 99.6193 52.9321C98.622 52.3117 97.4458 51.9757 96.2396 51.9665C94.6329 51.948 93.0837 52.5124 91.9312 53.5361C90.7786 54.5598 90.1166 55.9593 90.0901 57.4284V57.4975Z" fill="#C4C4C4" stroke="#C4C4C4"/>
<path fillRule="evenodd" clipRule="evenodd" d="M12.7282 56.7153C12.7761 51.4702 13.985 46.2884 16.2818 41.482L12.5266 40.0071C9.46646 46.4813 8.2027 53.5464 8.84754 60.5747C9.49238 67.603 12.0258 74.3769 16.2229 80.2943C20.4199 86.2118 26.1505 91.0896 32.9054 94.4943C39.6603 97.8991 47.2305 99.7253 54.9431 99.8108V96.1005C43.6149 95.9728 32.8031 91.7477 24.873 84.3495C16.9428 76.9512 12.5399 66.9821 12.6274 56.6231" fill="#C4C4C4"/>
<path d="M12.7282 56.7153C12.7761 51.4702 13.985 46.2884 16.2818 41.482L12.5266 40.0071C9.46646 46.4813 8.2027 53.5464 8.84754 60.5747C9.49238 67.603 12.0258 74.3769 16.2229 80.2943C20.4199 86.2118 26.1505 91.0896 32.9054 94.4943C39.6603 97.8991 47.2305 99.7253 54.9431 99.8108V96.1005C43.6149 95.9728 32.8031 91.7477 24.873 84.3495C16.9428 76.9512 12.5399 66.9821 12.6274 56.6231" stroke="#C4C4C4"/>
</g>
</svg>
